<?xml version="1.0" encoding="utf-8"?>
<!-- Generator: Adobe Illustrator 26.0.0, SVG Export Plug-In . SVG Version: 6.00 Build 0)  -->
<svg version="1.1" id="Layer_1" xmlns="http://www.w3.org/2000/svg" xmlns:xlink="http://www.w3.org/1999/xlink" x="0px" y="0px"
	 viewBox="0 0 433.3 392" style="enable-background:new 0 0 433.3 392;" xml:space="preserve">
<style type="text/css">
	.st0{fill:#F6B502;}
</style>
<path class="st0" d="M78,242.4c-42.9-6.8-70.2-27.9-77-70.2c-5.4-33.4,10.2-64.7,38.8-80.4c38.1-20.4,72.9-12.9,106.3,19.8
	c-7.5-38.1-3.4-69.5,25.2-92.6c17-14.3,37.5-21.1,59.3-18.4c55.2,6.8,80.4,49.7,66.8,117.8c30-19.1,59.9-25.2,92-9.5
	c20.4,10.2,34.1,27.2,40.2,49.7c15,53.1-15.7,89.9-87.2,104.9c14.3,55.9,6.8,85.1-27.2,100.1c-36.1,16.3-72.9,0-106.3-48.4
	c-6.8,36.8-25.2,64-61.3,73.6c-22.5,6.1-45,3.4-65.4-10.2C39.2,349.4,36.5,297.6,78,242.4 M152.3,204.3c0,30,26.6,57.2,56.5,57.2
	c30,0,56.5-25.9,56.5-56.5c0-31.3-24.5-56.5-55.9-56.5C178.2,148.4,152.3,174.3,152.3,204.3"/>
</svg>
