<svg xmlns="http://www.w3.org/2000/svg" width="129" height="123" fill="none"><path d="M82.673 5.853c7.23 17.822 20.969 1.381 25.176-.46C98.318 31.238 118.17 34 120.865 34c1.249 0-9.334 10.325-7.625 14.008 1.84 3.88 10.517 7.234 14.79 7.629-5.522.79-10.254 5.327-11.372 10.785-1.117 5.459 1.578 11.444 6.311 14.337-4.273-.263-8.086 2.236-11.504 4.801-19.195 14.534-13.41 25.911-11.767 35.381-9.268-6.379-17.945-5.721-29.186-5.129-6.902.394-14.002 2.302-18.866 7.168-.066-5.853-3.615-11.377-8.48-14.731-4.864-3.354-10.32-2.96-16.434.723 2.63-3.551 1.446-14.468-1.512-17.69-2.958-3.289-11.57-2.631-15.973-3.026 4.47-5.918 8.282-16.572 5.193-23.346C11.35 58.136 5.96 52.743.504 47.68c7.297-1.447 14.725-5.656 17.223-12.693 2.169-5.985.394-12.627.46-19.006C33.832 22.755 47.637 12.956 58.68 0c8.677 20.913 23.796 5.787 23.993 5.853z" fill="#DD4525"></path><path d="M104.86 63.27c1.866-22.33-14.716-41.948-37.037-43.815-22.322-1.868-41.93 14.722-43.797 37.053-1.866 22.332 14.716 41.949 37.037 43.816 22.322 1.868 41.93-14.722 43.797-37.053z" fill="#EFC12D"></path><path d="M54.275 50.442c.263 1.512-1.643 5.195-6.113 4.8-3.024-.263-4.93-2.236-4.142-5.458m38.39 4.866c.264 1.513-1.642 5.196-6.112 4.801-3.024-.263-4.142-2.236-4.142-5.458M59.204 60.24c-.263 1.184-.526 2.368-.328 3.552.197 1.184 1.051 2.367 2.235 2.565 1.248.263 2.498-.658 3.09-1.71.59-1.118.722-2.434.788-3.683" stroke="#151D2C" stroke-width="2.159" stroke-miterlimit="10" stroke-linecap="round" stroke-linejoin="round"></path><path d="M90.495 66.028c0 1.907-2.498 3.485-5.587 3.485-3.09 0-5.588-1.578-5.588-3.485 0-1.907 2.498-3.486 5.588-3.486 3.024-.066 5.587 1.513 5.587 3.486zm-47.264-4.472c-.854 1.71-3.812 2.038-6.573.723-2.761-1.38-4.339-3.88-3.484-5.59.854-1.71 3.813-2.038 6.573-.723 2.761 1.315 4.339 3.88 3.484 5.59z" fill="#D47577"></path></svg>