<svg xmlns="http://www.w3.org/2000/svg" width="83" height="79" fill="none"><path d="M0 61.858c.105-8.22 2.633-16.228 5.32-23.973 5.055-14.7 12.375-30.717 26.963-36.144 11.428-4.215 24.91-.263 33.863 8.009s13.851 20.232 15.747 32.297c1.896 12.066 1 24.342-.053 36.513" fill="#DD4525"></path><path d="M6.637 63.334c.105-6.85 2.212-13.541 4.476-20.022 4.213-12.276 10.322-25.659 22.488-30.137 9.532-3.53 20.75-.211 28.228 6.69 7.478 6.903 11.586 16.914 13.113 26.977 1.58 10.064.843 20.338-.052 30.507" fill="#EFC12D"></path><path d="M14.008 64.914c.105-5.374 1.738-10.538 3.476-15.648 3.317-9.59 8.057-20.022 17.537-23.552 7.478-2.74 16.22-.158 22.066 5.216 5.846 5.427 9.006 13.172 10.27 21.076 1.211 7.85.632 15.859-.053 23.814" fill="#60A973"></path><path d="M20.75 66.39c.053-4.005 1.264-7.851 2.58-11.645 2.476-7.113 6.004-14.91 13.061-17.492 5.53-2.055 12.06-.105 16.379 3.899 4.318 4.004 6.688 9.8 7.636 15.648.895 5.849.474 11.802 0 17.703" fill="#182A98"></path><path d="M28.123 68.023c.053-2.477.79-4.9 1.633-7.218 1.527-4.426 3.739-9.274 8.11-10.907 3.476-1.265 7.478-.053 10.217 2.424 2.686 2.476 4.16 6.111 4.74 9.747.579 3.635.316 7.324 0 11.012" fill="#DE56C1"></path><path d="M33.125 71.342c.053-1.633.527-3.214 1.053-4.742.948-2.898 2.265-6.112 4.74-7.27 1.949-.896 4.16-.212 5.635 1.369 1.422 1.58 2.212 3.899 2.423 6.217.21 2.371 0 4.742-.264 7.166" fill="#fff"></path></svg>