<svg xmlns="http://www.w3.org/2000/svg" width="58" height="64" fill="none"><path d="M25.59 30.775S34.785 60.478 37.16 62.7c2.375 2.22 13.485 2.679 11.646-8.421l-3.218.076s-.23 6.813-4.98 5.206c-3.601-1.225-12.183-29.627-12.183-29.627l-2.835.842zM18.005 9.493S12.49 1.684 16.55.153c4.674-1.684 4.444 7.885 4.444 7.885l-2.988 1.455z" fill="#B0C9EB"></path><path d="M56.008 21.818s1.532-.689 1.15-2.143C56.773 18.143 41.986 4.287 19.69 7.12c0 0-7.892 2.832-14.558 13.703C-1.456 31.693-.843 47.617 2.3 47.847c3.37.23 1.685-7.35 6.895-8.804 5.21-1.454 8.428 4.67 11.263 3.828 3.218-.995-.23-8.804 5.9-11.254 6.13-2.45 8.964 4.747 12.718 3.445 3.371-1.148.69-6.966 5.67-9.952 4.98-2.986 11.57.842 12.872-1.454 1.379-2.297-1.61-1.838-1.61-1.838zm-14.404 1.455c-2.988 2.373-3.065 8.115-4.138 8.65-1.072.536-6.13-4.67-12.489-2.373-6.359 2.297-5.67 9.493-6.435 9.876-.767.383-5.057-4.593-9.654-3.445-4.52 1.225-6.436 5.435-6.436 5.435S.996 35.828 6.206 24.115c5.21-11.713 14.098-14.316 14.098-14.316 23.522-2.067 34.095 12.325 34.095 12.325s-9.807-1.148-12.795 1.149z" fill="#F0B5BE"></path><path d="M18.312 11.407c.996-.766-5.057 9.722-.46 25.493 0 0-2.375-4.976-7.738-2.986-5.364 1.99-.767-15.081 8.198-22.507zm3.524 0c-.383 2.067 7.662 4.287 14.021 17.837 0 0 .92-6.43 7.126-8.88 4.75-1.838-20.764-11.024-21.147-8.957z" fill="#F0B5BE"></path><path d="M13.332 18.067s.153.536.383.46c.23-.077.46-.46.23-.69-.23-.153-.614.23-.614.23zm-1.992 2.909s.153.536.383.46c.23-.077.46-.46.23-.69-.23-.23-.614.23-.614.23zm-1.993 2.833s.154.535.383.459c.23-.077.46-.46.23-.689-.23-.23-.613.23-.613.23zm-1.302 3.138s.153.536.383.46c.23-.077.46-.46.23-.69-.23-.229-.613.23-.613.23zm-1.149 3.216s.153.536.383.459c.23-.077.46-.46.23-.689-.23-.153-.613.23-.613.23zm-1.15 3.292s.154.535.383.459c.23-.077.46-.46.23-.69-.23-.152-.613.23-.613.23zm8.811-16.001s.154.536.384.46c.23-.077.46-.46.23-.69-.23-.152-.614.23-.614.23zm-1.992 2.833s.154.536.383.46c.23-.077.46-.46.23-.69-.23-.23-.613.23-.613.23zm-2.068 2.756s.153.536.383.46c.23-.077.46-.46.23-.69-.154-.153-.613.23-.613.23zM9.04 26.182s.154.536.384.46c.23-.077.46-.46.23-.69-.23-.153-.613.23-.613.23zM7.585 29.32s.153.537.383.46c.23-.077.46-.46.23-.69-.23-.229-.613.23-.613.23z" fill="#F0B5BE"></path><path d="M13.638 18.373s.153.536.383.46c.23-.077.46-.46.23-.69-.23-.23-.613.23-.613.23zm-2.222 2.68s.153.535.383.459c.23-.077.46-.46.23-.689-.23-.23-.613.23-.613.23zM9.73 24.038s.154.536.384.46c.23-.077.46-.46.23-.69-.23-.229-.614.23-.614.23zM8.275 27.1s.153.536.383.46c.23-.077.46-.46.23-.69-.23-.152-.613.23-.613.23zm-1.609 1.914s.153.536.383.46c.23-.077.46-.46.23-.69-.154-.152-.613.23-.613.23zm1.072-3.291s.154.535.383.459c.23-.077.46-.46.23-.69-.23-.152-.613.23-.613.23zm1.686-2.986s.153.536.383.46c.23-.077.46-.46.23-.69-.23-.23-.613.23-.613.23zm1.686-2.986s.153.536.383.46c.23-.077.46-.46.23-.69-.154-.23-.613.23-.613.23zM5.823 31.005s.153.536.383.46c.23-.078.46-.46.23-.69-.23-.153-.613.23-.613.23zm35.321-12.249s.153.536.383.46c.23-.077.46-.46.23-.69-.23-.23-.613.23-.613.23zm-2.682-2.22s.154.536.383.46c.23-.077.46-.46.23-.69-.23-.153-.613.23-.613.23zm-3.218-1.302s.154.536.383.46c.23-.077.46-.46.23-.69-.23-.152-.613.23-.613.23zm-3.294-.765s.153.536.383.46c.23-.077.46-.46.23-.69-.23-.153-.613.23-.613.23zm-3.448-.536s.153.536.383.46c.23-.077.46-.46.23-.69-.23-.153-.613.23-.613.23zm-3.448-.459s.153.535.383.459c.23-.077.46-.46.23-.689-.153-.23-.613.23-.613.23zm18.006 5.129s.153.536.383.46c.23-.077.46-.46.23-.69-.23-.153-.614.23-.614.23zm-3.065-1.684s.153.536.383.459c.23-.077.46-.46.23-.689-.153-.23-.613.23-.613.23zm-2.988-1.761s.153.536.383.46c.23-.077.46-.46.23-.69-.154-.153-.613.23-.613.23zm-3.218-1.148s.153.536.383.459c.23-.077.46-.46.23-.69-.154-.152-.613.23-.613.23zm-3.371-.766s.153.536.383.46c.23-.077.46-.46.23-.69-.154-.153-.613.23-.613.23zm-3.372-.765s.154.535.383.459c.23-.077.46-.46.23-.69-.153-.152-.613.23-.613.23zm17.239 6.124s.154.536.383.46c.23-.077.46-.46.23-.69-.23-.23-.613.23-.613.23zm-2.758-2.067s.153.536.383.46c.23-.077.46-.46.23-.69-.23-.153-.613.23-.613.23zm-2.912-1.761s.154.536.384.46c.23-.077.46-.46.23-.69-.23-.23-.614.23-.614.23zm-3.295-1.072s.154.536.384.46c.23-.077.46-.46.23-.69-.23-.152-.613.23-.613.23zm-3.294-.995s.154.536.383.46c.23-.077.46-.46.23-.69-.23-.23-.613.23-.613.23zm7.202 5.742s.154.536.384.46c.23-.078.46-.46.23-.69-.23-.23-.614.23-.614.23zm-3.141-1.531s.153.535.383.459c.23-.077.46-.46.23-.689-.153-.153-.613.23-.613.23zm-3.141-1.379s.153.537.383.46c.23-.076.46-.46.23-.689-.153-.23-.613.23-.613.23zm-3.295-.995s.154.536.383.46c.23-.077.46-.46.23-.69-.23-.152-.613.23-.613.23zm-3.294-.918s.153.536.383.46c.23-.077.46-.46.23-.69-.23-.153-.613.23-.613.23zm10.879 3.674s.154.536.384.46c.23-.077.46-.46.23-.69-.23-.229-.614.23-.614.23zm-2.758-2.067s.153.536.383.46c.23-.077.46-.46.23-.69-.23-.152-.613.23-.613.23zm3.295 2.603s.153.536.383.46c.23-.077.46-.46.23-.69-.23-.229-.613.23-.613.23zm-3.065-1.761s.153.536.383.46c.23-.077.46-.46.23-.69-.153-.152-.613.23-.613.23z" fill="#F0B5BE"></path><path d="M39.765 17.76s.153.537.383.46c.23-.076.46-.46.23-.689-.23-.23-.613.23-.613.23zm-9.425 8.958s.154.536.384.46c.23-.078.46-.46.23-.69-.23-.153-.613.23-.613.23zm-3.447.459s.153.536.383.46c.23-.077.46-.46.23-.69-.23-.23-.613.23-.613.23zm-3.218.919s.153.536.383.459c.23-.076.46-.46.23-.689-.23-.153-.613.23-.613.23zM20.84 30.01s.153.535.383.459c.23-.077.46-.46.23-.69-.23-.152-.613.23-.613.23zm-2.069 2.602s.154.536.384.46c.23-.077.46-.46.23-.69-.23-.152-.614.23-.614.23z" fill="#F0B5BE"></path><path d="M30.111 26.335s.153.536.383.46c.23-.077.46-.46.23-.69-.23-.23-.613.23-.613.23zm-3.218-.459s.153.535.383.459c.23-.077.46-.46.23-.689-.153-.153-.613.23-.613.23zm-3.295 1.071s.154.536.384.46c.23-.077.46-.46.23-.69-.154-.152-.614.23-.614.23zm-3.141 1.302s.153.536.383.46c.23-.077.46-.46.23-.69-.23-.153-.613.23-.613.23zm-2.452 2.373s.154.536.383.46c.23-.077.46-.46.23-.69-.23-.153-.613.23-.613.23zm3.525-1.608s.153.536.383.46c.23-.077.46-.46.23-.69-.23-.152-.613.23-.613.23zm-1.916 1.378s.153.536.383.46c.23-.077.46-.46.23-.69-.153-.152-.613.23-.613.23zm5.44-3.215s.153.536.383.46c.23-.077.46-.46.23-.69-.23-.153-.613.23-.613.23zm-2.988.153s.153.536.383.46c.23-.077.46-.46.23-.69-.153-.23-.613.23-.613.23zm6.206-1.607s.153.535.383.459c.23-.077.46-.46.23-.69-.153-.152-.613.23-.613.23zm3.295 1.377s.153.536.383.46c.23-.077.46-.46.23-.69-.23-.152-.613.23-.613.23zm-2.375-.076s.153.536.383.46c.23-.077.46-.46.23-.69-.23-.153-.613.23-.613.23zm3.984.919s.153.535.383.459c.23-.077.46-.46.23-.69-.23-.229-.613.23-.613.23zm-2.222-2.909s.153.535.383.459c.23-.077.46-.46.23-.69-.23-.229-.613.23-.613.23zm-3.448.153s.153.535.383.459c.23-.077.46-.46.23-.69-.23-.229-.613.23-.613.23zm-3.295.918s.154.536.383.46c.23-.077.46-.46.23-.69-.23-.152-.613.23-.613.23zm-3.294 1.225s.153.536.383.46c.23-.077.46-.46.23-.69-.154-.23-.613.23-.613.23zm-2.299 2.45s.153.536.383.46c.23-.077.46-.46.23-.69-.23-.153-.613.23-.613.23zm6.972-5.13s.154.537.384.46c.23-.076.46-.46.23-.689-.154-.23-.614.23-.614.23zm-3.294.843s.153.536.383.46c.23-.077.46-.46.23-.69-.23-.153-.613.23-.613.23zm.154-1.838s.152.536.382.46c.23-.077.46-.46.23-.69-.23-.229-.613.23-.613.23z" fill="#F0B5BE"></path></svg>