<svg xmlns="http://www.w3.org/2000/svg" width="38.317" height="26.104" viewBox="0 0 38.317 26.104">
  <g id="svgexport-10_16_" data-name="svgexport-10 (16)" transform="translate(-1 -8.65)">
    <g id="Group_69452" data-name="Group 69452" transform="translate(1 8.65)">
      <g id="Group_69346" data-name="Group 69346" transform="translate(0.594 6.048)">
        <g id="Group_69317" data-name="Group 69317" transform="translate(0 0.001)">
          <g id="Group_69316" data-name="Group 69316">
            <g id="Group_69312" data-name="Group 69312" transform="translate(21.024 12.138)">
              <path id="Path_1668" data-name="Path 1668" d="M38.591,31.433l-.009,1.815-10.5,6.1.009-1.815Z" transform="translate(-28.082 -31.433)" fill="#5e8632"/>
            </g>
            <g id="Group_69313" data-name="Group 69313" transform="translate(0 6.102)">
              <path id="Path_1669" data-name="Path 1669" d="M22.778,36.01l-.009,1.815L1.745,25.686l.009-1.815Z" transform="translate(-1.745 -23.871)" fill="#6a9839"/>
            </g>
            <g id="Group_69314" data-name="Group 69314" transform="translate(8.398 10.952)">
              <path id="Path_1670" data-name="Path 1670" d="M16.16,32.2l-.009,1.8-3.886-2.258.009-1.8Z" transform="translate(-12.265 -29.947)" fill="#475e68"/>
              <path id="Path_1671" data-name="Path 1671" d="M13.034,32.194l.007-1.8,2.648,1.539-.007,1.8Z" transform="translate(-12.42 -30.037)" fill="#cfd8dd"/>
            </g>
            <g id="Group_69315" data-name="Group 69315" transform="translate(0.009)">
              <path id="Path_1672" data-name="Path 1672" d="M33.281,28.366l-10.5,6.1L1.756,22.329l10.5-6.1Z" transform="translate(-1.756 -16.228)" fill="#97c269"/>
            </g>
          </g>
        </g>
        <g id="Group_69344" data-name="Group 69344" transform="translate(0.01)">
          <g id="Group_69318" data-name="Group 69318" transform="translate(6.698 7.749)">
            <path id="Path_1673" data-name="Path 1673" d="M11.544,26.3a.534.534,0,0,1-.276.281,1.168,1.168,0,0,1-.485.161.757.757,0,0,1-.46-.1q-.209-.121-.171-.264a.533.533,0,0,1,.276-.281,1.168,1.168,0,0,1,.485-.161.753.753,0,0,1,.456.1c.144.083.2.171.175.266Zm-.792.269a.973.973,0,0,0,.294-.115.56.56,0,0,0,.2-.171c.03-.053.008-.1-.062-.141a.342.342,0,0,0-.239-.033,1,1,0,0,0-.294.116.545.545,0,0,0-.2.171c-.03.053-.008.1.057.138a.345.345,0,0,0,.243.035" transform="translate(-10.147 -25.933)" fill="#97c269"/>
          </g>
          <g id="Group_69319" data-name="Group 69319" transform="translate(5.692 7.168)">
            <path id="Path_1674" data-name="Path 1674" d="M10.285,25.574a.534.534,0,0,1-.276.281,1.168,1.168,0,0,1-.485.161.757.757,0,0,1-.46-.1q-.209-.121-.171-.264a.533.533,0,0,1,.276-.281,1.168,1.168,0,0,1,.485-.161.754.754,0,0,1,.456.1c.144.083.2.171.175.266Zm-.792.269a.973.973,0,0,0,.294-.115.56.56,0,0,0,.2-.171c.026-.055.008-.1-.062-.141a.342.342,0,0,0-.239-.033,1,1,0,0,0-.294.116.545.545,0,0,0-.2.171c-.03.053-.008.1.057.138a.354.354,0,0,0,.243.035" transform="translate(-8.887 -25.206)" fill="#97c269"/>
          </g>
          <g id="Group_69341" data-name="Group 69341" transform="translate(3.637 2.108)">
            <g id="Group_69320" data-name="Group 69320" transform="translate(8.392 1.236)">
              <path id="Path_1675" data-name="Path 1675" d="M19.042,21.527l-.29.168-1.928-1.113.29-.168Z" transform="translate(-16.825 -20.414)" fill="#7db343"/>
            </g>
            <g id="Group_69321" data-name="Group 69321" transform="translate(12.282 5.707)">
              <path id="Path_1676" data-name="Path 1676" d="M21.927,26.139a1.043,1.043,0,0,1,.567-.123,1.674,1.674,0,0,1,.677.176l-1.2.7a.884.884,0,0,1-.271-.457c0-.106.077-.206.228-.294Z" transform="translate(-21.699 -26.015)" fill="#7db343"/>
            </g>
            <g id="Group_69322" data-name="Group 69322" transform="translate(10.78 7.406)">
              <path id="Path_1677" data-name="Path 1677" d="M21.373,28.631c.009.115-.068.216-.232.311a1.059,1.059,0,0,1-.6.121,1.928,1.928,0,0,1-.725-.193l1.249-.726a.981.981,0,0,1,.306.487Z" transform="translate(-19.817 -28.143)" fill="#7db343"/>
            </g>
            <g id="Group_69323" data-name="Group 69323" transform="translate(19.892 7.875)">
              <path id="Path_1678" data-name="Path 1678" d="M33.448,29.844l-.29.168L31.231,28.9l.29-.168Z" transform="translate(-31.231 -28.732)" fill="#7db343"/>
            </g>
            <g id="Group_69324" data-name="Group 69324" transform="translate(16.935 9.665)">
              <path id="Path_1679" data-name="Path 1679" d="M31.358,31.354a.973.973,0,0,1,.015,1.841,3.5,3.5,0,0,1-3.183,0,.973.973,0,0,1-.006-1.841A3.5,3.5,0,0,1,31.358,31.354Zm-2.931,1.7a2.987,2.987,0,0,0,2.706,0,.828.828,0,0,0-.013-1.565,2.985,2.985,0,0,0-2.7,0,.828.828,0,0,0,0,1.565" transform="translate(-27.528 -30.974)" fill="#6a9839"/>
            </g>
            <g id="Group_69325" data-name="Group 69325">
              <path id="Path_1680" data-name="Path 1680" d="M30.551,27.9a1.05,1.05,0,0,0,.007,1.987l-5.157,3a3.779,3.779,0,0,0-3.43,0L6.32,23.853a1.05,1.05,0,0,0-.007-1.987l5.157-3a3.779,3.779,0,0,0,3.431,0Zm-16.21.357a9.052,9.052,0,0,0,8.214,0c2.265-1.316,2.253-3.447-.023-4.76a9.054,9.054,0,0,0-8.223,0c-2.261,1.314-2.249,3.444.031,4.761M9.989,20.878A.974.974,0,0,0,10,22.722a3.511,3.511,0,0,0,3.183,0,.974.974,0,0,0-.015-1.841,3.5,3.5,0,0,0-3.179,0M23.91,30.753a3.5,3.5,0,0,0,3.183,0,.973.973,0,0,0-.015-1.841,3.5,3.5,0,0,0-3.175,0,.973.973,0,0,0,.006,1.841m2.345-4.8-.29.168,3.524,2.035.29-.168Zm-11.5-6.637-.29.168,3.52,2.032.29-.168Zm6.933,12.746a1.168,1.168,0,0,0,.485-.161.534.534,0,0,0,.276-.281c.025-.1-.031-.183-.175-.266a.753.753,0,0,0-.456-.1,1.127,1.127,0,0,0-.489.158c-.16.093-.25.186-.272.284s.031.183.171.264a.757.757,0,0,0,.46.1m-1.005-.58a1.167,1.167,0,0,0,.485-.161.534.534,0,0,0,.276-.281c.025-.1-.031-.183-.175-.266a.753.753,0,0,0-.456-.1,1.127,1.127,0,0,0-.489.158c-.16.093-.25.186-.272.284s.031.183.171.264a.757.757,0,0,0,.46.1M10.01,25.317a1.167,1.167,0,0,0,.485-.161.534.534,0,0,0,.276-.281c.025-.1-.031-.183-.175-.266a.754.754,0,0,0-.456-.1,1.168,1.168,0,0,0-.485.161.533.533,0,0,0-.276.281q-.038.143.171.264a.757.757,0,0,0,.46.1M9,24.737a1.167,1.167,0,0,0,.485-.161.534.534,0,0,0,.276-.281c.025-.1-.031-.183-.175-.266a.754.754,0,0,0-.456-.1,1.168,1.168,0,0,0-.485.161.533.533,0,0,0-.276.281q-.038.143.171.264a.758.758,0,0,0,.46.1m19.417,3.117-1.928-1.113-.29.168,1.928,1.113Zm-11.5-6.639L14.994,20.1l-.29.168,1.928,1.113Zm-8.995,3.05,1.012-.588-.413-.239-.195.113.2.113-.817.475ZM19.609,31.01l1.012-.588-.413-.239-.195.113.2.113-.817.475Z" transform="translate(-6.313 -18.866)" fill="#97c269"/>
            </g>
            <g id="Group_69326" data-name="Group 69326" transform="translate(8.157 0.45)">
              <path id="Path_1681" data-name="Path 1681" d="M20.341,21.462l-.29.168L16.532,19.6l.29-.168Z" transform="translate(-16.532 -19.429)" fill="#7db343"/>
            </g>
            <g id="Group_69327" data-name="Group 69327" transform="translate(3.361 1.829)">
              <path id="Path_1682" data-name="Path 1682" d="M13.78,21.481a.827.827,0,0,1,.009,1.563,2.985,2.985,0,0,1-2.7,0,.829.829,0,0,1-.009-1.567A2.986,2.986,0,0,1,13.78,21.481Z" transform="translate(-10.523 -21.157)" fill="#7db343"/>
            </g>
            <g id="Group_69328" data-name="Group 69328" transform="translate(3.021 1.632)">
              <path id="Path_1683" data-name="Path 1683" d="M13.932,21.293a.974.974,0,0,1,.015,1.841,3.511,3.511,0,0,1-3.183,0,.974.974,0,0,1-.011-1.844,3.5,3.5,0,0,1,3.179,0ZM11,23a2.985,2.985,0,0,0,2.7,0,.827.827,0,0,0-.009-1.563,2.986,2.986,0,0,0-2.7,0A.829.829,0,0,0,11,23" transform="translate(-10.098 -20.91)" fill="#6a9839"/>
            </g>
            <g id="Group_69329" data-name="Group 69329" transform="translate(1.396 4.572)">
              <path id="Path_1684" data-name="Path 1684" d="M9.291,24.832,8.28,25.42l-.218-.126.817-.475-.2-.113.195-.113Z" transform="translate(-8.062 -24.593)" fill="#97c269"/>
            </g>
            <g id="Group_69330" data-name="Group 69330" transform="translate(2.347 5.23)">
              <path id="Path_1685" data-name="Path 1685" d="M10,25.458c.07.04.087.085.062.141a.56.56,0,0,1-.2.171.973.973,0,0,1-.294.115.354.354,0,0,1-.243-.035c-.065-.038-.087-.085-.057-.138a.545.545,0,0,1,.2-.171,1,1,0,0,1,.294-.116A.342.342,0,0,1,10,25.458Z" transform="translate(-9.253 -25.418)" fill="#97c269"/>
            </g>
            <g id="Group_69331" data-name="Group 69331" transform="translate(3.352 5.81)">
              <path id="Path_1686" data-name="Path 1686" d="M11.257,26.185c.07.04.092.088.062.141a.56.56,0,0,1-.2.171.973.973,0,0,1-.294.115.345.345,0,0,1-.243-.035c-.065-.038-.087-.085-.057-.138a.545.545,0,0,1,.2-.171,1,1,0,0,1,.294-.116.342.342,0,0,1,.239.033Z" transform="translate(-10.513 -26.145)" fill="#97c269"/>
            </g>
            <g id="Group_69332" data-name="Group 69332" transform="translate(6.311 3.645)">
              <path id="Path_1687" data-name="Path 1687" d="M24.128,24.42c2.276,1.314,2.288,3.444.023,4.76a9.052,9.052,0,0,1-8.214,0c-2.28-1.316-2.292-3.447-.031-4.761a9.054,9.054,0,0,1,8.223,0Zm-4.62,4.348a2.566,2.566,0,0,0,1.421-.321c.406-.236.591-.49.551-.759a1.93,1.93,0,0,0-.673-.975l-.022-.013,1.305-.759a1.626,1.626,0,0,1,.6.811l1.092-.111a2.2,2.2,0,0,0-.934-1.141L23.2,25.3l-.448-.259-.346.2a3.49,3.49,0,0,0-1.52-.392,2.6,2.6,0,0,0-1.4.327c-.4.231-.578.477-.534.739a1.85,1.85,0,0,0,.66.952l-1.349.784a1.544,1.544,0,0,1-.6-1.048l-1.119.055a2.076,2.076,0,0,0,.962,1.432L17,28.381l.448.259.5-.289a3.626,3.626,0,0,0,1.564.417" transform="translate(-14.218 -23.432)" fill="#7db343"/>
            </g>
            <g id="Group_69333" data-name="Group 69333" transform="translate(8.635 5.058)">
              <path id="Path_1688" data-name="Path 1688" d="M22.067,28.045c.041.269-.144.522-.551.759a2.566,2.566,0,0,1-1.421.321,3.625,3.625,0,0,1-1.564-.417l-.5.289-.448-.259.506-.294a2.076,2.076,0,0,1-.962-1.432l1.119-.055a1.544,1.544,0,0,0,.6,1.048l1.349-.784a1.849,1.849,0,0,1-.66-.952c-.045-.261.136-.508.534-.739a2.6,2.6,0,0,1,1.4-.327,3.49,3.49,0,0,1,1.52.392l.346-.2.448.259-.354.206A2.2,2.2,0,0,1,24.368,27l-1.092.111a1.626,1.626,0,0,0-.6-.811l-1.305.759.022.013A1.93,1.93,0,0,1,22.067,28.045ZM20,28.469a1.059,1.059,0,0,0,.6-.121c.164-.1.242-.2.232-.311a.981.981,0,0,0-.306-.487l-1.249.726a1.928,1.928,0,0,0,.725.193m1.048-1.743,1.2-.7a1.674,1.674,0,0,0-.677-.176,1.043,1.043,0,0,0-.567.123c-.151.088-.229.188-.228.294a.884.884,0,0,0,.271.457" transform="translate(-17.13 -25.202)" fill="#6a9839"/>
            </g>
            <g id="Group_69334" data-name="Group 69334" transform="translate(19.653 7.087)">
              <path id="Path_1689" data-name="Path 1689" d="M34.746,29.778l-.29.168-3.524-2.035.29-.168Z" transform="translate(-30.932 -27.743)" fill="#7db343"/>
            </g>
            <g id="Group_69335" data-name="Group 69335" transform="translate(13.079 11.317)">
              <path id="Path_1690" data-name="Path 1690" d="M23.926,33.281l-1.012.588-.218-.126.817-.475-.2-.113.195-.113Z" transform="translate(-22.697 -33.043)" fill="#97c269"/>
            </g>
            <g id="Group_69336" data-name="Group 69336" transform="translate(17.275 9.862)">
              <path id="Path_1691" data-name="Path 1691" d="M31.206,31.542a.828.828,0,0,1,.013,1.565,2.987,2.987,0,0,1-2.706,0,.828.828,0,0,1,0-1.565A2.985,2.985,0,0,1,31.206,31.542Z" transform="translate(-27.953 -31.22)" fill="#7db343"/>
            </g>
            <g id="Group_69337" data-name="Group 69337" transform="translate(14.03 11.975)">
              <path id="Path_1692" data-name="Path 1692" d="M24.633,33.908c.07.04.087.085.062.141a.56.56,0,0,1-.2.171.973.973,0,0,1-.294.115.354.354,0,0,1-.243-.035c-.065-.038-.087-.085-.057-.138a.49.49,0,0,1,.2-.171.9.9,0,0,1,.294-.116.342.342,0,0,1,.239.033Z" transform="translate(-23.888 -33.867)" fill="#97c269"/>
            </g>
            <g id="Group_69338" data-name="Group 69338" transform="translate(13.738 11.806)">
              <path id="Path_1693" data-name="Path 1693" d="M24.92,34.023a.534.534,0,0,1-.276.281,1.168,1.168,0,0,1-.485.161.757.757,0,0,1-.46-.1q-.209-.121-.171-.264c.021-.1.112-.191.272-.284a1.127,1.127,0,0,1,.489-.158.754.754,0,0,1,.456.1c.144.083.2.171.175.266Zm-.792.269a.973.973,0,0,0,.294-.115.56.56,0,0,0,.2-.171c.026-.055.008-.1-.062-.141a.342.342,0,0,0-.239-.033.9.9,0,0,0-.294.116.49.49,0,0,0-.2.171c-.03.053-.008.1.057.138a.354.354,0,0,0,.243.035" transform="translate(-23.522 -33.655)" fill="#97c269"/>
            </g>
            <g id="Group_69339" data-name="Group 69339" transform="translate(14.743 12.386)">
              <path id="Path_1694" data-name="Path 1694" d="M26.179,34.75a.534.534,0,0,1-.276.281,1.167,1.167,0,0,1-.485.161.757.757,0,0,1-.46-.1q-.209-.121-.171-.264c.021-.1.112-.191.272-.284a1.127,1.127,0,0,1,.489-.158.754.754,0,0,1,.456.1C26.148,34.567,26.2,34.654,26.179,34.75Zm-.792.269a.973.973,0,0,0,.294-.115.56.56,0,0,0,.2-.171c.026-.055.008-.1-.062-.141a.342.342,0,0,0-.239-.033.9.9,0,0,0-.294.116.49.49,0,0,0-.2.171c-.03.053-.008.1.057.138a.354.354,0,0,0,.243.035" transform="translate(-24.781 -34.382)" fill="#97c269"/>
            </g>
            <g id="Group_69340" data-name="Group 69340" transform="translate(15.035 12.555)">
              <path id="Path_1695" data-name="Path 1695" d="M25.892,34.634c.07.04.087.085.062.141a.56.56,0,0,1-.2.171.973.973,0,0,1-.294.115.354.354,0,0,1-.243-.035c-.065-.038-.087-.085-.057-.138a.49.49,0,0,1,.2-.171.9.9,0,0,1,.294-.116.342.342,0,0,1,.239.033Z" transform="translate(-25.147 -34.594)" fill="#97c269"/>
            </g>
          </g>
          <g id="Group_69342" data-name="Group 69342" transform="translate(0.477 0.279)">
            <path id="Path_1696" data-name="Path 1696" d="M12.374,16.575,32.916,28.435,22.9,34.258,2.354,22.4ZM24.6,32.424l5.157-3a1.05,1.05,0,0,1-.007-1.987L14.1,18.4a3.779,3.779,0,0,1-3.431,0l-5.157,3a1.05,1.05,0,0,1,.007,1.987l15.651,9.036a3.779,3.779,0,0,1,3.43,0" transform="translate(-2.354 -16.575)" fill="#7db343"/>
          </g>
          <g id="Group_69343" data-name="Group 69343">
            <path id="Path_1697" data-name="Path 1697" d="M12.256,16.226,33.281,28.364l-10.5,6.1L1.757,22.328ZM22.775,34.187l10.02-5.823L12.254,16.5,2.234,22.328Z" transform="translate(-1.757 -16.226)" fill="#97c269"/>
          </g>
        </g>
        <g id="Group_69345" data-name="Group 69345" transform="translate(8.407 4.849)">
          <path id="Path_1698" data-name="Path 1698" d="M12.276,28.4l3.886,2.258,10.573-6.1L22.849,22.3Z" transform="translate(-12.276 -22.3)" fill="#546f7a"/>
          <path id="Path_1699" data-name="Path 1699" d="M13.044,28.85l10.573-6.1,2.65,1.54-10.575,6.1Z" transform="translate(-12.431 -22.39)" fill="#dde4e7"/>
        </g>
      </g>
      <g id="Group_69381" data-name="Group 69381" transform="translate(3.051 4.812)">
        <g id="Group_69352" data-name="Group 69352" transform="translate(0 0.001)">
          <g id="Group_69351" data-name="Group 69351">
            <g id="Group_69347" data-name="Group 69347" transform="translate(21.024 12.138)">
              <path id="Path_1700" data-name="Path 1700" d="M41.669,29.885,41.659,31.7l-10.5,6.1.009-1.815Z" transform="translate(-31.159 -29.885)" fill="#5e8632"/>
            </g>
            <g id="Group_69348" data-name="Group 69348" transform="translate(0 6.102)">
              <path id="Path_1701" data-name="Path 1701" d="M25.856,34.461l-.009,1.815L4.822,24.138l.009-1.815Z" transform="translate(-4.822 -22.323)" fill="#6a9839"/>
            </g>
            <g id="Group_69349" data-name="Group 69349" transform="translate(8.398 10.952)">
              <path id="Path_1702" data-name="Path 1702" d="M19.237,30.656l-.009,1.8L15.342,30.2l.009-1.8Z" transform="translate(-15.342 -28.398)" fill="#475e68"/>
              <path id="Path_1703" data-name="Path 1703" d="M16.112,30.646l.007-1.8,2.648,1.539-.007,1.8Z" transform="translate(-15.498 -28.488)" fill="#cfd8dd"/>
            </g>
            <g id="Group_69350" data-name="Group 69350" transform="translate(0.009)">
              <path id="Path_1704" data-name="Path 1704" d="M36.358,26.818l-10.5,6.1L4.834,20.781l10.5-6.1Z" transform="translate(-4.834 -14.679)" fill="#97c269"/>
            </g>
          </g>
        </g>
        <g id="Group_69379" data-name="Group 69379" transform="translate(0.009)">
          <g id="Group_69353" data-name="Group 69353" transform="translate(6.698 7.749)">
            <path id="Path_1705" data-name="Path 1705" d="M14.622,24.752a.534.534,0,0,1-.276.281,1.168,1.168,0,0,1-.485.161.757.757,0,0,1-.46-.1q-.209-.121-.171-.264a.533.533,0,0,1,.276-.281,1.168,1.168,0,0,1,.485-.161.753.753,0,0,1,.456.1c.144.083.2.171.175.266Zm-.792.269a.973.973,0,0,0,.294-.115.56.56,0,0,0,.2-.171c.03-.053.008-.1-.062-.141a.342.342,0,0,0-.239-.033,1,1,0,0,0-.294.116.545.545,0,0,0-.2.171c-.03.053-.008.1.057.138a.345.345,0,0,0,.243.035" transform="translate(-13.224 -24.384)" fill="#97c269"/>
          </g>
          <g id="Group_69354" data-name="Group 69354" transform="translate(5.693 7.168)">
            <path id="Path_1706" data-name="Path 1706" d="M13.363,24.025a.534.534,0,0,1-.276.281,1.168,1.168,0,0,1-.485.161.757.757,0,0,1-.46-.1q-.209-.121-.171-.264a.533.533,0,0,1,.276-.281,1.168,1.168,0,0,1,.485-.161.754.754,0,0,1,.456.1c.144.083.2.171.175.266Zm-.792.269a.973.973,0,0,0,.294-.115.56.56,0,0,0,.2-.171c.026-.055.008-.1-.062-.141a.342.342,0,0,0-.239-.033,1,1,0,0,0-.294.116.545.545,0,0,0-.2.171c-.03.053-.008.1.057.138a.354.354,0,0,0,.243.035" transform="translate(-11.965 -23.657)" fill="#97c269"/>
          </g>
          <g id="Group_69376" data-name="Group 69376" transform="translate(3.637 2.108)">
            <g id="Group_69355" data-name="Group 69355" transform="translate(8.392 1.236)">
              <path id="Path_1707" data-name="Path 1707" d="M22.12,19.979l-.29.168L19.9,19.034l.29-.168Z" transform="translate(-19.903 -18.866)" fill="#7db343"/>
            </g>
            <g id="Group_69356" data-name="Group 69356" transform="translate(12.282 5.707)">
              <path id="Path_1708" data-name="Path 1708" d="M25.005,24.59a1.043,1.043,0,0,1,.567-.123,1.674,1.674,0,0,1,.677.176l-1.2.7a.884.884,0,0,1-.271-.457c0-.105.077-.206.228-.294Z" transform="translate(-24.777 -24.466)" fill="#7db343"/>
            </g>
            <g id="Group_69357" data-name="Group 69357" transform="translate(10.78 7.406)">
              <path id="Path_1709" data-name="Path 1709" d="M24.45,27.082c.009.115-.068.216-.232.311a1.059,1.059,0,0,1-.6.121,1.928,1.928,0,0,1-.725-.193l1.249-.726a.981.981,0,0,1,.306.487Z" transform="translate(-22.895 -26.595)" fill="#7db343"/>
            </g>
            <g id="Group_69358" data-name="Group 69358" transform="translate(19.891 7.875)">
              <path id="Path_1710" data-name="Path 1710" d="M36.526,28.3l-.29.168-1.928-1.113.29-.168Z" transform="translate(-34.309 -27.183)" fill="#7db343"/>
            </g>
            <g id="Group_69359" data-name="Group 69359" transform="translate(16.935 9.665)">
              <path id="Path_1711" data-name="Path 1711" d="M34.436,29.806a.973.973,0,0,1,.015,1.841,3.5,3.5,0,0,1-3.183,0,.973.973,0,0,1-.006-1.841A3.5,3.5,0,0,1,34.436,29.806Zm-2.931,1.7a2.987,2.987,0,0,0,2.706,0,.828.828,0,0,0-.013-1.565,2.985,2.985,0,0,0-2.7,0,.828.828,0,0,0,0,1.565" transform="translate(-30.606 -29.425)" fill="#6a9839"/>
            </g>
            <g id="Group_69360" data-name="Group 69360">
              <path id="Path_1712" data-name="Path 1712" d="M33.629,26.354a1.05,1.05,0,0,0,.007,1.987l-5.157,3a3.779,3.779,0,0,0-3.43,0L9.4,22.3a1.05,1.05,0,0,0-.007-1.987l5.157-3a3.779,3.779,0,0,0,3.431,0Zm-16.21.357a9.052,9.052,0,0,0,8.214,0c2.265-1.316,2.253-3.447-.023-4.76a9.054,9.054,0,0,0-8.223,0c-2.261,1.314-2.249,3.444.031,4.761M13.067,19.33a.974.974,0,0,0,.011,1.844,3.511,3.511,0,0,0,3.183,0,.974.974,0,0,0-.015-1.841,3.5,3.5,0,0,0-3.179,0M26.988,29.2a3.5,3.5,0,0,0,3.183,0,.973.973,0,0,0-.015-1.841,3.5,3.5,0,0,0-3.175,0,.973.973,0,0,0,.006,1.841m2.345-4.8-.29.168,3.524,2.035.29-.168Zm-11.5-6.637-.29.168,3.52,2.032.29-.168ZM24.77,30.514a1.167,1.167,0,0,0,.485-.161.534.534,0,0,0,.276-.281c.025-.1-.031-.183-.175-.266a.753.753,0,0,0-.456-.1,1.127,1.127,0,0,0-.489.158c-.16.093-.25.186-.272.284s.031.183.171.264a.757.757,0,0,0,.46.1m-1.005-.58a1.167,1.167,0,0,0,.485-.161.534.534,0,0,0,.276-.281c.025-.1-.031-.183-.175-.266a.753.753,0,0,0-.456-.1,1.127,1.127,0,0,0-.489.158c-.16.093-.25.186-.272.284s.031.183.171.264a.757.757,0,0,0,.46.1M13.088,23.769a1.167,1.167,0,0,0,.485-.161.534.534,0,0,0,.276-.281c.025-.1-.031-.183-.175-.266a.753.753,0,0,0-.456-.1,1.168,1.168,0,0,0-.485.161.533.533,0,0,0-.276.281q-.038.143.171.264a.757.757,0,0,0,.46.1m-1.005-.58a1.167,1.167,0,0,0,.485-.161.534.534,0,0,0,.276-.281c.025-.1-.031-.183-.175-.266a.754.754,0,0,0-.456-.1,1.168,1.168,0,0,0-.485.161.533.533,0,0,0-.276.281q-.038.143.171.264a.757.757,0,0,0,.46.1M31.5,26.306l-1.928-1.113-.29.168,1.928,1.113ZM20,19.667l-1.928-1.113-.29.168,1.928,1.113ZM11,22.716l1.012-.588L11.6,21.89,11.408,22l.2.113-.817.475Zm11.683,6.745,1.012-.588-.413-.239-.195.113.2.113-.817.475Z" transform="translate(-9.391 -17.318)" fill="#97c269"/>
            </g>
            <g id="Group_69361" data-name="Group 69361" transform="translate(8.157 0.45)">
              <path id="Path_1713" data-name="Path 1713" d="M23.419,19.913l-.29.168-3.52-2.032.29-.168Z" transform="translate(-19.609 -17.881)" fill="#7db343"/>
            </g>
            <g id="Group_69362" data-name="Group 69362" transform="translate(3.361 1.829)">
              <path id="Path_1714" data-name="Path 1714" d="M16.858,19.933a.827.827,0,0,1,.009,1.563,2.985,2.985,0,0,1-2.7,0,.829.829,0,0,1-.009-1.567A2.986,2.986,0,0,1,16.858,19.933Z" transform="translate(-13.601 -19.608)" fill="#7db343"/>
            </g>
            <g id="Group_69363" data-name="Group 69363" transform="translate(3.021 1.632)">
              <path id="Path_1715" data-name="Path 1715" d="M17.01,19.745a.974.974,0,0,1,.015,1.841,3.511,3.511,0,0,1-3.183,0,.974.974,0,0,1-.011-1.844A3.5,3.5,0,0,1,17.01,19.745Zm-2.931,1.7a2.985,2.985,0,0,0,2.7,0,.827.827,0,0,0-.009-1.563,2.986,2.986,0,0,0-2.7,0,.829.829,0,0,0,.009,1.567" transform="translate(-13.176 -19.362)" fill="#6a9839"/>
            </g>
            <g id="Group_69364" data-name="Group 69364" transform="translate(1.396 4.572)">
              <path id="Path_1716" data-name="Path 1716" d="M12.369,23.284l-1.012.588-.218-.126.817-.475-.2-.113.195-.113Z" transform="translate(-11.14 -23.045)" fill="#97c269"/>
            </g>
            <g id="Group_69365" data-name="Group 69365" transform="translate(2.347 5.23)">
              <path id="Path_1717" data-name="Path 1717" d="M13.076,23.91c.07.04.087.085.062.141a.56.56,0,0,1-.2.171.973.973,0,0,1-.294.115A.354.354,0,0,1,12.4,24.3c-.065-.038-.087-.085-.057-.138a.545.545,0,0,1,.2-.171,1,1,0,0,1,.294-.116.342.342,0,0,1,.239.033Z" transform="translate(-12.331 -23.869)" fill="#97c269"/>
            </g>
            <g id="Group_69366" data-name="Group 69366" transform="translate(3.352 5.81)">
              <path id="Path_1718" data-name="Path 1718" d="M14.335,24.637c.07.04.092.088.062.141a.56.56,0,0,1-.2.171.973.973,0,0,1-.294.115.345.345,0,0,1-.243-.035c-.065-.038-.087-.085-.057-.138a.545.545,0,0,1,.2-.171A1,1,0,0,1,14.1,24.6.342.342,0,0,1,14.335,24.637Z" transform="translate(-13.59 -24.596)" fill="#97c269"/>
            </g>
            <g id="Group_69367" data-name="Group 69367" transform="translate(6.31 3.645)">
              <path id="Path_1719" data-name="Path 1719" d="M27.206,22.871c2.276,1.314,2.288,3.444.023,4.76a9.052,9.052,0,0,1-8.214,0c-2.28-1.316-2.292-3.447-.031-4.761a9.054,9.054,0,0,1,8.223,0Zm-4.62,4.348a2.566,2.566,0,0,0,1.421-.321c.406-.236.591-.49.551-.759a1.93,1.93,0,0,0-.673-.975l-.022-.013,1.305-.759a1.626,1.626,0,0,1,.6.811l1.092-.111a2.2,2.2,0,0,0-.934-1.141l.354-.206-.448-.259-.346.2a3.49,3.49,0,0,0-1.52-.392,2.6,2.6,0,0,0-1.4.327c-.4.231-.578.477-.534.739a1.85,1.85,0,0,0,.66.952l-1.349.784a1.544,1.544,0,0,1-.6-1.048l-1.119.055a2.076,2.076,0,0,0,.962,1.432l-.506.294.448.259.5-.289a3.625,3.625,0,0,0,1.564.417" transform="translate(-17.296 -21.884)" fill="#7db343"/>
            </g>
            <g id="Group_69368" data-name="Group 69368" transform="translate(8.635 5.058)">
              <path id="Path_1720" data-name="Path 1720" d="M25.144,26.5c.041.269-.144.522-.551.759a2.566,2.566,0,0,1-1.421.321,3.625,3.625,0,0,1-1.564-.417l-.5.289-.448-.259.506-.294a2.076,2.076,0,0,1-.962-1.432l1.119-.055a1.544,1.544,0,0,0,.6,1.048l1.349-.784a1.849,1.849,0,0,1-.66-.952c-.045-.261.136-.508.534-.739a2.6,2.6,0,0,1,1.4-.327,3.49,3.49,0,0,1,1.52.392l.346-.2.448.259-.354.206a2.2,2.2,0,0,1,.934,1.141l-1.092.111a1.626,1.626,0,0,0-.6-.811l-1.305.759.022.013a1.93,1.93,0,0,1,.673.975Zm-2.066.424a1.059,1.059,0,0,0,.6-.121c.164-.1.242-.2.232-.311A.981.981,0,0,0,23.6,26l-1.249.726a1.928,1.928,0,0,0,.725.193m1.048-1.743,1.2-.7a1.674,1.674,0,0,0-.677-.176,1.043,1.043,0,0,0-.567.123c-.151.088-.229.188-.228.294a.884.884,0,0,0,.271.457" transform="translate(-20.207 -23.654)" fill="#6a9839"/>
            </g>
            <g id="Group_69369" data-name="Group 69369" transform="translate(19.653 7.087)">
              <path id="Path_1721" data-name="Path 1721" d="M37.824,28.23l-.29.168L34.01,26.363l.29-.168Z" transform="translate(-34.01 -26.195)" fill="#7db343"/>
            </g>
            <g id="Group_69370" data-name="Group 69370" transform="translate(13.079 11.317)">
              <path id="Path_1722" data-name="Path 1722" d="M27,31.733l-1.012.588-.218-.126.817-.475-.2-.113.195-.113Z" transform="translate(-25.775 -31.495)" fill="#97c269"/>
            </g>
            <g id="Group_69371" data-name="Group 69371" transform="translate(17.275 9.862)">
              <path id="Path_1723" data-name="Path 1723" d="M34.284,29.994a.828.828,0,0,1,.013,1.565,2.987,2.987,0,0,1-2.706,0,.828.828,0,0,1,0-1.565A2.985,2.985,0,0,1,34.284,29.994Z" transform="translate(-31.031 -29.672)" fill="#7db343"/>
            </g>
            <g id="Group_69372" data-name="Group 69372" transform="translate(14.03 11.975)">
              <path id="Path_1724" data-name="Path 1724" d="M27.711,32.359c.07.04.087.085.062.141a.56.56,0,0,1-.2.171.973.973,0,0,1-.294.115.354.354,0,0,1-.243-.035c-.065-.038-.087-.085-.057-.138a.49.49,0,0,1,.2-.171.9.9,0,0,1,.294-.116.342.342,0,0,1,.239.033Z" transform="translate(-26.966 -32.319)" fill="#97c269"/>
            </g>
            <g id="Group_69373" data-name="Group 69373" transform="translate(13.738 11.806)">
              <path id="Path_1725" data-name="Path 1725" d="M28,32.475a.534.534,0,0,1-.276.281,1.168,1.168,0,0,1-.485.161.757.757,0,0,1-.46-.1q-.209-.121-.171-.264c.021-.1.112-.191.272-.284a1.127,1.127,0,0,1,.489-.158.754.754,0,0,1,.456.1C27.966,32.291,28.023,32.379,28,32.475Zm-.792.269a.973.973,0,0,0,.294-.115.56.56,0,0,0,.2-.171c.026-.055.008-.1-.062-.141a.342.342,0,0,0-.239-.033.9.9,0,0,0-.294.116.49.49,0,0,0-.2.171c-.03.053-.008.1.057.138a.354.354,0,0,0,.243.035" transform="translate(-26.6 -32.107)" fill="#97c269"/>
            </g>
            <g id="Group_69374" data-name="Group 69374" transform="translate(14.743 12.386)">
              <path id="Path_1726" data-name="Path 1726" d="M29.257,33.2a.534.534,0,0,1-.276.281,1.167,1.167,0,0,1-.485.161.757.757,0,0,1-.46-.1q-.209-.121-.171-.264c.021-.1.112-.191.272-.284a1.127,1.127,0,0,1,.489-.158.754.754,0,0,1,.456.1C29.225,33.018,29.282,33.106,29.257,33.2Zm-.792.269a.973.973,0,0,0,.294-.115.56.56,0,0,0,.2-.171c.026-.055.008-.1-.062-.141a.342.342,0,0,0-.239-.033.9.9,0,0,0-.294.116.49.49,0,0,0-.2.171c-.03.053-.008.1.057.138a.354.354,0,0,0,.243.035" transform="translate(-27.859 -32.834)" fill="#97c269"/>
            </g>
            <g id="Group_69375" data-name="Group 69375" transform="translate(15.035 12.555)">
              <path id="Path_1727" data-name="Path 1727" d="M28.97,33.086c.07.04.087.085.062.141a.56.56,0,0,1-.2.171.973.973,0,0,1-.294.115.354.354,0,0,1-.243-.035c-.065-.038-.087-.085-.057-.138a.49.49,0,0,1,.2-.171.9.9,0,0,1,.294-.116A.342.342,0,0,1,28.97,33.086Z" transform="translate(-28.225 -33.046)" fill="#97c269"/>
            </g>
          </g>
          <g id="Group_69377" data-name="Group 69377" transform="translate(0.477 0.279)">
            <path id="Path_1728" data-name="Path 1728" d="M15.452,15.027,35.993,26.886l-10.02,5.823L5.432,20.85ZM27.68,30.876l5.157-3a1.05,1.05,0,0,1-.007-1.987L17.18,16.856a3.779,3.779,0,0,1-3.431,0l-5.157,3A1.05,1.05,0,0,1,8.6,21.842L24.25,30.878a3.779,3.779,0,0,1,3.43,0" transform="translate(-5.432 -15.027)" fill="#7db343"/>
          </g>
          <g id="Group_69378" data-name="Group 69378">
            <path id="Path_1729" data-name="Path 1729" d="M15.334,14.678,36.358,26.816l-10.5,6.1L4.834,20.779ZM25.852,32.639l10.02-5.823L15.331,14.956,5.311,20.779Z" transform="translate(-4.834 -14.678)" fill="#97c269"/>
          </g>
        </g>
        <g id="Group_69380" data-name="Group 69380" transform="translate(8.407 4.849)">
          <path id="Path_1730" data-name="Path 1730" d="M15.354,26.856l3.886,2.258,10.573-6.1-3.886-2.258Z" transform="translate(-15.354 -20.751)" fill="#546f7a"/>
          <path id="Path_1731" data-name="Path 1731" d="M16.121,27.3l10.573-6.1,2.65,1.54-10.575,6.1Z" transform="translate(-15.509 -20.841)" fill="#dde4e7"/>
        </g>
      </g>
      <g id="Group_69416" data-name="Group 69416">
        <g id="Group_69387" data-name="Group 69387" transform="translate(0 0.001)">
          <g id="Group_69386" data-name="Group 69386">
            <g id="Group_69382" data-name="Group 69382" transform="translate(21.024 12.138)">
              <path id="Path_1732" data-name="Path 1732" d="M37.846,23.857l-.009,1.815-10.5,6.1.009-1.815Z" transform="translate(-27.337 -23.857)" fill="#5e8632"/>
            </g>
            <g id="Group_69383" data-name="Group 69383" transform="translate(0 6.102)">
              <path id="Path_1733" data-name="Path 1733" d="M22.034,28.434l-.009,1.815L1,18.11,1.009,16.3Z" transform="translate(-1 -16.295)" fill="#6a9839"/>
            </g>
            <g id="Group_69384" data-name="Group 69384" transform="translate(8.398 10.951)">
              <path id="Path_1734" data-name="Path 1734" d="M15.415,24.628l-.009,1.8L11.52,24.172l.009-1.8Z" transform="translate(-11.52 -22.37)" fill="#475e68"/>
              <path id="Path_1735" data-name="Path 1735" d="M12.29,24.618l.007-1.8,2.648,1.539-.007,1.8Z" transform="translate(-11.675 -22.46)" fill="#cfd8dd"/>
            </g>
            <g id="Group_69385" data-name="Group 69385" transform="translate(0.01)">
              <path id="Path_1736" data-name="Path 1736" d="M32.536,20.79l-10.5,6.1L1.012,14.753l10.5-6.1Z" transform="translate(-1.012 -8.651)" fill="#97c269"/>
            </g>
          </g>
        </g>
        <g id="Group_69414" data-name="Group 69414" transform="translate(0.01)">
          <g id="Group_69388" data-name="Group 69388" transform="translate(6.698 7.749)">
            <path id="Path_1737" data-name="Path 1737" d="M10.8,18.724a.534.534,0,0,1-.276.281,1.168,1.168,0,0,1-.485.161.757.757,0,0,1-.46-.1q-.209-.121-.171-.264a.533.533,0,0,1,.276-.281,1.168,1.168,0,0,1,.485-.161.753.753,0,0,1,.456.1c.144.083.2.171.175.266Zm-.792.269a.973.973,0,0,0,.294-.115.56.56,0,0,0,.2-.171c.03-.053.008-.1-.062-.141a.342.342,0,0,0-.239-.033,1,1,0,0,0-.294.116.545.545,0,0,0-.2.171c-.03.053-.008.1.057.138a.345.345,0,0,0,.243.035" transform="translate(-9.402 -18.356)" fill="#97c269"/>
          </g>
          <g id="Group_69389" data-name="Group 69389" transform="translate(5.693 7.168)">
            <path id="Path_1738" data-name="Path 1738" d="M9.541,18a.534.534,0,0,1-.276.281,1.168,1.168,0,0,1-.485.161.757.757,0,0,1-.46-.1q-.209-.121-.171-.264a.533.533,0,0,1,.276-.281,1.168,1.168,0,0,1,.485-.161.754.754,0,0,1,.456.1c.144.083.2.171.175.266Zm-.792.269a.973.973,0,0,0,.294-.115.56.56,0,0,0,.2-.171c.026-.055.008-.1-.062-.141a.342.342,0,0,0-.239-.033,1,1,0,0,0-.294.116.545.545,0,0,0-.2.171c-.03.053-.008.1.057.138a.354.354,0,0,0,.243.035" transform="translate(-8.143 -17.63)" fill="#97c269"/>
          </g>
          <g id="Group_69411" data-name="Group 69411" transform="translate(3.637 2.108)">
            <g id="Group_69390" data-name="Group 69390" transform="translate(8.392 1.236)">
              <path id="Path_1739" data-name="Path 1739" d="M18.3,13.951l-.29.168-1.928-1.113.29-.168Z" transform="translate(-16.081 -12.838)" fill="#7db343"/>
            </g>
            <g id="Group_69391" data-name="Group 69391" transform="translate(12.282 5.707)">
              <path id="Path_1740" data-name="Path 1740" d="M21.183,18.562a1.043,1.043,0,0,1,.567-.123,1.674,1.674,0,0,1,.677.176l-1.2.7a.884.884,0,0,1-.271-.457C20.954,18.751,21.031,18.65,21.183,18.562Z" transform="translate(-20.954 -18.438)" fill="#7db343"/>
            </g>
            <g id="Group_69392" data-name="Group 69392" transform="translate(10.78 7.406)">
              <path id="Path_1741" data-name="Path 1741" d="M20.628,21.054c.009.115-.068.216-.232.311a1.059,1.059,0,0,1-.6.121,1.928,1.928,0,0,1-.725-.193l1.249-.726a.981.981,0,0,1,.306.487Z" transform="translate(-19.073 -20.567)" fill="#7db343"/>
            </g>
            <g id="Group_69393" data-name="Group 69393" transform="translate(19.892 7.875)">
              <path id="Path_1742" data-name="Path 1742" d="M32.7,22.268l-.29.168-1.928-1.113.29-.168Z" transform="translate(-30.487 -21.155)" fill="#7db343"/>
            </g>
            <g id="Group_69394" data-name="Group 69394" transform="translate(16.935 9.665)">
              <path id="Path_1743" data-name="Path 1743" d="M30.614,23.778a.973.973,0,0,1,.015,1.841,3.5,3.5,0,0,1-3.183,0,.973.973,0,0,1-.006-1.841A3.5,3.5,0,0,1,30.614,23.778Zm-2.931,1.7a2.987,2.987,0,0,0,2.706,0,.828.828,0,0,0-.013-1.565,2.985,2.985,0,0,0-2.7,0,.828.828,0,0,0,0,1.565" transform="translate(-26.784 -23.397)" fill="#6a9839"/>
            </g>
            <g id="Group_69395" data-name="Group 69395">
              <path id="Path_1744" data-name="Path 1744" d="M29.807,20.326a1.05,1.05,0,0,0,.007,1.987l-5.157,3a3.779,3.779,0,0,0-3.43,0L5.575,16.276a1.05,1.05,0,0,0-.007-1.987l5.157-3a3.779,3.779,0,0,0,3.431,0Zm-16.21.357a9.052,9.052,0,0,0,8.214,0c2.265-1.316,2.253-3.447-.023-4.76a9.054,9.054,0,0,0-8.223,0c-2.261,1.314-2.249,3.444.031,4.761M9.245,13.3a.974.974,0,0,0,.011,1.844,3.511,3.511,0,0,0,3.183,0,.974.974,0,0,0-.015-1.841,3.5,3.5,0,0,0-3.179,0m13.921,9.875a3.5,3.5,0,0,0,3.183,0,.973.973,0,0,0-.015-1.841,3.5,3.5,0,0,0-3.175,0,.973.973,0,0,0,.006,1.841m2.345-4.8-.29.168,3.524,2.035.29-.168Zm-11.5-6.637-.29.168,3.52,2.032.29-.168Zm6.933,12.746a1.167,1.167,0,0,0,.485-.161.534.534,0,0,0,.276-.281c.025-.1-.031-.183-.175-.266a.754.754,0,0,0-.456-.1,1.127,1.127,0,0,0-.489.158c-.16.093-.25.186-.272.284s.031.183.171.264a.757.757,0,0,0,.46.1m-1.005-.58a1.167,1.167,0,0,0,.485-.161.534.534,0,0,0,.276-.281c.025-.1-.031-.183-.175-.266a.754.754,0,0,0-.456-.1,1.127,1.127,0,0,0-.489.158c-.16.093-.25.186-.272.284s.031.183.171.264a.757.757,0,0,0,.46.1M9.265,17.741a1.167,1.167,0,0,0,.485-.161.534.534,0,0,0,.276-.281c.025-.1-.031-.183-.175-.266a.754.754,0,0,0-.456-.1,1.168,1.168,0,0,0-.485.161.533.533,0,0,0-.276.281q-.038.143.171.264a.757.757,0,0,0,.46.1m-1.005-.58A1.167,1.167,0,0,0,8.745,17a.534.534,0,0,0,.276-.281c.025-.1-.031-.183-.175-.266a.754.754,0,0,0-.456-.1,1.168,1.168,0,0,0-.485.161.533.533,0,0,0-.276.281q-.038.143.171.264a.757.757,0,0,0,.46.1m19.417,3.117-1.928-1.113-.29.168,1.928,1.113Zm-11.5-6.639L14.25,12.526l-.29.168,1.928,1.113Zm-8.995,3.05L8.194,16.1l-.413-.239-.195.113.2.113-.817.475Zm11.683,6.745,1.012-.588-.413-.239-.195.113.2.113-.817.475Z" transform="translate(-5.568 -11.29)" fill="#97c269"/>
            </g>
            <g id="Group_69396" data-name="Group 69396" transform="translate(8.157 0.45)">
              <path id="Path_1745" data-name="Path 1745" d="M19.6,13.885l-.29.168-3.52-2.032.29-.168Z" transform="translate(-15.787 -11.853)" fill="#7db343"/>
            </g>
            <g id="Group_69397" data-name="Group 69397" transform="translate(3.361 1.829)">
              <path id="Path_1746" data-name="Path 1746" d="M13.035,13.9a.827.827,0,0,1,.009,1.563,2.985,2.985,0,0,1-2.7,0,.829.829,0,0,1-.009-1.567A2.986,2.986,0,0,1,13.035,13.9Z" transform="translate(-9.778 -13.58)" fill="#7db343"/>
            </g>
            <g id="Group_69398" data-name="Group 69398" transform="translate(3.021 1.632)">
              <path id="Path_1747" data-name="Path 1747" d="M13.187,13.717a.974.974,0,0,1,.015,1.841,3.511,3.511,0,0,1-3.183,0,.974.974,0,0,1-.011-1.844,3.5,3.5,0,0,1,3.179,0Zm-2.931,1.7a2.985,2.985,0,0,0,2.7,0,.827.827,0,0,0-.009-1.563,2.986,2.986,0,0,0-2.7,0,.829.829,0,0,0,.009,1.567" transform="translate(-9.353 -13.334)" fill="#6a9839"/>
            </g>
            <g id="Group_69399" data-name="Group 69399" transform="translate(1.396 4.572)">
              <path id="Path_1748" data-name="Path 1748" d="M8.547,17.256l-1.012.588-.218-.126.817-.475-.2-.113.195-.113Z" transform="translate(-7.318 -17.017)" fill="#97c269"/>
            </g>
            <g id="Group_69400" data-name="Group 69400" transform="translate(2.347 5.23)">
              <path id="Path_1749" data-name="Path 1749" d="M9.254,17.882c.07.04.087.085.062.141a.56.56,0,0,1-.2.171.973.973,0,0,1-.294.115.354.354,0,0,1-.243-.035c-.065-.038-.087-.085-.057-.138a.545.545,0,0,1,.2-.171,1,1,0,0,1,.294-.116.342.342,0,0,1,.239.033Z" transform="translate(-8.509 -17.841)" fill="#97c269"/>
            </g>
            <g id="Group_69401" data-name="Group 69401" transform="translate(3.352 5.81)">
              <path id="Path_1750" data-name="Path 1750" d="M10.513,18.609c.07.04.092.088.062.141a.56.56,0,0,1-.2.171.973.973,0,0,1-.294.115A.345.345,0,0,1,9.838,19c-.065-.038-.087-.085-.057-.138a.545.545,0,0,1,.2-.171,1,1,0,0,1,.294-.116A.342.342,0,0,1,10.513,18.609Z" transform="translate(-9.768 -18.568)" fill="#97c269"/>
            </g>
            <g id="Group_69402" data-name="Group 69402" transform="translate(6.311 3.645)">
              <path id="Path_1751" data-name="Path 1751" d="M23.384,16.843c2.276,1.314,2.288,3.444.023,4.76a9.052,9.052,0,0,1-8.214,0c-2.28-1.316-2.292-3.447-.031-4.761a9.054,9.054,0,0,1,8.223,0Zm-4.62,4.348a2.566,2.566,0,0,0,1.421-.321c.406-.236.591-.49.551-.759a1.93,1.93,0,0,0-.673-.975l-.022-.013,1.305-.759a1.626,1.626,0,0,1,.6.811l1.092-.111a2.2,2.2,0,0,0-.934-1.141l.354-.206-.448-.259-.346.2a3.49,3.49,0,0,0-1.52-.392,2.6,2.6,0,0,0-1.4.327c-.4.231-.578.477-.534.739a1.85,1.85,0,0,0,.66.952l-1.349.784a1.544,1.544,0,0,1-.6-1.048l-1.119.055a2.076,2.076,0,0,0,.962,1.432l-.506.294.448.259.5-.289a3.625,3.625,0,0,0,1.564.417" transform="translate(-13.474 -15.856)" fill="#7db343"/>
            </g>
            <g id="Group_69403" data-name="Group 69403" transform="translate(8.635 5.058)">
              <path id="Path_1752" data-name="Path 1752" d="M21.322,20.469c.041.269-.144.522-.551.759a2.566,2.566,0,0,1-1.421.321,3.625,3.625,0,0,1-1.564-.417l-.5.289-.448-.259.506-.294a2.076,2.076,0,0,1-.962-1.432l1.119-.055a1.544,1.544,0,0,0,.6,1.048l1.349-.784a1.849,1.849,0,0,1-.66-.952c-.045-.261.136-.508.534-.739a2.6,2.6,0,0,1,1.4-.327,3.49,3.49,0,0,1,1.52.392l.346-.2.448.259-.354.206a2.2,2.2,0,0,1,.934,1.141l-1.092.111a1.626,1.626,0,0,0-.6-.811l-1.305.759.022.013a1.93,1.93,0,0,1,.673.975Zm-2.066.424a1.059,1.059,0,0,0,.6-.121c.164-.1.242-.2.232-.311a.981.981,0,0,0-.306-.487L18.53,20.7a1.927,1.927,0,0,0,.725.193M20.3,19.15l1.2-.7a1.674,1.674,0,0,0-.677-.176,1.043,1.043,0,0,0-.567.123c-.151.088-.229.188-.228.294a.884.884,0,0,0,.271.457" transform="translate(-16.385 -17.626)" fill="#6a9839"/>
            </g>
            <g id="Group_69404" data-name="Group 69404" transform="translate(19.653 7.087)">
              <path id="Path_1753" data-name="Path 1753" d="M34,22.2l-.29.168-3.524-2.035.29-.168Z" transform="translate(-30.188 -20.167)" fill="#7db343"/>
            </g>
            <g id="Group_69405" data-name="Group 69405" transform="translate(13.079 11.317)">
              <path id="Path_1754" data-name="Path 1754" d="M23.182,25.705l-1.012.588-.218-.126.817-.475-.2-.113.195-.113Z" transform="translate(-21.952 -25.467)" fill="#97c269"/>
            </g>
            <g id="Group_69406" data-name="Group 69406" transform="translate(17.275 9.862)">
              <path id="Path_1755" data-name="Path 1755" d="M30.462,23.966a.828.828,0,0,1,.013,1.565,2.987,2.987,0,0,1-2.706,0,.828.828,0,0,1,0-1.565A2.985,2.985,0,0,1,30.462,23.966Z" transform="translate(-27.209 -23.644)" fill="#7db343"/>
            </g>
            <g id="Group_69407" data-name="Group 69407" transform="translate(14.03 11.975)">
              <path id="Path_1756" data-name="Path 1756" d="M23.888,26.331c.07.04.087.085.062.141a.56.56,0,0,1-.2.171.973.973,0,0,1-.294.115.354.354,0,0,1-.243-.035c-.065-.038-.087-.085-.057-.138a.49.49,0,0,1,.2-.171.894.894,0,0,1,.294-.116.342.342,0,0,1,.239.033Z" transform="translate(-23.144 -26.291)" fill="#97c269"/>
            </g>
            <g id="Group_69408" data-name="Group 69408" transform="translate(13.738 11.806)">
              <path id="Path_1757" data-name="Path 1757" d="M24.175,26.447a.534.534,0,0,1-.276.281,1.168,1.168,0,0,1-.485.161.757.757,0,0,1-.46-.1q-.209-.121-.171-.264c.021-.1.112-.191.272-.284a1.127,1.127,0,0,1,.489-.158.753.753,0,0,1,.456.1c.144.083.2.171.175.266Zm-.792.269a.973.973,0,0,0,.294-.115.56.56,0,0,0,.2-.171c.026-.055.008-.1-.062-.141a.342.342,0,0,0-.239-.033.894.894,0,0,0-.294.116.49.49,0,0,0-.2.171c-.03.053-.008.1.057.138a.354.354,0,0,0,.243.035" transform="translate(-22.778 -26.079)" fill="#97c269"/>
            </g>
            <g id="Group_69409" data-name="Group 69409" transform="translate(14.743 12.386)">
              <path id="Path_1758" data-name="Path 1758" d="M25.435,27.174a.534.534,0,0,1-.276.281,1.168,1.168,0,0,1-.485.161.757.757,0,0,1-.46-.1q-.209-.121-.171-.264c.021-.1.112-.191.272-.284a1.127,1.127,0,0,1,.489-.158.754.754,0,0,1,.456.1c.144.083.2.171.175.266Zm-.792.269a.973.973,0,0,0,.294-.115.56.56,0,0,0,.2-.171c.026-.055.008-.1-.062-.141a.342.342,0,0,0-.239-.033.9.9,0,0,0-.294.116.49.49,0,0,0-.2.171c-.03.053-.008.1.057.138a.354.354,0,0,0,.243.035" transform="translate(-24.037 -26.806)" fill="#97c269"/>
            </g>
            <g id="Group_69410" data-name="Group 69410" transform="translate(15.035 12.555)">
              <path id="Path_1759" data-name="Path 1759" d="M25.147,27.058c.07.04.087.085.062.141a.56.56,0,0,1-.2.171.973.973,0,0,1-.294.115.354.354,0,0,1-.243-.035c-.065-.038-.087-.085-.057-.138a.49.49,0,0,1,.2-.171.9.9,0,0,1,.294-.116.342.342,0,0,1,.239.033Z" transform="translate(-24.403 -27.018)" fill="#97c269"/>
            </g>
          </g>
          <g id="Group_69412" data-name="Group 69412" transform="translate(0.477 0.279)">
            <path id="Path_1760" data-name="Path 1760" d="M11.63,9,32.171,20.858l-10.02,5.823L1.61,14.822ZM23.858,24.848l5.157-3a1.05,1.05,0,0,1-.007-1.987L13.358,10.828a3.779,3.779,0,0,1-3.431,0l-5.157,3a1.05,1.05,0,0,1,.007,1.987L20.427,24.85a3.779,3.779,0,0,1,3.43,0" transform="translate(-1.61 -8.999)" fill="#7db343"/>
          </g>
          <g id="Group_69413" data-name="Group 69413">
            <path id="Path_1761" data-name="Path 1761" d="M11.512,8.65,32.536,20.788l-10.5,6.1L1.012,14.752ZM22.03,26.611l10.02-5.823L11.509,8.929,1.489,14.752Z" transform="translate(-1.012 -8.65)" fill="#97c269"/>
          </g>
        </g>
        <g id="Group_69415" data-name="Group 69415" transform="translate(8.407 4.848)">
          <path id="Path_1762" data-name="Path 1762" d="M11.532,20.828l3.886,2.258,10.573-6.1L22.1,14.723Z" transform="translate(-11.532 -14.723)" fill="#546f7a"/>
          <path id="Path_1763" data-name="Path 1763" d="M12.3,21.274l10.573-6.1,2.65,1.54-10.575,6.1Z" transform="translate(-11.687 -14.813)" fill="#dde4e7"/>
        </g>
      </g>
      <g id="Group_69451" data-name="Group 69451" transform="translate(6.784 0.139)">
        <g id="Group_69422" data-name="Group 69422" transform="translate(0 0.001)">
          <g id="Group_69421" data-name="Group 69421">
            <g id="Group_69417" data-name="Group 69417" transform="translate(21.024 12.138)">
              <path id="Path_1764" data-name="Path 1764" d="M46.344,24.031l-.009,1.815-10.5,6.1.009-1.815Z" transform="translate(-35.835 -24.031)" fill="#5e8632"/>
            </g>
            <g id="Group_69418" data-name="Group 69418" transform="translate(0 6.102)">
              <path id="Path_1765" data-name="Path 1765" d="M30.531,28.607l-.009,1.815L9.5,18.283l.009-1.815Z" transform="translate(-9.498 -16.469)" fill="#6a9839"/>
            </g>
            <g id="Group_69419" data-name="Group 69419" transform="translate(8.398 10.951)">
              <path id="Path_1766" data-name="Path 1766" d="M23.913,24.8,23.9,26.6l-3.886-2.258.009-1.8Z" transform="translate(-20.018 -22.544)" fill="#475e68"/>
              <path id="Path_1767" data-name="Path 1767" d="M20.788,24.792l.007-1.8,2.648,1.539-.007,1.8Z" transform="translate(-20.173 -22.634)" fill="#cfd8dd"/>
            </g>
            <g id="Group_69420" data-name="Group 69420" transform="translate(0.009)">
              <path id="Path_1768" data-name="Path 1768" d="M41.034,20.963l-10.5,6.1L9.51,14.927l10.5-6.1Z" transform="translate(-9.51 -8.825)" fill="#97c269"/>
            </g>
          </g>
        </g>
        <g id="Group_69449" data-name="Group 69449" transform="translate(0.01)">
          <g id="Group_69423" data-name="Group 69423" transform="translate(6.698 7.749)">
            <path id="Path_1769" data-name="Path 1769" d="M19.3,18.9a.534.534,0,0,1-.276.281,1.168,1.168,0,0,1-.485.161.757.757,0,0,1-.46-.1q-.209-.121-.171-.264a.533.533,0,0,1,.276-.281,1.168,1.168,0,0,1,.485-.161.753.753,0,0,1,.456.1c.144.083.2.171.175.266Zm-.792.269a.973.973,0,0,0,.294-.115.56.56,0,0,0,.2-.171c.03-.053.008-.1-.062-.141a.342.342,0,0,0-.239-.033,1,1,0,0,0-.294.116.545.545,0,0,0-.2.171c-.03.053-.008.1.057.138a.345.345,0,0,0,.243.035" transform="translate(-17.9 -18.53)" fill="#97c269"/>
          </g>
          <g id="Group_69424" data-name="Group 69424" transform="translate(5.693 7.168)">
            <path id="Path_1770" data-name="Path 1770" d="M18.039,18.171a.534.534,0,0,1-.276.281,1.168,1.168,0,0,1-.485.161.757.757,0,0,1-.46-.1q-.209-.121-.171-.264a.533.533,0,0,1,.276-.281,1.168,1.168,0,0,1,.485-.161.754.754,0,0,1,.456.1c.144.083.2.171.175.266Zm-.792.269a.973.973,0,0,0,.294-.115.56.56,0,0,0,.2-.171c.026-.055.008-.1-.062-.141a.342.342,0,0,0-.239-.033,1,1,0,0,0-.294.116.545.545,0,0,0-.2.171c-.03.053-.008.1.057.138a.355.355,0,0,0,.243.035" transform="translate(-16.641 -17.803)" fill="#97c269"/>
          </g>
          <g id="Group_69446" data-name="Group 69446" transform="translate(3.637 2.108)">
            <g id="Group_69425" data-name="Group 69425" transform="translate(8.392 1.236)">
              <path id="Path_1771" data-name="Path 1771" d="M26.8,14.124l-.29.168L24.579,13.18l.29-.168Z" transform="translate(-24.579 -13.012)" fill="#7db343"/>
            </g>
            <g id="Group_69426" data-name="Group 69426" transform="translate(12.282 5.707)">
              <path id="Path_1772" data-name="Path 1772" d="M29.681,18.736a1.043,1.043,0,0,1,.567-.123,1.674,1.674,0,0,1,.677.176l-1.2.7a.884.884,0,0,1-.271-.457C29.452,18.924,29.529,18.824,29.681,18.736Z" transform="translate(-29.452 -18.612)" fill="#7db343"/>
            </g>
            <g id="Group_69427" data-name="Group 69427" transform="translate(10.78 7.406)">
              <path id="Path_1773" data-name="Path 1773" d="M29.126,21.228c.009.115-.068.216-.232.311a1.059,1.059,0,0,1-.6.121,1.928,1.928,0,0,1-.725-.193l1.249-.726A.981.981,0,0,1,29.126,21.228Z" transform="translate(-27.57 -20.74)" fill="#7db343"/>
            </g>
            <g id="Group_69428" data-name="Group 69428" transform="translate(19.891 7.875)">
              <path id="Path_1774" data-name="Path 1774" d="M41.2,22.442l-.29.168L38.984,21.5l.29-.168Z" transform="translate(-38.984 -21.329)" fill="#7db343"/>
            </g>
            <g id="Group_69429" data-name="Group 69429" transform="translate(16.935 9.665)">
              <path id="Path_1775" data-name="Path 1775" d="M39.112,23.952a.973.973,0,0,1,.015,1.841,3.5,3.5,0,0,1-3.183,0,.973.973,0,0,1-.006-1.841A3.5,3.5,0,0,1,39.112,23.952Zm-2.931,1.7a2.987,2.987,0,0,0,2.706,0,.828.828,0,0,0-.013-1.565,2.985,2.985,0,0,0-2.7,0,.828.828,0,0,0,0,1.565" transform="translate(-35.281 -23.571)" fill="#6a9839"/>
            </g>
            <g id="Group_69430" data-name="Group 69430">
              <path id="Path_1776" data-name="Path 1776" d="M38.3,20.5a1.05,1.05,0,0,0,.007,1.987l-5.157,3a3.779,3.779,0,0,0-3.43,0L14.073,16.45a1.05,1.05,0,0,0-.007-1.987l5.157-3a3.779,3.779,0,0,0,3.431,0Zm-16.21.357a9.052,9.052,0,0,0,8.214,0c2.265-1.316,2.253-3.447-.023-4.76a9.054,9.054,0,0,0-8.223,0c-2.261,1.314-2.249,3.444.031,4.761m-4.352-7.381a.974.974,0,0,0,.011,1.844,3.511,3.511,0,0,0,3.183,0,.974.974,0,0,0-.015-1.841,3.5,3.5,0,0,0-3.179,0m13.921,9.875a3.5,3.5,0,0,0,3.183,0,.973.973,0,0,0-.015-1.841,3.5,3.5,0,0,0-3.175,0,.973.973,0,0,0,.006,1.841m2.345-4.8-.29.168,3.524,2.035.29-.168Zm-11.5-6.637-.29.168,3.52,2.032.29-.168Zm6.933,12.746c.423-.039,1.076-.425.586-.709a.944.944,0,0,0-.945.06c-.622.361-.048.685.359.648m-1.005-.58a1.167,1.167,0,0,0,.485-.161.534.534,0,0,0,.276-.281c.025-.1-.031-.183-.175-.266a.753.753,0,0,0-.456-.1,1.127,1.127,0,0,0-.489.158c-.16.093-.25.186-.272.284s.031.183.171.264a.757.757,0,0,0,.46.1M17.763,17.915a1.167,1.167,0,0,0,.485-.161.534.534,0,0,0,.276-.281c.025-.1-.031-.183-.175-.266a.754.754,0,0,0-.456-.1,1.168,1.168,0,0,0-.485.161.533.533,0,0,0-.276.281q-.038.143.171.264a.757.757,0,0,0,.46.1m-1.005-.58a1.167,1.167,0,0,0,.485-.161.534.534,0,0,0,.276-.281c.025-.1-.031-.183-.175-.266a.754.754,0,0,0-.456-.1,1.168,1.168,0,0,0-.485.161.533.533,0,0,0-.276.281q-.038.143.171.264a.758.758,0,0,0,.46.1m19.417,3.117-1.928-1.113-.29.168,1.928,1.113Zm-11.5-6.639L22.748,12.7l-.29.168,1.928,1.113Zm-8.995,3.05,1.012-.588-.413-.239-.195.113.2.113-.817.475Zm11.683,6.745,1.012-.588-.413-.239-.195.113.2.113-.817.475Z" transform="translate(-14.066 -11.463)" fill="#97c269"/>
            </g>
            <g id="Group_69431" data-name="Group 69431" transform="translate(8.157 0.45)">
              <path id="Path_1777" data-name="Path 1777" d="M28.095,14.059l-.29.168-3.52-2.032.29-.168Z" transform="translate(-24.285 -12.027)" fill="#7db343"/>
            </g>
            <g id="Group_69432" data-name="Group 69432" transform="translate(3.361 1.829)">
              <path id="Path_1778" data-name="Path 1778" d="M21.533,14.078a.827.827,0,0,1,.009,1.563,2.985,2.985,0,0,1-2.7,0,.829.829,0,0,1-.009-1.567,2.986,2.986,0,0,1,2.7,0Z" transform="translate(-18.276 -13.754)" fill="#7db343"/>
            </g>
            <g id="Group_69433" data-name="Group 69433" transform="translate(3.021 1.632)">
              <path id="Path_1779" data-name="Path 1779" d="M21.685,13.891a.974.974,0,0,1,.015,1.841,3.511,3.511,0,0,1-3.183,0,.974.974,0,0,1-.011-1.844A3.5,3.5,0,0,1,21.685,13.891Zm-2.931,1.7a2.985,2.985,0,0,0,2.7,0,.827.827,0,0,0-.009-1.563,2.986,2.986,0,0,0-2.7,0,.829.829,0,0,0,.009,1.567" transform="translate(-17.851 -13.508)" fill="#6a9839"/>
            </g>
            <g id="Group_69434" data-name="Group 69434" transform="translate(1.396 4.572)">
              <path id="Path_1780" data-name="Path 1780" d="M17.045,17.429l-1.012.588-.218-.126.817-.475-.2-.113.195-.113Z" transform="translate(-15.816 -17.191)" fill="#97c269"/>
            </g>
            <g id="Group_69435" data-name="Group 69435" transform="translate(2.347 5.23)">
              <path id="Path_1781" data-name="Path 1781" d="M17.751,18.055c.07.04.087.085.062.141a.56.56,0,0,1-.2.171.973.973,0,0,1-.294.115.354.354,0,0,1-.243-.035c-.065-.038-.087-.085-.057-.138a.545.545,0,0,1,.2-.171,1,1,0,0,1,.294-.116.342.342,0,0,1,.239.033Z" transform="translate(-17.007 -18.015)" fill="#97c269"/>
            </g>
            <g id="Group_69436" data-name="Group 69436" transform="translate(3.352 5.81)">
              <path id="Path_1782" data-name="Path 1782" d="M19.01,18.782c.07.04.092.088.062.141a.56.56,0,0,1-.2.171.973.973,0,0,1-.294.115.345.345,0,0,1-.243-.035c-.065-.038-.087-.085-.057-.138a.545.545,0,0,1,.2-.171,1,1,0,0,1,.294-.116.342.342,0,0,1,.239.033Z" transform="translate(-18.266 -18.742)" fill="#97c269"/>
            </g>
            <g id="Group_69437" data-name="Group 69437" transform="translate(6.31 3.645)">
              <path id="Path_1783" data-name="Path 1783" d="M31.881,17.017c2.276,1.314,2.288,3.444.023,4.76a9.052,9.052,0,0,1-8.214,0c-2.28-1.316-2.292-3.447-.031-4.761a9.054,9.054,0,0,1,8.223,0Zm-4.62,4.348a2.566,2.566,0,0,0,1.421-.321c.406-.236.591-.49.551-.759a1.93,1.93,0,0,0-.673-.975l-.022-.013,1.305-.759a1.625,1.625,0,0,1,.6.811l1.092-.111A2.2,2.2,0,0,0,30.6,18.1l.354-.206-.448-.259-.346.2a3.49,3.49,0,0,0-1.52-.392,2.6,2.6,0,0,0-1.4.327c-.4.231-.578.477-.534.739a1.85,1.85,0,0,0,.66.952l-1.349.784a1.544,1.544,0,0,1-.6-1.048l-1.119.055a2.076,2.076,0,0,0,.962,1.432l-.506.294.448.259.5-.289a3.625,3.625,0,0,0,1.564.417" transform="translate(-21.971 -16.029)" fill="#7db343"/>
            </g>
            <g id="Group_69438" data-name="Group 69438" transform="translate(8.635 5.058)">
              <path id="Path_1784" data-name="Path 1784" d="M29.82,20.642c.041.269-.144.522-.551.759a2.566,2.566,0,0,1-1.421.321,3.625,3.625,0,0,1-1.564-.417l-.5.289-.448-.259.506-.294a2.076,2.076,0,0,1-.962-1.432L26,19.554a1.544,1.544,0,0,0,.6,1.048l1.349-.784a1.849,1.849,0,0,1-.66-.952c-.045-.261.136-.508.534-.739a2.6,2.6,0,0,1,1.4-.327,3.49,3.49,0,0,1,1.52.392l.346-.2.448.259-.354.206a2.2,2.2,0,0,1,.934,1.141l-1.092.111a1.626,1.626,0,0,0-.6-.811l-1.305.759.022.013a1.93,1.93,0,0,1,.673.975Zm-2.066.424a1.059,1.059,0,0,0,.6-.121c.164-.1.242-.2.232-.311a.981.981,0,0,0-.306-.487l-1.249.726a1.928,1.928,0,0,0,.725.193M28.8,19.323l1.2-.7a1.674,1.674,0,0,0-.677-.176,1.043,1.043,0,0,0-.567.123c-.151.088-.229.188-.228.294a.884.884,0,0,0,.271.457" transform="translate(-24.883 -17.799)" fill="#6a9839"/>
            </g>
            <g id="Group_69439" data-name="Group 69439" transform="translate(19.653 7.087)">
              <path id="Path_1785" data-name="Path 1785" d="M42.5,22.375l-.29.168-3.524-2.035.29-.168Z" transform="translate(-38.685 -20.341)" fill="#7db343"/>
            </g>
            <g id="Group_69440" data-name="Group 69440" transform="translate(13.079 11.317)">
              <path id="Path_1786" data-name="Path 1786" d="M31.679,25.879l-1.012.588-.218-.126.817-.475-.2-.113.195-.113Z" transform="translate(-30.45 -25.64)" fill="#97c269"/>
            </g>
            <g id="Group_69441" data-name="Group 69441" transform="translate(17.275 9.862)">
              <path id="Path_1787" data-name="Path 1787" d="M38.96,24.139a.828.828,0,0,1,.013,1.565,2.987,2.987,0,0,1-2.706,0,.828.828,0,0,1,0-1.565,2.985,2.985,0,0,1,2.7,0Z" transform="translate(-35.707 -23.817)" fill="#7db343"/>
            </g>
            <g id="Group_69442" data-name="Group 69442" transform="translate(14.03 11.975)">
              <path id="Path_1788" data-name="Path 1788" d="M32.386,26.5c.07.04.087.085.062.141a.56.56,0,0,1-.2.171.973.973,0,0,1-.294.115.354.354,0,0,1-.243-.035c-.065-.038-.087-.085-.057-.138a.49.49,0,0,1,.2-.171.9.9,0,0,1,.294-.116.342.342,0,0,1,.239.033Z" transform="translate(-31.641 -26.464)" fill="#97c269"/>
            </g>
            <g id="Group_69443" data-name="Group 69443" transform="translate(13.738 11.806)">
              <path id="Path_1789" data-name="Path 1789" d="M32.673,26.62a.534.534,0,0,1-.276.281,1.168,1.168,0,0,1-.485.161.757.757,0,0,1-.46-.1q-.209-.121-.171-.264c.021-.1.112-.191.272-.284a1.127,1.127,0,0,1,.489-.158.754.754,0,0,1,.456.1c.144.083.2.171.175.266Zm-.792.269a.973.973,0,0,0,.294-.115.56.56,0,0,0,.2-.171c.026-.055.008-.1-.062-.141a.342.342,0,0,0-.239-.033.9.9,0,0,0-.294.116.49.49,0,0,0-.2.171c-.03.053-.008.1.057.138a.354.354,0,0,0,.243.035" transform="translate(-31.275 -26.252)" fill="#97c269"/>
            </g>
            <g id="Group_69444" data-name="Group 69444" transform="translate(14.743 12.386)">
              <path id="Path_1790" data-name="Path 1790" d="M33.932,27.347a.534.534,0,0,1-.276.281,1.168,1.168,0,0,1-.485.161.757.757,0,0,1-.46-.1q-.209-.121-.171-.264c.021-.1.112-.191.272-.284a1.127,1.127,0,0,1,.489-.158.754.754,0,0,1,.456.1c.144.083.2.171.175.266Zm-.792.269a.973.973,0,0,0,.294-.115.56.56,0,0,0,.2-.171c.026-.055.008-.1-.062-.141a.342.342,0,0,0-.239-.033.9.9,0,0,0-.294.116.49.49,0,0,0-.2.171c-.03.053-.008.1.057.138a.354.354,0,0,0,.243.035" transform="translate(-32.535 -26.979)" fill="#97c269"/>
            </g>
            <g id="Group_69445" data-name="Group 69445" transform="translate(15.035 12.555)">
              <path id="Path_1791" data-name="Path 1791" d="M33.645,27.232c.07.04.087.085.062.141a.56.56,0,0,1-.2.171.973.973,0,0,1-.294.115.354.354,0,0,1-.243-.035c-.065-.038-.087-.085-.057-.138a.49.49,0,0,1,.2-.171.894.894,0,0,1,.294-.116.342.342,0,0,1,.239.033Z" transform="translate(-32.901 -27.191)" fill="#97c269"/>
            </g>
          </g>
          <g id="Group_69447" data-name="Group 69447" transform="translate(0.477 0.279)">
            <path id="Path_1792" data-name="Path 1792" d="M20.127,9.172,40.669,21.032l-10.02,5.823L10.107,15ZM32.356,25.021l5.157-3a1.05,1.05,0,0,1-.007-1.987L21.855,11a3.779,3.779,0,0,1-3.431,0l-5.157,3a1.05,1.05,0,0,1,.007,1.987l15.651,9.036a3.779,3.779,0,0,1,3.43,0" transform="translate(-10.107 -9.172)" fill="#7db343"/>
          </g>
          <g id="Group_69448" data-name="Group 69448">
            <path id="Path_1793" data-name="Path 1793" d="M20.01,8.823,41.034,20.962l-10.5,6.1L9.51,14.925ZM30.528,26.785l10.02-5.823L20.007,9.1,9.987,14.925Z" transform="translate(-9.51 -8.823)" fill="#97c269"/>
          </g>
        </g>
        <g id="Group_69450" data-name="Group 69450" transform="translate(8.407 4.848)">
          <path id="Path_1794" data-name="Path 1794" d="M20.03,21l3.886,2.258,10.573-6.1L30.6,14.9Z" transform="translate(-20.03 -14.897)" fill="#546f7a"/>
          <path id="Path_1795" data-name="Path 1795" d="M20.8,21.448l10.573-6.1,2.65,1.54-10.575,6.1Z" transform="translate(-20.184 -14.987)" fill="#dde4e7"/>
        </g>
      </g>
    </g>
  </g>
</svg>
