<svg xmlns="http://www.w3.org/2000/svg" width="103" height="51" fill="none"><path d="M35.615 2.59C38.873.065 43.238-.366 47.295.25 58.605 1.913 57.315 11.029 57.99 13c-.062-1.786 1.229-3.388 2.827-4.127 1.598-.739 3.442-.739 5.164-.493 1.782.308 3.626.986 4.917 2.28 1.353 1.293 2.09 3.202 1.66 4.989 3.32-2.402 7.93-2.156 11.802-.924 2.89.924 5.778 2.525 7.438 5.05 1.66 2.526 1.967 6.222 0 8.563 3.012-.678 6.455-.493 8.79 1.54 2.828 2.463 3.074 7.083 1.23 10.41-1.844 3.264-5.348 5.358-8.913 6.528-4.119 1.355-8.483 1.602-12.725 1.91-21.514 1.417-43.09 2.772-64.666 2.094-3.873-.123-7.992-.431-11.065-2.772C1.868 46.078.454 42.813.086 39.61c-.37-3.327.43-7.022 2.889-9.301 2.458-2.341 6.7-2.834 9.159-.493-.86-4.004-.677-8.377 1.352-11.95 2.029-3.572 6.209-5.975 10.266-5.297 3.995.677 6.884 4.065 9.466 7.207-.738-.863-1.352-7.577-1.414-9.055-.246-3.203 1.414-6.283 3.811-8.13z" fill="#fff"></path></svg>