<svg width="91" height="61" fill="none" xmlns="http://www.w3.org/2000/svg"><path d="M44.865 61c-5.079 0-9.312-2.773-11.851-6.612l-.423-.853-.424.213a16.047 16.047 0 01-5.714 1.067c-5.079 0-9.311-2.773-11.85-6.612l-.636-1.067-2.54-.213C4.868 45.43 0 39.458 0 32.42c.212-8.105 6.772-14.504 14.602-14.29h.212l.635-2.133c2.328-5.12 7.407-8.745 13.544-8.745 1.058 0 1.905.213 2.963.426l2.116.64.212-.426C36.824 2.986 41.69 0 47.193 0c5.08 0 9.312 2.773 11.851 6.612l1.27 2.346.846-.213c.635 0 1.482-.214 2.117-.214 6.137 0 11.216 4.053 13.332 9.385l.424 1.067 2.75.213c6.561 1.493 11.429 7.465 11.429 14.503 0 7.039-5.08 12.797-11.852 14.077l-2.116.213v.214c-2.54 4.692-7.407 7.891-13.12 7.891-1.905 0-3.81-.426-5.715-1.28l-1.058-.64-.212.64c-2.75 3.84-7.195 6.4-12.274 6.186z" fill="#fff" fill-opacity=".674"/></svg>