<svg width="57" height="38" fill="none" xmlns="http://www.w3.org/2000/svg"><path d="M27.904 37.962c-3.01 0-5.821-1.592-7.427-3.98l-.201-.397-.2.199c-1.005.398-2.21.597-3.414.597-3.01 0-5.821-1.592-7.427-3.98l-.402-.796-1.606-.199C3.212 28.412.201 24.83.201 20.652c0-4.975 4.216-8.954 9.034-8.755h.2l.402-1.194c1.204-3.581 4.416-5.77 8.23-5.571.603 0 1.205 0 1.807.199l1.205.398.2-.398C22.887 2.545 25.898.556 29.31.556c3.012 0 5.822 1.591 7.428 3.98l.803 1.392h1.807a8.69 8.69 0 018.23 5.77l.202.597 1.806.199c4.015.796 7.027 4.576 7.027 8.755 0 4.377-3.212 7.959-7.227 8.555l-1.205.2v.198c-1.606 2.985-4.617 4.975-8.23 4.776-1.205 0-2.41-.2-3.413-.796l-1.004-.398-.2.199c-1.607 2.387-4.217 3.98-7.429 3.98z" fill="#fff"/></svg>