<svg width="217" height="255" viewBox="0 0 217 255" fill="none" xmlns="http://www.w3.org/2000/svg">
<g clip-path="url(#clip0_1619_3379)">
<path opacity="0.61" d="M143.177 237.041C143.177 241.161 111.12 244.476 71.5724 244.476C32.0565 244.476 0 241.129 0 237.041C0 232.921 32.0565 229.606 71.6045 229.606C111.12 229.606 143.177 232.921 143.177 237.041Z" fill="#009E73"/>
<path opacity="0.61" d="M176.005 247.63C176.005 251.685 158.642 254.968 137.197 254.968C115.783 254.968 98.3879 251.685 98.3879 247.63C98.3879 243.575 115.751 240.292 137.197 240.292C158.642 240.292 176.005 243.575 176.005 247.63Z" fill="#009E73"/>
<path d="M140.154 249.11C145.331 248.306 170.828 235.432 170.378 229.349C170.346 228.769 170.121 228.287 169.735 227.868C167.999 226.001 162.34 226.42 157.131 227.289C151.922 228.158 147.132 229.51 147.132 229.51L136.553 238.232C136.553 238.232 135.685 244.83 137.421 247.791C137.968 248.724 138.868 249.303 140.154 249.11Z" fill="#929293"/>
<path d="M140.155 249.11C145.331 248.306 170.828 235.432 170.378 229.349C170.346 228.769 170.121 228.287 169.735 227.868C165.813 232.149 155.299 241.901 137.422 247.758C137.968 248.724 138.868 249.303 140.155 249.11Z" fill="#321A29"/>
<path d="M149.543 233.758C149.286 231.795 149.961 229.96 150.861 228.222C151.376 227.257 152.887 227.74 152.469 228.834C151.922 230.315 151.312 231.763 151.472 233.372C151.569 234.692 149.704 235.046 149.543 233.758Z" fill="#321A29"/>
<path d="M152.823 232.825C153.016 231.023 153.498 229.317 154.237 227.643C154.752 226.549 156.392 227.16 155.942 228.319C155.331 229.832 154.913 231.377 154.752 233.018C154.623 234.305 152.662 234.112 152.823 232.825Z" fill="#321A29"/>
<path d="M156.199 232.406C156.392 230.572 156.713 228.351 157.71 226.806C158.096 226.227 159.028 226.581 158.964 227.289C158.771 229.091 158.192 230.797 158.031 232.6C157.935 233.823 156.07 233.662 156.199 232.406Z" fill="#321A29"/>
<path d="M148.997 228.995C144.945 233.565 141.537 236.365 136.489 238.489C136.489 238.489 132.213 230.54 127.84 222.59C123.467 214.673 119.03 206.787 119.03 206.787L117.583 204.245L117.551 204.18L110.381 191.66L127.583 181.361L133.949 195.072L133.981 195.169L135.203 197.84C135.203 197.84 138.675 205.629 142.148 213.385C145.588 221.206 148.997 228.995 148.997 228.995Z" fill="#FF9981"/>
<path d="M134.013 195.169C128.772 198.58 123.274 201.606 117.583 204.245L117.551 204.18L110.381 191.66L127.583 181.361L133.949 195.072L134.013 195.169Z" fill="#FF4E68"/>
<path d="M59.933 233.984C54.4348 235.85 22.5713 236.494 19.8704 230.25C19.6132 229.639 19.5811 229.059 19.7418 228.48C20.4813 225.744 26.2689 223.202 31.8635 221.335C37.4581 219.468 42.8919 218.31 42.8919 218.31L57.8109 221.399C57.8109 221.399 62.0872 227.45 61.8943 231.248C61.8621 232.471 61.2834 233.501 59.933 233.984Z" fill="#929293"/>
<path d="M59.933 233.984C54.4348 235.85 22.5713 236.494 19.8704 230.25C19.6132 229.639 19.5811 229.059 19.7418 228.48C25.8187 230.669 41.2521 234.788 61.9264 231.248C61.8621 232.471 61.2834 233.501 59.933 233.984Z" fill="#321A29"/>
<path d="M42.699 223.749C41.9274 221.689 40.3197 220.208 38.5513 218.985C37.5546 218.277 36.3006 219.565 37.2974 220.434C38.6156 221.592 39.966 222.719 40.6413 224.393C41.1879 225.712 43.2135 225.101 42.699 223.749Z" fill="#321A29"/>
<path d="M38.9693 224.521C37.8439 222.847 36.4935 221.399 34.8858 220.176C33.8248 219.371 32.5065 220.852 33.5676 221.721C34.9502 222.88 36.1398 224.199 37.1687 225.712C37.9725 226.935 39.8052 225.744 38.9693 224.521Z" fill="#321A29"/>
<path d="M35.4324 225.905C34.2749 224.199 32.828 222.172 31.0275 221.174C30.3523 220.788 29.6127 221.657 30.0629 222.301C31.1882 223.974 32.6673 225.326 33.7605 227.032C34.4678 228.19 36.2041 227.064 35.4324 225.905Z" fill="#321A29"/>
<path d="M40.7698 218.76C44.8532 220.305 49.0652 221.528 53.4702 221.721C54.4991 221.753 55.528 221.753 56.5569 221.721C56.7819 221.721 57.843 221.785 58.0359 221.625C58.0681 221.592 58.0359 221.399 58.0359 221.367C58.1645 220.949 58.0359 220.337 58.0681 219.919C58.0681 218.921 58.1002 217.923 58.1002 216.926C58.1645 212.388 58.2288 207.817 58.3574 203.279C58.4217 200.962 58.3896 198.58 58.5825 196.263C58.6147 195.845 58.6468 195.362 58.8397 195.008C59.0648 194.622 59.5471 194.364 59.7722 194.203C61.3155 193.173 62.6981 192.015 64.2736 191.049C66.0098 189.955 67.8104 188.957 69.6431 188.056C66.3314 181.394 62.9875 174.699 60.0615 167.876C53.7596 171.577 47.3933 176.115 42.8919 181.941C41.5736 183.614 40.4483 185.481 39.7409 187.477C38.9371 189.794 39.0978 192.24 39.1943 194.654C39.3872 199.771 39.7409 204.921 40.0946 210.038C40.3197 212.935 40.5447 215.863 40.7698 218.76Z" fill="#FF9981"/>
<path d="M46.0428 178.4C50.1263 184.065 55.0457 189.053 59.8043 194.139L59.8364 194.106C59.8364 194.106 60.2544 193.752 61.0583 193.173C61.8299 192.594 63.0196 191.789 64.3057 190.985C65.5918 190.18 66.9744 189.407 68.0033 188.86C69.0322 188.313 69.6752 187.991 69.6752 187.991C69.6752 187.991 67.1673 183.003 64.788 177.95C63.5662 175.439 62.4087 172.897 61.5405 170.998C60.6724 169.099 60.1258 167.812 60.1258 167.812C60.1258 167.812 59.8686 167.972 59.4506 168.198C59.0326 168.455 58.4539 168.809 57.7787 169.26C56.3961 170.129 54.5955 171.352 52.8593 172.639C51.123 173.927 49.4189 175.311 48.1971 176.405C46.9753 177.499 46.2036 178.272 46.2036 178.272L46.0428 178.4Z" fill="#FF4E68"/>
<path d="M30.6095 74.7651C30.6095 74.7651 32.2172 72.5765 33.6962 70.388C35.1431 68.1994 36.5257 66.0108 35.5611 65.4315C34.6287 64.8522 33.0853 65.6246 31.7992 66.5902C30.5452 67.5557 29.5163 68.7144 29.5163 68.7144C29.5163 68.7144 29.5806 65.8821 29.4842 62.9855C29.3556 60.0888 29.0662 57.16 27.6193 56.7416C26.6226 56.452 25.8831 58.2865 25.4972 60.3141C25.1114 62.3418 25.0792 64.466 25.0792 64.466C25.0792 64.466 24.4362 62.3418 23.6002 60.1854C22.7642 58.0612 21.7353 55.9048 20.5135 55.9692C19.2596 56.0657 19.0023 58.4474 19.1631 60.7647C19.3239 63.082 19.9026 65.335 19.9026 65.335C19.9026 65.335 18.6487 63.4682 17.2982 61.6337C15.9157 59.7992 14.4366 57.9646 13.6007 58.383C12.0895 59.2198 12.411 61.6981 13.1827 63.9188C13.9543 66.1074 15.1761 68.0385 15.1761 68.0385C15.1761 68.0385 14.1151 66.6867 12.8611 65.4637C11.6072 64.2407 10.1281 63.1142 9.1957 63.7901C8.23111 64.466 9.09924 67.1051 10.3211 69.4546C11.5107 71.8363 13.0541 73.9283 13.0541 73.9283C13.0541 73.9283 13.0219 75.3766 13.5042 77.0824C14.0186 78.7882 15.0797 80.7836 17.1053 81.6526C19.131 82.5538 22.1533 81.6526 24.7899 80.14C27.4586 78.6595 29.8379 76.5674 30.6095 74.7651Z" fill="#FF9981"/>
<path d="M28.7447 68.7142C27.5229 68.2314 26.076 68.1992 24.7899 68.6498C24.4683 68.7786 24.1468 68.9073 23.8253 69.1004C22.9571 69.6154 22.2498 70.3556 21.7996 71.289C21.7032 71.5143 21.7675 71.8039 21.9925 71.9005C22.2176 72.0292 22.4748 71.9327 22.6035 71.7074C22.9571 70.9671 23.568 70.3234 24.2754 69.8728C24.5326 69.7119 24.7899 69.5832 25.0471 69.4866C26.1081 69.1004 27.2978 69.1326 28.3588 69.5188C28.5839 69.6154 28.8411 69.4866 28.9376 69.2613C29.0662 69.036 28.9697 68.7786 28.7447 68.7142Z" fill="#55110B"/>
<path d="M64.7559 96.1356C65.3025 101.028 65.8491 105.952 66.3957 110.844C66.46 111.552 66.5564 112.228 66.6207 112.936C57.3286 113.515 47.7148 112.421 39.0336 108.881C28.2623 104.471 21.4138 93.5609 17.5876 83.0686C17.4911 82.779 17.0088 81.8778 17.2017 81.6525C17.3625 81.4594 17.9734 81.3306 18.1985 81.2341C19.6454 80.6226 21.0601 80.0111 22.507 79.3996C24.822 78.434 27.137 77.4685 29.452 76.5029C31.767 82.1353 34.918 87.7676 39.6766 91.6941C40.802 92.5953 41.9916 93.4965 43.3099 94.108C44.6282 94.7517 46.1393 95.1057 47.5541 95.4276C50.3835 96.0713 53.3094 96.4253 56.2354 96.554C59.097 96.6506 61.9264 96.4897 64.7559 96.1356Z" fill="#FF9981"/>
<path d="M64.7559 96.1357L66.6208 112.936C66.6208 112.936 65.8491 113.001 64.6916 113.065C63.5341 113.129 61.9908 113.161 60.5118 113.097C57.4894 113.033 54.5635 112.679 54.5635 112.679L55.9782 96.522C55.9782 96.522 58.2289 96.6185 60.4153 96.522C61.5085 96.4898 62.6017 96.361 63.4055 96.2967C64.2415 96.2001 64.7559 96.1357 64.7559 96.1357Z" fill="#FF4E68"/>
<path d="M192.274 78.4984C192.274 78.4984 192.692 75.6662 193.303 72.8983C193.914 70.0982 194.718 67.4912 195.843 67.7487C197.001 68.0062 197.515 69.7442 197.708 71.4178C197.901 73.0914 197.74 74.7006 197.74 74.7006C197.74 74.7006 198.287 74.1857 199.091 73.381C199.895 72.5764 201.052 71.5465 202.21 70.5488C204.589 68.5533 207.065 66.6866 208.415 67.5234C209.348 68.0705 208.415 69.9694 207.129 71.7074C206.486 72.5764 205.779 73.4132 205.2 73.9925C204.653 74.6041 204.235 74.9903 204.235 74.9903C204.235 74.9903 204.75 74.7328 205.553 74.3466C206.357 73.9925 207.451 73.5098 208.576 73.0592C210.827 72.1902 213.206 71.4821 214.01 72.4799C214.814 73.5098 213.174 75.3765 211.277 76.857C210.344 77.5972 209.348 78.2731 208.576 78.7559C207.804 79.2387 207.29 79.5283 207.29 79.5283C207.29 79.5283 207.869 79.4318 208.737 79.303C209.605 79.1743 210.762 79.0456 211.952 78.9168C214.299 78.6915 216.775 78.5628 217.032 79.5283C217.257 80.3973 216.839 81.2019 216.067 81.91C215.328 82.6181 214.235 83.1974 213.142 83.6802C212.048 84.1308 210.923 84.4848 210.087 84.7101C209.251 84.9354 208.672 85.0319 208.672 85.0319C208.672 85.0319 209.122 84.9997 209.766 84.9997C210.409 84.9676 211.309 84.9676 212.209 84.9997C214.01 85.1285 215.875 85.4825 216.035 86.6733C216.196 87.8642 213.656 89.0228 211.116 89.7631C209.83 90.1171 208.576 90.4068 207.611 90.5999C206.647 90.7608 206.004 90.8574 206.004 90.8574C206.004 90.8574 205.007 91.9195 203.496 92.7885C201.952 93.6253 199.895 94.269 197.837 93.4965C195.747 92.6919 194.011 89.924 192.982 86.8986C191.856 83.7767 191.503 80.4939 192.274 78.4984Z" fill="#FF9981"/>
<path d="M198.287 75.2798C199.573 75.8592 200.634 76.8891 201.213 78.1765C201.374 78.4983 201.502 78.8524 201.567 79.2064C201.824 80.2363 201.759 81.2984 201.406 82.2961C201.309 82.5536 201.052 82.6824 200.795 82.5858C200.538 82.4892 200.409 82.2318 200.505 81.9743C200.795 81.1375 200.827 80.2363 200.634 79.3995C200.57 79.1098 200.473 78.8202 200.345 78.5305C199.862 77.4684 198.962 76.5672 197.901 76.0845C197.676 75.9879 197.547 75.6983 197.644 75.473C197.805 75.2799 198.062 75.1511 198.287 75.2798Z" fill="#55110B"/>
<path d="M142.63 93.4L143.981 110.973C143.981 110.973 146.81 110.587 149.607 110.168C150.315 110.072 151.022 109.975 151.665 109.879C152.308 109.782 152.919 109.621 153.434 109.525C154.463 109.299 155.17 109.17 155.17 109.17C155.17 109.17 155.877 109.01 157.131 108.752C157.742 108.623 158.514 108.462 159.382 108.302C160.25 108.108 161.182 107.819 162.244 107.561C164.333 106.982 166.777 106.435 169.317 105.534C170.603 105.115 171.922 104.697 173.24 104.246C174.59 103.828 175.876 103.281 177.227 102.766C178.545 102.251 179.895 101.768 181.182 101.253C182.468 100.706 183.722 100.159 184.943 99.6438C185.554 99.3863 186.165 99.1288 186.744 98.8714C187.323 98.6139 187.869 98.3242 188.416 98.0668C189.509 97.5518 190.538 97.0368 191.503 96.5862C193.4 95.6851 194.943 94.8161 196.036 94.2689C197.129 93.6896 197.74 93.3678 197.74 93.3678L191.889 80.6548C191.889 80.6548 191.31 80.9444 190.249 81.395C189.188 81.8456 187.709 82.5215 185.908 83.2939C182.275 84.7422 177.42 86.6412 172.468 88.0895C171.214 88.4435 169.992 88.8619 168.771 89.1838C167.549 89.5056 166.327 89.7953 165.169 90.0849C162.822 90.7286 160.604 91.0827 158.739 91.4689C157.806 91.662 156.938 91.8551 156.167 91.9516C155.395 92.0482 154.72 92.1447 154.173 92.2091C153.08 92.37 152.437 92.4344 152.437 92.4344C152.437 92.4344 151.826 92.531 150.926 92.6275C150.476 92.6919 149.929 92.7884 149.35 92.8206C148.771 92.8528 148.161 92.9172 147.55 92.9494C145.074 93.239 142.63 93.4 142.63 93.4Z" fill="#FF9981"/>
<path d="M142.63 93.4002L143.981 110.973C143.981 110.973 146.81 110.587 149.607 110.168C150.315 110.072 151.022 109.975 151.665 109.879C152.308 109.782 152.919 109.621 153.434 109.525C154.463 109.299 155.17 109.171 155.17 109.171L152.34 92.499C152.34 92.499 151.73 92.5956 150.829 92.6921C150.379 92.7565 149.833 92.8531 149.254 92.8852C148.675 92.9174 148.064 92.9818 147.453 93.014C145.074 93.2393 142.63 93.4002 142.63 93.4002Z" fill="#FF4E68"/>
<path d="M136.553 188.409C128.387 194.396 117.84 197.614 105.719 198.966L93.0184 181.779L77.7457 193.108L74.5626 195.49C65.7849 191.789 56.9428 182.037 48.0686 171.191L51.8948 168.39L69.5146 155.484L71.6045 153.972L124.014 159.475L124.335 160.248L136.553 188.409Z" fill="#0271ab"/>
<path d="M124.335 160.28C117.519 161.986 89.5458 167.876 69.4824 155.517L71.5724 154.004L123.982 159.508L124.335 160.28Z" fill="#360D43"/>
<path d="M93.0827 181.329C92.8254 181.297 92.6647 181.039 92.6968 180.814L95.6549 154.326C95.6871 154.068 95.9121 153.875 96.2015 153.907C96.4909 153.94 96.6516 154.165 96.6195 154.454L93.6614 180.943C93.6293 181.2 93.4042 181.393 93.1148 181.361C93.1148 181.329 93.1148 181.329 93.0827 181.329Z" fill="#360D43"/>
<path d="M94.5296 173.057C94.3688 173.025 94.2402 172.993 94.1116 172.961C93.8544 172.897 93.7258 172.607 93.7901 172.382C93.8544 172.124 94.1437 171.995 94.3688 172.06C94.4974 172.092 97.5198 172.929 98.3236 170.193C99.2561 167.039 99.8348 154.583 99.8348 154.455C99.8348 154.197 100.06 153.972 100.349 154.004C100.606 154.004 100.832 154.229 100.799 154.519C100.767 155.034 100.221 167.232 99.2561 170.483C98.4844 173.09 96.0408 173.347 94.5296 173.057Z" fill="#360D43"/>
<path d="M125.268 168.423C124.657 168.326 124.11 168.069 123.564 167.682C119.963 165.14 118.966 157.319 118.901 156.997C118.869 156.739 119.062 156.482 119.319 156.45C119.577 156.418 119.834 156.611 119.866 156.868C119.866 156.933 120.863 164.593 124.11 166.878C124.914 167.457 125.782 167.618 126.747 167.425C127.004 167.36 127.261 167.521 127.326 167.779C127.39 168.036 127.229 168.294 126.972 168.358C126.393 168.487 125.814 168.519 125.268 168.423Z" fill="#360D43"/>
<path d="M66.3958 160.698C65.8492 160.602 65.3347 160.376 64.8524 160.055C64.6274 159.894 64.5631 159.604 64.7238 159.379C64.8846 159.153 65.174 159.089 65.399 159.25C66.2993 159.829 67.2961 159.958 68.4214 159.572C71.9904 158.381 75.5272 152.845 75.7844 152.137C75.8166 151.912 76.0095 151.751 76.2346 151.751C76.4918 151.751 76.7169 151.944 76.749 152.202C76.7812 152.845 73.4051 157.963 70.0291 159.894C68.7108 160.634 67.489 160.891 66.3958 160.698Z" fill="#360D43"/>
<path d="M124.625 148.468L124.014 159.507C108.227 161.921 90.5425 159.572 71.6044 154.004L77.4884 132.408L80.1893 122.495L60.4474 122.463L60.5438 93.7218L75.3342 92.9816L141.601 89.7309L150.347 89.3125L149.832 116.991L126.2 120.146L124.625 148.468Z" fill="#f7b602"/>
<path d="M141.569 89.731C136.489 95.3955 123.274 103.731 105.14 105.019C89.4173 106.145 79.7071 97.9703 75.3021 92.9816L141.569 89.731Z" fill="#E79F00"/>
<path d="M104.015 103.313C104.626 102.702 92.5039 100.384 90.0924 104.375C90.0924 104.375 89.385 90.7932 94.3044 88.7334C99.2238 86.6735 101.86 91.7909 101.86 91.7909L104.015 103.313Z" fill="#f7b602"/>
<path d="M105.526 103.281C105.526 103.281 109.255 90.4715 110.124 90.2462C110.992 90.0209 117.326 90.2784 118.612 92.4348C119.898 94.5911 120.22 104.472 120.22 104.472C120.22 104.472 113.5 100.481 105.526 103.281Z" fill="#f7b602"/>
<path d="M94.8832 91.6299C94.8832 91.6299 98.9023 102.444 104.015 103.313C109.127 104.182 115.332 93.7541 115.332 93.7541L94.8832 91.6299Z" fill="#FF4E68"/>
<path d="M154.623 72.6409C154.398 77.2112 150.09 81.2021 145.042 81.4917C139.994 81.8136 136.071 78.3376 136.328 73.7674C136.553 69.1971 140.862 65.2062 145.91 64.9166C150.958 64.6269 154.881 68.0385 154.623 72.6409Z" fill="#FF9981"/>
<path d="M139.865 76.0845C140.283 75.5374 143.113 67.9096 150.572 72.6408" stroke="#55110B" stroke-width="2.9881" stroke-miterlimit="10" stroke-linecap="round" stroke-linejoin="round"/>
<path d="M147.164 77.1789C147.164 77.1789 146.392 72.2868 142.534 72.4156" stroke="#55110B" stroke-width="2.9881" stroke-miterlimit="10" stroke-linecap="round" stroke-linejoin="round"/>
<path d="M148.161 50.2404C149.64 26.6489 130.862 6.46908 106.78 6.72656C86.5234 6.95185 69.2895 22.3362 66.7494 42.4517C65.9777 48.438 66.5565 54.2313 68.1641 59.574C69.4502 63.7902 69.6753 68.2317 69.3216 72.6088C68.6464 80.5263 73.2121 93.6898 104.336 95.6531C135.975 97.6486 142.277 86.577 142.502 78.6274C142.662 73.1238 143.498 67.6523 145.492 62.5028C146.971 58.6728 147.903 54.5531 148.161 50.2404Z" fill="#FF9981"/>
<path d="M70.1255 66.1072C70.1255 66.1072 82.5044 45.6377 81.7649 34.9201C81.7649 34.9201 115.429 44.3503 136.682 38.7179C136.682 38.7179 144.592 54.746 145.492 62.5025C145.492 62.5025 153.916 32.1522 143.627 25.7153C133.37 19.2783 85.6875 13.2276 81.4755 17.7013C77.2956 22.1106 63.7271 53.877 70.1255 66.1072Z" fill="#FF4E68"/>
<path d="M144.527 65.3349C145.235 59.4129 140.058 33.8904 140.058 33.8904C97.1017 36.8192 77.7457 28.6443 77.7457 28.6443C80.5751 46.3781 69.4502 67.4913 69.4502 67.4913C50.3514 33.3433 71.7974 22.3361 71.7974 22.3361C71.7974 22.3361 71.7652 15.6738 76.138 9.6231C81.604 2.09186 93.8543 -4.50602 121.506 3.92639C148.836 12.2622 153.112 29.9639 151.376 44.1895C149.993 55.937 144.527 65.3349 144.527 65.3349Z" fill="#321A29"/>
<path opacity="0.35" d="M151.408 44.2218C148.418 32.3134 139.479 19.9223 115.172 10.1059C95.1726 2.02753 82.7937 5.60004 76.1381 9.65532C81.6041 2.12408 93.8543 -4.47379 121.506 3.95862C148.868 12.2945 153.112 29.9639 151.408 44.2218Z" fill="#C8593D"/>
<path d="M116.49 89.5057C114.818 91.2437 112.021 92.4024 107.648 91.8552C102.921 91.2759 100.606 89.1839 99.7383 86.8344C98.6773 84.0021 99.6097 80.7515 100.767 79.2388C101.249 78.5951 101.764 78.2733 102.15 78.402C103.886 79.0457 115.815 80.9446 117.326 80.6227C117.583 80.5584 117.84 80.6871 118.033 80.9768C119.062 82.1998 119.255 86.6413 116.49 89.5057Z" fill="#55110B"/>
<path d="M116.49 89.5057C114.818 91.2437 112.021 92.4023 107.648 91.8552C102.921 91.2759 100.606 89.1839 99.7383 86.8344C102.085 85.3861 104.658 84.4849 107.262 84.4527C110.477 84.4205 113.725 85.8045 115.815 88.5402C116.072 88.7976 116.297 89.1517 116.49 89.5057Z" fill="#D56454"/>
<path d="M118.065 80.9445C117.551 81.4595 116.844 81.7813 116.201 81.9744C114.722 82.425 113.21 82.5216 111.667 82.5538C109.223 82.6181 106.715 82.4894 104.433 81.5882C103.082 81.0733 101.828 80.2686 100.799 79.1744C101.282 78.5307 101.796 78.2088 102.182 78.3375C103.918 78.9812 115.847 80.8801 117.358 80.5583C117.615 80.5583 117.84 80.687 118.065 80.9445Z" fill="white"/>
<path d="M56.2676 73.7995C57.7466 78.1445 62.9876 80.7836 67.9391 79.6893C72.8907 78.595 75.688 74.1857 74.2089 69.8408C72.7299 65.4958 67.489 62.8567 62.5374 63.951C57.5859 65.0452 54.7886 69.4546 56.2676 73.7995Z" fill="#FF9981"/>
<path d="M70.0933 72.0616C69.5146 71.6432 64.7238 66.7833 59.6758 72.3191" stroke="#55110B" stroke-width="2.9881" stroke-miterlimit="10" stroke-linecap="round" stroke-linejoin="round"/>
<path d="M64.1771 75.6661C64.1771 75.6661 63.3412 71.0315 67.0709 70.0981" stroke="#55110B" stroke-width="2.9881" stroke-miterlimit="10" stroke-linecap="round" stroke-linejoin="round"/>
<path d="M111.474 69.165L111.796 73.7997C111.796 73.7997 114.882 73.3491 115.365 74.7652C115.847 76.1813 112.825 77.0825 112.825 77.0825" stroke="#55110B" stroke-width="2.9881" stroke-miterlimit="10" stroke-linecap="round" stroke-linejoin="round"/>
<path d="M135.91 63.0819C135.91 63.0819 131.666 52.8472 122.696 57.4174C122.728 57.4174 133.402 45.9596 135.91 63.0819Z" fill="#FC5310"/>
<path d="M101.571 56.838C101.571 56.838 92.6647 50.2723 87.3595 58.8012C87.3595 58.8012 90.6069 43.4491 101.571 56.838Z" fill="#FC5310"/>
<path d="M122.824 69.0036C123.274 69.4542 125.589 66.461 129.319 66.5576C132.759 66.622 134.785 69.2289 135.171 68.8427C135.685 68.2956 133.113 62.6632 128.901 62.7276C124.689 62.792 122.278 68.4565 122.824 69.0036Z" fill="#00092C"/>
<path d="M88.7099 67.2336C89.16 67.6842 91.475 64.691 95.2048 64.7876C98.6451 64.8519 100.671 67.4589 101.057 67.0727C101.571 66.5255 98.9988 60.8932 94.7868 60.9576C90.5747 60.9898 88.1633 66.6543 88.7099 67.2336Z" fill="#00092C"/>
<path d="M126.393 83.5196C125.975 83.4552 125.557 83.3586 125.139 83.2299C121.216 82.1678 117.969 79.6574 115.943 76.1171C113.918 72.6089 113.403 68.4893 114.464 64.5949C115.525 60.6684 118.033 57.4177 121.57 55.3901C125.075 53.3624 129.158 52.8475 133.081 53.9096C137.004 54.9717 140.251 57.4821 142.277 61.0224C144.302 64.5305 144.817 68.6502 143.756 72.5445C142.695 76.4711 140.187 79.7218 136.65 81.7494C133.531 83.5517 129.93 84.1632 126.393 83.5196ZM131.505 55.5188C124.785 54.2958 118.13 58.4154 116.329 65.1099C114.432 72.1583 118.612 79.4643 125.654 81.3954C132.727 83.2943 139.994 79.1102 141.923 72.0618C143.82 65.0133 139.64 57.7074 132.599 55.7763C132.245 55.6797 131.859 55.5832 131.505 55.5188Z" fill="#0271ab"/>
<path d="M88.2919 81.9745C87.8739 81.9102 87.4559 81.8136 87.0379 81.6849C83.1152 80.6228 79.8678 78.1124 77.8422 74.572C75.8165 71.0639 75.3021 66.9442 76.3631 63.0499C78.5495 54.9715 86.9093 50.176 94.9797 52.3645C98.9023 53.4266 102.15 55.937 104.175 59.4774C106.201 62.9855 106.715 67.1052 105.654 70.9995C104.593 74.9261 102.085 78.1767 98.5486 80.2044C95.4298 82.0067 91.8287 82.6182 88.2919 81.9745ZM93.4042 53.9738C86.6842 52.7507 80.0286 56.8704 78.228 63.5648C77.2956 66.9764 77.7779 70.5489 79.5141 73.6387C81.2825 76.6962 84.1441 78.917 87.5523 79.8503C94.626 81.7814 101.893 77.5652 103.822 70.5167C104.754 67.1052 104.272 63.5326 102.536 60.4429C100.767 57.3854 97.9056 55.1646 94.4974 54.2312C94.1115 54.1347 93.7578 54.0381 93.4042 53.9738Z" fill="#0271ab"/>
<path d="M105.59 62.7278L104.272 61.3117C104.336 61.2473 109.513 56.5483 116.715 61.9876L115.558 63.5324C109.674 59.1231 105.751 62.5991 105.59 62.7278Z" fill="#0271ab"/>
<path d="M77.1438 61.9245L67.1272 64.4175L67.5927 66.2916L77.6093 63.7987L77.1438 61.9245Z" fill="#0271ab"/>
<path d="M103.372 195.812L105.719 198.966C105.719 198.966 117.583 201.348 136.553 188.409L134.946 184.74C133.177 187.186 112.889 196.842 103.372 195.812Z" fill="#360D43"/>
<path d="M77.7778 193.141L74.5947 195.522C65.817 191.821 56.9749 182.069 48.1007 171.223L51.9269 168.423C56.2997 174.055 67.9069 188.152 77.7778 193.141Z" fill="#360D43"/>
<path d="M126.361 119.148C125.686 113.644 125.01 108.334 126.554 102.894C126.618 102.669 126.232 102.54 126.168 102.766C124.239 108.076 124.303 113.708 125.461 119.212C125.589 119.759 126.425 119.727 126.361 119.148Z" fill="#E79F00"/>
<path d="M131.345 103.152C129.64 107.304 128.387 111.745 127.808 116.219C127.743 116.669 128.419 116.798 128.515 116.348C129.48 111.971 130.476 107.626 131.666 103.281C131.73 103.055 131.409 102.959 131.345 103.152Z" fill="#E79F00"/>
<path d="M80.2858 100.738C80.1893 100.352 79.5463 100.513 79.6106 100.899C80.5109 106.95 81.0575 112.518 79.8357 118.601C79.6749 119.341 80.8645 119.566 80.9932 118.826C82.1185 112.679 81.797 106.724 80.2858 100.738Z" fill="#E79F00"/>
<path d="M85.7839 107.98C85.7839 107.883 85.6231 107.883 85.6231 107.98C84.5942 111.713 83.3403 115.253 81.8291 118.794C81.604 119.309 82.3435 119.663 82.6329 119.18C84.5942 115.801 85.6553 111.874 85.7839 107.98Z" fill="#E79F00"/>
<path d="M124.625 148.468C116.747 149.37 108.741 148.79 101.024 146.666C92.0537 144.22 83.1152 139.811 77.4885 132.408L71.6045 154.004C90.5426 159.572 108.227 161.922 124.014 159.508L124.625 148.468Z" fill="#E79F00"/>
</g>
<defs>
<clipPath id="clip0_1619_3379">
<rect width="217" height="255" fill="white"/>
</clipPath>
</defs>
</svg>
