<svg width="1920" height="250" viewBox="0 0 1920 250" fill="none" xmlns="http://www.w3.org/2000/svg">
<g filter="url(#filter0_d_3317_7244)">
<path d="M395.494 231.108V199.867L397.018 198.343C422.927 172.056 464.839 172.056 490.748 198.343L492.272 200.248L492.653 196.82C494.177 188.057 498.369 179.676 505.227 172.818C516.276 161.389 531.898 157.198 546.377 159.865L551.711 161.389V158.341C552.854 145.007 558.569 132.053 568.476 121.767C585.621 104.242 610.768 99.6702 632.105 108.433L633.629 109.195V108.052C633.629 92.4316 639.344 76.8115 651.156 65.0012C674.398 40.9996 712.118 40.9996 735.741 65.0012C750.22 79.8593 755.935 100.432 752.125 119.862L751.363 122.91L759.364 120.624C773.843 117.576 789.084 122.148 800.514 133.577C805.086 138.149 808.134 143.483 810.421 149.197L811.183 151.864L813.469 149.578C840.521 127.101 880.527 128.624 905.674 154.531C920.915 170.151 927.392 191.105 925.487 211.297L924.725 217.773L928.535 216.63C939.204 214.344 950.634 216.249 960.541 222.345L962.065 223.488V223.869C958.636 228.822 953.301 232.25 946.824 232.25H395.494V231.108Z" fill="white"/>
<path d="M17.1457 231.107L11.0495 229.965C4.57219 226.917 0 220.059 0 212.059V176.628L4.9532 179.295C7.62031 181.199 10.2874 183.485 12.5735 185.771L14.0976 187.295L14.4786 184.628C15.6216 177.771 19.0508 171.294 24.004 166.341C32.3863 157.579 44.1978 154.531 55.2473 156.436L59.4385 157.579V155.293C60.5815 145.006 64.7727 135.101 72.393 127.482C85.3475 114.147 104.779 110.718 120.782 117.576L121.925 117.957V117.195C121.925 105.385 126.497 93.5745 135.261 84.431C153.168 66.1441 181.745 66.1441 199.652 84.431C210.702 95.8604 214.893 111.48 212.226 126.339L211.845 128.624L217.941 126.72C228.99 124.434 240.802 127.862 249.184 136.625C252.613 140.054 255.281 144.245 256.805 148.435L257.567 150.34L259.472 148.816C280.047 131.672 310.528 132.815 329.96 152.626C341.39 164.436 346.724 180.437 345.2 195.677L344.438 200.629L347.486 199.867C358.536 197.581 370.347 201.01 378.73 209.773C380.254 211.678 381.778 213.202 383.302 215.487L383.683 216.63L386.35 211.297C387.874 208.63 389.779 206.344 392.065 204.058L397.399 199.486V232.25H17.1457V231.107Z" fill="white"/>
</g>
<g filter="url(#filter1_d_3317_7244)">
<path d="M1353.43 231.108V199.867L1354.95 198.343C1380.86 172.056 1422.77 172.056 1448.68 198.343L1450.21 200.248L1450.59 196.82C1452.11 188.057 1456.3 179.676 1463.16 172.818C1474.21 161.389 1489.83 157.198 1504.31 159.865L1509.65 161.389V158.341C1510.79 145.007 1516.5 132.053 1526.41 121.767C1543.56 104.242 1568.7 99.6702 1590.04 108.433L1591.56 109.195V108.052C1591.56 92.4316 1597.28 76.8115 1609.09 65.0012C1632.33 40.9996 1670.05 40.9996 1693.68 65.0012C1708.16 79.8593 1713.87 100.432 1710.06 119.862L1709.3 122.91L1717.3 120.624C1731.78 117.576 1747.02 122.148 1758.45 133.577C1763.02 138.149 1766.07 143.483 1768.36 149.197L1769.12 151.864L1771.4 149.578C1798.46 127.101 1838.46 128.624 1863.61 154.531C1878.85 170.151 1885.33 191.105 1883.42 211.297L1882.66 217.773L1886.47 216.63C1897.14 214.344 1908.57 216.249 1918.48 222.345L1920 223.488V223.869C1916.57 228.822 1911.24 232.25 1904.76 232.25H1353.43V231.108Z" fill="white"/>
<path d="M975.081 231.107L968.985 229.965C962.508 226.917 957.936 220.059 957.936 212.059V176.628L962.889 179.295C965.556 181.199 968.223 183.485 970.509 185.771L972.033 187.295L972.414 184.628C973.557 177.771 976.986 171.294 981.94 166.341C990.322 157.579 1002.13 154.531 1013.18 156.436L1017.37 157.579V155.293C1018.52 145.006 1022.71 135.101 1030.33 127.482C1043.28 114.147 1062.71 110.718 1078.72 117.576L1079.86 117.957V117.195C1079.86 105.385 1084.43 93.5745 1093.2 84.431C1111.1 66.1441 1139.68 66.1441 1157.59 84.431C1168.64 95.8604 1172.83 111.48 1170.16 126.339L1169.78 128.624L1175.88 126.72C1186.93 124.434 1198.74 127.862 1207.12 136.625C1210.55 140.054 1213.22 144.245 1214.74 148.435L1215.5 150.34L1217.41 148.816C1237.98 131.672 1268.46 132.815 1287.9 152.626C1299.33 164.436 1304.66 180.437 1303.14 195.677L1302.37 200.629L1305.42 199.867C1316.47 197.581 1328.28 201.01 1336.67 209.773C1338.19 211.678 1339.71 213.202 1341.24 215.487L1341.62 216.63L1344.29 211.297C1345.81 208.63 1347.71 206.344 1350 204.058L1355.33 199.486V232.25H975.081V231.107Z" fill="white"/>
</g>
<defs>
<filter id="filter0_d_3317_7244" x="-47" y="0" width="1026.06" height="249.25" filterUnits="userSpaceOnUse" color-interpolation-filters="sRGB">
<feFlood flood-opacity="0" result="BackgroundImageFix"/>
<feColorMatrix in="SourceAlpha" type="matrix" values="0 0 0 0 0 0 0 0 0 0 0 0 0 0 0 0 0 0 127 0" result="hardAlpha"/>
<feOffset dx="-15" dy="-15"/>
<feGaussianBlur stdDeviation="16"/>
<feComposite in2="hardAlpha" operator="out"/>
<feColorMatrix type="matrix" values="0 0 0 0 0 0 0 0 0 0.625 0 0 0 0 0.581551 0 0 0 0.05 0"/>
<feBlend mode="normal" in2="BackgroundImageFix" result="effect1_dropShadow_3317_7244"/>
<feBlend mode="normal" in="SourceGraphic" in2="effect1_dropShadow_3317_7244" result="shape"/>
</filter>
<filter id="filter1_d_3317_7244" x="910.936" y="0" width="1026.06" height="249.25" filterUnits="userSpaceOnUse" color-interpolation-filters="sRGB">
<feFlood flood-opacity="0" result="BackgroundImageFix"/>
<feColorMatrix in="SourceAlpha" type="matrix" values="0 0 0 0 0 0 0 0 0 0 0 0 0 0 0 0 0 0 127 0" result="hardAlpha"/>
<feOffset dx="-15" dy="-15"/>
<feGaussianBlur stdDeviation="16"/>
<feComposite in2="hardAlpha" operator="out"/>
<feColorMatrix type="matrix" values="0 0 0 0 0 0 0 0 0 0.625 0 0 0 0 0.581551 0 0 0 0.05 0"/>
<feBlend mode="normal" in2="BackgroundImageFix" result="effect1_dropShadow_3317_7244"/>
<feBlend mode="normal" in="SourceGraphic" in2="effect1_dropShadow_3317_7244" result="shape"/>
</filter>
</defs>
</svg>
