<svg width="169" height="270" viewBox="0 0 169 270" fill="none" xmlns="http://www.w3.org/2000/svg">
<g clip-path="url(#clip0_1619_3277)">
<path opacity="0.61" d="M169 261.498C169 266.196 132.182 270 86.7391 270C41.2965 270 4.47803 266.196 4.47803 261.498C4.47803 256.8 41.2965 252.995 86.7391 252.995C132.182 252.995 169 256.8 169 261.498Z" fill="#009E73"/>
<path d="M120.572 149.739L108.697 140.641C108.697 140.641 112.047 133.726 111.782 132.271C110.82 127.209 93.008 123.305 92.6099 123.305L101.334 159.73L46.2054 164.065L47.3 130.021C47.0678 130.12 33.5014 136.671 32.8048 139.02C32.0751 141.369 34.397 143.652 34.397 143.652L23.5505 155.628C23.5505 155.628 12.5049 144.181 13.102 135.91C13.6327 128.433 25.6401 120.823 35.3921 114.405C42.026 110.038 49.6219 107.424 57.4168 105.936L71.8788 103.223C77.186 102.23 82.5263 101.866 87.8335 102.131C96.2586 102.495 119.179 109.343 127.77 123.867C132.38 131.642 120.572 149.739 120.572 149.739Z" fill="#FFB2D5"/>
<path d="M87.4023 105.042C87.3028 104.711 86.8052 104.811 86.8715 105.175C88.1983 110.6 89.0276 116.721 91.1836 121.882C91.2831 122.114 91.5817 121.948 91.5485 121.75C90.9846 116.192 88.7954 110.435 87.4023 105.042Z" fill="#EE3700"/>
<path d="M96.2586 110.369C94.3347 114.074 92.8421 117.912 92.0128 122.015C91.9796 122.213 92.2782 122.345 92.3445 122.114C93.3728 118.111 94.7659 114.339 96.8556 110.766C97.121 110.369 96.4576 109.939 96.2586 110.369Z" fill="#EE3700"/>
<path d="M47.9303 111.328C47.8639 110.865 47.1342 111.031 47.2337 111.494C48.1625 116.82 48.3283 122.114 47.6981 127.473C46.2054 123.536 43.8504 119.93 41.1305 116.754C40.9315 116.522 40.5666 116.853 40.7656 117.085C43.6182 120.625 45.5752 124.43 47.2005 128.631C47.2669 128.797 47.3996 128.863 47.5654 128.863C47.6649 129.227 48.2951 129.227 48.3615 128.764C49.0912 122.908 48.9585 117.118 47.9303 111.328Z" fill="#EE3700"/>
<path d="M57.5495 254.616C52.1097 257.296 19.2385 262.358 15.5566 256.303C15.1917 255.708 15.0922 255.112 15.1586 254.483C15.5566 251.572 21.1955 248.131 26.7348 245.418C32.2742 242.739 37.714 240.787 37.714 240.787L53.6023 241.911C53.6023 241.911 58.8763 247.569 59.208 251.506C59.3739 252.796 58.9095 253.921 57.5495 254.616Z" fill="#311F22"/>
<path d="M37.6475 246.345C35.193 243.797 30.9804 244.029 27.7298 244.426C26.3366 244.591 26.8342 246.709 28.1941 246.543C30.5492 246.245 34.231 245.915 36.0222 247.8C37.0173 248.793 38.6094 247.37 37.6475 246.345Z" fill="#876E71"/>
<path d="M33.3023 249.124C29.9522 247.337 26.3699 246.775 22.6549 247.403C21.2949 247.635 21.7593 249.752 23.1192 249.521C26.2372 248.958 29.322 249.455 32.1082 250.91C33.3355 251.605 34.5296 249.786 33.3023 249.124Z" fill="#876E71"/>
<path d="M57.5495 254.616C52.1097 257.296 19.2385 262.357 15.5566 256.303C15.1917 255.708 15.0922 255.112 15.1586 254.483C21.7594 255.906 38.3111 258.023 59.2412 251.506C59.3739 252.796 58.9095 253.921 57.5495 254.616Z" fill="#876E71"/>
<path d="M93.9699 254.45C99.1444 257.66 131.352 265.898 135.631 260.207C136.029 259.645 136.228 259.049 136.195 258.421C136.096 255.476 130.822 251.506 125.548 248.297C120.307 245.088 115.066 242.606 115.066 242.606L99.1444 242.176C99.1444 242.176 93.3397 247.304 92.61 251.175C92.3446 252.499 92.6763 253.656 93.9699 254.45Z" fill="#311F22"/>
<path d="M125.017 247.47C121.633 247.437 118.25 247.9 115.663 250.282C114.635 251.241 116.094 252.83 117.122 251.903C119.278 249.918 122.098 249.62 124.917 249.653C126.31 249.653 126.41 247.503 125.017 247.47Z" fill="#876E71"/>
<path d="M121.401 244.889C117.62 244.658 114.071 245.782 111.052 248.065C109.925 248.892 111.417 250.513 112.512 249.686C115.066 247.767 118.117 246.874 121.302 247.073C122.695 247.139 122.794 244.988 121.401 244.889Z" fill="#876E71"/>
<path d="M93.9699 254.451C99.1444 257.66 131.352 265.898 135.631 260.207C136.029 259.645 136.228 259.049 136.195 258.421C129.495 259.182 112.81 259.678 92.61 251.175C92.3446 252.499 92.6763 253.657 93.9699 254.451Z" fill="#876E71"/>
<path d="M56.2559 96.176C56.7202 97.3009 57.6158 107.689 57.6158 107.689L64.1834 111.825C66.3063 112.85 68.8604 112.321 70.4525 110.601L76.1577 104.348L73.3383 92.1729L56.2559 96.176Z" fill="#A33D32"/>
<path d="M30.6158 99.385C27.1993 103.554 18.7741 102.33 18.7741 102.33C18.7741 102.33 15.8884 94.3232 19.2717 90.1546C22.6882 85.9859 31.1133 87.2101 31.1133 87.2101C31.1133 87.2101 34.0322 95.2164 30.6158 99.385Z" fill="#321A29"/>
<path d="M22.9535 109.575C20.1341 114.141 11.6095 114.008 11.6095 114.008C11.6095 114.008 7.72861 106.465 10.548 101.866C13.4006 97.3007 21.9253 97.433 21.9253 97.433C21.9253 97.433 25.8061 104.976 22.9535 109.575Z" fill="#321A29"/>
<path d="M13.4006 127.738C11.0124 132.568 -2.08968 126.084 0.298547 121.254C2.68677 116.423 13.8318 110.832 13.8318 110.832C13.8318 110.832 15.7888 122.908 13.4006 127.738Z" fill="#321A29"/>
<path d="M16.419 115.332C15.4903 117.218 13.7986 117.284 11.2445 116.027C8.65728 114.769 7.62902 113.512 8.55777 111.626C9.48653 109.741 10.8465 110.435 13.4337 111.726C16.021 112.95 17.3478 113.413 16.419 115.332Z" fill="#e50b4e"/>
<path d="M97.9173 89.0299C102.661 91.445 109.527 86.9456 109.527 86.9456C109.527 86.9456 108.697 78.5422 103.954 76.127C99.2109 73.7119 92.3447 78.2113 92.3447 78.2113C92.3447 78.2113 93.174 86.6147 97.9173 89.0299Z" fill="#321A29"/>
<path d="M108.897 95.1833C113.308 98.194 120.705 94.6209 120.705 94.6209C120.705 94.6209 120.904 86.2175 116.492 83.2068C112.081 80.1962 104.684 83.7693 104.684 83.7693C104.684 83.7693 104.452 92.1727 108.897 95.1833Z" fill="#321A29"/>
<path d="M124.951 107.821C129.097 111.229 137.787 100.113 133.674 96.6721C129.528 93.2645 117.454 92.6689 117.454 92.6689C117.454 92.6689 120.804 104.414 124.951 107.821Z" fill="#321A29"/>
<path d="M117.056 97.7642C118.682 99.1207 120.174 98.4921 121.866 96.3085C123.591 94.125 123.956 92.57 122.33 91.2466C120.705 89.8902 119.809 91.1143 118.085 93.2648C116.393 95.4483 115.431 96.4408 117.056 97.7642Z" fill="#e50b4e"/>
<path d="M9.55292 78.6081C8.98903 83.3391 12.704 88.2025 17.8454 89.4266C22.9867 90.6507 27.6304 87.7724 28.1943 83.0414C28.7582 78.3103 25.0432 73.4469 19.9019 72.2228C14.7606 70.9987 10.1168 73.877 9.55292 78.6081Z" fill="#C8593D"/>
<path d="M23.3516 83.273C23.0199 82.6113 20.698 75.8952 13.4338 78.7736" stroke="#311F22" stroke-width="3.0265" stroke-miterlimit="10" stroke-linecap="round" stroke-linejoin="round"/>
<path d="M16.1538 83.9678C16.1538 83.9678 17.4474 79.2368 21.3946 80.0639" stroke="#311F22" stroke-width="3.0265" stroke-miterlimit="10" stroke-linecap="round" stroke-linejoin="round"/>
<path d="M110.124 66.5987C111.052 71.2967 107.735 76.3916 102.694 78.0128C97.6518 79.6339 92.809 77.1195 91.8802 72.4546C90.9515 67.7567 94.2684 62.6617 99.3102 61.0406C104.352 59.4195 109.195 61.9338 110.124 66.5987Z" fill="#C8593D"/>
<path d="M96.7561 72.2891C97.0546 71.6274 98.8458 64.7459 106.276 67.0618" stroke="#311F22" stroke-width="3.0265" stroke-miterlimit="10" stroke-linecap="round" stroke-linejoin="round"/>
<path d="M103.954 72.4215C103.954 72.4215 102.295 67.8228 98.4478 68.9477L103.954 72.4215Z" fill="#311F22"/>
<path d="M98.5473 43.0097C95.1971 18.6266 71.8125 1.88602 47.2005 7.11332C26.5025 11.4804 12.0074 30.7354 13.5332 51.777C13.9975 58.0961 15.7887 63.9519 18.575 69.1131C20.6978 73.0501 21.8588 77.4172 22.3232 81.8505C23.1856 90.0554 30.4498 102.76 62.9561 98.3264C97.7844 93.5623 100.372 79.7331 98.2488 71.6606C97.0547 67.0619 97.0215 62.2316 98.0166 57.5667C99.0117 52.9349 99.2439 48.0054 98.5473 43.0097Z" fill="#C8593D"/>
<path d="M67.6664 88.2687C66.4391 89.3604 64.7143 90.1876 62.4587 90.4853C58.1467 91.0147 55.3936 89.4928 54.0668 87.607C52.8727 85.9197 52.8395 83.9677 53.8677 82.9752C54.3321 82.5451 54.9955 82.2804 55.8911 82.3797C60.8666 82.8429 67.7991 80.6924 67.7991 80.6924C68.1308 80.5931 68.4293 80.5601 68.6946 80.6262C70.7843 80.8909 70.917 85.4234 67.6664 88.2687Z" fill="#311F22"/>
<path d="M68.6945 80.5599C68.1306 81.387 67.2019 82.0487 66.2731 82.5118C62.4586 84.4638 57.8148 84.5631 53.8345 82.9419C54.2988 82.5118 54.9622 82.2472 55.8578 82.3464C60.8333 82.8096 67.7658 80.6591 67.7658 80.6591C68.1306 80.5268 68.4292 80.5268 68.6945 80.5599Z" fill="white"/>
<path d="M67.6663 88.2686C66.439 89.3603 64.7141 90.1875 62.4586 90.4852C58.1465 91.0146 55.3934 89.4927 54.0667 87.6069C55.0286 86.9121 56.09 86.4159 57.1846 86.1181C59.2411 85.5557 61.4303 85.6218 63.52 86.1181C64.5151 86.3497 65.5102 86.7136 66.4058 87.276C66.8702 87.5076 67.3014 87.8716 67.6663 88.2686Z" fill="#B93E35"/>
<path d="M97.3532 63.5547C97.3532 63.5547 90.4207 51.876 87.4354 50.4865C87.4354 50.4865 63.8517 49.8579 55.1281 39.5687C55.1281 39.5687 46.2386 58.0958 26.3699 61.5366L21.6598 74.9026C21.6598 74.9026 5.77145 27.3276 48.5273 24.5816C91.2831 21.8356 97.1542 45.3915 97.3532 63.5547Z" fill="#A33D32"/>
<path d="M60.3027 70.271L61.1651 75.0351C61.1651 75.0351 64.3163 74.208 64.9797 75.6306C65.6431 77.0533 62.6246 78.3105 62.6246 78.3105" stroke="#311F22" stroke-width="3.0265" stroke-miterlimit="10" stroke-linecap="round" stroke-linejoin="round"/>
<path d="M95.0647 77.8143C95.7945 81.8836 92.6102 85.8868 87.9664 86.7139C83.3226 87.541 78.9442 84.9274 78.2145 80.8249C77.4847 76.7556 80.669 72.7524 85.3128 71.9253C89.9566 71.0982 94.335 73.7449 95.0647 77.8143Z" fill="#A9371E"/>
<path d="M44.9119 87.0113C44.8455 91.1468 40.9315 94.4553 36.2214 94.356C31.5113 94.2898 27.7299 90.8491 27.7963 86.7136C27.8626 82.578 31.7766 79.2696 36.4868 79.3689C41.23 79.435 44.9782 82.8758 44.9119 87.0113Z" fill="#A9371E"/>
<path d="M101.599 48.4686C101.002 58.7247 97.3866 66.3009 97.3866 66.3009C95.6286 60.9082 92.9418 52.2071 90.0892 48.3031C76.8213 46.1527 57.417 41.3224 53.1381 31.9265C50.385 45.2925 38.5102 53.9605 24.4462 60.842C22.8209 65.4077 22.058 72.0245 21.859 77.715C21.859 77.715 6.56772 60.6105 10.8466 39.2381C12.0076 33.4814 14.5616 27.427 19.2386 21.3065C37.8136 -3.07659 47.1675 2.41539 49.8211 4.92978C51.3801 1.91912 58.6111 -7.24519 84.0191 11.4474C99.2772 22.696 102.263 37.1869 101.599 48.4686Z" fill="#321A29"/>
<path opacity="0.14" d="M101.599 48.4684C95.9601 21.8688 75.5275 11.7119 65.9083 7.24556C55.7915 2.5476 50.4843 10.951 50.4843 10.951C36.7852 3.77172 19.4042 26.269 10.8464 39.2049C12.0074 33.4482 14.5614 27.3938 19.2384 21.2733C37.8135 -3.10979 47.1673 2.38218 49.8209 4.89658C51.3799 1.88592 58.6109 -7.2784 84.019 11.4142C99.2771 22.6959 102.262 37.1867 101.599 48.4684Z" fill="#C6C6C6"/>
<path d="M84.6492 61.3383C84.6492 61.3383 78.1811 51.9423 70.1208 58.4268C70.154 58.4268 78.5128 44.6307 84.6492 61.3383Z" fill="#C8593D"/>
<path d="M48.6601 62.3305C48.6601 62.3305 38.2448 57.5995 34.7288 67.3262C34.7288 67.3262 34.7619 51.1811 48.6601 62.3305Z" fill="#C8593D"/>
<path d="M72.7082 70.1053C73.2389 70.4693 74.9638 66.9623 78.7451 66.2676C82.228 65.6059 84.8484 67.8225 85.1469 67.3263C85.5449 66.6646 81.7636 61.5696 77.5178 62.5291C73.2721 63.4223 72.0448 69.6422 72.7082 70.1053Z" fill="#00092C"/>
<path d="M37.8799 75.4979C38.4106 75.8618 40.1354 72.3549 43.9168 71.6601C47.3996 70.9985 50.02 73.2151 50.3185 72.7188C50.7166 72.0572 46.9352 66.9622 42.6895 67.9216C38.4437 68.848 37.2165 75.0347 37.8799 75.4979Z" fill="#00092C"/>
<path d="M92.0461 243.665L75.1295 191.094L59.1749 243.5L30.5825 240.158L46.2055 164.064L51.778 136.108C52.3419 133.296 54.4316 131.146 56.9857 130.782L84.4171 126.746C87.1038 126.349 89.6911 128.003 90.7525 130.782L101.3 159.73C101.3 159.73 118.118 237.412 119.013 239.86C119.942 242.309 92.0461 243.665 92.0461 243.665Z" fill="#e50b4e"/>
<path d="M77.0535 101.139L81.9958 131.708L87.3693 131.047L82.7918 100.477C81.067 100.08 79.1432 100.411 77.0535 101.139Z" fill="#e50b4e"/>
<path d="M86.142 129.392C86.1088 130.286 85.3459 130.98 84.4504 130.914C83.5548 130.881 82.8582 130.12 82.9245 129.227C82.9577 128.334 83.7206 127.639 84.6162 127.705C85.5118 127.771 86.2084 128.499 86.142 129.392Z" fill="#e50b4e"/>
<path d="M60.8001 134.752C60.8333 134.289 56.4549 105.042 56.4549 105.042C54.332 105.076 52.6072 105.671 51.1809 106.697L55.2608 135.712L60.8001 134.752Z" fill="#e50b4e"/>
<path d="M59.5065 133.495C59.4733 134.388 58.6773 135.116 57.7817 135.05C56.8861 135.017 56.1564 134.223 56.2227 133.33C56.2559 132.436 57.0519 131.709 57.9475 131.775C58.8431 131.841 59.5397 132.602 59.5065 133.495Z" fill="#e50b4e"/>
<path d="M47.1675 164.495C46.9021 164.495 46.67 164.263 46.7031 163.965C46.7031 163.701 46.9353 163.469 47.2338 163.469C65.3777 164.032 83.1567 162.642 100.073 159.334C100.339 159.267 100.604 159.466 100.67 159.731C100.737 159.995 100.538 160.26 100.272 160.326C83.2894 163.635 65.4109 165.057 47.1675 164.495C47.2007 164.495 47.2007 164.495 47.1675 164.495Z" fill="#F678B2"/>
<path d="M51.8443 168.167C50.02 168.068 48.1625 167.969 46.3381 167.804C46.0728 167.77 45.8406 167.539 45.8738 167.274C45.9069 167.01 46.1391 166.811 46.4045 166.811C64.1835 168.267 82.5595 166.877 101.035 162.742C101.3 162.675 101.566 162.841 101.632 163.106C101.699 163.37 101.533 163.635 101.267 163.701C84.5829 167.473 67.9648 168.961 51.8443 168.167Z" fill="#F678B2"/>
<path d="M70.751 157.779C67.8321 157.646 65.477 156.819 63.6527 155.297C59.7718 152.088 58.9426 146.365 58.6772 140.674C58.6772 140.41 58.8431 140.178 59.1085 140.145L84.8482 136.671C85.1136 136.638 85.3789 136.837 85.4121 137.101C86.4072 143.619 87.0042 149.342 84.1185 153.18C82.3273 155.562 79.342 156.985 75.0299 157.58C73.471 157.746 72.0447 157.812 70.751 157.779ZM59.6723 141.071C59.9709 146.398 60.8001 151.625 64.2829 154.503C66.7043 156.522 70.154 157.183 74.8641 156.555C78.9108 156.025 81.6639 154.702 83.2892 152.551C85.8765 149.111 85.3789 143.784 84.4502 137.697L59.6723 141.071Z" fill="#F678B2"/>
<path d="M89.5916 238.438L92.1125 247.702C99.9074 247.999 110.157 246.643 121.534 244.592L118.184 232.615C107.702 235.924 97.9503 238.24 89.5916 238.438Z" fill="#FF90C7"/>
<path d="M62.1932 236.486C53.2706 235.857 42.6894 233.673 31.3785 230.729L27.5972 242.871C40.1022 245.22 52.0101 247.205 59.2743 247.271L62.1932 236.486Z" fill="#FF90C7"/>
<path d="M113.673 147.986C112.313 145.57 105.48 139.781 99.3434 144.049C96.8557 145.802 96.723 147.556 97.9834 149.011C96.6566 150.169 95.5289 151.526 95.0977 153.213C94.6996 154.801 95.363 157.315 97.2205 157.216C97.0215 157.845 96.9883 158.539 97.2537 159.201C97.7844 160.657 99.6751 161.848 101.168 161.219C101.168 161.219 101.168 161.186 101.201 161.186C101.135 162.245 101.765 163.304 102.793 163.734C103.722 164.131 105.181 164.528 106.375 163.502C106.442 164.362 106.674 164.825 107.636 165.222C110.488 166.447 114.701 161.848 115.696 159.896C117.786 155.893 115.729 151.592 113.673 147.986Z" fill="#C8593D"/>
<path d="M104.219 145.008C102.992 145.504 101.798 146.034 100.67 146.696C100.67 146.067 100.869 145.538 101.168 145.008C101.301 144.744 100.969 144.512 100.803 144.744C100.305 145.372 100.173 146.199 100.239 146.96C99.5093 147.423 98.8128 147.986 98.2157 148.614C98.1494 148.681 98.2489 148.78 98.3152 148.714C100.106 147.126 102.296 146.299 104.485 145.471C104.783 145.372 104.551 144.876 104.219 145.008Z" fill="#311F22"/>
<path d="M108.896 144.644L110.223 141.766L119.046 148.548L115.232 155.065L108.896 144.644Z" fill="#C8593D"/>
<path d="M31.3787 163.337C32.7386 165.057 37.7141 168.796 40.3013 167.075C41.1637 166.513 41.3296 166.05 41.1969 165.156C42.59 165.95 43.9168 165.289 44.7793 164.726C45.708 164.098 46.1392 162.973 45.8739 161.914L45.907 161.947C47.4992 162.311 49.1577 160.756 49.3898 159.267C49.4894 158.573 49.3567 157.878 49.0581 157.315C50.9157 157.084 51.1147 154.47 50.4181 152.981C49.6884 151.393 48.3284 150.269 46.8026 149.375C47.7977 147.688 47.3333 146.001 44.5471 144.743C37.7473 141.667 32.1084 148.614 31.2128 151.228C29.8197 155.165 28.5924 159.797 31.3787 163.337Z" fill="#C8593D"/>
<path d="M39.9366 146.596C41.2302 146.861 42.5238 147.158 43.7511 147.622C43.6184 147.026 43.3199 146.53 42.955 146.034C42.7892 145.802 43.0545 145.504 43.2867 145.703C43.8838 146.232 44.1823 147.026 44.2487 147.787C45.0447 148.118 45.8408 148.548 46.5705 149.044C46.6369 149.11 46.5705 149.21 46.5042 149.177C44.4477 147.952 42.159 147.555 39.8371 147.125C39.439 147.059 39.5717 146.53 39.9366 146.596Z" fill="#311F22"/>
<path d="M35.2927 147.093L33.5015 144.611L26.0383 152.849L30.9806 158.507L35.2927 147.093Z" fill="#C8593D"/>
</g>
<defs>
<clipPath id="clip0_1619_3277">
<rect width="169" height="270" fill="white"/>
</clipPath>
</defs>
</svg>
