<svg width="1920" height="219" fill="none" xmlns="http://www.w3.org/2000/svg"><path d="M878 122.223c0-16.108 9.227-31.885 23.193-39.939 13.965-8.054 32.253-7.971 46.219.083.083-19.845 11.305-39.358 28.43-49.488 7.398-4.318 16.21-7.058 24.608-5.231 10.14 2.242 17.87 10.877 21.86 20.426 3.99 9.549 4.82 20.094 5.57 30.473.5-10.213 5.74-20.841 15.21-24.66 9.48-3.82 22.53 2.49 22.95 12.704-1.83-19.43 5.98-39.857 21.36-51.896 15.38-12.04 38.16-14.448 54.95-4.484 21.78 12.87 28.84 40.935 29.67 66.178 1.17 32.881-4.82 66.011-17.29 96.402-.66 1.743-1.91 3.736-3.74 3.487-1.83-.166-.83-3.985.42-2.74" fill="#009F94"/><path d="M1090.81 61.36l-.17-7.889c0-1.827-2.74-1.827-2.82 0-.09 2.657-.09 5.231-.17 7.888 0 2.076-.42 3.903.91 5.564.25.332 1 .332 1.33 0 1.33-1.661 1-3.488.92-5.564zm34.25-21.672c-.17-1.91-2.91-1.91-3 0-.08 3.072-.25 6.061-.41 9.133-.08 2.74-.75 5.48.16 8.138.34.913 1.67 1.245 2.17.249 1.33-2.408 1.16-5.065 1.24-7.722.25-3.322.09-6.56-.16-9.798zm-123.95 24.91c-.08-2.076-.25-4.152-.33-6.31-.17-1.994-2.992-1.994-3.076 0-.166 2.075-.332 4.15-.332 6.31 0 1.826-.333 3.736.582 5.397.582.996 2.166.996 2.656 0 .84-1.744.5-3.57.5-5.397zm42.65 25.907c-.34-1.578-2.33-1.163-2.83 0-.83 2.075-.91 4.483-1.16 6.725-.25 2.076-1 4.318.16 6.228.5.83 1.75 1.079 2.41.332 1.5-1.661 1.25-3.903 1.33-6.062.17-2.407.5-4.816.09-7.223zm40.48 29.393c.08-2.906.08-5.729.17-8.635 0-2.076-3.08-2.076-3.24 0-.17 2.906-.34 5.729-.5 8.635-.17 2.408-.67 4.733.5 6.892.41.831 1.57.748 2.07 0 1.33-1.993.92-4.484 1-6.892zm33.5-5.397c-.16-2.574-4.07-2.574-3.99 0 .08 2.325 0 4.733-.08 7.058-.17 2.159-.75 4.484-.08 6.56.41 1.494 2.57 1.827 3.32.415 1.08-1.993.91-4.235 1-6.477.08-2.574 0-5.065-.17-7.556zm-115.13-5.895a91.123 91.123 0 01-.25-6.809c0-2.242-3.325-2.159-3.492 0-.249 2.408-.332 4.816-.332 7.224 0 2.076-.167 4.069 1.33 5.646.744.747 1.914.498 2.414-.332 1.16-1.744.5-3.736.33-5.729zm-81.633-10.214c-.249-2.49-.665-4.898-.997-7.306-.167-1.329-2.328-.997-2.328.332 0 2.74 0 5.397.083 8.137.083 2.325 0 4.567.915 6.643.498 1.162 2.327.747 2.577-.332.582-2.491 0-5.066-.25-7.474zm-23.026 8.221c-.416-2.491-.915-5.065-1.33-7.556-.333-2.076-3.575-1.246-3.242.913.415 2.325.831 4.733 1.247 7.058.332 2.159.581 4.318 1.579 6.228.499.83 2.078.747 2.244-.332.333-2.159-.166-4.152-.498-6.311z" fill="#001430" fill-opacity=".3"/><path d="M136.97 181c-9.227-9.881-13.633-24.246-11.388-37.614 1.247-7.805 5.154-15.777 12.22-19.347 11.305-5.646 24.439 1.91 34.747 9.134-8.479-17.686-4.987-40.355 8.313-54.636 7.648-8.22 18.455-13.701 29.677-13.701 11.222 0 22.528 6.061 27.598 16.026 4.656 9.05 3.907 20.177 8.895 29.061 5.653-10.628 19.868-14.282 31.589-11.541 11.721 2.74 21.613 10.462 31.09 17.852 7.814-12.455 17.789-26.322 32.503-27.318 12.386-.83 23.691 8.552 28.928 19.762 5.321 11.209 5.902 23.997 6.484 36.369" fill="#009F94"/><path d="M147.278 164.144c-1.579-2.242-3.159-4.401-5.071-6.31a.855.855 0 00-1.413.913c.998 2.574 2.245 4.899 3.658 7.224 1.164 1.993 2.078 4.318 4.073 5.563 1.081.665 2.411-.249 2.245-1.411-.416-2.242-2.162-4.069-3.492-5.979zm39.652-71.409c-.914-1.743-3.242-.498-2.66 1.246 1.413 3.986 2.494 9.549 5.487 12.621 1.08 1.162 2.66.166 2.577-1.246-.25-4.317-3.492-8.884-5.404-12.62zm.499 58.539c-1.164-2.408-2.161-4.982-3.491-7.307-.832-1.495-3.076-.83-2.827.913.416 2.741 1.413 5.232 2.494 7.723.915 2.075 1.58 4.732 3.907 5.563.665.249 1.58-.083 1.829-.831.499-2.241-.914-3.985-1.912-6.061zm98.84-26.737a123.396 123.396 0 01-1.746-7.971c-.416-2.491-3.99-1.744-3.824.664.249 2.74.582 5.397.998 8.055.415 2.324.581 4.899 2.327 6.559.915.831 2.743.914 3.159-.581.665-2.325-.249-4.401-.914-6.726zm42.727-2.74c-.582-2.574-4.239-1.827-3.99.748.249 2.657.333 5.397.416 8.054.083 2.325-.167 4.733.332 7.058.499 2.076 3.99 2.823 4.572.415 1.247-5.148-.166-11.293-1.33-16.275zm23.11-7.058c-.582-3.238-1.33-6.393-1.995-9.632-.416-1.992-3.242-1.411-3.076.582.333 3.238.499 6.559.915 9.798.332 2.491.166 5.065 2.244 6.725.499.416 1.33.166 1.746-.332 1.496-2.159.582-4.65.166-7.141z" fill="#001430" fill-opacity=".3"/><path d="M777.24 145.862c.843-21.488-2.672-77.736-12.092-96.977-4.922-9.972-11.53-19.662-21.302-24.718-9.772-5.056-23.27-3.933-30.019 4.915-5.554 7.303-5.132 17.415-4.499 26.614-3.375-8.707-7.804-17.134-14.482-23.524-6.749-6.32-16.17-10.252-25.169-8.637-9.069 1.615-17.153 9.69-17.224 19.03-5.975-13.132-15.185-25.35-28.05-31.67-12.865-6.25-29.738-5.267-39.862 5.056-10.685 10.884-11.107 28.088-10.826 43.467-6.749-6.32-17.927-7.162-25.52-1.896-7.663 5.267-11.037 16.081-7.733 24.859-9.842-5.758-21.231-8.637-32.62-8.146-4.64.21-9.491.983-13.287 3.722-4.078 2.95-6.538 7.724-8.507 12.43-8.506 20.294-11.389 42.975-8.225 64.814" fill="#009F94"/><path d="M736.605 49.657c-.844-3.09-1.195-6.25-1.758-9.34-.281-1.825-3.234-1.755-3.304.141-.14 3.582.281 7.023 1.055 10.534.632 2.879 1.265 6.18 3.655 8.075.844.632 1.969 0 2.109-.983.563-2.88-1.054-5.688-1.757-8.427zm-13.498 42.204c-.492-2.388-1.055-4.845-1.547-7.233-.421-2.036-3.585-1.475-3.163.562.492 2.388.984 4.845 1.476 7.233.422 1.966.422 4.424 1.828 5.898.633.633 1.757.562 2.109-.35.703-1.967-.281-4.144-.703-6.11zm29.597 15.379l-2.109-8.637c-.632-2.528-4.569-1.896-4.007.702.562 2.738 1.195 5.547 1.758 8.286.351 1.545.773 4.635 3.163 4.284 2.109-.422 1.547-3.231 1.195-4.635zm-55.257 8.075c-.281-3.441-1.758-6.882-2.601-10.252a133.992 133.992 0 01-2.109-10.323c-.282-1.896-2.953-1.334-2.883.492.211 6.6.422 15.378 3.937 21.207 1.125 1.896 3.867 1.123 3.656-1.124zm-89.214-70.222c-1.195-3.371-2.39-6.812-3.585-10.183-.773-2.176-4.007-.632-3.234 1.475l3.164 9.69c.843 2.599 1.265 5.618 3.515 7.304.492.351 1.406.21 1.617-.492.843-2.598-.563-5.266-1.477-7.794zm-11.388 48.454c-1.196-3.441-2.32-6.882-3.516-10.323-.703-2.177-3.866-.632-3.233 1.474 1.054 3.23 2.038 6.461 3.093 9.761.914 2.81 1.406 6.25 3.374 8.497.774.913 2.391.492 2.461-.772.281-2.95-1.195-5.829-2.179-8.637zm-32.339 38.551c-.563-2.949-2.391-5.758-3.586-8.497-1.336-3.019-2.671-6.039-3.867-9.058-.773-1.967-4.288-.984-3.655 1.123.914 3.16 1.898 6.25 3.093 9.34 1.195 2.949 2.25 6.46 4.359 8.778 1.265 1.544 4.077.491 3.656-1.686zM560.498 85.4c-1.265-3.23-2.39-6.46-3.374-9.76-.563-1.897-3.656-1.475-3.164.561a151.11 151.11 0 002.672 9.691c.913 2.88 1.546 6.11 3.866 8.216.773.702 2.18 0 2.25-.983.14-2.809-1.266-5.267-2.25-7.725zm-55.117 37.71c-.914-2.809-1.968-5.618-3.023-8.357-.984-2.458-4.71-.772-3.796 1.756.984 2.458 1.828 4.915 2.671 7.443.703 2.177 1.055 4.986 2.813 6.671.703.632 2.179.773 2.46-.421.703-2.458-.351-4.775-1.125-7.092zm17.084-21.559c-.352-2.317-2.18-4.494-3.234-6.53-1.125-2.318-2.109-4.775-2.953-7.233-.492-1.475-3.093-.702-2.671.843.773 2.668 1.617 5.266 2.741 7.724.985 2.177 1.969 5.126 4.008 6.531 1.054.561 2.32-.211 2.109-1.335z" fill="#001430" fill-opacity=".3"/><path d="M1258.21 107.787c-6.98-11.625-8.14-26.57-3.15-39.192 2.91-7.39 8.39-14.365 16.04-16.275 12.22-3.155 23.44 6.975 32 16.275-4.57-19.015 3.66-40.438 19.7-51.647 9.23-6.394 20.95-9.549 31.84-7.141 10.98 2.408 20.7 10.711 23.61 21.506 2.58 9.798-.5 20.592 2.5 30.307 7.81-9.217 22.44-9.798 33.33-4.567 10.89 5.148 18.95 14.78 26.6 24.08 10.31-10.545 22.94-22.004 37.57-19.845 12.31 1.827 21.29 13.368 24.11 25.408 2.83 12.123.75 24.744-1.41 36.95" fill="#009F94"/><path d="M1271.93 93.505c-1.08-2.574-2.16-4.899-3.66-7.224-.5-.83-1.74-.332-1.58.581.42 2.74 1.17 5.232 2 7.889.75 2.159 1.16 4.65 2.74 6.31.92.914 2.41.332 2.5-.913.16-2.408-1.17-4.567-2-6.643zm53.78-61.528c-.49-1.826-3.07-1.162-2.82.665.58 4.234.41 9.797 2.74 13.534.83 1.329 2.5.747 2.74-.664.67-4.235-1.57-9.383-2.66-13.535zm-11.88 57.376c-.67-2.656-1.08-5.314-1.83-7.888-.5-1.577-2.83-1.411-2.99.332-.17 2.74.25 5.398.74 8.055.42 2.242.5 4.982 2.58 6.31.58.415 1.58.25 1.91-.415 1.17-2.159.17-4.151-.41-6.394zm102.33-5.231c-.09-2.74-.09-5.397 0-8.137.08-2.491-3.58-2.574-3.83-.083a125.88 125.88 0 00-.74 8.137c-.09 2.325-.5 4.9.83 6.892.66 1.08 2.49 1.412 3.16.083 1.16-2.242.66-4.484.58-6.892zm42.31 6.311c0-2.657-3.74-2.657-4.07-.166-.34 2.657-.83 5.314-1.25 7.971-.42 2.242-1.16 4.65-1.16 6.975 0 2.159 3.24 3.57 4.32 1.329 2.33-4.65 2.24-10.96 2.16-16.109zm24.11-1.993c.16-3.238.08-6.56.16-9.798 0-2.076-2.91-2.076-3.16-.083-.41 3.238-.91 6.56-1.16 9.798-.25 2.491-.83 4.982.75 7.058.41.498 1.25.498 1.74.083 1.92-1.91 1.58-4.567 1.67-7.058z" fill="#001430" fill-opacity=".3"/><path d="M1602 118.223c0-16.108 9.23-31.885 23.19-39.939 13.97-8.054 32.26-7.971 46.22.083.09-19.845 11.31-39.358 28.43-49.488 7.4-4.318 16.21-7.058 24.61-5.231 10.14 2.242 17.87 10.877 21.86 20.426 3.99 9.549 4.82 20.094 5.57 30.473.5-10.213 5.74-20.841 15.21-24.66 9.48-3.82 22.53 2.49 22.95 12.704-1.83-19.43 5.98-39.857 21.36-51.897 15.38-12.04 38.16-14.447 54.95-4.483 21.78 12.87 28.84 40.935 29.67 66.178 1.17 32.881-4.82 66.011-17.29 96.402-.66 1.743-1.91 3.736-3.74 3.487-1.83-.249-.83-3.985.42-2.74" fill="#009F94"/><path d="M1814.89 57.36l-.17-7.889c0-1.827-2.74-1.827-2.82 0-.08 2.657-.08 5.231-.17 7.888 0 2.076-.41 3.903.92 5.564.25.332.99.332 1.33 0 1.33-1.661.91-3.57.91-5.564zm34.25-21.755c-.17-1.91-2.91-1.91-2.99 0-.09 3.072-.25 6.061-.42 9.133-.08 2.74-.75 5.48.17 8.138.33.913 1.66 1.245 2.16.249 1.33-2.408 1.16-5.065 1.25-7.722.25-3.322.08-6.477-.17-9.798zm-124.03 24.91c-.08-2.076-.25-4.152-.33-6.31-.17-1.994-2.99-1.994-3.08 0-.16 2.075-.33 4.15-.33 6.31 0 1.826-.33 3.736.58 5.397.59.996 2.17.996 2.66 0 .92-1.66.59-3.488.5-5.397zm42.65 25.99c-.34-1.578-2.33-1.163-2.83 0-.83 2.075-.91 4.483-1.16 6.725-.25 2.076-1 4.318.16 6.228.5.83 1.75 1.079 2.41.332 1.5-1.66 1.25-3.903 1.33-6.062.25-2.49.59-4.816.09-7.223zm40.48 29.393c.08-2.906.08-5.729.17-8.635 0-2.076-3.08-2.076-3.24 0-.17 2.906-.34 5.729-.5 8.635-.17 2.408-.67 4.733.5 6.892.41.831 1.57.748 2.07 0 1.33-1.993 1-4.567 1-6.892zm33.58-5.48c-.16-2.574-4.07-2.574-3.99 0 .09 2.325 0 4.733-.08 7.058-.16 2.159-.75 4.484-.08 6.56.41 1.494 2.58 1.827 3.32.415 1.08-1.993.92-4.235 1-6.477 0-2.491-.08-4.982-.17-7.556zm-115.21-5.895a91.127 91.127 0 01-.25-6.81c0-2.241-3.33-2.158-3.49 0-.25 2.409-.33 4.817-.33 7.225 0 2.076-.17 4.069 1.33 5.646.74.747 1.91.498 2.41-.332 1.16-1.744.5-3.737.33-5.729zm-81.63-10.131c-.25-2.49-.67-4.898-1-7.306-.17-1.329-2.33-.997-2.33.332 0 2.74 0 5.397.09 8.137.08 2.325 0 4.567.91 6.643.5 1.162 2.33.747 2.58-.332.66-2.492 0-5.066-.25-7.474zm-23.03 8.221c-.41-2.491-.91-5.065-1.33-7.556-.33-2.076-3.57-1.246-3.24.913.41 2.325.83 4.733 1.25 7.058.33 2.159.58 4.318 1.58 6.228.49.83 2.07.747 2.24-.332.42-2.159-.08-4.152-.5-6.311z" fill="#001430" fill-opacity=".3"/><g clip-path="url(#clip0_1805_228)"><path d="M1921 377.8H-1V164.6c635.6-88.8 1276.4-106.5 1922-50.8v264z" fill="#02c4b2"/><path d="M623.445 143.595c-1.4-3.9-4.1-7.5-6.3-11.1-1.1-1.8-4-.2-2.9 1.7 2.1 3.6 3.9 7.8 6.7 10.8 1 1.1 3 0 2.5-1.4zm7.3-12.4c-.7 2-1.5 4-2.2 6.1-.6 1.8-1.6 3.8-.8 5.7.6 1.4 1.9 1.7 3.1.8 1.6-1.2 1.8-3.4 2.1-5.3.4-2.1.7-4.3 1.1-6.4.3-2.1-2.6-3-3.3-.9zm11 3.3c-2.5 2.5-7 5.9-5.7 9.9.2.7.8 1 1.4 1.1 4.1.3 6.5-4.9 8.4-7.8 1.6-2.5-2.1-5.3-4.1-3.2zM301.7 156.9c-2.3-3.1-4.6-6.2-7.1-9.2-1.5-1.8-4.4.5-3.2 2.4 2.1 3.3 4.3 6.5 6.5 9.8 1.8 2.6 3.5 6.4 6.5 7.8 1.1.5 2.9-.1 2.8-1.6-.4-3.6-3.4-6.4-5.5-9.2zm9.9-1.9c-.8-2.9-1.2-5.8-1.3-8.7-.1-2.7-3.7-2.5-4 0-.4 3.4-.4 6.7.5 10.1.7 2.6 1.5 5.8 4.3 6.7.8.3 1.6-.3 1.9-1.1.7-2.4-.8-4.7-1.4-7zm20.2-6.1c-1-1-3-1.1-4 0-2.8 3.1-6 6.1-7.9 9.9-1.1 2.1 1.3 5.2 3.5 3.5 1.8-1.4 3.1-2.7 4.4-4.4 1.3-1.7 2.6-3.3 4-5 1-1.3 1.2-2.9 0-4zM55.9 181.1c-.5-1.6-1.8-3-3-4.2-1.2-1.2-2.6-2.3-4-3.2-2.1-1.4-4 2-2 3.4 1.1.8 2.2 1.7 3.1 2.7 1 1 1.6 2.3 2.7 3.2 1.3 1.1 3.8 0 3.2-1.9zm8.2-7.3c-.3-1.5-.2-3.2-.1-4.7.1-2.3-3.2-2.5-3.8-.5-1.1 3.2-1.7 8.8 1.4 11 1.1.8 2.6-.1 3-1.2.5-1.6-.2-3.1-.5-4.6zm10.6-6.4c-.5-2.3-4.3-1.8-4.2.6.1 1.8 0 3.5-.5 5.3-.5 1.8-1.2 3.2-.9 5.1.3 2 3 2.2 4.2 1.1 3-2.7 2.2-8.7 1.4-12.1zm814.7-43.2c-2.9-3.1-6-6-9-9-2-2-5.1 1.1-3.1 3.1 3 3 5.8 6.2 8.9 9.1 2.1 2.1 5.3-1.1 3.2-3.2zm8.6-3.5c0-1.3-.2-2.6-.3-3.9-.3-3.1-4.6-3.1-4.9 0-.1 1.3-.3 2.6-.3 3.9 0 1.6-.1 2.8 1 4.1.9 1 2.7 1 3.5 0 1.1-1.3 1-2.5 1-4.1zm8.5-1.3c-1.1 2.3-2.2 4.5-3.1 6.9-1.1 3.3 4.2 5.6 5.7 2.4 1.1-2.3 1.9-4.7 2.7-7.1 1-3-3.9-5.1-5.3-2.2zm275.33-10.923c-1.4-3-3.6-5.3-6.4-7.1-2.6-1.6-4.8 2.3-2.4 4 1.8 1.3 3.3 3.2 4 5.4.7 2 .3 4.4 1.5 6.1.8 1.1 2.5 1.6 3.5.5 2.3-2.5 1-6.2-.2-8.9zm10.4-5.1c-.2-2.9-4.3-2.9-4.6 0-.3 3.5-.6 7-.8 10.6-.1 1 .6 2.2 1.5 2.7 1.2.6 2 .6 3.1 0 .9-.4 1.6-1.7 1.5-2.7l-.7-10.6zm6.5 4.701c-1.6 2.1-3.1 4.2-4.5 6.4-2.5 4 4 7.8 6.3 3.7 1.3-2.3 2.4-4.6 3.4-7.1 1.5-3.6-2.9-6.1-5.2-3zM1080.9 207.8c-.7-4-3.1-7.8-5.8-10.8-2.6-3-6.8 1.3-4.3 4.3 2.1 2.5 3 5.2 4 8.2 1.3 3.8 6.7 2.2 6.1-1.7zm12.6-8.5c-.7-2-3.4-2.5-4.6-.6-.8 1.4-1.1 2.9-1.8 4.3-.8 1.4-1.6 2.8-2.6 4.1-2.3 3.1 2.9 7.1 5.3 4.1 2.6-3 5-7.8 3.7-11.9zm7.6 5.1c-2.5 2.6-5.4 5.1-6.8 8.6-1 2.6 2.4 4.9 4.6 3.5 3.1-1.9 5-5.4 7.2-8.3 2-2.9-2.6-6.3-5-3.8zm555.8-70.5c-2.3-3.1-4.6-6.2-7.1-9.2-1.5-1.8-4.4.5-3.2 2.4 2.1 3.3 4.3 6.5 6.5 9.8 1.8 2.6 3.5 6.4 6.5 7.8 1.1.5 2.9-.1 2.8-1.6-.4-3.5-3.5-6.4-5.5-9.2zm9.8-1.9c-.8-2.9-1.2-5.8-1.3-8.7-.1-2.7-3.7-2.5-4 0-.4 3.4-.4 6.7.5 10.1.7 2.6 1.5 5.8 4.3 6.7.8.3 1.6-.3 1.9-1.1.8-2.4-.8-4.7-1.4-7zm20.3-6.1c-1-1-3-1.1-4 0-2.8 3.1-6 6.1-7.9 9.9-1.1 2.1 1.3 5.2 3.5 3.5 1.8-1.4 3.1-2.7 4.4-4.4 1.3-1.7 2.6-3.3 4-5 1-1.3 1.2-2.9 0-4zm-275.15 12.287c-.5-1.6-1.8-3-3-4.2-1.2-1.2-2.6-2.3-4-3.2-2.1-1.4-4 2-2 3.4 1.1.8 2.2 1.7 3.1 2.7 1 1 1.6 2.3 2.7 3.2 1.3 1.1 3.8 0 3.2-1.9zm8.2-7.3c-.3-1.5-.2-3.2-.1-4.7.1-2.3-3.2-2.5-3.8-.5-1.1 3.2-1.7 8.8 1.4 11 1.1.8 2.6-.1 3-1.2.5-1.6-.3-3.1-.5-4.6zm10.6-6.401c-.5-2.3-4.3-1.8-4.2.6.1 1.8 0 3.5-.5 5.3-.5 1.8-1.2 3.2-.9 5.1.3 2 3 2.2 4.2 1.1 3-2.7 2.1-8.7 1.4-12.1z" opacity=".4" fill="#001430" fill-opacity=".4"/></g><defs><clipPath id="clip0_1805_228"><path fill="#fff" transform="translate(-1 82)" d="M0 0h1922v295.8H0z"/></clipPath></defs></svg>