<svg id="svgexport-6_-_2022-09-15T163314.104" data-name="svgexport-6 - 2022-09-15T163314.104" xmlns="http://www.w3.org/2000/svg" width="31.696" height="25.699" viewBox="0 0 31.696 25.699">
  <circle id="Ellipse_591" data-name="Ellipse 591" cx="9.776" cy="9.776" r="9.776" transform="translate(0 0)" fill="#ee0005"/>
  <circle id="Ellipse_592" data-name="Ellipse 592" cx="9.776" cy="9.776" r="9.776" transform="translate(12.145 0)" fill="#0098e2"/>
  <path id="Path_1819" data-name="Path 1819" d="M206.016,115.3a9.757,9.757,0,0,0,3.7,7.661,9.775,9.775,0,0,0,0-15.321A9.758,9.758,0,0,0,206.016,115.3Z" transform="translate(-193.871 -105.526)" fill="#6c69bf"/>
  <g id="Group_69453" data-name="Group 69453" transform="translate(3.738 20.876)">
    <path id="Path_1820" data-name="Path 1820" d="M94.533,381.891a.667.667,0,0,0-.642-.711.657.657,0,0,0-.642.718v1.711c0,.117-.173.242-.366.242-.214,0-.359-.124-.359-.242v-2.795c0-.138.145-.235.359-.235.173,0,.324.1.324.235v.248a1.025,1.025,0,0,1,.918-.524.99.99,0,0,1,.9.69,1.172,1.172,0,0,1,1.042-.69,1.241,1.241,0,0,1,1.2,1.359v1.711c0,.117-.166.242-.366.242s-.359-.124-.359-.242V381.9a.649.649,0,1,0-1.29-.014v1.732c0,.166-.179.235-.366.235-.166,0-.359-.069-.359-.235v-1.725Z" transform="translate(-92.525 -379.083)" fill="#171614"/>
    <path id="Path_1821" data-name="Path 1821" d="M171.087,381.878v1.732c0,.131-.152.242-.352.242s-.331-.11-.331-.242v-.242a1.352,1.352,0,0,1-1.042.538.849.849,0,0,1-.918-.911c0-.78.656-.987,1.615-.987h.3v-.124a.672.672,0,0,0-.683-.745c-.5,0-.628.207-.766.207-.173,0-.262-.2-.262-.366,0-.248.573-.442,1.042-.442A1.256,1.256,0,0,1,171.087,381.878Zm-.725.531h-.173c-.524,0-1.014.055-1.014.5a.41.41,0,0,0,.448.448.8.8,0,0,0,.738-.69v-.255Z" transform="translate(-162.82 -379.083)" fill="#171614"/>
    <path id="Path_1822" data-name="Path 1822" d="M219.965,381.816c0,.573-.317.593-.628.593h-1.456v.159c0,.462.366.752.9.752.49,0,.655-.262.842-.262s.283.2.283.324c0,.207-.449.524-1.145.524a1.43,1.43,0,0,1-1.6-1.373v-.656a1.4,1.4,0,0,1,1.435-1.339A1.309,1.309,0,0,1,219.965,381.816Zm-.938.145c.2,0,.255-.041.255-.207a.7.7,0,0,0-1.4-.014v.221Z" transform="translate(-207.923 -379.083)" fill="#171614"/>
    <path id="Path_1823" data-name="Path 1823" d="M266.885,382.975c0-.724-1.663-.3-1.663-1.442,0-.476.311-.994,1.18-.994.518,0,1.035.186,1.035.407,0,.1-.1.352-.276.352-.145,0-.359-.2-.745-.2-.407,0-.559.228-.559.4,0,.607,1.677.207,1.677,1.449,0,.587-.435.959-1.214.959-.683,0-1.187-.29-1.187-.552,0-.124.1-.324.248-.324.179,0,.324.317.918.317C266.753,383.347,266.885,383.161,266.885,382.975Z" transform="translate(-252.345 -379.083)" fill="#171614"/>
    <path id="Path_1824" data-name="Path 1824" d="M310.752,364.577c0,.331.124.455.483.455h.242a.31.31,0,0,1,0,.621h-.242c-.787,0-1.208-.324-1.208-1.076V361.12c0-.138.186-.235.359-.235s.366.1.366.235v1.263h.842c.124,0,.2.131.2.269s-.076.269-.2.269h-.842v1.656Z" transform="translate(-293.914 -360.885)" fill="#171614"/>
    <path id="Path_1825" data-name="Path 1825" d="M347.077,381.178a.922.922,0,0,0-.835,1.014v1.414c0,.117-.166.242-.373.242s-.352-.124-.352-.242v-2.795c0-.138.145-.235.352-.235.179,0,.331.1.331.235v.3a1.023,1.023,0,0,1,.876-.58h.221a.325.325,0,0,1,0,.642h-.221Z" transform="translate(-326.776 -379.08)" fill="#171614"/>
    <path id="Path_1826" data-name="Path 1826" d="M383.77,381.9v.635a1.429,1.429,0,0,1-2.857,0V381.9a1.43,1.43,0,0,1,2.857,0Zm-.724,0a.7.7,0,1,0-1.408,0v.635a.7.7,0,1,0,1.408,0Z" transform="translate(-359.549 -379.083)" fill="#171614"/>
  </g>
</svg>
