<svg xmlns="http://www.w3.org/2000/svg" width="28.211" height="25.211" viewBox="0 0 25.211 25.211">
  <g id="svgexport-6_-_2022-09-15T162540.529" data-name="svgexport-6 - 2022-09-15T162540.529" transform="translate(0 -0.301)">
    <g id="surface1" transform="translate(0 0.301)">
      <path id="Path_1797" data-name="Path 1797" d="M3.977,19.932.13,9.947A1.945,1.945,0,0,1,1.246,7.432L19.4.439a1.945,1.945,0,0,1,2.514,1.116l3.847,9.986a1.945,1.945,0,0,1-1.116,2.515L6.492,21.049A1.946,1.946,0,0,1,3.977,19.932Zm0,0" transform="translate(0 -0.308)" fill="#de4c3c"/>
      <path id="Path_1798" data-name="Path 1798" d="M53.964,101.961,32.2,110.4l1.45,3.763,21.77-8.434Zm0,0" transform="translate(-30.661 -97.117)" fill="#7a4930"/>
      <path id="Path_1799" data-name="Path 1799" d="M0,12.947V2.246A1.946,1.946,0,0,1,1.949.3H21.405a1.946,1.946,0,0,1,1.946,1.946v10.7a1.946,1.946,0,0,1-1.946,1.946H1.949A1.946,1.946,0,0,1,0,12.947Zm0,0" transform="translate(-0.004 -0.301)" fill="#4398d1"/>
      <path id="Path_1800" data-name="Path 1800" d="M116.178.3h-2.067L99.52,14.893h16.659a1.946,1.946,0,0,0,1.946-1.946V2.246A1.946,1.946,0,0,0,116.178.3Zm0,0" transform="translate(-94.777 -0.301)" fill="#3e8cc7"/>
      <path id="Path_1801" data-name="Path 1801" d="M40.832,163.609h1.946v.973H40.832Zm0,0" transform="translate(-38.886 -155.827)" fill="#5eb3d1"/>
      <path id="Path_1802" data-name="Path 1802" d="M40.832,224.852h1.946v.973H40.832Zm0,0" transform="translate(-38.886 -214.151)" fill="#5eb3d1"/>
      <path id="Path_1803" data-name="Path 1803" d="M224.555,224.852H226.5v.973h-1.946Zm0,0" transform="translate(-213.854 -214.151)" fill="#5eb3d1"/>
      <path id="Path_1804" data-name="Path 1804" d="M102.074,163.609h1.945v.973h-1.945Zm0,0" transform="translate(-97.21 -155.827)" fill="#5eb3d1"/>
      <path id="Path_1805" data-name="Path 1805" d="M163.313,163.609h1.946v.973h-1.946Zm0,0" transform="translate(-155.531 -155.827)" fill="#5eb3d1"/>
      <path id="Path_1806" data-name="Path 1806" d="M224.555,163.609H226.5v.973h-1.946Zm0,0" transform="translate(-213.854 -155.827)" fill="#5eb3d1"/>
      <path id="Path_1807" data-name="Path 1807" d="M418.484,41.129h.973v1.459h-.973Zm0,0" transform="translate(-398.542 -39.183)" fill="#5eb3d1"/>
      <path id="Path_1808" data-name="Path 1808" d="M377.656,41.129h.973v1.459h-.973Zm0,0" transform="translate(-359.659 -39.183)" fill="#5eb3d1"/>
      <path id="Path_1809" data-name="Path 1809" d="M336.828,41.129h.973v1.459h-.973Zm0,0" transform="translate(-320.777 -39.183)" fill="#5eb3d1"/>
      <path id="Path_1810" data-name="Path 1810" d="M296,41.129h.973v1.459H296Zm0,0" transform="translate(-281.898 -39.183)" fill="#5eb3d1"/>
    </g>
  </g>
</svg>
