<svg xmlns="http://www.w3.org/2000/svg" width="68" height="94" fill="none"><path d="M34.84 85.57c-.84-4.216-.42-8.01.42-12.225h-.42c-.42 3.794-.84 8.01 0 12.224zm-3.358 0c.839-4.216.42-8.01-.42-12.225h.42c.42 3.794.839 8.01 0 12.224zm5.876 0c-.84-4.216-.42-8.01.42-12.225h-.42c-.42 3.794-.84 8.01 0 12.224z" fill="#E5E5E5"></path><path d="M29.802 68.287l-1.259.422C7.555 37.937 1.26 14.332 19.728 2.95c2.1-1.686 3.778-1.686 5.457-1.265-15.111 11.382-8.395 36.673 4.617 66.601z" fill="url(#paint0_linear_2611_7327)"></path><path d="M28.123 68.709C7.556 37.937 1.26 14.331 19.728 2.95c.84-.843 2.1-1.265 2.939-1.265-16.79 9.274-13.432 35.83 5.456 67.022z" fill="url(#paint1_linear_2611_7327)" fill-opacity=".263"></path><path d="M19.729 2.95c-18.89 14.332-8.396 38.78 8.814 65.758l-1.259.422C10.074 51.005-8.815 22.34 14.692 5.058c2.098-1.264 3.357-2.107 5.037-2.107z" fill="url(#paint2_linear_2611_7327)"></path><path d="M26.864 69.13C9.654 51.004-9.235 22.34 14.271 5.058c.42-.421 1.26-.843 1.68-.843l.84-.843c-21.828 17.704-6.717 45.525 9.653 64.915l.42.843z" fill="#A4F6FF" fill-opacity=".18"></path><path d="M13.852 5.48C-2.518 18.547 1.679 41.31 27.284 69.13l-1.679.422C-1.259 45.103-8.815 17.704 13.852 5.48z" fill="url(#paint3_linear_2611_7327)"></path><path d="M28.963 1.264c-7.975 13.49-3.358 39.624 2.518 67.023h3.358L34.42.843C32.322 0 30.643 0 28.964 1.264z" fill="url(#paint4_linear_2611_7327)"></path><path d="M31.481 68.287c-5.876-27.399-10.493-53.533-2.518-67.022l.42-.422h.42v.422c-5.457 13.489-2.939 37.094 1.259 62.807l.42 4.215z" fill="#A4F6FF" fill-opacity=".2"></path><path d="M31.482 68.287h-2.1c-14.27-31.614-18.888-56.906-4.617-66.6 1.26-.844 2.519-.844 4.198-.422-6.296 13.067-4.617 36.672 2.518 67.022z" fill="url(#paint5_linear_2611_7327)"></path><path d="M39.457 1.264c7.975 13.49 3.358 39.624-2.519 67.023H33.58c0-14.332-.42-28.664-.42-43.417 0-8.01.42-16.018.84-24.027C36.099 0 37.778 0 39.457 1.264z" fill="url(#paint6_linear_2611_7327)"></path><path d="M36.938 68.287h2.099c14.272-31.614 18.889-56.906 5.037-66.6-1.26-.844-2.518-.844-4.197-.422 5.876 13.067 4.197 36.672-2.939 67.022z" fill="url(#paint7_linear_2611_7327)"></path><path d="M38.617 68.287l1.68.422C60.863 37.937 67.16 14.332 48.69 2.95c-2.099-1.686-3.778-1.686-5.457-1.265 15.112 11.382 8.395 36.673-4.617 66.601z" fill="url(#paint8_linear_2611_7327)"></path><path d="M48.691 2.95c18.89 14.332 8.395 38.78-8.395 65.758l1.26.422c17.21-18.125 35.679-46.79 12.592-64.072-2.099-1.686-3.778-2.107-5.457-2.107z" fill="url(#paint9_linear_2611_7327)"></path><path d="M54.148 5.48c16.37 13.067 12.173 35.83-13.432 63.65l1.68.422C69.678 45.103 76.814 17.704 54.147 5.48z" fill="url(#paint10_linear_2611_7327)"></path><path d="M27.704 74.61c-.42-1.686-1.26-3.794-2.519-5.48 2.939-1.686 5.457-2.107 8.395-2.529h.84c2.518 0 5.457.843 7.975 2.53-.84 1.685-2.099 3.371-2.518 5.479-1.68-.843-3.358-1.264-5.037-1.264h-1.68c-2.098.421-3.777.843-5.456 1.264z" fill="url(#paint11_linear_2611_7327)"></path><path d="M31.901 67.022c-2.099.422-4.197.843-6.296 2.53.84 1.686 2.099 3.372 2.518 5.48 1.68-.844 3.358-1.265 5.037-1.265l-1.259-6.745z" fill="url(#paint12_linear_2611_7327)"></path><path d="M34 73.345c3.358 0 6.296.843 6.296 1.265 0 .843-2.938 1.264-6.296 1.264s-6.296-.843-6.296-1.264c0-.843 2.938-1.265 6.296-1.265z" fill="url(#paint13_linear_2611_7327)"></path><path d="M42.815 69.552c-.42-.422-.42 0 0 0l-.42-.422s.42 0 .42.422zm-17.63 0c0-.422 0-.422.42-.422l-.42.422c.42-.422 0-.422 0 0zm16.79-.422l-.42-.421c.42 0 .42 0 .42.421zm-15.95 0c0-.421 0-.421.42-.421l-.42.421c.42-.421 0-.421 0 0zm15.11-.421c0-.422 0-.422 0 0zm-14.27 0c0-.422 0-.422 0 0 0-.422.42-.422 0 0zm13.431-.422c0-.421 0-.421 0 0zm-12.592 0c0-.421 0-.421 0 0zm11.753-.421c0-.422 0-.422 0 0zm-10.914 0c0-.422.42-.422 0 0zm9.235-.422c-.42-.421 0-.421 0 0zm-7.556 0c0-.421.42-.421 0 0zm6.716 0c-.42-.421 0-.421 0 0zm-5.876 0c0-.421.42-.421 0 0zm5.037-.421c-.42 0-.42 0 0 0zm-4.198 0c0-.422.42-.422.42-.422v.422h-.42zm3.358 0h-.42V66.6c0 .422 0 .422.42.422zm-2.518 0c0-.422.42-.422.42-.422v.422h-.42zm1.679 0H34V66.6l.42.422z" fill="#fff"></path><path d="M25.605 69.552C-1.259 45.103-8.815 17.704 13.852 5.48l-1.26 1.265h-.42l-.419.421C-5.457 20.233 1.68 45.525 24.765 68.71l.84.843z" fill="#A4F6FF" fill-opacity=".235"></path><path d="M29.383 68.287c-14.272-31.614-18.89-56.906-4.618-66.6 0 0 .42-.422.84-.422h.42c-12.173 9.273-9.235 34.143 2.938 65.757l.42 1.265z" fill="url(#paint14_linear_2611_7327)" fill-opacity=".263"></path><path d="M33.16 18.969C19.31 18.547 6.296 21.076.84 26.135L0 25.292c5.877-5.48 19.309-8.01 33.16-8.01 13.852 0 28.124 2.951 34.84 7.588l-.84 1.265c-6.716-4.637-20.567-7.166-34-7.166z" fill="#fff" fill-opacity=".545"></path><path d="M39.457 2.95c5.037 19.39 1.679 40.045-2.938 60.7 1.259-13.067 2.098-53.955.84-61.121.839-.843 1.258-.843 2.098.421z" fill="url(#paint15_linear_2611_7327)" fill-opacity=".235"></path><path d="M46.173 5.48c7.975 12.224 1.68 35.83-6.716 56.484 9.235-25.291 7.556-47.632 5.037-56.906.84-.421 1.26-.843 1.68.422z" fill="url(#paint16_linear_2611_7327)" fill-opacity=".235"></path><path d="M53.728 9.274c7.556 11.802 2.1 31.614-9.234 50.161 13.432-24.448 9.654-42.574 7.136-50.583-1.26-2.95.42-1.686 2.098.422z" fill="url(#paint17_linear_2611_7327)" fill-opacity=".235"></path><path d="M60.025 11.803c7.555 10.116 2.098 26.977-9.235 42.573 13.432-21.076 9.654-35.83 7.136-42.995-1.68-3.372-.84-2.95 2.099.421z" fill="url(#paint18_linear_2611_7327)" fill-opacity=".235"></path><path d="M28.543 2.95c-5.037 19.39-1.679 40.045 2.939 60.7-1.26-13.067-2.1-53.955-.84-61.542-.84-.422-1.26-.422-2.099.843z" fill="url(#paint19_linear_2611_7327)" fill-opacity=".235"></path><path d="M20.568 6.323c-7.556 13.489-1.26 35.83 7.136 56.484-9.235-25.291-7.976-47.632-5.457-56.905-.42-.844-1.26-.844-1.68.421z" fill="url(#paint20_linear_2611_7327)" fill-opacity=".235"></path><path d="M14.272 8.852c-7.556 12.224-2.1 32.036 9.234 50.583-13.852-24.87-9.654-42.574-7.136-51.004-.84-.422-1.679-.422-2.098.421z" fill="url(#paint21_linear_2611_7327)" fill-opacity=".235"></path><path d="M8.395 11.803C.84 22.763 6.296 41.309 17.63 58.17 4.198 35.83 7.975 19.39 10.494 11.803c-.84-.843-1.26-.843-2.099 0z" fill="url(#paint22_linear_2611_7327)" fill-opacity=".235"></path><path d="M42.815 67.444c2.938-3.372 5.876-7.166 8.395-10.538 2.938-4.215 5.876-8.43 8.395-12.646-.84 1.686-1.68 3.373-2.938 5.48-1.68 2.95-3.358 5.48-5.457 8.43-1.26 2.108-2.938 3.794-4.617 5.48l-3.778 3.794z" fill="url(#paint23_linear_2611_7327)" fill-opacity=".282"></path><path d="M40.296 67.444c2.519-3.794 4.618-7.587 7.136-11.381a201.45 201.45 0 006.716-13.489c-.84 1.686-1.259 3.794-2.099 5.48-1.259 2.95-2.938 5.901-4.197 8.852l-3.778 6.323c-1.26 1.264-2.518 2.95-3.778 4.215z" fill="url(#paint24_linear_2611_7327)" fill-opacity=".282"></path><path d="M31.901 68.709l-.84-1.686-.419-2.108.84 1.686.42 2.108zm-2.099.421l-.839-1.686-.84-1.686 1.26 1.686.42 1.686zm-1.259.421l-1.26-1.686-.839-1.686 1.26 1.686.84 1.686zm-1.259.843l-1.26-1.264-.839-1.686 1.26 1.264.84 1.686zm9.235-1.685l.42-2.108.839-1.686-.42 2.108-.84 1.686zm2.938.842l.84-1.686 1.259-1.686-.84 1.686-1.259 1.686zm.839.422l1.26-1.686 1.259-1.265-.84 1.687-1.679 1.264z" fill="#fff"></path><path d="M49.95 34.987c.42-1.686.84-3.794.84-5.902v-6.744c0-2.108 0-4.215-.42-6.323 0-3.372-.84-5.901-2.098-8.009-.42-.843-.84-1.686-1.68-2.529.42.422.84.843 1.26 1.686l1.259 2.53c1.26 2.107 2.099 4.636 2.519 7.165.42 2.108.42 4.215 0 6.323v2.529c0 1.265-.42 2.95-.42 4.215l-1.26 5.059zm6.717-.001c.42-1.686.84-3.372.84-5.058v-6.744c0-2.108 0-4.216-.42-5.902-.42-2.529-1.26-4.636-2.52-6.744-.419-.843-.839-1.686-1.678-2.53 1.26.422 1.26.844 1.679 1.265.42.843.84 1.687 1.26 2.108 1.258 2.108 1.678 4.215 2.098 6.744.42 1.686.42 3.794 0 5.48v2.529c0 1.265-.42 2.53-.42 3.794 0 2.108-.42 3.372-.84 5.058z" fill="#A4F6FF" fill-opacity=".525"></path><path d="M40.716 73.345c-1.679-.843-4.197-1.264-7.136-1.264-2.518 0-5.037.421-6.296 1.264 1.26-1.264 3.778-1.686 6.296-1.686 2.519 0 5.457.422 7.136 1.686z" fill="url(#paint25_linear_2611_7327)"></path><path d="M34 76.296c-1.68 0-3.358 0-4.198-.422-1.259-.421-2.098-.421-2.098-1.264 0-.422.84-.843 2.098-1.265 1.26-.421 2.519-.421 4.198-.421 1.679 0 3.358 0 4.197.421 1.26.422 2.1.422 2.1 1.265 0 .421-.84.843-2.1 1.264-.84.422-2.518.422-4.197.422zm0-.422c1.679 0 3.358 0 4.197-.421.42 0 .84-.422 1.26-.422.42 0 .42-.421.42-.421s0-.422-.42-.422-.84-.421-1.26-.421c-1.259-.422-2.518-.422-4.197-.422-1.68 0-3.358 0-4.198.422-.42 0-.84.421-1.259.421-.42 0-.42.422-.42.422s0 .421.42.421.84.422 1.26.422c.839.421 2.518.421 4.197.421z" fill="url(#paint26_linear_2611_7327)"></path><path d="M1.679 26.556c-.42 0-.84 0-1.26-.422.84.422 1.26.843 1.68.422.84-.843 1.679-2.108 2.098-3.372 2.1 1.686 3.778.843 5.457-2.108 2.938 2.108 5.037.843 6.716-1.686 2.519 2.95 5.457 1.686 8.815-.843 2.519 1.686 5.457 2.107 7.975 0 3.358 2.107 6.717 2.529 9.655.421 3.358 2.108 5.876 2.108 8.815.843 2.098 2.108 4.617 2.951 6.716 1.686 2.098 2.53 3.777 3.794 5.456 2.108.84 2.53 2.1 3.372 3.778 2.108-1.679 1.264-2.938.421-3.778-1.686v-.422h-.42c-1.678 1.265-3.357 0-5.036-2.108l-.42-.421h-.42c-1.679.843-3.778.421-5.457-1.265l-.84-.843h-.419c-2.099 2.53-4.617 2.108-7.136.422l-.42-.422-.42.422c-2.938 1.264-5.876.843-8.814-.843h-.84c-2.518 1.686-5.037 1.686-7.135 0h-.84l-.42.421c-2.938 2.53-5.456 3.373-7.975 1.265l-.42-.422-.42.422c-1.259 2.108-3.357 2.95-5.876 1.264l-.42-.421v.421c-1.679 2.53-3.358 3.794-5.037 2.108a16.033 16.033 0 01-2.099 2.53c-.42.42-.42.42-.84.42z" fill="#fff" fill-opacity=".545"></path><path d="M27.704 85.57C15.11 73.766 5.457 52.69 4.198 22.761h.42c.839 30.35 10.493 51.005 23.086 62.807z" fill="url(#paint27_linear_2611_7327)"></path><path d="M40.296 85.148C53.31 73.345 62.963 53.112 64.222 24.027h-.42c-1.259 29.085-10.913 49.318-23.506 61.12z" fill="url(#paint28_linear_2611_7327)"></path><path d="M38.617 87.256C46.593 69.973 50.37 46.789 51.21 20.233h.42c-.84 26.556-4.618 49.74-13.013 67.023z" fill="url(#paint29_linear_2611_7327)"></path><path d="M40.296 84.727H27.704l-.42 5.48c0 .842.42 2.529 1.679 2.95 3.358.843 6.716.843 10.494 0 .84-.421 1.679-1.686 1.679-2.53l-.84-5.9z" fill="url(#paint30_linear_2611_7327)"></path><path d="M34.84 94v-8.852h5.456l.84 5.901c0 .843-.42 2.53-1.68 2.53C38.199 94 36.939 94 35.68 94h-.84z" fill="url(#paint31_linear_2611_7327)"></path><path d="M34 94h-1.26v-.421l-.42-.422v.422l.42.421h-.839v-.421h-.84l-.42-.422h-.419l-1.26-.421v.421h-.419v-.843l-.42-.421V88.52l.42.422v-.422l-.42-.421v-.422l.42-.421-.42-.422v-.421l.42.421v-.421l-.42-.843.42.421.42-.421-.42-.422v.422l.42-.422h.42l-.42.843h.42v-.421l-.42-.422v.422l.42-.422h.42v.422l.42-.422h.419l-.42.422.42.421v-.421l.42-.422h.84l-.42.422.42.421v-.421l.419-.422h2.939l.419.422.42-.422h1.679v-.421h.42l.42.421v-.843h.839v.422l.42-.422h.42l.419.422.42-.422v1.265l.42.421v1.686l-.42-.421v.421l-.42.843v-.42.843l.42.422v.843l-.42.421.42.422c0 .421-.42 1.264-.84 1.264v-.421l-.42-.422v.422l.42.421-.84.422-.42.421h-.839l-.42-.421v.843h-.42v-.422l-.419-.421v.421l.42.422h-.42v-.422l-.42.422h-.84v-.422l-.419-.421v.421l.42.422h-.84L34 94v-.843V94zm-2.519-.421v-.843.843zm3.358-.422v-.843l-.42.422.42.421zm-1.679 0v-.843.843zm2.939 0l.42-.421-.42-.422-.42.422.42.421zm-5.877 0v-.843.843zm8.395 0v-.843.843zm-6.716 0v-.843.843zm5.457 0l.42-.421-.42-.422v.843zm-8.395 0v-.843.843zm10.074-.421l.42-.422-.42-.421-.42.421.42.422zm-4.198 0v-.843.843zm-1.259 0v-.843.843zm-1.26 0v-.843.843zm4.198 0v-.843.843zm1.26-.422v-.843.843zm-7.136 0v-.843.843zm9.654 0v-.843l-.42.422.42.421zm-6.296 0v-.843l-.42.422.42.421zm1.26 0l.419-.421-.42-.422-.42.422.42.421zm-2.94 0v-.843l-.419.422.42.421zm4.618 0l.42-.421-.42-.422-.42.422.42.421zm2.519-.421v-.843.843zm-10.074 0v-.843.843zm1.679 0v-.843.843zm7.135 0l.42-.422-.42-.421-.42.421.42.422zm-10.074 0v-.843.843zm12.593 0v-.843.843zm-6.296 0v-.843.843zm-1.68-.422v-.843.843zm2.939 0v-.843.843zm3.778 0v-.843l-.42.422.42.421zm-7.976 0v-.843.843zm5.877 0v-.843.843zm-7.556-.421v-.843.843zm8.815 0v-.843.843zm-3.778 0l.42-.422-.42-.421-.42.421.42.422zm-1.679 0v-.843l-.42.421.42.422zm2.939 0l.42-.422-.42-.421-.42.421.42.422zm3.778 0v-.843.843zm-11.334 0v-.843.843zm3.358 0v-.843l-.42.421.42.422zm5.877 0v-1.265l-.42.422.42.843zm-7.556-.422v-.843.843zm8.815 0v-.843l-.42.422.42.421zm-4.617 0l.42-.421-.42-.422v.843zm-.84 0v-.843.843zm1.68 0v-.843.843zm5.036 0v-.843l-.42.422.42.421zm-8.395-.421v-.843.843zm4.617 0v-.843.843zm-5.876 0v-.843.843zm7.555 0v-.843.843zm-9.234 0v-.843.843zm10.494 0v-.843.843zM34 89.785l.42-.421-.42-.422-.42.422.42.421zm1.679 0l.42-.421-.42-.422-.42.422.42.421zm-7.556 0v-.843.843zm4.198 0v-.843l-.42.422.42.421zm4.617 0l.42-.421-.42-.422-.42.422.42.421zm-5.876 0v-.843l-.42.422.42.421zm7.555 0v-.843l-.42.422.42.421zm-9.234 0v-.843.843zm10.494 0v-.843l-.42.422.42.421zm-7.136-.421v-.844.844zm2.938 0v-.844l-.42.422.42.422zm-2.099 0v-.844.844zm1.26 0l.42-.422v-.422l-.42.844zm-.42 0v-.844.844zm2.938 0v-.844.844zm-6.296 0v-.844.844zm-1.26-.422v-.843l-.42.421.42.422zm8.815 0v-.843.843zm-10.074 0v-.843.843zm11.753 0v-.843.843zm-7.136 0l.42-.843-.42-.422-.42.843.42.422zm2.939 0l.42-.422-.42-.421v.843zm-1.26-.422l.42-.421-.42-.422-.42.422.42.421zm-3.358 0v-.843l-.42.422.42.421zm6.297 0v-.843l-.42.422.42.421zm-7.556 0v-.843l-.42.422.42.421zm8.815 0v-.843l-.42.422.42.421zm-10.074 0v-.843.843zm3.778-.421l.42-.422-.42-.421v.843zm2.938 0l.42-.422-.42-.421v.843zm-.42 0v-.843.843zm-1.679 0v-.843.843zm-1.679 0v-.843.843zm4.617 0v-.843.843zm-2.098 0l.42-.422v-.421l-.42.843zm-5.457 0v-.843.843zm10.494 0v-.843.843zm-8.815 0v-.843.843zm7.555 0v-.843.843zM34 87.677l.42-.421-.42-.422-.42.422.42.421zm1.26 0l.419-.421-.42-.422-.42.422.42.421zm-2.94 0l.42-.421-.42-.422-.419.422.42.421zm4.618 0v-.843l-.42.422.42.421zm-8.815 0v-.843l-.42.422.42.421zm1.26 0v-.843l-.42.422.42.421zm10.494 0v-.843.843zm-8.815 0v-.843l-.42.422.42.421zm7.555 0v-.843l-.42.422.42.421zm-10.074-.421v-.843.843zm11.753 0v-.843.843zm-10.494-.422v-.843.843zm8.815 0v-.843.843zm-7.555 0v-.843.843zm6.296 0v-.843.843zm-2.938 0v-.843.843zm-.84 0v-.843.843zm1.26 0l.42-.421v-.422l-.42.843zm-2.939 0l.42-.421v-.422l-.42.843zm.84 0v-.843.843zm3.358 0v-.843.843zm-7.136-.421v-.843l-.42.421.42.422zm1.26 0v-.843l-.42.421.42.422zm8.814 0v-.843.843zm-7.556 0l.42-.422-.42-.421-.42.421.42.422zm6.297 0v-.843l-.42.421.42.422zm-2.939 0l.42-.422-.42-.421-.42.421.42.422zm-1.679 0l.42-.422-.42-.421-.42.421.42.422zm2.939 0v-.843l-.42.421.42.422zm3.358-.422v-.843.843zm-1.26 0v-.843.843zm-1.679-.421v-.843.843zm-2.098 0l.42-.422-.42-.421v.843zm-.84 0v-.843.843zm1.68 0v-.843.843zm-2.52 0l.42-.422v-.421l-.42.843z" fill="#fff" fill-opacity=".263"></path><path d="M34 86.412c3.358 0 6.296-.843 6.296-1.264 0-.422-2.938-1.265-6.296-1.265s-6.296.843-6.296 1.265c0 .421 2.938 1.264 6.296 1.264z" fill="url(#paint32_linear_2611_7327)"></path><path d="M34 83.462c-1.68 0-3.358 0-4.198.421-1.259.422-2.098.422-2.098 1.265 0 .422.84.843 2.098 1.265 1.26.421 2.519.421 4.198.421 1.679 0 3.358 0 4.197-.421 1.26-.422 2.1-.422 2.1-1.265 0-.421-.84-.843-2.1-1.265-.84-.421-2.518-.421-4.197-.421zm0 0c1.679 0 3.358 0 4.197.421.42 0 .84.422 1.26.422.42 0 .42.421.42.421s0 .422-.42.422-.84.422-1.26.422c-1.259.421-2.518.421-4.197.421-1.68 0-3.358 0-4.198-.421-.42 0-.84-.422-1.259-.422-.42 0-.42-.421-.42-.421s0-.422.42-.422.84-.422 1.26-.422c.839 0 2.518-.421 4.197-.421z" fill="url(#paint33_linear_2611_7327)"></path><path d="M28.123 85.148c.84-3.372.42-6.745-.42-10.117h.42c.84 2.95.84 6.323 0 10.117zm11.754 0c-.84-3.372-.42-7.166.42-10.538h-.42c-.42 3.372-.84 7.166 0 10.538zm-9.655.842c.84-4.214.42-8.008-.42-12.223h.42c.42 4.215.84 8.009 0 12.224zm7.976 0c-.84-4.214-.42-8.008.42-12.223h-.42c-.84 4.215-1.26 8.009 0 12.224zm-5.878.001c.84-4.215.42-8.43-.419-12.646h.42c.42 4.216.84 8.43 0 12.646z" fill="#B2B2B2"></path><path d="M28.123 85.57c-1.259 2.107-1.259 3.372 0 3.793 1.26-.421.84-2.53 0-3.794z" fill="url(#paint34_linear_2611_7327)"></path><path d="M28.123 85.57l-.42-.422.42-.421h.42l-.42.843z" fill="url(#paint35_linear_2611_7327)"></path><path d="M28.963 85.991c-1.26 2.108-1.26 3.372 0 3.794 1.26-.843.84-2.95 0-3.794z" fill="url(#paint36_linear_2611_7327)"></path><path d="M28.963 85.991l-.42-.421.42-.422h.42l-.42.843z" fill="url(#paint37_linear_2611_7327)"></path><path d="M40.296 85.148c1.26 2.108 1.26 3.372 0 3.794-1.259-.422-.84-2.53 0-3.794z" fill="url(#paint38_linear_2611_7327)"></path><path d="M40.296 85.148l.42-.421-.42-.422h-.42l.42.843z" fill="url(#paint39_linear_2611_7327)"></path><path d="M39.037 85.57c1.26 2.107 1.26 3.372 0 3.793-.84-.421-.84-2.53 0-3.794z" fill="url(#paint40_linear_2611_7327)"></path><path d="M39.037 85.57l.42-.422-.42-.421h-.42l.42.843z" fill="url(#paint41_linear_2611_7327)"></path><path d="M16.37 20.655v-.843c0-5.902 1.68-10.538 4.198-14.332h.42c-4.198 0-7.556 5.48-10.494 13.067l-.84 1.686V18.97c.42-4.216 2.1-8.01 5.037-10.96l.42-.422h-1.26c-3.357.843-6.295 5.059-8.394 10.96l-.42 1.265c1.26-5.48 4.198-10.538 10.074-15.175 1.68-1.265 2.938-1.686 4.617-1.686h.42c1.68-1.265 3.358-1.686 4.617-1.265h.42c1.26-.843 2.519-.843 4.198-.421l.42-.422C31.061 0 32.32 0 33.16 0l.84.422h-.42c-3.359 1.686-6.297 6.744-7.976 13.488l-.42 1.686v-.421c.42-3.372.84-6.745 2.099-9.274l.42-1.686h-.84c-3.777 1.686-8.395 7.588-10.494 16.44z" fill="#fff" fill-opacity=".318"></path><path d="M34 79.247h-3.778c-.84 0-1.679-.422-1.679-.422s.84-.421 1.68-.421h7.555c.84 0 1.679.421 1.679.421s-.84.422-1.68.422H34zm3.778 0H34h3.778z" fill="#999"></path><defs><linearGradient id="paint0_linear_2611_7327" x1="29.932" y1="34.837" x2="13.51" y2="36.379" gradientUnits="userSpaceOnUse"><stop stop-color="#008DBC"></stop><stop offset="1" stop-color="#5AF0FF"></stop></linearGradient><linearGradient id="paint1_linear_2611_7327" x1="8.895" y1="36.733" x2="13.466" y2="36.332" gradientUnits="userSpaceOnUse"><stop stop-color="#0041FF"></stop><stop offset="1" stop-color="#A4F6FF"></stop></linearGradient><linearGradient id="paint2_linear_2611_7327" x1="24.812" y1="35.859" x2="9.313" y2="37.946" gradientUnits="userSpaceOnUse"><stop stop-color="#008DBC"></stop><stop offset="1" stop-color="#5AF0FF"></stop></linearGradient><linearGradient id="paint3_linear_2611_7327" x1="29.404" y1="37.22" x2="5.835" y2="37.998" gradientUnits="userSpaceOnUse"><stop stop-color="#008DBC"></stop><stop offset="1" stop-color="#5AF0FF"></stop></linearGradient><linearGradient id="paint4_linear_2611_7327" x1="42.885" y1="34.26" x2="26.486" y2="34.26" gradientUnits="userSpaceOnUse"><stop stop-color="#008DBC"></stop><stop offset="1" stop-color="#5AF0FF"></stop></linearGradient><linearGradient id="paint5_linear_2611_7327" x1="37.869" y1="34.117" x2="19.564" y2="35.274" gradientUnits="userSpaceOnUse"><stop stop-color="#008DBC"></stop><stop offset="1" stop-color="#5AF0FF"></stop></linearGradient><linearGradient id="paint6_linear_2611_7327" x1="47.335" y1="35.188" x2="32.564" y2="34.022" gradientUnits="userSpaceOnUse"><stop stop-color="#008DBC"></stop><stop offset="1" stop-color="#5AF0FF"></stop></linearGradient><linearGradient id="paint7_linear_2611_7327" x1="51.795" y1="36.913" x2="38.497" y2="34.564" gradientUnits="userSpaceOnUse"><stop stop-color="#008DBC"></stop><stop offset="1" stop-color="#5AF0FF"></stop></linearGradient><linearGradient id="paint8_linear_2611_7327" x1="59.544" y1="39.153" x2="41.058" y2="34.846" gradientUnits="userSpaceOnUse"><stop stop-color="#008DBC"></stop><stop offset="1" stop-color="#5AF0FF"></stop></linearGradient><linearGradient id="paint9_linear_2611_7327" x1="70.315" y1="41.924" x2="43.253" y2="35.647" gradientUnits="userSpaceOnUse"><stop stop-color="#008DBC"></stop><stop offset="1" stop-color="#5AF0FF"></stop></linearGradient><linearGradient id="paint10_linear_2611_7327" x1="79.417" y1="44.387" x2="44.715" y2="36.801" gradientUnits="userSpaceOnUse"><stop stop-color="#008DBC"></stop><stop offset="1" stop-color="#5AF0FF"></stop></linearGradient><linearGradient id="paint11_linear_2611_7327" x1="46.243" y1="72.443" x2="33.026" y2="71.563" gradientUnits="userSpaceOnUse"><stop stop-color="#960"></stop><stop offset="1" stop-color="#F5C748"></stop></linearGradient><linearGradient id="paint12_linear_2611_7327" x1="22.004" y1="73.583" x2="30.244" y2="71.91" gradientUnits="userSpaceOnUse"><stop stop-color="#960"></stop><stop offset="1" stop-color="#F5C748"></stop></linearGradient><linearGradient id="paint13_linear_2611_7327" x1="34.029" y1="77.503" x2="34.029" y2="72.309" gradientUnits="userSpaceOnUse"><stop stop-color="#F5C748"></stop><stop offset="1" stop-color="#960"></stop></linearGradient><linearGradient id="paint14_linear_2611_7327" x1="15.914" y1="34.472" x2="18.399" y2="34.539" gradientUnits="userSpaceOnUse"><stop stop-color="#0041FF"></stop><stop offset="1" stop-color="#A4F6FF"></stop></linearGradient><linearGradient id="paint15_linear_2611_7327" x1="32.996" y1="32.831" x2="40.436" y2="32.914" gradientUnits="userSpaceOnUse"><stop stop-color="#A4F6FF"></stop><stop offset="1" stop-color="#008DBC"></stop></linearGradient><linearGradient id="paint16_linear_2611_7327" x1="38.514" y1="33.259" x2="48.079" y2="33.932" gradientUnits="userSpaceOnUse"><stop stop-color="#A4F6FF"></stop><stop offset="1" stop-color="#008DBC"></stop></linearGradient><linearGradient id="paint17_linear_2611_7327" x1="43.313" y1="33.04" x2="54.986" y2="34.139" gradientUnits="userSpaceOnUse"><stop stop-color="#A4F6FF"></stop><stop offset="1" stop-color="#008DBC"></stop></linearGradient><linearGradient id="paint18_linear_2611_7327" x1="49.35" y1="31.665" x2="60.984" y2="32.933" gradientUnits="userSpaceOnUse"><stop stop-color="#A4F6FF"></stop><stop offset="1" stop-color="#008DBC"></stop></linearGradient><linearGradient id="paint19_linear_2611_7327" x1="29.41" y1="32.664" x2="26.523" y2="32.53" gradientUnits="userSpaceOnUse"><stop stop-color="#5AF0FF"></stop><stop offset="1" stop-color="#A4F6FF"></stop></linearGradient><linearGradient id="paint20_linear_2611_7327" x1="21.326" y1="34.325" x2="19.445" y2="34.464" gradientUnits="userSpaceOnUse"><stop stop-color="#5AF0FF"></stop><stop offset="1" stop-color="#A4F6FF"></stop></linearGradient><linearGradient id="paint21_linear_2611_7327" x1="15.096" y1="34.023" x2="13.304" y2="34.14" gradientUnits="userSpaceOnUse"><stop stop-color="#5AF0FF"></stop><stop offset="1" stop-color="#A4F6FF"></stop></linearGradient><linearGradient id="paint22_linear_2611_7327" x1="9.363" y1="35.163" x2="7.575" y2="35.289" gradientUnits="userSpaceOnUse"><stop stop-color="#5AF0FF"></stop><stop offset="1" stop-color="#A4F6FF"></stop></linearGradient><linearGradient id="paint23_linear_2611_7327" x1="53.45" y1="51.291" x2="49.862" y2="58.694" gradientUnits="userSpaceOnUse"><stop stop-color="#0041FF"></stop><stop offset="1" stop-color="#A4F6FF"></stop></linearGradient><linearGradient id="paint24_linear_2611_7327" x1="51.913" y1="46.458" x2="46.783" y2="56.756" gradientUnits="userSpaceOnUse"><stop stop-color="#0041FF"></stop><stop offset="1" stop-color="#A4F6FF"></stop></linearGradient><linearGradient id="paint25_linear_2611_7327" x1="18.736" y1="72.699" x2="39.544" y2="72.494" gradientUnits="userSpaceOnUse"><stop stop-color="#fff"></stop><stop offset="1" stop-color="#F5C748"></stop></linearGradient><linearGradient id="paint26_linear_2611_7327" x1="24.145" y1="74.66" x2="37.174" y2="74.752" gradientUnits="userSpaceOnUse"><stop stop-color="#fff"></stop><stop offset="1" stop-color="#F5C748"></stop></linearGradient><linearGradient id="paint27_linear_2611_7327" x1="16.287" y1="18.413" x2="16.039" y2="57.545" gradientUnits="userSpaceOnUse"><stop stop-color="#fff"></stop><stop offset="1" stop-color="#CCC"></stop></linearGradient><linearGradient id="paint28_linear_2611_7327" x1="52.29" y1="19.191" x2="52.532" y2="57.478" gradientUnits="userSpaceOnUse"><stop stop-color="#fff"></stop><stop offset="1" stop-color="#CCC"></stop></linearGradient><linearGradient id="paint29_linear_2611_7327" x1="45.135" y1="15.054" x2="45.669" y2="56.919" gradientUnits="userSpaceOnUse"><stop stop-color="#fff"></stop><stop offset="1" stop-color="#CCC"></stop></linearGradient><linearGradient id="paint30_linear_2611_7327" x1="27.445" y1="89.188" x2="30.598" y2="89.251" gradientUnits="userSpaceOnUse"><stop stop-color="#F5C748"></stop><stop offset="1" stop-color="#960"></stop></linearGradient><linearGradient id="paint31_linear_2611_7327" x1="42.059" y1="88.394" x2="37.493" y2="89.03" gradientUnits="userSpaceOnUse"><stop stop-color="#F5C748"></stop><stop offset="1" stop-color="#960"></stop></linearGradient><linearGradient id="paint32_linear_2611_7327" x1="34.029" y1="82.1" x2="34.029" y2="87.296" gradientUnits="userSpaceOnUse"><stop stop-color="#F5C748"></stop><stop offset="1" stop-color="#960"></stop></linearGradient><linearGradient id="paint33_linear_2611_7327" x1="24.142" y1="84.945" x2="37.173" y2="84.845" gradientUnits="userSpaceOnUse"><stop stop-color="#fff"></stop><stop offset="1" stop-color="#F5C748"></stop></linearGradient><linearGradient id="paint34_linear_2611_7327" x1="26.735" y1="87.135" x2="28.641" y2="87.436" gradientUnits="userSpaceOnUse"><stop stop-color="#fff"></stop><stop offset="1" stop-color="#7F7F7F"></stop></linearGradient><linearGradient id="paint35_linear_2611_7327" x1="27.667" y1="85.189" x2="28.355" y2="85.339" gradientUnits="userSpaceOnUse"><stop stop-color="#fff"></stop><stop offset="1" stop-color="#999"></stop></linearGradient><linearGradient id="paint36_linear_2611_7327" x1="27.657" y1="87.374" x2="29.568" y2="87.675" gradientUnits="userSpaceOnUse"><stop stop-color="#fff"></stop><stop offset="1" stop-color="#7F7F7F"></stop></linearGradient><linearGradient id="paint37_linear_2611_7327" x1="28.588" y1="85.432" x2="29.279" y2="85.582" gradientUnits="userSpaceOnUse"><stop stop-color="#fff"></stop><stop offset="1" stop-color="#999"></stop></linearGradient><linearGradient id="paint38_linear_2611_7327" x1="38.459" y1="85.047" x2="40.988" y2="88.305" gradientUnits="userSpaceOnUse"><stop stop-color="#fff"></stop><stop offset="1" stop-color="#7F7F7F"></stop></linearGradient><linearGradient id="paint39_linear_2611_7327" x1="40.569" y1="84.921" x2="39.877" y2="85.079" gradientUnits="userSpaceOnUse"><stop stop-color="#fff"></stop><stop offset="1" stop-color="#999"></stop></linearGradient><linearGradient id="paint40_linear_2611_7327" x1="36.242" y1="85.854" x2="40.275" y2="87.824" gradientUnits="userSpaceOnUse"><stop stop-color="#fff"></stop><stop offset="1" stop-color="#7F7F7F"></stop></linearGradient><linearGradient id="paint41_linear_2611_7327" x1="39.641" y1="85.157" x2="38.958" y2="85.303" gradientUnits="userSpaceOnUse"><stop stop-color="#fff"></stop><stop offset="1" stop-color="#999"></stop></linearGradient></defs></svg>