<?xml version="1.0" encoding="utf-8"?>
<!-- Generator: Adobe Illustrator 26.0.0, SVG Export Plug-In . SVG Version: 6.00 Build 0)  -->
<svg version="1.1" id="Layer_1" xmlns="http://www.w3.org/2000/svg" xmlns:xlink="http://www.w3.org/1999/xlink" x="0px" y="0px"
	 viewBox="0 0 1655 723.9" style="enable-background:new 0 0 1655 723.9;" xml:space="preserve">
<style type="text/css">
	.st0{fill:#0271AA;}
	.st1{fill:#F6B502;}
	.st2{fill:#02C3B1;}
	.st3{opacity:0.83;}
	.st4{clip-path:url(#SVGID_00000045617368973032269620000014093146406214071733_);fill:#E40B4E;}
	.st5{clip-path:url(#SVGID_00000089566729697349270920000000641381894365194155_);fill:#E40B4E;}
	.st6{clip-path:url(#SVGID_00000065780279227669835810000013097826112824933269_);fill:#E40B4E;}
	.st7{clip-path:url(#SVGID_00000168112408174346426190000015760747304213581224_);fill:#E40B4E;}
	.st8{clip-path:url(#SVGID_00000110459905576207962080000018250108401983246522_);fill:#E40B4E;}
	.st9{clip-path:url(#SVGID_00000022528100276410526490000014066089095639046818_);fill:#E40B4E;}
	.st10{clip-path:url(#SVGID_00000067195871900420405760000008131516769763276969_);fill:#E40B4E;}
	.st11{clip-path:url(#SVGID_00000083066771793558264700000005627575508805594550_);fill:#E40B4E;}
	.st12{clip-path:url(#SVGID_00000072272534848147993350000013046333433663587722_);fill:#E40B4E;}
	.st13{clip-path:url(#SVGID_00000173870615052713824280000001708631837790237336_);fill:#E40B4E;}
	.st14{clip-path:url(#SVGID_00000135682217319440553030000002885921030307874493_);fill:#E40B4E;}
	.st15{clip-path:url(#SVGID_00000121273651500498731330000013134500949311441536_);fill:#E40B4E;}
	.st16{clip-path:url(#SVGID_00000010294057418834916940000000576909616525821874_);fill:#E40B4E;}
	.st17{clip-path:url(#SVGID_00000165939189168952389660000014758292906861130901_);fill:#E40B4E;}
	.st18{clip-path:url(#SVGID_00000167387769750785301160000006627101760797010613_);fill:#E40B4E;}
	.st19{clip-path:url(#SVGID_00000106858861526230700080000016625085958722254767_);fill:#E40B4E;}
	.st20{clip-path:url(#SVGID_00000149367021408132899460000005665046981938930870_);fill:#E40B4E;}
	.st21{clip-path:url(#SVGID_00000079480000463162735390000016486975705542957242_);fill:#E40B4E;}
	.st22{clip-path:url(#SVGID_00000172433008980280115310000007380194040387217053_);fill:#E40B4E;}
	.st23{clip-path:url(#SVGID_00000039126217288077992790000008981442352157117059_);fill:#E40B4E;}
	.st24{clip-path:url(#SVGID_00000134930430576519514740000017571019502875460795_);fill:#E40B4E;}
	.st25{clip-path:url(#SVGID_00000182515705061666352650000002246531527249256877_);fill:#E40B4E;}
	.st26{clip-path:url(#SVGID_00000046298136642896671630000012749153526708203948_);fill:#E40B4E;}
	.st27{clip-path:url(#SVGID_00000136383819737411406800000016427950129258672264_);fill:#E40B4E;}
	.st28{clip-path:url(#SVGID_00000123432029167527826960000009043532632845784997_);fill:#E40B4E;}
	.st29{clip-path:url(#SVGID_00000078006027512286996700000014919019736354296233_);fill:#E40B4E;}
	.st30{clip-path:url(#SVGID_00000134238250162053272750000007148481271524216720_);fill:#E40B4E;}
	.st31{clip-path:url(#SVGID_00000116224008838077444790000007283437338792841092_);fill:#E40B4E;}
	.st32{clip-path:url(#SVGID_00000147209557954082956520000012810960157365172911_);fill:#E40B4E;}
	.st33{clip-path:url(#SVGID_00000088116862218775350870000002886223995621537978_);fill:#E40B4E;}
</style>
<g>
	<g>
		<g>
			<g>
				<path class="st0" d="M976.1,512.6H803.8c0,0-1.7-52,39.5-29.9c0,0,7.9-6.8,13.6,4c6.2-10.2,26-7.3,32.8,7.3
					c0,0-2.8-22,18.6-19.2c8.5-15.8,44.1-14.1,49.7,10.7C976.6,477.6,976.1,512.6,976.1,512.6"/>
				<polygon class="st1" points="740.8,573 740.8,615.9 711.1,615.9 711.1,557.9 738.1,530.8 				"/>
				<path class="st2" d="M725.2,561.8c0,0,16.1,24.9,36.6,2.9c25.8,16.6,36.6-30.2,20-32.7c11.7-14.1,3.9-71.2-44.4-40.9
					c-48.3-37-86.3,7.8-62.4,47.3C648.7,571.5,702.3,605.2,725.2,561.8"/>
				<path class="st1" d="M879.9,599.6c-6.3-1-10.3-4.1-11.3-10.3c-0.8-4.9,1.5-9.5,5.7-11.8c5.6-3,10.7-1.9,15.6,2.9
					c-1.1-5.6-0.5-10.2,3.7-13.6c2.5-2.1,5.5-3.1,8.7-2.7c8.1,1,11.8,7.3,9.8,17.3c4.4-2.8,8.8-3.7,13.5-1.4c3,1.5,5,4,5.9,7.3
					c2.2,7.8-2.3,13.2-12.8,15.4c2.1,8.2,1,12.5-4,14.7c-5.3,2.4-10.7,0-15.6-7.1c-1,5.4-3.7,9.4-9,10.8c-3.3,0.9-6.6,0.5-9.6-1.5
					C874.2,615.3,873.9,607.7,879.9,599.6 M890.8,594c0,4.4,3.9,8.4,8.3,8.4c4.4,0,8.3-3.8,8.3-8.3c0-4.6-3.6-8.3-8.2-8.3
					C894.7,585.8,890.9,589.6,890.8,594"/>
				<g class="st3">
					<g>
						<defs>
							<rect id="SVGID_1_" x="754" y="421.6" width="62.8" height="42.7"/>
						</defs>
						<clipPath id="SVGID_00000085237462134883311410000017938498759169595838_">
							<use xlink:href="#SVGID_1_"  style="overflow:visible;"/>
						</clipPath>
						<path style="clip-path:url(#SVGID_00000085237462134883311410000017938498759169595838_);fill:#E40B4E;" d="M754.1,433.9
							c0,0,3.9,45,50.4,25.5C851,439.7,750.2,402,754.1,433.9"/>
					</g>
				</g>
				<g class="st3">
					<g>
						<defs>
							<rect id="SVGID_00000018948051925991009120000013654437610965083830_" x="772.5" y="411.4" width="34.9" height="40.2"/>
						</defs>
						<clipPath id="SVGID_00000119119826918552191210000006786521610866479780_">
							<use xlink:href="#SVGID_00000018948051925991009120000013654437610965083830_"  style="overflow:visible;"/>
						</clipPath>
						<path style="clip-path:url(#SVGID_00000119119826918552191210000006786521610866479780_);fill:#E40B4E;" d="M803.2,447.9
							c0,0,17.1-26.6-17.1-35.7C751.9,403.2,791.7,467.2,803.2,447.9"/>
					</g>
				</g>
				<path class="st0" d="M1324.7,416.3h-172.3c0,0-1.7-52,39.5-29.9c0,0,7.9-6.8,13.6,4c6.2-10.2,26-7.3,32.8,7.3
					c0,0-2.8-22,18.6-19.2c8.5-15.8,44.1-14.1,49.7,10.7C1325.2,381.3,1324.7,416.3,1324.7,416.3"/>
				<polygon class="st1" points="1089.4,476.7 1089.4,519.6 1059.6,519.6 1059.6,461.6 1086.7,434.5 				"/>
				<path class="st2" d="M1073.8,465.5c0,0,16.1,24.9,36.6,2.9c25.8,16.6,36.6-30.2,20-32.7c11.7-14.1,3.9-71.2-44.4-40.9
					c-48.3-37.1-86.3,7.8-62.4,47.3C997.2,475.2,1050.9,508.9,1073.8,465.5"/>
				<path class="st1" d="M1228.5,503.3c-6.3-1-10.3-4.1-11.3-10.3c-0.8-4.9,1.5-9.5,5.7-11.8c5.6-3,10.7-1.9,15.6,2.9
					c-1.1-5.6-0.5-10.2,3.7-13.6c2.5-2.1,5.5-3.1,8.7-2.7c8.1,1,11.8,7.3,9.8,17.3c4.4-2.8,8.8-3.7,13.5-1.4c3,1.5,5,4,5.9,7.3
					c2.2,7.8-2.3,13.2-12.8,15.4c2.1,8.2,1,12.5-4,14.7c-5.3,2.4-10.7,0-15.6-7.1c-1,5.4-3.7,9.4-9,10.8c-3.3,0.9-6.6,0.5-9.6-1.5
					C1222.8,518.9,1222.5,511.4,1228.5,503.3 M1239.4,497.7c0,4.4,3.9,8.4,8.3,8.4c4.4,0,8.3-3.8,8.3-8.3c0-4.6-3.6-8.3-8.2-8.3
					C1243.3,489.5,1239.4,493.2,1239.4,497.7"/>
				<g class="st3">
					<g>
						<defs>
							<rect id="SVGID_00000025405958551730711290000014798016451542810554_" x="1102.6" y="325.3" width="62.8" height="42.7"/>
						</defs>
						<clipPath id="SVGID_00000152249561843128868860000014077016200164777919_">
							<use xlink:href="#SVGID_00000025405958551730711290000014798016451542810554_"  style="overflow:visible;"/>
						</clipPath>
						<path style="clip-path:url(#SVGID_00000152249561843128868860000014077016200164777919_);fill:#E40B4E;" d="M1102.7,337.6
							c0,0,3.9,45,50.4,25.5C1199.6,343.4,1098.7,305.7,1102.7,337.6"/>
					</g>
				</g>
				<g class="st3">
					<g>
						<defs>
							<rect id="SVGID_00000025411203437153606090000004714287148046018955_" x="1121.1" y="315" width="34.9" height="40.2"/>
						</defs>
						<clipPath id="SVGID_00000052819461581554267280000006735010286107252670_">
							<use xlink:href="#SVGID_00000025411203437153606090000004714287148046018955_"  style="overflow:visible;"/>
						</clipPath>
						<path style="clip-path:url(#SVGID_00000052819461581554267280000006735010286107252670_);fill:#E40B4E;" d="M1151.7,351.6
							c0,0,17.1-26.6-17.1-35.7C1100.5,306.9,1140.3,370.9,1151.7,351.6"/>
					</g>
				</g>
				<g class="st3">
					<g>
						<defs>
							<rect id="SVGID_00000108301628757702239260000013016215690986840482_" x="754" y="659.4" width="62.8" height="42.7"/>
						</defs>
						<clipPath id="SVGID_00000065061843932490885700000001681902218096674458_">
							<use xlink:href="#SVGID_00000108301628757702239260000013016215690986840482_"  style="overflow:visible;"/>
						</clipPath>
						<path style="clip-path:url(#SVGID_00000065061843932490885700000001681902218096674458_);fill:#E40B4E;" d="M754.1,671.7
							c0,0,3.9,45,50.4,25.5C851,677.6,750.2,639.9,754.1,671.7"/>
					</g>
				</g>
				<g class="st3">
					<g>
						<defs>
							<rect id="SVGID_00000160172463283086394440000000952771301208159636_" x="772.5" y="649.2" width="34.9" height="40.2"/>
						</defs>
						<clipPath id="SVGID_00000072275868572418588490000016389008856548967609_">
							<use xlink:href="#SVGID_00000160172463283086394440000000952771301208159636_"  style="overflow:visible;"/>
						</clipPath>
						<path style="clip-path:url(#SVGID_00000072275868572418588490000016389008856548967609_);fill:#E40B4E;" d="M803.2,685.7
							c0,0,17.1-26.6-17.1-35.7C751.9,641.1,791.7,705.1,803.2,685.7"/>
					</g>
				</g>
				<path class="st0" d="M1324.7,654.2h-172.3c0,0-1.7-52,39.5-29.9c0,0,7.9-6.8,13.6,4c6.2-10.2,26-7.3,32.8,7.3
					c0,0-2.8-22,18.6-19.2c8.5-15.8,44.1-14.1,49.7,10.7C1325.2,619.1,1324.7,654.2,1324.7,654.2"/>
				<path class="st2" d="M1073.8,703.3c0,0,16.1,24.9,36.6,2.9c25.8,16.6,36.6-30.2,20-32.7c11.7-14.1,3.9-71.2-44.4-41
					c-48.3-37-86.3,7.8-62.4,47.3C997.2,713.1,1050.9,746.7,1073.8,703.3"/>
				<g class="st3">
					<g>
						<defs>
							<rect id="SVGID_00000011730863200703325050000014653615303786902203_" x="1102.6" y="563.1" width="62.8" height="42.7"/>
						</defs>
						<clipPath id="SVGID_00000060718311628942587080000010713353762860606598_">
							<use xlink:href="#SVGID_00000011730863200703325050000014653615303786902203_"  style="overflow:visible;"/>
						</clipPath>
						<path style="clip-path:url(#SVGID_00000060718311628942587080000010713353762860606598_);fill:#E40B4E;" d="M1102.7,575.4
							c0,0,3.9,45,50.4,25.5C1199.6,581.3,1098.7,543.6,1102.7,575.4"/>
					</g>
				</g>
				<g class="st3">
					<g>
						<defs>
							<rect id="SVGID_00000102507023712056740070000015313248274659026054_" x="1121.1" y="552.9" width="34.9" height="40.2"/>
						</defs>
						<clipPath id="SVGID_00000176044204125179194690000016716929927037166513_">
							<use xlink:href="#SVGID_00000102507023712056740070000015313248274659026054_"  style="overflow:visible;"/>
						</clipPath>
						<path style="clip-path:url(#SVGID_00000176044204125179194690000016716929927037166513_);fill:#E40B4E;" d="M1151.7,589.4
							c0,0,17.1-26.6-17.1-35.7C1100.5,544.7,1140.3,608.7,1151.7,589.4"/>
					</g>
				</g>
				<path class="st0" d="M308.4,512.6H136.1c0,0-1.7-52,39.5-29.9c0,0,7.9-6.8,13.6,4c6.2-10.2,26-7.3,32.8,7.3
					c0,0-2.8-22,18.6-19.2c8.5-15.8,44.1-14.1,49.7,10.7C309,477.6,308.4,512.6,308.4,512.6"/>
				<polygon class="st1" points="73.1,573 73.1,615.9 43.4,615.9 43.4,557.9 70.5,530.8 				"/>
				<path class="st2" d="M57.5,561.8c0,0,16.1,24.9,36.6,2.9c25.8,16.6,36.6-30.2,20-32.7c11.7-14.1,3.9-71.2-44.4-40.9
					c-48.3-37-86.3,7.8-62.4,47.3C-19,571.5,34.6,605.2,57.5,561.8"/>
				<path class="st1" d="M212.3,599.6c-6.3-1-10.3-4.1-11.3-10.3c-0.8-4.9,1.5-9.5,5.7-11.8c5.6-3,10.7-1.9,15.6,2.9
					c-1.1-5.6-0.5-10.2,3.7-13.6c2.5-2.1,5.5-3.1,8.7-2.7c8.1,1,11.8,7.3,9.8,17.3c4.4-2.8,8.8-3.7,13.5-1.4c3,1.5,5,4,5.9,7.3
					c2.2,7.8-2.3,13.2-12.8,15.4c2.1,8.2,1,12.5-4,14.7c-5.3,2.4-10.7,0-15.6-7.1c-1,5.4-3.7,9.4-9,10.8c-3.3,0.9-6.6,0.5-9.6-1.5
					C206.6,615.3,206.2,607.7,212.3,599.6 M223.2,594c0,4.4,3.9,8.4,8.3,8.4c4.4,0,8.3-3.8,8.3-8.3c0-4.6-3.6-8.3-8.2-8.3
					C227,585.8,223.2,589.6,223.2,594"/>
				<g class="st3">
					<g>
						<defs>
							<rect id="SVGID_00000022561519871931500780000016445662884060581558_" x="86.3" y="421.6" width="62.8" height="42.7"/>
						</defs>
						<clipPath id="SVGID_00000177472560667977253620000014246649581187504804_">
							<use xlink:href="#SVGID_00000022561519871931500780000016445662884060581558_"  style="overflow:visible;"/>
						</clipPath>
						<path style="clip-path:url(#SVGID_00000177472560667977253620000014246649581187504804_);fill:#E40B4E;" d="M86.4,433.9
							c0,0,3.9,45,50.4,25.5C183.4,439.7,82.5,402,86.4,433.9"/>
					</g>
				</g>
				<g class="st3">
					<g>
						<defs>
							<rect id="SVGID_00000096028607081287070680000012249032889985069443_" x="104.9" y="411.4" width="34.9" height="40.2"/>
						</defs>
						<clipPath id="SVGID_00000017493687916094223010000003145395747515554997_">
							<use xlink:href="#SVGID_00000096028607081287070680000012249032889985069443_"  style="overflow:visible;"/>
						</clipPath>
						<path style="clip-path:url(#SVGID_00000017493687916094223010000003145395747515554997_);fill:#E40B4E;" d="M135.5,447.9
							c0,0,17.1-26.6-17.1-35.7C84.3,403.2,124.1,467.2,135.5,447.9"/>
					</g>
				</g>
				<path class="st0" d="M657,416.3H484.7c0,0-1.7-52,39.5-29.9c0,0,7.9-6.8,13.6,4c6.2-10.2,26-7.3,32.8,7.3c0,0-2.8-22,18.6-19.2
					c8.5-15.8,44.1-14.1,49.7,10.7C657.6,381.3,657,416.3,657,416.3"/>
				<polygon class="st1" points="421.7,476.7 421.7,519.6 392,519.6 392,461.6 419,434.5 				"/>
				<path class="st2" d="M406.1,465.5c0,0,16.1,24.9,36.6,2.9c25.8,16.6,36.6-30.2,20-32.7c11.7-14.1,3.9-71.2-44.4-40.9
					c-48.3-37.1-86.3,7.8-62.4,47.3C329.6,475.2,383.2,508.9,406.1,465.5"/>
				<path class="st1" d="M560.8,503.3c-6.3-1-10.3-4.1-11.3-10.3c-0.8-4.9,1.5-9.5,5.7-11.8c5.6-3,10.7-1.9,15.6,2.9
					c-1.1-5.6-0.5-10.2,3.7-13.6c2.5-2.1,5.5-3.1,8.7-2.7c8.1,1,11.8,7.3,9.8,17.3c4.4-2.8,8.8-3.7,13.5-1.4c3,1.5,5,4,5.9,7.3
					c2.2,7.8-2.3,13.2-12.8,15.4c2.1,8.2,1,12.5-4,14.7c-5.3,2.4-10.7,0-15.6-7.1c-1,5.4-3.7,9.4-9,10.8c-3.3,0.9-6.6,0.5-9.6-1.5
					C555.2,518.9,554.8,511.4,560.8,503.3 M571.7,497.7c0,4.4,3.9,8.4,8.3,8.4c4.4,0,8.3-3.8,8.3-8.3c0-4.6-3.6-8.3-8.2-8.3
					C575.6,489.5,571.8,493.2,571.7,497.7"/>
				<g class="st3">
					<g>
						<defs>
							<rect id="SVGID_00000005228593734584421590000004929977640887921027_" x="434.9" y="325.3" width="62.8" height="42.7"/>
						</defs>
						<clipPath id="SVGID_00000104707500342449320390000004500912668036298642_">
							<use xlink:href="#SVGID_00000005228593734584421590000004929977640887921027_"  style="overflow:visible;"/>
						</clipPath>
						<path style="clip-path:url(#SVGID_00000104707500342449320390000004500912668036298642_);fill:#E40B4E;" d="M435,337.6
							c0,0,3.9,45,50.4,25.5C531.9,343.4,431.1,305.7,435,337.6"/>
					</g>
				</g>
				<g class="st3">
					<g>
						<defs>
							<rect id="SVGID_00000044892700611623170930000015822359817110526619_" x="453.4" y="315" width="34.9" height="40.2"/>
						</defs>
						<clipPath id="SVGID_00000137098745912876406950000017842978672289335687_">
							<use xlink:href="#SVGID_00000044892700611623170930000015822359817110526619_"  style="overflow:visible;"/>
						</clipPath>
						<path style="clip-path:url(#SVGID_00000137098745912876406950000017842978672289335687_);fill:#E40B4E;" d="M484.1,351.6
							c0,0,17.1-26.6-17.1-35.7C432.8,306.9,472.7,370.9,484.1,351.6"/>
					</g>
				</g>
				<g class="st3">
					<g>
						<defs>
							<rect id="SVGID_00000163783345553470977850000011814087108146081436_" x="86.3" y="659.4" width="62.8" height="42.7"/>
						</defs>
						<clipPath id="SVGID_00000018226293987629827950000016950364520536008843_">
							<use xlink:href="#SVGID_00000163783345553470977850000011814087108146081436_"  style="overflow:visible;"/>
						</clipPath>
						<path style="clip-path:url(#SVGID_00000018226293987629827950000016950364520536008843_);fill:#E40B4E;" d="M86.4,671.7
							c0,0,3.9,45,50.4,25.5C183.4,677.6,82.5,639.9,86.4,671.7"/>
					</g>
				</g>
				<g class="st3">
					<g>
						<defs>
							<rect id="SVGID_00000099649349191157602860000002119789702698782624_" x="104.9" y="649.2" width="34.9" height="40.2"/>
						</defs>
						<clipPath id="SVGID_00000117639970955894872430000000420808303610164384_">
							<use xlink:href="#SVGID_00000099649349191157602860000002119789702698782624_"  style="overflow:visible;"/>
						</clipPath>
						<path style="clip-path:url(#SVGID_00000117639970955894872430000000420808303610164384_);fill:#E40B4E;" d="M135.5,685.7
							c0,0,17.1-26.6-17.1-35.7C84.3,641.1,124.1,705.1,135.5,685.7"/>
					</g>
				</g>
				<path class="st0" d="M657,654.2H484.7c0,0-1.7-52,39.5-29.9c0,0,7.9-6.8,13.6,4c6.2-10.2,26-7.3,32.8,7.3c0,0-2.8-22,18.6-19.2
					c8.5-15.8,44.1-14.1,49.7,10.7C657.6,619.1,657,654.2,657,654.2"/>
				<path class="st2" d="M406.1,703.3c0,0,16.1,24.9,36.6,2.9c25.8,16.6,36.6-30.2,20-32.7c11.7-14.1,3.9-71.2-44.4-41
					c-48.3-37-86.3,7.8-62.4,47.3C329.6,713.1,383.2,746.7,406.1,703.3"/>
				<g class="st3">
					<g>
						<defs>
							<rect id="SVGID_00000132085522943414901940000011238418840607538560_" x="434.9" y="563.1" width="62.8" height="42.7"/>
						</defs>
						<clipPath id="SVGID_00000012459737224924881760000006404852982945020342_">
							<use xlink:href="#SVGID_00000132085522943414901940000011238418840607538560_"  style="overflow:visible;"/>
						</clipPath>
						<path style="clip-path:url(#SVGID_00000012459737224924881760000006404852982945020342_);fill:#E40B4E;" d="M435,575.4
							c0,0,3.9,45,50.4,25.5C531.9,581.3,431.1,543.6,435,575.4"/>
					</g>
				</g>
				<g class="st3">
					<g>
						<defs>
							<rect id="SVGID_00000116929045487725863790000002953478032640957078_" x="453.4" y="552.9" width="34.9" height="40.2"/>
						</defs>
						<clipPath id="SVGID_00000150080025604585777410000008268898331386622611_">
							<use xlink:href="#SVGID_00000116929045487725863790000002953478032640957078_"  style="overflow:visible;"/>
						</clipPath>
						<path style="clip-path:url(#SVGID_00000150080025604585777410000008268898331386622611_);fill:#E40B4E;" d="M484.1,589.4
							c0,0,17.1-26.6-17.1-35.7C432.8,544.7,472.7,608.7,484.1,589.4"/>
					</g>
				</g>
				<path class="st0" d="M976.1,48.1H803.8c0,0-1.7-52,39.5-29.9c0,0,7.9-6.8,13.6,4c6.2-10.2,26-7.3,32.8,7.3c0,0-2.8-22,18.6-19.2
					C916.8-5.6,952.4-3.9,958,21C976.6,13.1,976.1,48.1,976.1,48.1"/>
				<polygon class="st1" points="740.8,108.5 740.8,151.3 711.1,151.3 711.1,93.3 738.1,66.3 				"/>
				<path class="st2" d="M725.2,97.2c0,0,16.1,24.9,36.6,2.9c25.8,16.6,36.6-30.2,20-32.7c11.7-14.1,3.9-71.2-44.4-40.9
					c-48.3-37-86.3,7.8-62.4,47.3C648.7,107,702.3,140.6,725.2,97.2"/>
				<path class="st1" d="M879.9,135.1c-6.3-1-10.3-4.1-11.3-10.3c-0.8-4.9,1.5-9.5,5.7-11.8c5.6-3,10.7-1.9,15.6,2.9
					c-1.1-5.6-0.5-10.2,3.7-13.6c2.5-2.1,5.5-3.1,8.7-2.7c8.1,1,11.8,7.3,9.8,17.3c4.4-2.8,8.8-3.7,13.5-1.4c3,1.5,5,4,5.9,7.3
					c2.2,7.8-2.3,13.2-12.8,15.4c2.1,8.2,1,12.5-4,14.7c-5.3,2.4-10.7,0-15.6-7.1c-1,5.4-3.7,9.4-9,10.8c-3.3,0.9-6.6,0.5-9.6-1.5
					C874.2,150.7,873.9,143.2,879.9,135.1 M890.8,129.5c0,4.4,3.9,8.4,8.3,8.4c4.4,0,8.3-3.8,8.3-8.3c0-4.6-3.6-8.3-8.2-8.3
					C894.7,121.3,890.9,125,890.8,129.5"/>
				<path class="st1" d="M1228.5,38.8c-6.3-1-10.3-4.1-11.3-10.3c-0.8-4.9,1.5-9.5,5.7-11.8c5.6-3,10.7-1.9,15.6,2.9
					c-1.1-5.6-0.5-10.2,3.7-13.6c2.5-2.1,5.5-3.1,8.7-2.7c8.1,1,11.8,7.3,9.8,17.3c4.4-2.8,8.8-3.7,13.5-1.4c3,1.5,5,4,5.9,7.3
					c2.2,7.8-2.3,13.2-12.8,15.4c2.1,8.2,1,12.5-4,14.7c-5.3,2.4-10.7,0-15.6-7.1c-1,5.4-3.7,9.4-9,10.8c-3.3,0.9-6.6,0.5-9.6-1.5
					C1222.8,54.4,1222.5,46.9,1228.5,38.8 M1239.4,33.2c0,4.4,3.9,8.4,8.3,8.4c4.4,0,8.3-3.8,8.3-8.3c0-4.6-3.6-8.3-8.2-8.3
					C1243.3,25,1239.4,28.7,1239.4,33.2"/>
				<path class="st0" d="M976.1,285.9H803.8c0,0-1.7-52,39.5-29.9c0,0,7.9-6.8,13.6,4c6.2-10.2,26-7.3,32.8,7.3
					c0,0-2.8-22,18.6-19.2c8.5-15.8,44.1-14.1,49.7,10.7C976.6,250.9,976.1,285.9,976.1,285.9"/>
				<polygon class="st1" points="740.8,346.3 740.8,389.2 711.1,389.2 711.1,331.2 738.1,304.1 				"/>
				<path class="st2" d="M725.2,335.1c0,0,16.1,24.9,36.6,2.9c25.8,16.6,36.6-30.2,20-32.7c11.7-14.1,3.9-71.2-44.4-40.9
					c-48.3-37.1-86.3,7.8-62.4,47.3C648.7,344.8,702.3,378.5,725.2,335.1"/>
				<path class="st1" d="M879.9,372.9c-6.3-1-10.3-4.1-11.3-10.3c-0.8-4.9,1.5-9.5,5.7-11.8c5.6-3,10.7-1.9,15.6,2.9
					c-1.1-5.6-0.5-10.2,3.7-13.6c2.5-2.1,5.5-3.1,8.7-2.7c8.1,1,11.8,7.3,9.8,17.3c4.4-2.8,8.8-3.7,13.5-1.4c3,1.5,5,4,5.9,7.3
					c2.2,7.8-2.3,13.2-12.8,15.4c2.1,8.2,1,12.5-4,14.7c-5.3,2.4-10.7,0-15.6-7.1c-1,5.4-3.7,9.4-9,10.8c-3.3,0.9-6.6,0.5-9.6-1.5
					C874.2,388.5,873.9,381,879.9,372.9 M890.8,367.3c0,4.4,3.9,8.4,8.3,8.4c4.4,0,8.3-3.8,8.3-8.3c0-4.6-3.6-8.3-8.2-8.3
					C894.7,359.1,890.9,362.9,890.8,367.3"/>
				<g class="st3">
					<g>
						<defs>
							<rect id="SVGID_00000179633085759671041050000016238361243708554667_" x="754" y="194.9" width="62.8" height="42.7"/>
						</defs>
						<clipPath id="SVGID_00000085930911350769271860000000652698344442722975_">
							<use xlink:href="#SVGID_00000179633085759671041050000016238361243708554667_"  style="overflow:visible;"/>
						</clipPath>
						<path style="clip-path:url(#SVGID_00000085930911350769271860000000652698344442722975_);fill:#E40B4E;" d="M754.1,207.2
							c0,0,3.9,45,50.4,25.5C851,213,750.2,175.3,754.1,207.2"/>
					</g>
				</g>
				<g class="st3">
					<g>
						<defs>
							<rect id="SVGID_00000177468675587294033900000010756216119696224941_" x="772.5" y="184.7" width="34.9" height="40.2"/>
						</defs>
						<clipPath id="SVGID_00000047027222116875278500000016738981827551600286_">
							<use xlink:href="#SVGID_00000177468675587294033900000010756216119696224941_"  style="overflow:visible;"/>
						</clipPath>
						<path style="clip-path:url(#SVGID_00000047027222116875278500000016738981827551600286_);fill:#E40B4E;" d="M803.2,221.2
							c0,0,17.1-26.6-17.1-35.7C751.9,176.5,791.7,240.5,803.2,221.2"/>
					</g>
				</g>
				<path class="st0" d="M1324.7,189.6h-172.3c0,0-1.7-52,39.5-29.9c0,0,7.9-6.8,13.6,4c6.2-10.2,26-7.3,32.8,7.3
					c0,0-2.8-22,18.6-19.2c8.5-15.8,44.1-14.1,49.7,10.7C1325.2,154.6,1324.7,189.6,1324.7,189.6"/>
				<polygon class="st1" points="1089.4,250 1089.4,292.9 1059.6,292.9 1059.6,234.9 1086.7,207.8 				"/>
				<path class="st2" d="M1073.8,238.8c0,0,16.1,24.9,36.6,2.9c25.8,16.6,36.6-30.2,20-32.7c11.7-14.1,3.9-71.2-44.4-40.9
					c-48.3-37-86.3,7.8-62.4,47.3C997.2,248.5,1050.9,282.2,1073.8,238.8"/>
				<path class="st1" d="M1228.5,276.6c-6.3-1-10.3-4.1-11.3-10.3c-0.8-4.9,1.5-9.5,5.7-11.8c5.6-3,10.7-1.9,15.6,2.9
					c-1.1-5.6-0.5-10.2,3.7-13.6c2.5-2.1,5.5-3.1,8.7-2.7c8.1,1,11.8,7.3,9.8,17.3c4.4-2.8,8.8-3.7,13.5-1.4c3,1.5,5,4,5.9,7.3
					c2.2,7.8-2.3,13.2-12.8,15.4c2.1,8.2,1,12.5-4,14.7c-5.3,2.4-10.7,0-15.6-7.1c-1,5.4-3.7,9.4-9,10.8c-3.3,0.9-6.6,0.5-9.6-1.5
					C1222.8,292.2,1222.5,284.7,1228.5,276.6 M1239.4,271c0,4.4,3.9,8.4,8.3,8.4c4.4,0,8.3-3.8,8.3-8.3c0-4.6-3.6-8.3-8.2-8.3
					C1243.3,262.8,1239.4,266.5,1239.4,271"/>
				<g class="st3">
					<g>
						<defs>
							<rect id="SVGID_00000036953460673170387340000016275677751553693603_" x="1102.6" y="98.5" width="62.8" height="42.7"/>
						</defs>
						<clipPath id="SVGID_00000126305176024754248260000001674455929289728659_">
							<use xlink:href="#SVGID_00000036953460673170387340000016275677751553693603_"  style="overflow:visible;"/>
						</clipPath>
						<path style="clip-path:url(#SVGID_00000126305176024754248260000001674455929289728659_);fill:#E40B4E;" d="M1102.7,110.9
							c0,0,3.9,45,50.4,25.5C1199.6,116.7,1098.7,79,1102.7,110.9"/>
					</g>
				</g>
				<g class="st3">
					<g>
						<defs>
							<rect id="SVGID_00000083052890932270973840000016872298891183353226_" x="1121.1" y="88.3" width="34.9" height="40.2"/>
						</defs>
						<clipPath id="SVGID_00000079474410434946203910000008014883101284757925_">
							<use xlink:href="#SVGID_00000083052890932270973840000016872298891183353226_"  style="overflow:visible;"/>
						</clipPath>
						<path style="clip-path:url(#SVGID_00000079474410434946203910000008014883101284757925_);fill:#E40B4E;" d="M1151.7,124.9
							c0,0,17.1-26.6-17.1-35.7C1100.5,80.2,1140.3,144.2,1151.7,124.9"/>
					</g>
				</g>
				<path class="st0" d="M308.4,48.1H136.1c0,0-1.7-52,39.5-29.9c0,0,7.9-6.8,13.6,4c6.2-10.2,26-7.3,32.8,7.3c0,0-2.8-22,18.6-19.2
					c8.5-15.8,44.1-14.1,49.7,10.7C309,13.1,308.4,48.1,308.4,48.1"/>
				<polygon class="st1" points="73.1,108.5 73.1,151.3 43.4,151.3 43.4,93.3 70.5,66.3 				"/>
				<path class="st2" d="M57.5,97.2c0,0,16.1,24.9,36.6,2.9c25.8,16.6,36.6-30.2,20-32.7c11.7-14.1,3.9-71.2-44.4-40.9
					c-48.3-37-86.3,7.8-62.4,47.3C-19,107,34.6,140.6,57.5,97.2"/>
				<path class="st1" d="M212.3,135.1c-6.3-1-10.3-4.1-11.3-10.3c-0.8-4.9,1.5-9.5,5.7-11.8c5.6-3,10.7-1.9,15.6,2.9
					c-1.1-5.6-0.5-10.2,3.7-13.6c2.5-2.1,5.5-3.1,8.7-2.7c8.1,1,11.8,7.3,9.8,17.3c4.4-2.8,8.8-3.7,13.5-1.4c3,1.5,5,4,5.9,7.3
					c2.2,7.8-2.3,13.2-12.8,15.4c2.1,8.2,1,12.5-4,14.7c-5.3,2.4-10.7,0-15.6-7.1c-1,5.4-3.7,9.4-9,10.8c-3.3,0.9-6.6,0.5-9.6-1.5
					C206.6,150.7,206.2,143.2,212.3,135.1 M223.2,129.5c0,4.4,3.9,8.4,8.3,8.4c4.4,0,8.3-3.8,8.3-8.3c0-4.6-3.6-8.3-8.2-8.3
					C227,121.3,223.2,125,223.2,129.5"/>
				<path class="st1" d="M560.8,38.8c-6.3-1-10.3-4.1-11.3-10.3c-0.8-4.9,1.5-9.5,5.7-11.8c5.6-3,10.7-1.9,15.6,2.9
					c-1.1-5.6-0.5-10.2,3.7-13.6c2.5-2.1,5.5-3.1,8.7-2.7c8.1,1,11.8,7.3,9.8,17.3c4.4-2.8,8.8-3.7,13.5-1.4c3,1.5,5,4,5.9,7.3
					c2.2,7.8-2.3,13.2-12.8,15.4c2.1,8.2,1,12.5-4,14.7c-5.3,2.4-10.7,0-15.6-7.1c-1,5.4-3.7,9.4-9,10.8c-3.3,0.9-6.6,0.5-9.6-1.5
					C555.2,54.4,554.8,46.9,560.8,38.8 M571.7,33.2c0,4.4,3.9,8.4,8.3,8.4c4.4,0,8.3-3.8,8.3-8.3c0-4.6-3.6-8.3-8.2-8.3
					C575.6,25,571.8,28.7,571.7,33.2"/>
				<path class="st0" d="M308.4,285.9H136.1c0,0-1.7-52,39.5-29.9c0,0,7.9-6.8,13.6,4c6.2-10.2,26-7.3,32.8,7.3
					c0,0-2.8-22,18.6-19.2c8.5-15.8,44.1-14.1,49.7,10.7C309,250.9,308.4,285.9,308.4,285.9"/>
				<polygon class="st1" points="73.1,346.3 73.1,389.2 43.4,389.2 43.4,331.2 70.5,304.1 				"/>
				<path class="st2" d="M57.5,335.1c0,0,16.1,24.9,36.6,2.9c25.8,16.6,36.6-30.2,20-32.7c11.7-14.1,3.9-71.2-44.4-40.9
					c-48.3-37.1-86.3,7.8-62.4,47.3C-19,344.8,34.6,378.5,57.5,335.1"/>
				<path class="st1" d="M212.3,372.9c-6.3-1-10.3-4.1-11.3-10.3c-0.8-4.9,1.5-9.5,5.7-11.8c5.6-3,10.7-1.9,15.6,2.9
					c-1.1-5.6-0.5-10.2,3.7-13.6c2.5-2.1,5.5-3.1,8.7-2.7c8.1,1,11.8,7.3,9.8,17.3c4.4-2.8,8.8-3.7,13.5-1.4c3,1.5,5,4,5.9,7.3
					c2.2,7.8-2.3,13.2-12.8,15.4c2.1,8.2,1,12.5-4,14.7c-5.3,2.4-10.7,0-15.6-7.1c-1,5.4-3.7,9.4-9,10.8c-3.3,0.9-6.6,0.5-9.6-1.5
					C206.6,388.5,206.2,381,212.3,372.9 M223.2,367.3c0,4.4,3.9,8.4,8.3,8.4c4.4,0,8.3-3.8,8.3-8.3c0-4.6-3.6-8.3-8.2-8.3
					C227,359.1,223.2,362.9,223.2,367.3"/>
				<g class="st3">
					<g>
						<defs>
							<rect id="SVGID_00000005235667986372467340000012617333158734570398_" x="86.3" y="194.9" width="62.8" height="42.7"/>
						</defs>
						<clipPath id="SVGID_00000126300748245649099760000007825403688865457815_">
							<use xlink:href="#SVGID_00000005235667986372467340000012617333158734570398_"  style="overflow:visible;"/>
						</clipPath>
						<path style="clip-path:url(#SVGID_00000126300748245649099760000007825403688865457815_);fill:#E40B4E;" d="M86.4,207.2
							c0,0,3.9,45,50.4,25.5C183.4,213,82.5,175.3,86.4,207.2"/>
					</g>
				</g>
				<g class="st3">
					<g>
						<defs>
							<rect id="SVGID_00000096744102989953900130000000073388941928317098_" x="104.9" y="184.7" width="34.9" height="40.2"/>
						</defs>
						<clipPath id="SVGID_00000020357915900253990930000010841021023738123657_">
							<use xlink:href="#SVGID_00000096744102989953900130000000073388941928317098_"  style="overflow:visible;"/>
						</clipPath>
						<path style="clip-path:url(#SVGID_00000020357915900253990930000010841021023738123657_);fill:#E40B4E;" d="M135.5,221.2
							c0,0,17.1-26.6-17.1-35.7C84.3,176.5,124.1,240.5,135.5,221.2"/>
					</g>
				</g>
				<path class="st0" d="M657,189.6H484.7c0,0-1.7-52,39.5-29.9c0,0,7.9-6.8,13.6,4c6.2-10.2,26-7.3,32.8,7.3c0,0-2.8-22,18.6-19.2
					c8.5-15.8,44.1-14.1,49.7,10.7C657.6,154.6,657,189.6,657,189.6"/>
				<polygon class="st1" points="421.7,250 421.7,292.9 392,292.9 392,234.9 419,207.8 				"/>
				<path class="st2" d="M406.1,238.8c0,0,16.1,24.9,36.6,2.9c25.8,16.6,36.6-30.2,20-32.7c11.7-14.1,3.9-71.2-44.4-40.9
					c-48.3-37-86.3,7.8-62.4,47.3C329.6,248.5,383.2,282.2,406.1,238.8"/>
				<path class="st1" d="M560.8,276.6c-6.3-1-10.3-4.1-11.3-10.3c-0.8-4.9,1.5-9.5,5.7-11.8c5.6-3,10.7-1.9,15.6,2.9
					c-1.1-5.6-0.5-10.2,3.7-13.6c2.5-2.1,5.5-3.1,8.7-2.7c8.1,1,11.8,7.3,9.8,17.3c4.4-2.8,8.8-3.7,13.5-1.4c3,1.5,5,4,5.9,7.3
					c2.2,7.8-2.3,13.2-12.8,15.4c2.1,8.2,1,12.5-4,14.7c-5.3,2.4-10.7,0-15.6-7.1c-1,5.4-3.7,9.4-9,10.8c-3.3,0.9-6.6,0.5-9.6-1.5
					C555.2,292.2,554.8,284.7,560.8,276.6 M571.7,271c0,4.4,3.9,8.4,8.3,8.4c4.4,0,8.3-3.8,8.3-8.3c0-4.6-3.6-8.3-8.2-8.3
					C575.6,262.8,571.8,266.5,571.7,271"/>
				<g class="st3">
					<g>
						<defs>
							<rect id="SVGID_00000128475521202938747460000014856768645382287277_" x="434.9" y="98.5" width="62.8" height="42.7"/>
						</defs>
						<clipPath id="SVGID_00000078761204090636017890000013939162740732940220_">
							<use xlink:href="#SVGID_00000128475521202938747460000014856768645382287277_"  style="overflow:visible;"/>
						</clipPath>
						<path style="clip-path:url(#SVGID_00000078761204090636017890000013939162740732940220_);fill:#E40B4E;" d="M435,110.9
							c0,0,3.9,45,50.4,25.5C531.9,116.7,431.1,79,435,110.9"/>
					</g>
				</g>
				<g class="st3">
					<g>
						<defs>
							<rect id="SVGID_00000046311953858848986150000011991605890322668946_" x="453.4" y="88.3" width="34.9" height="40.2"/>
						</defs>
						<clipPath id="SVGID_00000083046552207300906700000004502025188479531914_">
							<use xlink:href="#SVGID_00000046311953858848986150000011991605890322668946_"  style="overflow:visible;"/>
						</clipPath>
						<path style="clip-path:url(#SVGID_00000083046552207300906700000004502025188479531914_);fill:#E40B4E;" d="M484.1,124.9
							c0,0,17.1-26.6-17.1-35.7C432.8,80.2,472.7,144.2,484.1,124.9"/>
					</g>
				</g>
				<path class="st0" d="M1655,512.6h-172.3c0,0-1.7-52,39.5-29.9c0,0,7.9-6.8,13.6,4c6.2-10.2,26-7.3,32.8,7.3
					c0,0-2.8-22,18.6-19.2c8.5-15.8,44.1-14.1,49.7,10.7C1655.6,477.6,1655,512.6,1655,512.6"/>
				<polygon class="st1" points="1419.8,573 1419.8,615.9 1390,615.9 1390,557.9 1417.1,530.8 				"/>
				<path class="st2" d="M1404.2,561.8c0,0,16.1,24.9,36.6,2.9c25.8,16.6,36.6-30.2,20-32.7c11.7-14.1,3.9-71.2-44.4-40.9
					c-48.3-37-86.3,7.8-62.4,47.3C1327.6,571.5,1381.3,605.2,1404.2,561.8"/>
				<path class="st1" d="M1558.9,599.6c-6.3-1-10.3-4.1-11.3-10.3c-0.8-4.9,1.5-9.5,5.7-11.8c5.6-3,10.7-1.9,15.6,2.9
					c-1.1-5.6-0.5-10.2,3.7-13.6c2.5-2.1,5.5-3.1,8.7-2.7c8.1,1,11.8,7.3,9.8,17.3c4.4-2.8,8.8-3.7,13.5-1.4c3,1.5,5,4,5.9,7.3
					c2.2,7.8-2.3,13.2-12.8,15.4c2.1,8.2,1,12.5-4,14.7c-5.3,2.4-10.7,0-15.6-7.1c-1,5.4-3.7,9.4-9,10.8c-3.3,0.9-6.6,0.5-9.6-1.5
					C1553.2,615.3,1552.8,607.7,1558.9,599.6 M1569.8,594c0,4.4,3.9,8.4,8.3,8.4c4.4,0,8.3-3.8,8.3-8.3c0-4.6-3.6-8.3-8.2-8.3
					C1573.6,585.8,1569.8,589.6,1569.8,594"/>
				<g class="st3">
					<g>
						<defs>
							<rect id="SVGID_00000131354751004902503640000003215464906480270465_" x="1432.9" y="421.6" width="62.8" height="42.7"/>
						</defs>
						<clipPath id="SVGID_00000123417447313414314790000016836251406242773384_">
							<use xlink:href="#SVGID_00000131354751004902503640000003215464906480270465_"  style="overflow:visible;"/>
						</clipPath>
						<path style="clip-path:url(#SVGID_00000123417447313414314790000016836251406242773384_);fill:#E40B4E;" d="M1433,433.9
							c0,0,3.9,45,50.4,25.5C1530,439.7,1429.1,402,1433,433.9"/>
					</g>
				</g>
				<g class="st3">
					<g>
						<defs>
							<rect id="SVGID_00000175295248041939284560000016886999956181715127_" x="1451.5" y="411.4" width="34.9" height="40.2"/>
						</defs>
						<clipPath id="SVGID_00000027582457189623454920000002887762031244653242_">
							<use xlink:href="#SVGID_00000175295248041939284560000016886999956181715127_"  style="overflow:visible;"/>
						</clipPath>
						<path style="clip-path:url(#SVGID_00000027582457189623454920000002887762031244653242_);fill:#E40B4E;" d="M1482.1,447.9
							c0,0,17.1-26.6-17.1-35.7C1430.9,403.2,1470.7,467.2,1482.1,447.9"/>
					</g>
				</g>
				<g class="st3">
					<g>
						<defs>
							<rect id="SVGID_00000115500439633930784720000007893735109719937441_" x="1432.9" y="659.4" width="62.8" height="42.7"/>
						</defs>
						<clipPath id="SVGID_00000122696563745326079990000001433330589507018880_">
							<use xlink:href="#SVGID_00000115500439633930784720000007893735109719937441_"  style="overflow:visible;"/>
						</clipPath>
						<path style="clip-path:url(#SVGID_00000122696563745326079990000001433330589507018880_);fill:#E40B4E;" d="M1433,671.7
							c0,0,3.9,45,50.4,25.5C1530,677.6,1429.1,639.9,1433,671.7"/>
					</g>
				</g>
				<g class="st3">
					<g>
						<defs>
							<rect id="SVGID_00000057117297602479839220000002085805313870743690_" x="1451.5" y="649.2" width="34.9" height="40.2"/>
						</defs>
						<clipPath id="SVGID_00000096776641016894448310000014502488610861554876_">
							<use xlink:href="#SVGID_00000057117297602479839220000002085805313870743690_"  style="overflow:visible;"/>
						</clipPath>
						<path style="clip-path:url(#SVGID_00000096776641016894448310000014502488610861554876_);fill:#E40B4E;" d="M1482.1,685.7
							c0,0,17.1-26.6-17.1-35.7C1430.9,641.1,1470.7,705.1,1482.1,685.7"/>
					</g>
				</g>
				<path class="st0" d="M1655,48.1h-172.3c0,0-1.7-52,39.5-29.9c0,0,7.9-6.8,13.6,4c6.2-10.2,26-7.3,32.8,7.3c0,0-2.8-22,18.6-19.2
					c8.5-15.8,44.1-14.1,49.7,10.7C1655.6,13.1,1655,48.1,1655,48.1"/>
				<polygon class="st1" points="1419.8,108.5 1419.8,151.3 1390,151.3 1390,93.3 1417.1,66.3 				"/>
				<path class="st2" d="M1404.2,97.2c0,0,16.1,24.9,36.6,2.9c25.8,16.6,36.6-30.2,20-32.7c11.7-14.1,3.9-71.2-44.4-40.9
					c-48.3-37-86.3,7.8-62.4,47.3C1327.6,107,1381.3,140.6,1404.2,97.2"/>
				<path class="st1" d="M1558.9,135.1c-6.3-1-10.3-4.1-11.3-10.3c-0.8-4.9,1.5-9.5,5.7-11.8c5.6-3,10.7-1.9,15.6,2.9
					c-1.1-5.6-0.5-10.2,3.7-13.6c2.5-2.1,5.5-3.1,8.7-2.7c8.1,1,11.8,7.3,9.8,17.3c4.4-2.8,8.8-3.7,13.5-1.4c3,1.5,5,4,5.9,7.3
					c2.2,7.8-2.3,13.2-12.8,15.4c2.1,8.2,1,12.5-4,14.7c-5.3,2.4-10.7,0-15.6-7.1c-1,5.4-3.7,9.4-9,10.8c-3.3,0.9-6.6,0.5-9.6-1.5
					C1553.2,150.7,1552.8,143.2,1558.9,135.1 M1569.8,129.5c0,4.4,3.9,8.4,8.3,8.4c4.4,0,8.3-3.8,8.3-8.3c0-4.6-3.6-8.3-8.2-8.3
					C1573.6,121.3,1569.8,125,1569.8,129.5"/>
				<path class="st0" d="M1655,285.9h-172.3c0,0-1.7-52,39.5-29.9c0,0,7.9-6.8,13.6,4c6.2-10.2,26-7.3,32.8,7.3
					c0,0-2.8-22,18.6-19.2c8.5-15.8,44.1-14.1,49.7,10.7C1655.6,250.9,1655,285.9,1655,285.9"/>
				<polygon class="st1" points="1419.8,346.3 1419.8,389.2 1390,389.2 1390,331.2 1417.1,304.1 				"/>
				<path class="st2" d="M1404.2,335.1c0,0,16.1,24.9,36.6,2.9c25.8,16.6,36.6-30.2,20-32.7c11.7-14.1,3.9-71.2-44.4-40.9
					c-48.3-37.1-86.3,7.8-62.4,47.3C1327.6,344.8,1381.3,378.5,1404.2,335.1"/>
				<path class="st1" d="M1558.9,372.9c-6.3-1-10.3-4.1-11.3-10.3c-0.8-4.9,1.5-9.5,5.7-11.8c5.6-3,10.7-1.9,15.6,2.9
					c-1.1-5.6-0.5-10.2,3.7-13.6c2.5-2.1,5.5-3.1,8.7-2.7c8.1,1,11.8,7.3,9.8,17.3c4.4-2.8,8.8-3.7,13.5-1.4c3,1.5,5,4,5.9,7.3
					c2.2,7.8-2.3,13.2-12.8,15.4c2.1,8.2,1,12.5-4,14.7c-5.3,2.4-10.7,0-15.6-7.1c-1,5.4-3.7,9.4-9,10.8c-3.3,0.9-6.6,0.5-9.6-1.5
					C1553.2,388.5,1552.8,381,1558.9,372.9 M1569.8,367.3c0,4.4,3.9,8.4,8.3,8.4c4.4,0,8.3-3.8,8.3-8.3c0-4.6-3.6-8.3-8.2-8.3
					C1573.6,359.1,1569.8,362.9,1569.8,367.3"/>
				<g class="st3">
					<g>
						<defs>
							<rect id="SVGID_00000181787131282135391420000005841269937750306690_" x="1432.9" y="194.9" width="62.8" height="42.7"/>
						</defs>
						<clipPath id="SVGID_00000144331298807233650740000018017161006414557586_">
							<use xlink:href="#SVGID_00000181787131282135391420000005841269937750306690_"  style="overflow:visible;"/>
						</clipPath>
						<path style="clip-path:url(#SVGID_00000144331298807233650740000018017161006414557586_);fill:#E40B4E;" d="M1433,207.2
							c0,0,3.9,45,50.4,25.5C1530,213,1429.1,175.3,1433,207.2"/>
					</g>
				</g>
				<g class="st3">
					<g>
						<defs>
							<rect id="SVGID_00000079455640915628513450000016248739186106065809_" x="1451.5" y="184.7" width="34.9" height="40.2"/>
						</defs>
						<clipPath id="SVGID_00000048497655842410159320000008918170808125090219_">
							<use xlink:href="#SVGID_00000079455640915628513450000016248739186106065809_"  style="overflow:visible;"/>
						</clipPath>
						<path style="clip-path:url(#SVGID_00000048497655842410159320000008918170808125090219_);fill:#E40B4E;" d="M1482.1,221.2
							c0,0,17.1-26.6-17.1-35.7C1430.9,176.5,1470.7,240.5,1482.1,221.2"/>
					</g>
				</g>
			</g>
		</g>
	</g>
</g>
</svg>
