<svg id="svgexport-6_-_2022-08-22T100020.837" data-name="svgexport-6 - 2022-08-22T100020.837" xmlns="http://www.w3.org/2000/svg" width="39.939" height="16.942" viewBox="0 0 39.939 16.942">
  <g id="Group_69225" data-name="Group 69225" transform="translate(0 0)">
    <g id="Group_69224" data-name="Group 69224" transform="translate(0 0)">
      <g id="Group_69222" data-name="Group 69222">
        <path id="Path_1698" data-name="Path 1698" d="M72.561,149.589a3.065,3.065,0,0,0,.705-2.185,3.039,3.039,0,0,0-2.015,1.043,2.869,2.869,0,0,0-.722,2.1,2.536,2.536,0,0,0,2.032-.958Z" transform="translate(-65.012 -147.404)"/>
        <path id="Path_1699" data-name="Path 1699" d="M8.244,189.573c-1.122-.067-2.076.637-2.612.637s-1.357-.6-2.244-.587a3.309,3.309,0,0,0-2.813,1.709c-1.206,2.078-.318,5.161.854,6.853.569.837,1.256,1.759,2.16,1.726.854-.034,1.189-.553,2.228-.553s1.339.553,2.244.536c.938-.017,1.524-.838,2.093-1.676a7.435,7.435,0,0,0,.937-1.927,3.043,3.043,0,0,1-1.825-2.765,3.1,3.1,0,0,1,1.474-2.6,3.208,3.208,0,0,0-2.5-1.357Z" transform="translate(0 -186.28)"/>
      </g>
      <g id="Group_69223" data-name="Group 69223" transform="translate(13.303 0.958)">
        <path id="Path_1700" data-name="Path 1700" d="M175.248,159.688a3.944,3.944,0,0,1,4.137,4.129,3.988,3.988,0,0,1-4.2,4.146h-2.7v4.294h-1.951V159.688Zm-2.762,6.637h2.239a2.5,2.5,0,1,0,.009-4.991h-2.247Z" transform="translate(-170.536 -159.688)"/>
        <path id="Path_1701" data-name="Path 1701" d="M290.52,207.954c0-1.6,1.228-2.587,3.406-2.709l2.508-.148v-.705c0-1.019-.688-1.629-1.838-1.629a1.754,1.754,0,0,0-1.934,1.341h-1.777c.1-1.655,1.515-2.875,3.78-2.875,2.221,0,3.641,1.176,3.641,3.014v6.315h-1.8v-1.507h-.043a3.274,3.274,0,0,1-2.892,1.664A2.778,2.778,0,0,1,290.52,207.954Zm5.914-.827V206.4l-2.256.139c-1.124.078-1.759.575-1.759,1.359,0,.8.662,1.324,1.672,1.324A2.2,2.2,0,0,0,296.434,207.126Z" transform="translate(-281.161 -197.989)"/>
        <path id="Path_1702" data-name="Path 1702" d="M401.464,215.885V214.36a3.484,3.484,0,0,0,.61.035,1.526,1.526,0,0,0,1.629-1.306c0-.017.166-.557.166-.566l-3.31-9.172H402.6l2.317,7.456h.035l2.317-7.456h1.986l-3.432,9.643c-.784,2.221-1.69,2.936-3.588,2.936A7.27,7.27,0,0,1,401.464,215.885Z" transform="translate(-382.615 -199.944)"/>
      </g>
    </g>
  </g>
</svg>
