<svg xmlns="http://www.w3.org/2000/svg" width="53.096" height="14.773" viewBox="0 0 53.096 14.773">
  <g id="svgexport-6_-_2022-08-22T095911.332" data-name="svgexport-6 - 2022-08-22T095911.332" transform="translate(0 0)">
    <path id="Path_1678" data-name="Path 1678" d="M340.42,200.347a14.59,14.59,0,0,0-3.215.521l-.261,2a11.384,11.384,0,0,1,2.694-.608c1.043,0,1.651.174,1.477,1.13-3.128,0-5.214.608-5.649,2.694-.608,3.476,3.215,3.563,4.693,2l-.174.956h2.781l1.217-5.649C344.417,201.042,342.332,200.26,340.42,200.347Zm.174,5.822c-.174.7-.782.956-1.477,1.043-.608,0-1.13-.348-.782-1.043.348-.521,1.13-.521,1.738-.521h.7C340.681,205.561,340.594,205.909,340.594,206.17Z" transform="translate(-298.968 -197.74)" fill="#32a6ce"/>
    <path id="Path_1679" data-name="Path 1679" d="M336.944,203.633a11.384,11.384,0,0,1,2.694-.608c1.043,0,1.651.174,1.477,1.13-3.128,0-5.214.608-5.649,2.694-.608,3.476,3.215,3.563,4.693,2l-.174.956h2.781l1.217-5.649c.521-2.346-1.651-2.955-3.563-2.955m.174,5.735c-.174.7-.782.956-1.477,1.043-.608,0-1.13-.348-.782-1.043.348-.521,1.13-.521,1.738-.521h.7C340.681,206.327,340.594,206.675,340.594,206.935Z" transform="translate(-298.968 -198.506)" fill="#1a80ad"/>
    <path id="Path_1680" data-name="Path 1680" d="M417.459,176.4,415.2,187.7h2.781l2.346-11.3Z" transform="translate(-370.099 -176.4)" fill="#32a6ce"/>
    <path id="Path_1681" data-name="Path 1681" d="M419.458,176.4,415.2,187.7h2.781l2.346-11.3h-.869Z" transform="translate(-370.099 -176.4)" fill="#1a80ad"/>
    <path id="Path_1682" data-name="Path 1682" d="M256.186,176.4h-5.127L248.8,187.7h3.042l.782-3.476H254.8a4.13,4.13,0,0,0,4.258-3.389C259.489,178.312,257.664,176.4,256.186,176.4Zm-.087,3.911a1.774,1.774,0,0,1-1.738,1.3h-1.39l.608-2.607h1.477A.984.984,0,0,1,256.1,180.311Z" transform="translate(-221.774 -176.4)" fill="#32a6ce"/>
    <path id="Path_1683" data-name="Path 1683" d="M255.473,176.4H252l-4,11.3h3.042l.782-3.476H254a4.13,4.13,0,0,0,4.258-3.389C258.776,178.312,256.951,176.4,255.473,176.4Zm-.087,3.911a1.774,1.774,0,0,1-1.738,1.3h-1.39l.608-2.607h1.477A.984.984,0,0,1,255.387,180.311Z" transform="translate(-221.061 -176.4)" fill="#1a80ad"/>
    <path id="Path_1684" data-name="Path 1684" d="M92.235,200.347a12.916,12.916,0,0,0-3.128.521l-.261,2a10.393,10.393,0,0,1,2.694-.608c1.043,0,1.651.174,1.477,1.13-3.042,0-5.127.608-5.562,2.694-.608,3.476,3.128,3.563,4.606,2l-.174.956h2.781l1.217-5.649C96.319,201.042,94.147,200.26,92.235,200.347Zm.261,5.822c-.174.7-.782.956-1.477,1.043-.608,0-1.13-.348-.7-1.043.348-.521,1.13-.521,1.651-.521h.7C92.583,205.561,92.5,205.909,92.5,206.17Z" transform="translate(-77.897 -197.74)" fill="#21789e"/>
    <path id="Path_1685" data-name="Path 1685" d="M89.646,203.633a10.393,10.393,0,0,1,2.694-.608c1.043,0,1.651.174,1.477,1.13-3.042,0-5.127.608-5.562,2.694-.608,3.476,3.128,3.563,4.606,2l-.261.956h2.781l1.217-5.649c.521-2.346-1.651-2.955-3.563-2.955m.174,5.735c-.174.7-.782.956-1.477,1.043-.608,0-1.13-.348-.7-1.043.348-.521,1.13-.521,1.651-.521h.7C93.3,206.327,93.209,206.675,93.209,206.935Z" transform="translate(-78.61 -198.506)" fill="#1a5b80"/>
    <path id="Path_1686" data-name="Path 1686" d="M168.869,200.4h2.781l.435,4.866,2.781-4.866h2.868l-6.6,12.166H168l2-3.65Z" transform="translate(-149.751 -197.793)" fill="#21789e"/>
    <path id="Path_1687" data-name="Path 1687" d="M171.65,200.574l.435,4.78,2.781-4.953h2.868l-6.6,12.166H168L170,209" transform="translate(-149.751 -197.793)" fill="#1a5b80"/>
    <path id="Path_1688" data-name="Path 1688" d="M7.473,176.4H2.259L0,187.7H3.042l.782-3.476H6a4.13,4.13,0,0,0,4.258-3.389C10.776,178.312,8.951,176.4,7.473,176.4Zm-.087,3.911a1.774,1.774,0,0,1-1.738,1.3H4.258l.608-2.607H6.344A.984.984,0,0,1,7.387,180.311Z" transform="translate(0 -176.4)" fill="#21789e"/>
    <path id="Path_1689" data-name="Path 1689" d="M7.473,176.4H5.127L0,187.7H3.042l.782-3.476H6a4.13,4.13,0,0,0,4.258-3.389C10.776,178.312,8.951,176.4,7.473,176.4Zm-.087,3.911a1.774,1.774,0,0,1-1.738,1.3H4.258l.608-2.607H6.344A.984.984,0,0,1,7.387,180.311Z" transform="translate(0 -176.4)" fill="#1a5b80"/>
    <g id="Group_69219" data-name="Group 69219" transform="translate(0.261 2.607)">
      <path id="Path_1690" data-name="Path 1690" d="M91.714,228.4c-2.346.174-3.911.869-4.258,2.607-.608,3.476,3.128,3.563,4.606,2l-.174,1.043h2.781l.434-2.086Zm.782,2.781c-.174.7-.782.956-1.477,1.043-.608,0-1.13-.348-.7-1.043.348-.521,1.13-.521,1.651-.521h.7C92.583,230.572,92.5,230.92,92.5,231.181Z" transform="translate(-78.157 -225.358)" fill="#06435e"/>
      <path id="Path_1691" data-name="Path 1691" d="M205.774,205.18l-.174.261,1.825,1.738,3.824-6.778h-2.868Z" transform="translate(-183.527 -200.4)" fill="#06435e"/>
      <path id="Path_1692" data-name="Path 1692" d="M5.181,251.876l.782-3.476L2.4,251.876Z" transform="translate(-2.4 -243.186)" fill="#06435e"/>
    </g>
    <g id="Group_69220" data-name="Group 69220" transform="translate(27.2 5.649)">
      <path id="Path_1693" data-name="Path 1693" d="M253.181,250.45l.782-3.65v.087L250.4,250.45Z" transform="translate(-250.4 -244.801)" fill="#2273aa"/>
      <path id="Path_1694" data-name="Path 1694" d="M340.525,228.4c-2.346.174-3.911.869-4.258,2.607-.608,3.476,3.215,3.563,4.693,2l-.261,1.043h2.781l.435-2.086Zm.782,2.781c-.174.7-.782.956-1.477,1.043-.608,0-1.13-.348-.782-1.043.348-.521,1.13-.521,1.738-.521h.7C341.394,230.572,341.307,230.92,341.307,231.181Z" transform="translate(-326.881 -228.4)" fill="#2273aa"/>
      <path id="Path_1695" data-name="Path 1695" d="M417.2,233.2l-2,5.127h2.781l.782-3.476Z" transform="translate(-397.299 -232.679)" fill="#2273aa"/>
    </g>
    <g id="Group_69221" data-name="Group 69221" transform="translate(50.402 0.348)">
      <path id="Path_1696" data-name="Path 1696" d="M464.435,181.79v-1.217H464V180.4h1.13v.174H464.7v1.217Z" transform="translate(-464 -180.313)" fill="#32a6ce"/>
      <path id="Path_1697" data-name="Path 1697" d="M476,181.077v-1.39h.261l.348.956a.3.3,0,0,0,.087.174c0-.087,0-.087.087-.261l.348-.956h.261v1.39h-.174v-1.217l-.435,1.217h-.261l-.434-1.217v1.217H476Z" transform="translate(-474.697 -179.6)" fill="#32a6ce"/>
    </g>
  </g>
</svg>
