<svg id="svgexport-6_-_2022-08-22T095516.500" data-name="svgexport-6 - 2022-08-22T095516.500" xmlns="http://www.w3.org/2000/svg" width="42.669" height="12.936" viewBox="0 0 42.669 12.936">
  <path id="Path_1663" data-name="Path 1663" d="M184.8,192.591l2.167-12.191h3.386l-2.1,12.191Z" transform="translate(-169.155 -179.994)" fill="#3c58bf"/>
  <path id="Path_1664" data-name="Path 1664" d="M184.8,192.591l2.777-12.191h2.777l-2.1,12.191Z" transform="translate(-169.155 -179.994)" fill="#293688"/>
  <path id="Path_1665" data-name="Path 1665" d="M258.362,176.142a8.591,8.591,0,0,0-3.115-.542c-3.386,0-5.825,1.693-5.825,4.131,0,1.829,1.693,2.777,3.048,3.386s1.761,1.016,1.761,1.558c0,.813-1.084,1.219-2.032,1.219a7.362,7.362,0,0,1-3.251-.677l-.474-.2L248,187.791a10.981,10.981,0,0,0,3.861.677c3.59,0,5.96-1.693,5.96-4.267,0-1.422-.88-2.506-2.912-3.386-1.219-.61-1.964-.948-1.964-1.558,0-.542.61-1.084,1.964-1.084a6.213,6.213,0,0,1,2.574.474l.339.135.542-2.641Z" transform="translate(-227.004 -175.6)" fill="#3c58bf"/>
  <path id="Path_1666" data-name="Path 1666" d="M258.362,176.142a8.591,8.591,0,0,0-3.115-.542c-3.386,0-5.215,1.693-5.215,4.131a3.54,3.54,0,0,0,2.438,3.386c1.355.61,1.761,1.016,1.761,1.558,0,.813-1.084,1.219-2.032,1.219a7.362,7.362,0,0,1-3.251-.677l-.474-.2L248,187.791a10.981,10.981,0,0,0,3.861.677c3.59,0,5.96-1.693,5.96-4.267,0-1.422-.88-2.506-2.912-3.386-1.219-.61-1.964-.948-1.964-1.558,0-.542.61-1.084,1.964-1.084a6.213,6.213,0,0,1,2.574.474l.339.135.542-2.641Z" transform="translate(-227.004 -175.6)" fill="#293688"/>
  <path id="Path_1667" data-name="Path 1667" d="M365.241,180.4c-.813,0-1.422.068-1.761.88l-5.08,11.311h3.657l.677-2.032h4.335l.406,2.032h3.251L367.882,180.4Zm-1.558,8.127c.2-.61,1.355-3.59,1.355-3.59s.271-.745.474-1.219l.2,1.151s.677,3.048.813,3.725h-2.845Z" transform="translate(-328.058 -179.994)" fill="#3c58bf"/>
  <path id="Path_1668" data-name="Path 1668" d="M366.053,180.4c-.813,0-1.422.068-1.761.88L358.4,192.591h3.657l.677-2.032h4.335l.406,2.032h3.251L367.882,180.4Zm-2.371,8.127c.271-.677,1.355-3.59,1.355-3.59s.271-.745.474-1.219l.2,1.151s.677,3.048.813,3.725h-2.845Z" transform="translate(-328.058 -179.994)" fill="#293688"/>
  <path id="Path_1669" data-name="Path 1669" d="M56.28,189.666l-.339-1.761a9.818,9.818,0,0,0-4.741-5.35l3.048,10.836h3.657L63.391,181.2H59.734Z" transform="translate(-46.865 -180.726)" fill="#3c58bf"/>
  <path id="Path_1670" data-name="Path 1670" d="M56.28,189.666l-.339-1.761a9.818,9.818,0,0,0-4.741-5.35l3.048,10.836h3.657L63.391,181.2h-2.98Z" transform="translate(-46.865 -180.726)" fill="#293688"/>
  <path id="Path_1671" data-name="Path 1671" d="M0,180.4l.61.135c4.335,1.016,7.315,3.59,8.466,6.637l-1.219-5.757c-.2-.813-.813-1.016-1.558-1.016Z" transform="translate(0 -179.994)" fill="#ffbc00"/>
  <path id="Path_1672" data-name="Path 1672" d="M0,180.4H0c4.335,1.016,7.924,3.657,9.076,6.705L7.924,182.3A1.653,1.653,0,0,0,6.3,181.01Z" transform="translate(0 -179.994)" fill="#f7981d"/>
  <path id="Path_1673" data-name="Path 1673" d="M0,180.4H0c4.335,1.016,7.924,3.657,9.076,6.705l-.813-2.641A2.388,2.388,0,0,0,6.841,182.5Z" transform="translate(0 -179.994)" fill="#ed7c00"/>
  <g id="Group_69218" data-name="Group 69218" transform="translate(4.402 1.761)">
    <path id="Path_1674" data-name="Path 1674" d="M60.4,203.173l-2.3-2.3-1.084,2.574-.271-1.693A9.818,9.818,0,0,0,52,196.4l3.048,10.836h3.657Z" transform="translate(-52 -196.4)" fill="#051244"/>
    <path id="Path_1675" data-name="Path 1675" d="M188.254,292.18l-2.912-2.98-.542,2.98Z" transform="translate(-173.557 -281.344)" fill="#051244"/>
    <path id="Path_1676" data-name="Path 1676" d="M253.892,274.8h0c.271.271.406.474.339.745,0,.813-1.084,1.219-2.032,1.219a7.362,7.362,0,0,1-3.251-.677l-.474-.2L248,278.66a10.982,10.982,0,0,0,3.86.677,6.706,6.706,0,0,0,4.944-1.693Z" transform="translate(-231.407 -268.163)" fill="#051244"/>
    <path id="Path_1677" data-name="Path 1677" d="M364,228.472h3.183l.677-2.032H372.2l.406,2.032h3.251l-1.151-4.944-4.064-3.928.2,1.084s.677,3.048.813,3.725h-2.845c.271-.677,1.355-3.59,1.355-3.59s.271-.745.474-1.219" transform="translate(-337.586 -217.636)" fill="#051244"/>
  </g>
</svg>
