<?xml version="1.0" encoding="utf-8"?>
<!-- Generator: Adobe Illustrator 26.0.0, SVG Export Plug-In . SVG Version: 6.00 Build 0)  -->
<svg version="1.1" id="Layer_1" xmlns="http://www.w3.org/2000/svg" xmlns:xlink="http://www.w3.org/1999/xlink" x="0px" y="0px"
	 viewBox="0 0 715.2 785" style="enable-background:new 0 0 715.2 785;" xml:space="preserve">
<style type="text/css">
	.st0{fill:#F8F2DE;}
	.st1{fill:#C8E0DA;}
	.st2{fill:#2E1F22;}
	.st3{fill:#EF8615;}
	.st4{fill:#F8F6F0;}
	.st5{fill:#F9B818;}
	.st6{fill:#DDB5A7;}
	.st7{fill:#1A1C35;}
	.st8{fill:#2B2E4E;}
	.st9{fill:#FAFAFA;}
	.st10{fill:#373C64;}
	.st11{fill:#ECECEC;}
	.st12{fill:#D23253;}
	.st13{opacity:0.2;enable-background:new    ;}
	.st14{fill:#DD9D7B;}
	.st15{fill:#C68550;}
	.st16{fill:#FFA08D;}
	.st17{opacity:0.75;fill:#FFFFFF;enable-background:new    ;}
	.st18{opacity:0.8;fill:#FFFFFF;enable-background:new    ;}
	.st19{opacity:0.1;enable-background:new    ;}
	.st20{opacity:0.1;}
	.st21{opacity:0.35;enable-background:new    ;}
	.st22{opacity:0.35;}
	.st23{fill:#E1E1E1;}
	.st24{fill:#FFFFFF;}
	.st25{fill:#D22943;}
	.st26{opacity:0.3;}
	.st27{fill:#64502C;}
	.st28{fill:#C65C37;}
	.st29{fill:#4E4712;}
	.st30{fill:#352C0D;}
	.st31{fill:#FF5F65;}
</style>
<g>
	<g>
		<path class="st0" d="M645.4,664.8c0,0-97,141.4-188.8,117.5c-91.7-23.9-69.9-48.7-108-68.7c-96.7-50.8-128.6,84.1-221.5-4.5
			C-3.6,584.7,163.4,463.5,100,456.9s-83.9-109.6-9.2-188.3s158.8-57.6,179.9-45.4c27.4,15.9,56.9,74.2,95.3,52.3
			c38.3-21.9,86.1-89.3,158.1-44.4c109.3,68.2-22.7,192.7,92.9,184.2C732.7,406.7,751.2,553.6,645.4,664.8"/>
		<path class="st1" d="M181.3,200.4H0c0,0,7.7-53.9,46.9-19.2c0,0-1.4-39,27.7-41.4c29.1-2.3,32,36,32,36s7.4-17.7,24.4-15.3
			c17,2.4,16.6,26.7,16.6,26.7s4.3-7.2,14.8-3.7C179,188.9,181.3,200.4,181.3,200.4"/>
		<path class="st2" d="M511.7,508.6c-0.3-0.1-0.5-0.3-0.7-0.5c-0.4-0.6-0.2-1.4,0.4-1.7c45.7-28.5,43.2-67.8,37.7-88.6
			c-2.3-8.6-5.7-16.5-9.6-23.2c-11.3,3.6-22.9,3.3-29.5-1.6c-4.7-3.5-6-9-3.7-15.4c1.7-4.8,5.1-7.4,9.4-7.2c7.2,0.3,17,8.3,25,21.2
			c4.3-1.6,8.6-3.7,12.6-6.6c9.9-7.2,25-24,14.1-55.8c-12.5-36.6-5.3-63.3,3.1-79.3c9-17.3,20.8-25.8,21.3-26.2
			c0.6-0.4,1.4-0.3,1.8,0.3c0.4,0.6,0.3,1.3-0.3,1.7c-0.5,0.3-46.9,34.3-23.5,102.6c11.4,33.3-4.5,51.1-15,58.7
			c-3.9,2.8-8.3,5.1-12.8,6.8c3.9,6.7,7.3,14.7,9.6,23.4c4.6,17.3,10,60.9-38.8,91.4C512.4,508.7,512,508.7,511.7,508.6 M518,373.3
			c-0.9-0.3-1.7-0.4-2.6-0.4c-3.2-0.1-5.6,1.7-6.9,5.5c-1.9,5.4-0.9,9.7,2.9,12.5c5.3,4,15.8,4.7,26.7,1.4
			C531.6,382.1,524.1,375.1,518,373.3"/>
		<path class="st3" d="M685.2,229.4c-18.4,61.7-78.2,98.4-133.6,82c-55.4-16.4-85.4-79.7-67-141.4s78.2-98.4,133.6-82
			C673.6,104.4,703.6,167.7,685.2,229.4"/>
		<path class="st3" d="M562.7,305.3c0,0-10.5,23-7.9,26.4c2.7,3.4,18.4,3.3,23.2-3.8C582.8,320.8,563.6,295.9,562.7,305.3"/>
		<path class="st4" d="M641.1,116.6c0,0,41.2,28.7,32.3,67.1c-1.5,6.4-20.2-28.9-48.4-53.4C576.2,87.7,620.6,101,641.1,116.6"/>
	</g>
	<polygon class="st5" points="473.9,8.7 487.3,0 485,17.6 497,26.8 481.1,27.1 476,42 469.1,27.3 452,25.1 465.9,15.4 459.3,2 	"/>
	<g id="Character_00000081612765641931705060000008123909017246710184_">
		<g>
			<g>
				<g>
					<path class="st6" d="M270.8,542.4c-4.9,4.8-11.3,0.9-16.5,6.1c-3.8,3.8-5.4,8.1-5.7,13.4c-0.1,2.5,0.2,5.3-0.7,7.6
						c-1.1,2.9-2.3,5.8-3.4,8.7c-1.8,4.7-4.1,9-6.5,13.4c-5.8,10.7-4.2,24.1,0.3,35c2.4,5.7,5.1,10.3,9.4,14.7c3,3,7.8,6.2,12.2,4.7
						c4.3-1.5,6.8-6.1,8.1-10.2c1.6-5,0.9-10.5,1.3-15.6c0.3-5.1,0.9-12.5,4-16.6c2.6-3.4,4.7-7.3,6.9-10.9
						c4.1-6.8,8.1-13.6,12-20.4c0.4-0.7,0.8-1.4,1.2-2.1c4-6.4,13.7-16.6,13.7-16.6l-30.5-18.8C276.6,534.8,274.2,539,270.8,542.4z"
						/>
					<g>
						<g>
							<path class="st7" d="M252.2,547.8c-1.4,0-4.9,1.3-7.6,4.3c-1,2.6-2.1,8.1-1.6,15.3s0.6,10.1-2.6,14.6
								c-3.1,4.5-7.3,10-9.2,19.4s-1.2,22.4,9.4,36.3c8.7,11.4,18.4,13.7,22.3,14.1c3.9,0.4,6.1-4.5,6.1-4.5L252.2,547.8z"/>
							<path class="st8" d="M273.7,539c-1,1.6-3.3,4.2-4.7,7.7c-3,7.1,2,18.7,3.4,21.8c0,0,2.2-1.6,6.4-0.4
								c4.8,1.4,12.8,4.4,13.1,6.8c0.2,2.3-11.2,15.3-15.5,26.2c-4.3,10.8-4,20.7-2.8,27.3c1.2,6.5,3.9,15.7-6.2,20.4
								c-5.1,0-24-8.1-30.8-28c-6-17.6,2.9-31.5,7.7-38.5c4.8-7,3.9-12.3,4.3-22.5c0.2-4.5,0-7.9,3.5-12c5.2-3.7,11.5-4.2,15.6-6.1
								C271.1,540,272.1,537.5,273.7,539z"/>
							<path class="st9" d="M236.6,620.8c2.8-4,11.6-8.1,21.2-7.4c11.8,0.9,15,4.3,16.4,8.8c1.2,3.7,7.2,24.7-6.5,27
								C263.2,650.5,244.1,645.1,236.6,620.8z"/>
							<g>
								<path class="st7" d="M272.4,568.5c0.5,0.8,0.9,1.8,0.7,2.8s-0.7,1.9-1.2,2.7c-1,1.6-1.9,3.2-2.9,4.9
									c-1.9,3.3-3.8,6.5-5.5,9.9c-1.7,3.3-3.2,6.8-4.6,10.3c-1.3,3.5-2.3,7.1-2.8,10.9c-0.2-3.8,0.5-7.6,1.6-11.3
									c1-3.7,2.6-7.2,4.3-10.6c1.7-3.4,3.7-6.7,5.8-9.9c1-1.6,2.2-3.1,3.3-4.6c0.5-0.8,1.2-1.5,1.5-2.3
									C272.9,570.4,272.7,569.4,272.4,568.5z"/>
							</g>
							<path class="st9" d="M254.8,606.6c4.9-0.6,17,2.3,18.4,6.7l-0.1,1.3c0,0,1.1-1.4,1-3.9s-7.5-7.4-18.6-7
								C254.1,604.5,253.3,606.6,254.8,606.6z"/>
							<path class="st9" d="M257.9,597.3c4.9-0.9,16.1,1.5,17.7,5.8l-0.3,1c0,0,1.5-0.9,1.2-3.5c-0.3-2.5-7.1-7.3-18.1-6.2
								C257.1,595.3,256.4,597.5,257.9,597.3z"/>
							<path class="st9" d="M261.9,588.2c4.9-0.4,16.1,2.3,17.4,6.9l-0.6,1.2c0,0,1.7-1.2,1.9-3.1c0.2-2.6-6.9-7.9-17.9-7.8
								C261.3,586.1,260.5,588.2,261.9,588.2z"/>
							<path class="st9" d="M265.7,580.6c4.9-0.4,16.9,2.4,18.1,6.9l-0.7,1.2c0,0,1.8-1.4,1.9-3.3c0.2-2.6-7.7-7.8-18.6-7.6
								C265.1,578.5,264.3,580.6,265.7,580.6z"/>
						</g>
					</g>
				</g>
				<g>
					<path class="st10" d="M262.7,408c2.3,6.2,9.4,5.4,28.6,7.9c37.7,4.9,54,6.5,69.6,14.1c8.8,4.3,16.6,9.1,19.9,19.6
						c2.5,7.8,2.6,19.6-5.5,33.8c-18,31.3-43,53.3-64.3,77.7c0,0-21.5-20-39.4-24.3l23.8-41.4l-63.5,1L262.7,408z"/>
					<path class="st8" d="M317.1,537.5c7-1.8,36.7-28.5,53-45.7c-17.4,26.9-39.8,47.1-59.1,69.3c0,0-21.5-20-39.4-24.3l3.7-6.4
						C286.3,533.3,310.5,539.2,317.1,537.5z"/>
					<path class="st8" d="M231.9,496.3l7.3-8.2c0,0,18.5,0,36-1.9c14.9-1.6,23.6-11.6,29.6-19.3s13.9-13.8,21.2-14.5
						c-9.9,4.8-20.5,26.4-30.7,42.9L231.9,496.3z"/>
				</g>
			</g>
			<g>
				<g>
					<path class="st6" d="M331.8,548.5c6.8-0.8,7.9-8.2,15.1-9c5.4-0.6,9.7,0.9,14,4c2,1.5,4,3.5,6.3,4.3c3,0.9,6,1.9,8.9,2.9
						c4.8,1.6,9.6,2.5,14.5,3.5c12,2.3,21.4,11.9,27,22.3c2.9,5.5,4.8,10.4,5.5,16.6c0.5,4.2-0.1,10-4,12.4c-3.8,2.4-9,1.4-13-0.2
						c-4.9-1.9-8.7-5.9-12.9-8.9c-4.1-2.9-10.3-7.2-15.4-7.4c-4.3-0.1-8.6-0.9-12.8-1.5c-7.8-1.1-15.6-2.3-23.4-3.6
						c-0.8-0.1-1.6-0.3-2.4-0.4c-7.5-0.9-21.5,0.2-21.5,0.2l4.6-35.5C322.2,548.3,327,549,331.8,548.5z"/>
					<g>
						<g>
							<path class="st7" d="M347.7,537.4c0.9-1.1,4.1-3,8.1-3.2c2.6,0.9,7.6,3.5,12.9,8.4c5.3,4.9,7.5,6.8,13,7.2s12.4,0.6,20.8,5.1
								c8.4,4.4,18.1,13.2,22.2,30.2c3.3,13.9-1,23-3.1,26.2s-7.3,1.9-7.3,1.9L347.7,537.4z"/>
							<path class="st8" d="M327.3,548.7c1.9,0.2,5.3,0.1,9,1.2c7.3,2.2,13.2,13.3,14.7,16.4c0,0-2.6,0.7-4.3,4.7
								c-2,4.6-4.7,12.8-3,14.4c1.7,1.7,18.9,1,30.1,4.5c11.1,3.5,18.6,10,22.9,15c4.3,5.1,9.8,12.9,19.8,8.1
								c3.3-4,8.8-23.7-2.3-41.5c-9.9-15.8-26.2-17.6-34.7-18.3s-12-4.8-20.2-10.9c-3.6-2.7-6.1-4.9-11.6-4.9
								c-6.1,1.7-10.5,6.3-14.6,8.2C329.8,547.2,327.2,546.5,327.3,548.7z"/>
							<path class="st9" d="M414.2,571.5c-4.9-0.4-13.6,3.9-19.1,11.8c-6.7,9.8-6.1,14.4-3.5,18.3c2.1,3.2,14.7,21.2,25,12
								C420.5,610.8,428.2,592.6,414.2,571.5z"/>
							<g>
								<path class="st7" d="M351,566.3c0.3,0.9,0.8,1.8,1.8,2.3c0.9,0.5,1.9,0.7,2.8,0.8c1.9,0.3,3.7,0.6,5.6,0.9
									c3.7,0.6,7.4,1.2,11.1,2c3.7,0.8,7.3,1.8,10.9,2.9c3.5,1.2,7,2.7,10.2,4.7c-2.8-2.6-6.2-4.4-9.8-5.9
									c-3.5-1.5-7.2-2.6-10.9-3.4c-3.7-0.8-7.5-1.4-11.3-1.7c-1.9-0.2-3.8-0.3-5.7-0.3c-0.9-0.1-1.9,0-2.7-0.3
									C352.2,567.8,351.5,567.1,351,566.3z"/>
							</g>
							<path class="st9" d="M391.7,576.6c-3.5,3.4-9,14.7-6.4,18.5l1.1,0.7c0,0-1.8,0-3.7-1.7s-1-10.5,6.4-18.8
								C390.5,574.7,392.6,575.5,391.7,576.6z"/>
							<path class="st9" d="M382.5,573.2c-3.7,3.2-9,13.4-6.7,17.4l1,0.4c0,0-1.7,0.6-3.5-1.2s-1.2-10.1,6.6-18
								C381.4,571.3,383.5,572.1,382.5,573.2z"/>
							<path class="st9" d="M372.9,570.6c-3.4,3.5-8.3,14-5.6,17.8l1.3,0.2c0,0-2,0.6-3.6-0.5c-2.2-1.5-1.8-10.3,5.3-18.8
								C371.7,568.7,373.8,569.4,372.9,570.6z"/>
							<path class="st9" d="M364.6,568.7c-3.4,3.5-8.8,14.6-6,18.4l1.3,0.2c0,0-2.2,0.6-3.8-0.6c-2.2-1.5-1.2-10.8,5.8-19.3
								C363.3,566.9,365.5,567.6,364.6,568.7z"/>
						</g>
					</g>
				</g>
				<g>
					<path class="st10" d="M231.9,496.3l16.5,31.6c0,0,12.9-0.6,26.3,3.5c13.4,4.2,42.1,14.7,51.2,15.9c9,7.7,13,25.6,1.3,36.6
						c-20.8,0.7-55.8,1.7-77.2,0.5c-25.8-1.5-42.4-3.6-59.1-21.3s-47.1-58.2-54.9-75.2s-4.5-43.2-0.6-60.4
						c27.9,13.1,98,19.4,121.8-19.4C269.2,432.6,249.9,465.3,231.9,496.3z"/>
					<path class="st8" d="M227.3,485.8c0,0,21.1-5.5,26.5-25.3c-0.3,20.9-12.8,28.6-21.8,35.8L227.3,485.8z"/>
					<path class="st8" d="M138.7,429c0.1,0,0.2,0.1,0.3,0.1c1.1,0.5,2.3,0.9,3.5,1.3l0,0c-3.5,19.5-6,37.6,6.5,64.6
						c17.1,37,44.2,69.9,46.3,72.4c-1.5-1.4-2.9-2.8-4.3-4.3c-16.7-17.7-47.1-58.2-54.9-75.2c-1-2.1-1.8-4.4-2.4-6.8
						c-1.3-4.8-2-9.9-2.2-15.3c-0.6-13.3,1.6-27.6,4-38.3C136.5,428.1,137.6,428.6,138.7,429z"/>
				</g>
			</g>
		</g>
		<g id="Top_00000122000064683426044330000013780710896213759919_">
			<path id="Arm_00000169544129960966216180000008624061568528287104_" class="st11" d="M269.4,270.1c24,7.6,30.5,11.4,38,54
				c5.1,28.9,13.9,82.9,13.9,82.9l-40.8,7.7c-6.1-25.3-10-44.9-16.8-81.5L269.4,270.1z"/>
			<g id="Chest_00000168100721814988718290000005765447568510906026_">
				<g>
					<path id="XMLID_00000014635168127954739520000004155509095209431429_" class="st9" d="M233.3,266.9c-17.8,0.1-26.9-0.3-52,2
						c-6,3.3-20.3,17-26.2,37.5c-8.9,31-10.1,41.4-16.5,78.7C134,411.4,133,437,133,437c52.8,30.8,127.3,2.1,138-23.4
						c-3.4-9.6,0.4-21.8,13.1-79c7.5-33.6,4.7-60.2-14.7-64.6C263.7,269.9,251.1,266.8,233.3,266.9z"/>
				</g>
			</g>
			<g id="Tie_00000050645410330229970920000007609210734192479122_">
				<path class="st12" d="M240.6,334c-3,10.7-21.8,65.5-23.2,72.2c-1.4,6.7,5.6,28.8,8.8,28.5c3.2-0.3,17.6-20,20.2-28.4
					s2.9-71.6,2.9-71.6S248.1,325.9,240.6,334z"/>
				<g>
					<path class="st12" d="M212.8,263.3l-8.7,4.1c0,0,5.4,17.9,15,33.2s23.6,26,23.6,26l0.1-3.5
						C238.6,319.1,214.9,286.3,212.8,263.3z M262.6,283.1l-6.7-6.8c3.6,11.6,1.6,32.2-4.9,45.5l1.4,2.1
						C257.2,318.4,263.9,302,262.6,283.1z"/>
					<path class="st13" d="M254.8,320.6c-0.2-1.1-0.7-2.2-1.9-3c-0.6,1.5-1.2,3-1.9,4.4l1.4,2.1C253.2,323.1,254,321.9,254.8,320.6z
						"/>
					<path class="st13" d="M262.6,283.1l-6.7-6.8c2.3,7.5,2.3,18.9,0.2,29.5c1.5,0.6,2.6,1.8,3.5,3.1
						C261.8,301.7,263.3,292.8,262.6,283.1z M212.8,263.3l-7.3,3.4l0.5,6.2c2.3,6.5,6.8,17.6,13.1,27.7c2.7,4.3,5.8,8.3,8.8,11.7
						l4.6-3.3C224.2,296.5,214.1,277.9,212.8,263.3z"/>
				</g>
				<g>
					<path class="st12" d="M238.9,318.4c-1.4,0.9-2,3.3-1.6,5.8c0.5,3.4,3,8.9,3.3,9.7c2.4-1.3,8.3-2.1,8.6,0.6
						c2.1-2.1,5-11,4.8-13.5C253.4,316.7,243.8,315.1,238.9,318.4z"/>
					<path class="st13" d="M244.4,330.8c-2.2-0.1-3.7-0.6-4.2-4.8c-0.4-4.2,0-7.6,3.5-9.2c-1.8,0.2-3.5,0.7-4.9,1.7
						c-1.4,0.9-2,3.3-1.6,5.8c0.5,3.4,3,8.9,3.3,9.7c2.4-1.3,8.3-2.1,8.6,0.6C250.7,331.8,247.6,330.9,244.4,330.8z"/>
				</g>
			</g>
			<g id="Head_00000129909815226657907430000013281542512434105254_">
				<g id="XMLID_00000098942437013668322480000015863919108905354401_">
					<g id="XMLID_00000181779799271727031140000010610076362435793085_">
						<path class="st7" d="M297,220.7c3.6-1.4,7-3.3,9.5-7c2.8-4,4.3-7.4,5.2-12.3c0.2-1.1,0.3-3.7,0-4.7c-0.5-1.9-2.5-3-4.2-3.7
							c-1.1-0.5-2.3-1-3.4-1.4c2.7-1.7,5.5-3.4,7.4-6.1c1.4-2,2.2-4.4,2.3-6.8c0-0.7,0-1.3-0.3-1.9c-0.7-1.3-2.4-1.6-3.8-1.6
							c-11.7,0-22.1-3.7-25.8-4.9c-6.6-2.2-9.7-3.9-18.7-7.3s-26.5-3.6-34.1,13c-12.9-1.3-19.9,18.1-18.6,27.5
							c2.3,17.2,5.7,29.1,6,41.1c0.8-0.3,48.5-12.9,59.8-17.1c4.2-1.6,8.5-3.1,12.7-4.7C293,222.1,295,221.5,297,220.7z"/>
						<path class="st14" d="M209.6,229.9c5.8,7.5,12,3.5,12,3.5l-9.9,35.2c11.4,22.9,35.4,30.1,35.5,38.8c3.3-5,6.6-19.2,4-31.6
							l1.9-6.7c0,0,6,2,11.4,2.6c2.3,0.2,5.1,0,7.2-0.6c4.9-1.5,8.8-4.2,12.3-9.5c4.1-6.4,7.9-15.5,10.8-25.9
							c3-10.9,5.8-25.2,4.2-33.5c-4.9-7.5-24.1-13.4-41.7-13.3c-1.4,4-2,7.7-6.5,11.2c-2.2,1.8-5.2,2.7-7.6,3.2
							c-2.6,7.8-3.5,9.8-6,12.9c-1.4,1.8-3.8,4.3-7.4,1.8c-1.7-1.2-2-5.8-3.1-9.1c-1.6-4.5-9.4-8.5-15.7-1.5
							C204.8,214.5,205.6,224.8,209.6,229.9z"/>
						<path class="st15" d="M253.2,269.1c-8-3.1-21.8-10.3-24.6-16.4c-2.9-6.2-2.9-18.7-2.9-18.7s-2,13.5-0.3,20
							c1.6,6.5,8.1,10.8,12.9,13.8c4.7,3,13.6,6.3,13.6,6.3L253.2,269.1z"/>
					</g>
					<g id="XMLID_00000014634404643558657710000017036384264530182820_">
						<path id="XMLID_00000141418152075786759650000004648317241636403865_" class="st7" d="M263,212.1l-8.8,1.2
							c-0.3-2.5,1.5-4.8,3.9-5.1S262.7,209.6,263,212.1z"/>
						<path id="XMLID_00000155105516480921361860000006138215840366243485_" class="st7" d="M285.9,218l6.5,6.1
							c1.7-1.9,1.6-4.8-0.2-6.5C290.4,216,287.6,216.1,285.9,218z"/>
						<path id="XMLID_00000045613290836685088670000015206486155996729518_" class="st15" d="M252.6,239.7l12.8,9.4
							c-2.8,3.5-7.9,4.3-11.4,1.7C250.4,248.2,249.8,243.3,252.6,239.7z"/>
						<path class="st16" d="M252.2,242.8c4.1,1.1,6.5,5.3,5.4,9.4c-1.3-0.2-2.6-0.6-3.7-1.4c-2.6-1.9-3.6-5.2-2.8-8.2
							C251.5,242.7,251.9,242.7,252.2,242.8z"/>
						<polygon id="XMLID_00000145771057449785823650000016491240984622991790_" class="st15" points="271.9,215.5 267.3,241.9 
							282.2,240 						"/>
						<path class="st7" d="M255.6,220.2c-0.6,1.9,0.5,4,2.5,4.5c1.9,0.6,4-0.5,4.5-2.5c0.6-1.9-0.5-4-2.5-4.5
							C258.2,217.2,256.1,218.3,255.6,220.2z"/>
						<path class="st7" d="M281.8,226.7c-0.6,1.9,0.5,4,2.5,4.5c1.9,0.6,4-0.5,4.5-2.5c0.6-1.9-0.5-4-2.5-4.5
							C284.4,223.6,282.4,224.7,281.8,226.7z"/>
					</g>
				</g>
				<g>
					<path class="st11" d="M247.3,307.5c-1.6-5.5-4.5-7.3-12.3-3.4c-7.9,3.9-15.3,9.3-15.3,9.3s-11.3-13.4-15.4-28
						c-3.5-12.3-2.9-18-2.9-18s4.5-3.5,7.2-6.2c3.9-3.9,4.3-7.4,7.2-6.8l-1.3,4.8c0,0,1.1,7.8,6.6,17.5c4.2,7.3,8.1,11.9,17.6,19.3
						C244.1,300.2,247.3,303.2,247.3,307.5z"/>
					<path class="st11" d="M247.3,307.5c1.2-4.4,1.8-7.4,2.8-10c0.9-2.5,2.6-16.6,1.3-21.6l1.9-6.7c0,0,3.8,1.4,7.9,2.1
						c1.7,4.2,5.2,13,5.2,22.8s-2.3,19-2.3,19s-1.3-5.3-5.2-8.6C255,301.1,250.4,302.9,247.3,307.5z"/>
				</g>
			</g>
			<g id="Arm_00000178173988085785717320000018026278977805321373_">
				<g>
					<g>
						<g>
							<path class="st12" d="M333.2,384.5c0,0,0.6-3.7,6.3-6.1c5.7-2.4,12.6-3.8,16.7-12.2l5.7,5.4l-15.6,16.2L333.2,384.5z"/>
							<path class="st17" d="M333.2,384.5c0,0,0.6-3.7,6.3-6.1c5.7-2.4,12.6-3.8,16.7-12.2l5.7,5.4l-15.6,16.2L333.2,384.5z"/>
						</g>
						<g>
							<path class="st12" d="M333.2,384.5c0,0-6.4-5.3-23.1-5.8c-16.7-0.5-30.6,0.7-61-7.1l6.8,6.4l80.3,14L333.2,384.5z"/>
							<path class="st17" d="M333.2,384.5c0,0-6.4-5.3-23.1-5.8c-16.7-0.5-30.6,0.7-61-7.1l6.8,6.4l80.3,14L333.2,384.5z"/>
							<polygon class="st12" points="249.1,371.6 199.4,456.1 206.2,462.6 256,378.1 							"/>
							<polygon class="st18" points="249.1,371.6 199.4,456.1 206.2,462.6 256,378.1 							"/>
							<polygon class="st19" points="249.1,371.6 199.4,456.1 206.2,462.6 256,378.1 							"/>
						</g>
						<g class="st20">
							<path d="M355.1,371.1c-1.2,1.7-2.7,3.2-4.5,4.4c-1.7,1.2-3.6,2.1-5.5,3s-3.8,1.8-5.4,3c-0.8,0.6-1.5,1.3-2.2,2.1
								c-0.6,0.8-1.1,1.7-1.2,2.6l-1-0.1c0.2-1.2,0.8-2.1,1.5-3c0.7-0.8,1.5-1.6,2.4-2.2c1.8-1.2,3.8-2,5.6-2.9
								c1.9-0.9,3.8-1.7,5.6-2.8C352.2,374.2,353.8,372.8,355.1,371.1z"/>
							<path d="M352.6,376c-0.9,1-2,1.8-3.2,2.6c-1.1,0.7-2.3,1.5-3.4,2.2c-1.1,0.8-2.2,1.6-3.1,2.5c-0.9,0.9-1.7,2-2.1,3.2
								l-0.9-0.3c0.5-1.4,1.5-2.5,2.5-3.4s2.2-1.7,3.4-2.4s2.4-1.3,3.5-2C350.5,377.6,351.6,376.9,352.6,376z"/>
							<path d="M279.5,379.5c4.4,0.6,8.9,1,13.4,1.1c4.5,0.2,8.9,0.1,13.4,0.1c4.5-0.1,9,0.5,13.4,1.4c2.2,0.5,4.4,1,6.5,1.8
								c1.1,0.4,2.1,0.8,3.1,1.4c1,0.6,2,1.2,2.7,2.3l-0.8,0.5c-0.5-0.8-1.5-1.4-2.4-2c-0.9-0.5-1.9-1-3-1.4
								c-2.1-0.8-4.2-1.4-6.4-1.9c-4.3-1-8.8-1.6-13.2-1.6c-4.5-0.1-9-0.1-13.4-0.3C288.4,380.6,283.9,380.2,279.5,379.5z"/>
							<path d="M300.6,384c2.5,0.2,5.1,0.3,7.6,0.4c2.5,0.1,5.1,0.2,7.6,0.5c2.5,0.2,5.1,0.6,7.6,1.3s5,1.6,7.1,3.1l-0.6,0.8
								c-1.9-1.5-4.3-2.5-6.7-3.2s-4.9-1.2-7.4-1.5s-5.1-0.5-7.6-0.7C305.6,384.5,303.1,384.3,300.6,384z"/>
						</g>
					</g>
					<g>
						<polygon class="st12" points="363.1,367.1 344.8,386.3 291.4,476.9 294.8,480.1 314.3,455.9 366.5,370.3 						"/>
						<polygon class="st13" points="348.2,389.5 366.5,370.3 314.3,455.9 294.8,480.1 						"/>
					</g>
					<g>
						<polygon class="st12" points="330,390.7 250.6,377.4 197.2,468 200.7,471.2 280,484.6 333.4,393.9 						"/>
						<polygon class="st13" points="254,380.6 200.7,471.2 280,484.6 333.4,393.9 						"/>
						<polygon class="st21" points="250.6,377.4 254,380.6 200.7,471.2 197.2,468 						"/>
					</g>
					<g>
						<path class="st12" d="M333.4,393.9l14.8-4.5L294.8,480c-3.3,4.8-8.3,6.1-14.8,4.5L333.4,393.9z"/>
						<g class="st22">
							<path d="M333.4,393.9l14.8-4.5L294.8,480c-3.6,5-8.7,6.1-14.8,4.5L333.4,393.9z"/>
						</g>
						<path class="st10" d="M344.4,385.9c-2.1-2-7.1-2.6-11.2-1.4c-4.1,1.2-5.7,3.8-3.6,5.8l3.8,3.6l14.8-4.5c0,0-1.5-1.4-3.4-3.2
							C344.6,386.1,344.5,386,344.4,385.9z"/>
						<path class="st12" d="M344.8,386.3c-1.7,3.6-7,4.8-14.8,4.5l3.4,3.2c6.6,0.8,11.4-0.8,14.8-4.5L344.8,386.3z"/>
					</g>
				</g>
				<path class="st14" d="M181.1,269.6c-18.4,0.3-32.8,4.6-41.6,27.4c-9.4,24.2-15.8,44.2-26.3,84.4c-4.3,16.3-6.9,23.5,8.5,34.3
					c26.3,18.6,63.5,30.6,73.2,34.2c6.2,2.3,19.8,7.4,24.9,8.2c16,2.4,26.7-4.5,32.9-8c3.4-1.9,6.9-4.4,7.9-8.2
					c0.3-1.2,0.4-2.5,1-3.6s1.8-1.8,2.6-2.7c0.9-1,1.6-2.3,1.7-3.7c0.1-1.2-0.1-2.5,0.3-3.7c0.7-2.4,3.4-3.6,5-5.5
					c0.2-0.3,0.5-0.6,0.5-1c0.1-0.8-0.6-1.5-1.3-1.9c-3-1.6-7.8-1.5-11.1-0.5c-11.4,3.3-19,9.1-32.9,5.7c-3.3-0.8-6.9-3.2-5.2-6.2
					l3.4-5.8c-8.3-0.6-14.6,6-21.4,5.5c-6-0.4-48.2-28.7-48.2-28.7l16.5-54.5C171.6,335.3,192.2,293.4,181.1,269.6z"/>
				<g>
					<path class="st11" d="M181.3,268.9c-10.4,0.4-24.7-0.2-36.2,14.9s-14.8,31.4-22.5,56.4c-7.7,25.1-15.5,55.5-16.1,61.4
						c-0.6,6,4.8,10.4,14.4,16.9c9.6,6.4,33.2,18.4,44.5,21.7l17.6-32.3l-26.7-18.4c0,0,13.9-43,17-52.7
						C176.6,327.1,194.1,288.8,181.3,268.9z"/>
					<path class="st23" d="M176.6,403.4l15.5,9.9c0,0-8,4.8-12.2,15.3c-4.4,11.1-4.6,17.2-4.6,17.2l-19.4-9
						C156,436.7,155.7,413.8,176.6,403.4z"/>
					<path class="st9" d="M182.4,414.3c-0.4,1.3-1.7,2.1-3.1,1.7c-1.3-0.4-2.1-1.7-1.7-3.1c0.4-1.3,1.7-2.1,3.1-1.7
						C182,411.5,182.8,412.9,182.4,414.3z"/>
				</g>
				<path class="st14" d="M336.1,420.1c-1.8,2.9-5.6,6.3-7.8,8.5c-2.2,2.1-2.8,5.2-1.3,6.4l-9.1,14.9c0,0,2.2,0.9,8.4-3.3
					s12.3-13.6,14.7-18.9c2.4-5.3,5.8-15.1,1.8-18.7L336.1,420.1z"/>
			</g>
		</g>
	</g>
	<g id="Speech_Bubble_00000014608118523851170570000001172825652059742862_">
		<g>
			<path class="st24" d="M265.5,105.9c6.7-24.1-15.2-51.2-48.9-60.5c-33.7-9.3-66.4,2.7-73,26.8c-6.7,24.1,15.2,51.2,48.9,60.5
				c2,0.6,4,1,6.1,1.4c3.2,14.4,13.9,19.6,23,21.1c-5.4-4.5-7.5-12.2-4.8-19.4C240.6,135.4,260.4,124.1,265.5,105.9z"/>
			<path class="st25" d="M217.6,155.1c-7.2-2-16.5-7.1-19.6-20.3c-1.9-0.4-3.8-0.9-5.7-1.4c-34-9.4-56.1-36.9-49.3-61.3
				c6.8-24.4,39.9-36.7,73.8-27.3c34,9.4,56.1,36.9,49.3,61.3c-4.9,17.9-24.1,29.8-48.9,30.4c-2.3,6.6-0.5,13.9,4.7,18.2
				c0.2,0.2,0.3,0.5,0.2,0.8c-0.1,0.3-0.4,0.4-0.7,0.4C220.2,155.7,218.9,155.5,217.6,155.1z M198.7,133.5c0.2,0.1,0.4,0.3,0.5,0.5
				c3.1,13.8,13.2,18.5,20.3,20.1c-4.4-4.9-5.8-12-3.3-18.5c0.1-0.3,0.3-0.4,0.6-0.4c24.4-0.5,43.3-12,48.1-29.4
				c6.6-23.7-15.1-50.5-48.4-59.7s-65.6,2.6-72.2,26.3s15.2,50.5,48.4,59.7C194.6,132.6,196.6,133.1,198.7,133.5L198.7,133.5z"/>
		</g>
		<g>
			<circle class="st25" cx="177.6" cy="83" r="6.4"/>
			<path class="st25" d="M210.4,92c-0.9,3.4-4.5,5.4-7.9,4.5s-5.4-4.5-4.5-7.9s4.5-5.4,7.9-4.5C209.3,85.1,211.3,88.6,210.4,92z"/>
			<path class="st25" d="M237,99.4c-0.9,3.4-4.5,5.4-7.9,4.5s-5.4-4.5-4.5-7.9s4.5-5.4,7.9-4.5S237.9,96,237,99.4z"/>
		</g>
		<g class="st26">
			<circle class="st24" cx="177.6" cy="83" r="6.4"/>
			<path class="st24" d="M210.4,92c-0.9,3.4-4.5,5.4-7.9,4.5s-5.4-4.5-4.5-7.9s4.5-5.4,7.9-4.5C209.3,85.1,211.3,88.6,210.4,92z"/>
			<path class="st24" d="M237,99.4c-0.9,3.4-4.5,5.4-7.9,4.5s-5.4-4.5-4.5-7.9s4.5-5.4,7.9-4.5S237.9,96,237,99.4z"/>
		</g>
	</g>
	<g id="Character_00000031204808503914765860000007620541685754432647_">
		<g id="Bottom_00000029752629368035286220000010042434138945657251_">
			<g>
				<g id="XMLID_00000033338312104130554290000008178716717643254459_">
					<g id="XMLID_00000018221974457068920370000004568107596826880137_">
						<path id="XMLID_00000059279013917952501100000010307365872264581810_" class="st27" d="M564.5,547.4
							c1.9-2.1-4.2-10.7-13.7-12.7c-7.5-1.5-11.1-0.5-16.5-0.2c-5.2,0.3-13.3-1.5-17.8-2.3c-11.1-1.9-14.4,5-13.9,6.2
							c1.3,2.9,4.5,4,10.7,6.9C519.4,548.2,549.8,550.4,564.5,547.4z"/>
						<path class="st14" d="M564.5,547.4c0,0-1-6.1-13.4-4.2c-8.1,1.2-22.8,0.9-27.2-0.1c-5.8-1.3-13.3-7.3-19.7-5.4
							c-2.9,3.3-2.2,6.9-1.9,12.1c-13.8,4.7-43.2,12.5-43.2,12.5l-36.3,27.4c13.8,4.9,38.5,3.7,58.6-4.6c11.9-4.9,22.2-11.9,32.8-18
							c5.7-3.3,10.2-5.6,12.6-6.2c6-1.5,14.7-3.9,22.6-6.5c0,0,0,0,0.1,0.1C555.5,552.7,561.5,550,564.5,547.4z"/>
					</g>
				</g>
				<path id="XMLID_00000083053553485466094380000014636711870338503322_" class="st14" d="M378.4,539.8c2.4-9.8,13-21.7,23.1-29.7
					c13.4-10.8,41.1-27.8,41.1-27.8l0.3,2.4l0,0l72.5-8.1c3.8,9.8,7.4,29.7,6.2,43.5c-1.1,12.8-4.5,28-28.4,42.6
					c-14.5,8.8-20.7,15.5-31.4,20c-11.6,4.8-27.5,13-42.8,5.7c-8.8-4.2-14.3-10.3-13.5-20.5l0,0c-1.9,0.9-13.2,1.9-20.3-3
					C378.6,560.1,376,550,378.4,539.8z"/>
				<path id="XMLID_00000118396539191298733140000018093458621524179368_" class="st28" d="M400.8,568.5c1.7-0.1,3.2-0.1,4.7-0.7
					c4.3-17,23.1-28.1,49.8-46.1c-10.1-3.1-18.8-15.2-18.8-15.2c0.8,9.2,4.9,13.8,8.4,16.2c-6,4.5-17.2,9.7-27,19.2
					C411.3,548.1,402.8,556,400.8,568.5z"/>
				<path class="st28" d="M390,520.9c-1.7,1.8-3.2,3.7-4.7,5.6c12.8-0.2,31.6,3.3,56.6,25.2c15.8,13.9,18.4,26.4,18.4,26.4l6.2-1.9
					C460.6,555.7,434.3,524.6,390,520.9z"/>
				<path id="XMLID_00000103265580130243795700000002291860402871317429_" class="st28" d="M452.9,579.1c8.8,1.6,26.8-2.8,37.9-10.8
					c3.5-2.6,12.5-8.8,17.6-17c1.4-2.3-32.9,19.1-32.9,19.1S463.2,577.2,452.9,579.1z"/>
				<path class="st29" d="M499.4,554.1c7.2,3.7,10.9,12,8.9,16.5l-1.8,1.1c0,0-1.1,2.3,5.4-1.5c6.5-3.8,10.1-6.2,12.7-7.5
					c2.6-1.2,9-3.4,18.6-5.8c9.6-2.4,20.4-5.9,21.6-10.1c-4.3-5.1-7.2-4.8-14.1-4.3c-6.9,0.5-14.9,2.2-21.3,0.4s-15.1-7.4-19.6-7.4
					c-2.5,0-5.6,0-7.3,3.1s-0.7,10.5-0.7,10.5s-6.5,2.1-7.3,2.3c-0.9,0.2-1.3,1.3-1.3,1.3l1.9-0.6
					C495.1,552.1,497.2,552.7,499.4,554.1z"/>
			</g>
		</g>
		<g id="Top_00000066497643622313268240000000806348122538600338_">
			<path id="Arm_00000062169656576959889140000009871561121838145193_" class="st14" d="M455.5,463.1c-3.1,11.5-5.4,17.8-14.2,26
				c-8.8,8.3-19,15.2-36.7,24.7c-9.4,5.1-16.2,7.1-22.2,6.5c-14.3-1.6-23.6-15.8-13-18.3c8.5-1.9,12.8-3.2,14.7-4.9
				c0,0-9.2-4.6-8.7-8c0.5-3.1,7.2-1.7,13.6-0.5c4.1,0.8,7.6,2.6,9.7,1.4c12.7-7.6,27.7-21.3,27.7-21.3s7-36.2,12.6-48.6
				c7.4-16.2,28-14.1,28-14.1l-5.7,32.8L455.5,463.1z"/>
			<g id="Chest_00000083064370815674321260000009790539922052714115_">
				<path id="XMLID_00000110452263857517017040000005110996053023185833_" class="st25" d="M431.3,487.7c0,0,2.8-8,7.9-15.6
					c0.5-13.7,0.7-20.1,1.9-33.6c1-11.6,4.7-27.9,20.8-31.5s22.7-1.1,33.4,1.4c12.3,3,18,4.9,18,4.9c2.3,2.1,10.9,8.5,12.4,21.6
					c2.3,19.7,4,63,0.9,80.8c-3.1,17.7-4.5,31.9-34.4,48.2c-19.9,10.8-32,13.6-32,13.6s6.2-16.5-35.1-42.1
					c-19.3-11.9-37.9-11.2-37.9-11.2s7.8-11.2,20.2-20C421.6,494.2,428.5,491.3,431.3,487.7z"/>
				<path id="XMLID_00000105391088503978519110000005998776592122786204_" class="st13" d="M431.3,487.7c0,0,2.8-8,7.9-15.6
					c0.5-13.7,0.7-20.1,1.9-33.6c1-11.6,4.7-27.9,20.8-31.5s22.7-1.1,33.4,1.4c12.3,3,18,4.9,18,4.9c2.3,2.1,10.9,8.5,12.4,21.6
					c2.3,19.7,4,63,0.9,80.8c-3.1,17.7-4.5,31.9-34.4,48.2c-19.9,10.8-32,13.6-32,13.6s6.2-16.5-35.1-42.1
					c-19.3-11.9-37.9-11.2-37.9-11.2s7.8-11.2,20.2-20C421.6,494.2,428.5,491.3,431.3,487.7z"/>
			</g>
			<g>
				<path class="st2" d="M499.9,399.8c5.8-10,13.4-12.6,18.8-24.5c7.1-15.5,2.9-28.2-3.6-32.3c0,0,0.8-11-12.1-18.4
					c-11.1-6.3-24.2-8.9-38.9-4.4c-6.4,1.9-14.2,7-17.9,12.7c-4.8,7.5-7.2,17.6,0.4,26.5C450,363.2,498.6,399.7,499.9,399.8z"/>
				<path class="st2" d="M444.4,309.9c-0.1,0.5-0.2,0.9-0.6,1.2c-2,1.6-4.2-0.5-3.8-2.7c-1.8,2.3-0.9,6,2,6.1
					c-1.8,0.2-3.3,1.9-3.3,3.7s1.4,3.5,3.2,3.7c-1.6,1.1-2.1,3.5-1.1,5.2s3.5,2.2,5.1,1.2c-0.2,4.7,7.2,3.8,10.1,4
					c1.4,0.1,3,0.2,4.2-0.6c1.7-1.1,2.3-3.5,4.2-4c1.3-0.3,2.8,0.4,4-0.2c2-0.9,1.5-4.2,3.2-5.6c0.8-0.6,2-0.7,3-1.1
					c1.6-0.7,2.5-2.7,1.9-4.4c-0.3-0.9-1-1.7-1-2.7c0-1.2,1-2.3,0.7-3.4c-0.2-1.1-1.5-1.6-2.6-1.9c-1.1-0.2-2.3-0.4-3-1.2
					c-0.8-0.9-0.7-2.3-1.1-3.5c-0.6-1.7-2.6-2.7-4.3-2.2c-1.1,0.3-2.1,1.1-3.3,1c-1.3-0.1-2.2-1.4-3.4-2.1c-1.7-1-4.2-0.2-5.1,1.5
					c-0.5,1.1-0.7,2.5-1.8,3c-1,0.4-1.9-0.3-2.9-0.6c-1.9-0.5-4,1-4.2,3C444.4,308.2,444.5,309.1,444.4,309.9z"/>
				<path class="st2" d="M533.3,328.3c-0.1,0.5-0.1,1,0.2,1.4c1.4,2.3,4.3,1.2,4.8-1.2c0.9,3-1.4,6.3-4.4,5.3
					c1.7,0.9,2.5,3.1,1.8,4.9c-0.7,1.8-2.8,2.9-4.6,2.5c1.2,1.7,0.8,4.3-0.9,5.5c-1.7,1.2-4.3,0.8-5.6-0.8c-1.6,4.8-8.7,1-11.6,0.1
					c-1.4-0.4-3-1-3.9-2.2c-1.2-1.7-0.9-4.4-2.6-5.6c-1.2-0.9-2.9-0.7-3.9-1.7c-1.6-1.7,0.2-4.8-1-6.8c-0.6-1-1.7-1.4-2.5-2.2
					c-1.3-1.3-1.4-3.7-0.2-5.1c0.7-0.8,1.7-1.3,2.1-2.3c0.5-1.2-0.1-2.6,0.6-3.7c0.7-1,2.1-1.1,3.3-0.9c1.2,0.2,2.5,0.5,3.5-0.1
					c1.1-0.6,1.6-2.1,2.4-3c1.3-1.4,3.6-1.6,5.1-0.5c1,0.7,1.7,2,2.9,2.3c1.4,0.4,2.7-0.6,4.2-0.8c2.1-0.3,4.3,1.4,4.5,3.5
					c0.1,1.3-0.3,2.8,0.7,3.7c0.8,0.7,2.1,0.4,3.1,0.6c2,0.3,3.6,2.6,3,4.6C534,326.6,533.5,327.5,533.3,328.3z"/>
				<g>
					<path id="XMLID_00000094578104689481416470000012450845581015986361_" class="st14" d="M446.8,356c0.2-2,0.3-4.6,1.8-6.1
						c1.3-1.4,3.3-2.1,4.9-2.9c2.1-1.1,4-2.5,5.7-4.2c0.3,1.6-0.2,3.2-1,4.6c-0.8,1.4-1.9,2.5-3.1,3.7c2.1,1.1,4.4,1.2,6.9,1.4
						c3,0.2,6.5-0.4,9.4-1.1c3.6-0.9,6.8-2.9,9.2-5.8c0,2.1-1.1,4.1-2.6,5.5c-1.5,1.5-3.3,2.6-5.1,3.6c3.1,0.7,7.2,1.7,13-1.2
						c6.1-3.1,7.2-7.6,7.2-7.6c0,1-0.1,4.7,0,5.6c0.2,1.6,0.5,3.2,1.2,4.7c1.8,4,1.2,5.6,4.8,8.2c-0.6,2-0.7,4.1-0.3,6.2
						c0.1,0.6,0.3,1.3,0.7,1.8c0.1,0.1,0.2,0.3,0.4,0.4c2.1,1.5,2.3-2.2,4.6-4.6c1.3-1.3,3.1-1.7,4.8-1.5c3.5,0.4,5.4,2,6.5,4.6
						c1.9,4.7-3.6,14-9.4,14.9c-4.7,0.7-6.5-2-6.5-2l0.8,25.5c0,0-7.3,21.6-35.6,24.1c-3.2-3.5-3.3-14.9,3.9-24l-0.6-7.7
						c0,0-6.4-0.3-11-2.4c-9.9-4.4-11.8-13.4-12-17.9c-0.4-6.5,1.2-10.3,1.6-15.8C446.9,362.9,446.5,358.1,446.8,356z"/>
					<path id="XMLID_00000064322520875955831030000006089096763624610955_" class="st28" d="M468.1,402.2c7.3,0,12.5,0,21.1-4.8
						c3.2-1.8,6.6-5.6,8.3-9.3c0,0-2.1,8-5.5,11.3c-9,8.6-23.6,6.9-23.6,6.9L468.1,402.2z"/>
				</g>
				<g>
					<g id="XMLID_00000160875281028377188810000007312573587715347886_">
						<path id="XMLID_00000135676514929334744940000013733268262419825040_" class="st30" d="M478.7,360l7.5,3.9
							c1-2.1,0.2-4.8-1.8-5.9C482.2,356.9,479.7,357.8,478.7,360z"/>
						<path class="st30" d="M483.7,368.3c-0.2,1.9-1.9,3.3-3.8,3.1c-1.9-0.2-3.3-1.9-3.1-3.8c0.2-1.9,1.9-3.3,3.8-3.1
							C482.6,364.7,484,366.4,483.7,368.3z"/>
						<path class="st30" d="M458,364.9c-0.2,1.9-1.9,3.3-3.8,3.1c-1.9-0.2-3.3-1.9-3.1-3.8c0.2-1.9,1.9-3.3,3.8-3.1
							C456.8,361.3,458.2,363,458,364.9z"/>
						<path id="XMLID_00000039840337626819153870000015967377542127033736_" class="st30" d="M450.1,359l8.3-1.9
							c-0.4-2.3-2.6-3.8-4.9-3.3C451.2,354.3,449.7,356.6,450.1,359z"/>
						<path id="XMLID_00000089544774582780105170000009452293649224225701_" class="st28" d="M476.5,382.4l-10.2,2.1
							c0.5,2.9,3.2,4.7,6,4.1C475.1,388.1,477,385.3,476.5,382.4z"/>
						<path class="st31" d="M474.6,384.5c-1.9-0.2-3.6,1.2-3.8,3.1c0,0.4,0,0.8,0.1,1.2c0.5,0,1,0,1.4-0.1c1.9-0.4,3.3-1.8,4-3.5
							C475.8,384.8,475.2,384.6,474.6,384.5z"/>
					</g>
					<g id="XMLID_00000165223760878428096110000003110427037225219736_">
						<polygon id="XMLID_00000168827253773373221330000001366785526190522510_" class="st28" points="467.7,361.9 464.3,378 
							456.9,374 						"/>
					</g>
				</g>
			</g>
			<path id="Arm_00000023242166376270961040000010335609033616595362_" class="st14" d="M539.1,477.5c0,0-3.2-25.8-4.6-37.9
				c-1.5-12.1-6-22.4-21.2-26.1c0,0-9.7,10.3-9.7,23.9c0,13.6,6.8,52.2,6.8,52.2s-13.3,21.3-24.3,31.2c-1.9,1.5-6,3-10.6,3.9
				c-6.4,1.3-13.8,2.9-13.7,6c0.1,3.4,8.7,2.7,11.2,2.8c4,0.1-2.6,3.5-15.5,7.3c-10.4,3.1,3.9,15.3,18.3,14.2
				c6-0.5,12.3-3.8,20.6-10.6c15.6-12.7,28.5-27.4,37.1-41.4C539.5,492.9,539.5,487.5,539.1,477.5z"/>
		</g>
	</g>
</g>
</svg>
