<?xml version="1.0" encoding="utf-8"?>
<!-- Generator: Adobe Illustrator 26.0.0, SVG Export Plug-In . SVG Version: 6.00 Build 0)  -->
<svg version="1.1" id="Layer_1" xmlns="http://www.w3.org/2000/svg" xmlns:xlink="http://www.w3.org/1999/xlink" x="0px" y="0px"
	 viewBox="0 0 778 947.3" style="enable-background:new 0 0 778 947.3;" xml:space="preserve">
<style type="text/css">
	.st0{fill:#F8F2DE;}
	.st1{fill:#C8E0DA;}
	.st2{fill:#6EAF9F;}
	.st3{fill:#2A8F81;}
	.st4{opacity:0.3;}
	.st5{clip-path:url(#SVGID_00000121993341060709748680000005520840592482505634_);fill:#BB2326;}
	.st6{fill:#EF8615;}
	.st7{fill:#E42D31;}
	.st8{clip-path:url(#SVGID_00000165232476338362556220000000127381200883392703_);fill:#BB2326;}
	.st9{clip-path:url(#SVGID_00000139283972201432113990000003691046216750383020_);fill:#BB2326;}
	.st10{opacity:0.17;}
	.st11{clip-path:url(#SVGID_00000149359209190963745690000004382843514330299525_);fill:#2A8F81;}
	.st12{fill:#F9B818;}
	.st13{fill:#2E1F22;}
	.st14{clip-path:url(#SVGID_00000141431691447881227470000005495651586201812392_);fill:#E6BAD0;}
	.st15{fill:#6A2827;}
	.st16{opacity:0.8;}
	.st17{clip-path:url(#SVGID_00000105404385728493265450000005399833957170162603_);fill:#FFB3D5;}
	.st18{fill:#F09466;}
	.st19{fill:#F8F6F0;}
	.st20{fill:#E68888;}
	.st21{clip-path:url(#SVGID_00000037679393886519994490000001254063848308683922_);fill:#BB2326;}
	.st22{fill:#E86562;}
	.st23{fill:#2D202A;}
	.st24{opacity:0.32;}
	.st25{clip-path:url(#SVGID_00000026844524529831073410000003386221819575626116_);fill:#2E1F22;}
	.st26{fill:#2AAF94;}
	.st27{clip-path:url(#SVGID_00000023992836045103641180000018427135761543271092_);fill:#BB2326;}
	.st28{clip-path:url(#SVGID_00000173862328634282380080000014696723085359424662_);fill:#2E1F22;}
	.st29{clip-path:url(#SVGID_00000005240129749386236360000015224476807022914449_);fill:#BB2326;}
	.st30{fill:#60998C;}
	.st31{fill:#FCD786;}
	.st32{fill:#F4AF00;}
	.st33{clip-path:url(#SVGID_00000145777255596059432340000011843209003785061050_);fill:#BB2326;}
</style>
<g>
	<g>
		<path class="st0" d="M768.7,876.7c4.1-29.4,4.4-50.6,4.4-50.6c29.4-166.8-78.7-290.6-180.8-212.2
			c-102,78.4-56.6-116.7-200.3-112.7c-94.6,2.6-97.2,93.8-119.3,137.3c-22.1,43.5-85.5,7.9-120.8,10C124.7,650.1,33.5,682,13,800
			c-4.9,28-3.9,54,1.2,76.9h754.5V876.7z"/>
		<path class="st1" d="M287.9,282.4H23.8c0,0,11.2-77.8,68.3-27.8c0,0-2-56.4,40.3-59.7c42.3-3.3,46.6,51.9,46.6,51.9
			s10.8-25.5,35.5-22.1s24.2,38.5,24.2,38.5s6.3-10.4,21.5-5.4C284.4,265.9,287.9,282.4,287.9,282.4"/>
		<path class="st1" d="M751.4,254.8H528.6c0,0,9.5-65.7,57.6-23.4c0,0-1.7-47.5,34-50.4c35.7-2.8,39.3,43.8,39.3,43.8
			s9.1-21.5,30-18.6s20.4,32.5,20.4,32.5s5.3-8.8,18.2-4.6C748.5,240.8,751.4,254.8,751.4,254.8"/>
		<path class="st1" d="M259.8,48.6H113.2c0,0,6.2-43.2,37.9-15.4c0,0-1.1-31.3,22.4-33.1c23.5-1.9,25.8,28.8,25.8,28.8
			s6-14.2,19.7-12.3S232.4,38,232.4,38s3.5-5.8,11.9-3C257.9,39.4,259.8,48.6,259.8,48.6"/>
		<path class="st2" d="M466.3,400c-6.9-3-13.3-7.2-19-12.2c-8.9-7.8-16.2-17.3-20.8-26.4c-6.1-11.8-7.8-22.8-3.4-28.1
			c4.3-5.2,29,3.6,55.8,16.4c13.3,6.4,27,13.7,39.1,20.9c19.8,11.8,34.8,23.1,35.2,28.6C554.1,414.6,466.3,400,466.3,400"/>
		<path class="st3" d="M517.9,370.6c-24.5-2.4-50,3.9-70.6,17.2c-8.9-7.8-16.2-17.3-20.8-26.4c15.9-8.5,34.3-12.5,52.4-11.7
			C492.1,356.1,505.9,363.4,517.9,370.6"/>
		<g class="st4">
			<g>
				<g>
					<defs>
						<rect id="SVGID_1_" x="420.6" y="331.9" width="132.5" height="74.4"/>
					</defs>
					<clipPath id="SVGID_00000093163325598812752020000010563244783795345820_">
						<use xlink:href="#SVGID_1_"  style="overflow:visible;"/>
					</clipPath>
					<path style="clip-path:url(#SVGID_00000093163325598812752020000010563244783795345820_);fill:#BB2326;" d="M546.5,390.4
						c-24,2.6-74.4-5.8-74.4-5.8c-23.6-10.1-41.6-35.5-45.1-52.8c-1.9,0.1-3.2,0.6-4,1.5c-10,11.9,11.5,53.1,43.2,66.7
						c0,0,87.7,14.7,86.8-0.8C553,397,550.5,394,546.5,390.4"/>
				</g>
			</g>
		</g>
		<path class="st6" d="M678.5,433.2c-7.1,12.2-28.5,23.2-56.3,31c-3.9,1.1-7.9,2.1-11.9,3c-32.3,7.4-70.8,10.5-105,6.5
			c-17.2-2.1-30.4-6.8-40.4-13.2c-0.2-0.2-0.5-0.3-0.7-0.5c-39.1-26-25.1-78.7,8.6-94.2c1-0.5,2.1-0.8,3.2-1.2
			c2.7-0.8,5.8-1.3,9.4-1.6c10.1-0.8,23.2,0.5,37.6,2.9h0.1c7.1,1.2,14.6,2.7,22.2,4.4c24.1,5.4,49.2,12.7,67.9,18.6
			c3.2,1,6.2,2,9,2.9c3.9,1.2,7.3,2.4,10.2,3.4c6.9,2.3,10.9,3.7,10.9,3.7s17.5-24,30.4-23.3C686.4,376.3,689,415,678.5,433.2"/>
		<path class="st7" d="M483.5,439.8c-3,5.7-6.6,11.2-11.6,15.4c-2.3,2-5,3.6-7.8,4.7c-39-26-25.1-78.7,8.6-94.2
			c1-0.5,2.1-0.8,3.2-1.2c2.7-0.8,5.8-1.3,9.4-1.6c2.5,1.8,4.6,4.3,6.1,7c3.3,5.9,4.1,12.8,4.2,19.6
			C495.9,406.9,491.7,424.4,483.5,439.8"/>
		<path class="st7" d="M622.2,464.2c-3.9,1.1-7.9,2.1-11.9,3c10.3-23.7,14.4-49.6,11.8-75.4c3.9,1.3,7.3,2.4,10.2,3.4
			C634.1,418.6,630.6,442.2,622.2,464.2"/>
		<path class="st7" d="M682.9,386.6c0.7,11.7-1.3,25.2-6.4,33.9c-15.8,27.3-103.6,48.8-173.3,40.5c-37.7-4.5-56.7-22-62.7-41.9
			c0.9,24.7,19.2,49.1,64.7,54.6c69.7,8.3,157.5-13.2,173.3-40.5C685.6,421,686.7,399.6,682.9,386.6"/>
		<path class="st6" d="M681.6,508.6c0,0-3,0.8-7.7,1.9c-4.2,1-9.7,2.1-15.9,3.2c-21.4,3.7-50.3,5.7-53.8-8.6c-0.7-2.7-0.2-5,1.2-6.9
			c3.6-5.2,13.5-7.9,24.9-9.4c21.4-2.7,48.1-0.6,48.1-0.6L681.6,508.6z"/>
		<g class="st4">
			<g>
				<g>
					<defs>
						<rect id="SVGID_00000153687566126367808990000012965136199506905785_" x="605.3" y="488.9" width="69" height="24.8"/>
					</defs>
					<clipPath id="SVGID_00000108277246475123890300000012125635912532778680_">
						<use xlink:href="#SVGID_00000153687566126367808990000012965136199506905785_"  style="overflow:visible;"/>
					</clipPath>
					<path style="clip-path:url(#SVGID_00000108277246475123890300000012125635912532778680_);fill:#BB2326;" d="M673.8,510.6
						c-4.2,1-9.7,2.1-15.9,3.2c-18.2-2.6-36-7.8-52.7-15.5c3.6-5.2,13.5-7.9,24.9-9.4c14,4.2,27.7,9.6,40.8,16.1
						c1.2,0.6,2.4,1.2,3,2.4C674.5,508.4,674.3,509.6,673.8,510.6"/>
				</g>
			</g>
		</g>
		<path class="st6" d="M613,483.3c0,0-2.7,0.8-7.2,1.8l0,0c-5.9,1.4-14.8,3.3-24.4,4.5c-20,2.7-42.7,2.8-45.8-9.8
			c-1.4-5.5,2.1-9.4,8.3-12c10.3-4.4,28.1-5.5,42.6-5.6c13,0,23.3,0.8,23.3,0.8L613,483.3z"/>
		<g class="st4">
			<g>
				<g>
					<defs>
						<rect id="SVGID_00000135652296925367367260000000023735375785861029_" x="543.8" y="462.2" width="64.9" height="27.4"/>
					</defs>
					<clipPath id="SVGID_00000039127990452812869110000012191595965021450684_">
						<use xlink:href="#SVGID_00000135652296925367367260000000023735375785861029_"  style="overflow:visible;"/>
					</clipPath>
					<path style="clip-path:url(#SVGID_00000039127990452812869110000012191595965021450684_);fill:#BB2326;" d="M608.7,482.3
						c-0.9,1-1.9,1.9-2.9,2.7l0,0c-5.9,1.4-14.8,3.3-24.4,4.5c-13.5-5.5-26.2-12.9-37.5-21.9c10.3-4.4,28.1-5.5,42.6-5.6
						C594.7,467.9,602.2,474.7,608.7,482.3"/>
				</g>
			</g>
		</g>
		<path class="st2" d="M713.9,513.6c-12.3,8.2-61.7-2.2-107.2-19.4c-12.8-4.8-25.2-10.2-36.4-15.8c-27.6-13.8-47.8-29.3-47.1-42.6
			c0.9-16.4,60.8-14.7,96-1.7c8.4,3.1,21.9,10.8,36.1,20.2c9,5.9,18.3,12.6,26.8,19.2C704.5,491.1,721.5,508.6,713.9,513.6"/>
		<path class="st3" d="M682.1,473.6c-26.6-2.7-54.1,4.8-75.4,20.6c-12.8-4.8-25.2-10.2-36.4-15.8c12.8-10,27.8-17.3,43.7-21.3
			c13.5-3.4,27.6-4.3,41.4-2.8C664.3,460.3,673.6,467,682.1,473.6"/>
		<g class="st10">
			<g>
				<g>
					<defs>
						<rect id="SVGID_00000044178886921710450340000009079502553114960277_" x="523.2" y="424" width="188.9" height="92.5"/>
					</defs>
					<clipPath id="SVGID_00000136370418240238493130000010929783174446611844_">
						<use xlink:href="#SVGID_00000044178886921710450340000009079502553114960277_"  style="overflow:visible;"/>
					</clipPath>
					<path style="clip-path:url(#SVGID_00000136370418240238493130000010929783174446611844_);fill:#2A8F81;" d="M545.8,434.5
						c0.3-5.3,6.8-8.7,16.7-10.5c-21.4-0.5-38.8,3.1-39.3,11.8c-2.1,36.9,159.1,91.5,188.9,78.7
						C658.4,509.3,544.1,465.6,545.8,434.5"/>
				</g>
			</g>
		</g>
		<path class="st12" d="M450.8,360.2c-0.7-4.7-1.7-9.5-4.3-13.6s-7.3-7.3-12.2-7.1c-5,0.2-9.2,3.7-11.2,8s-2.3,9.2-2,14
			c0.8,17.3,6.8,34.6,17.1,49.1l10-3C450.2,394.1,452.7,373.8,450.8,360.2"/>
		<path class="st12" d="M470.3,456.4c1.2,4.6,2.2,9.5,1.3,14.1c-0.9,4.7-3.9,9.2-8.6,10.6c-4.7,1.4-10.1-0.6-13.7-4
			c-3.6-3.4-5.7-7.9-7.4-12.4c-6.1-16.5-7.3-34.5-3.3-51.3l10.6-0.4C456.4,424.9,466.8,443.2,470.3,456.4"/>
		<path class="st12" d="M413.1,398.9c-3.2,0.8-6.5,2-9.3,5.2c-2.9,3.2-5.3,8.7-5.4,14.6c-0.2,5.9,2,10.9,4.8,13.3
			c2.8,2.4,6,2.6,9.2,2.3c11.6-1,23.5-8.3,33.7-20.6l-1.5-11.9C435.7,399.4,422.3,396.5,413.1,398.9"/>
		<path class="st12" d="M475.4,372.8c3.5-1.7,7.1-3.2,10.3-2.3c3.2,0.9,6,4.5,6.4,10.3s-1.7,12.7-4.6,17.3c-2.9,4.7-6.4,7.6-9.9,9.9
			c-12.6,8.4-25.6,10.7-37.2,6.5l1.1-13.2C451,391.7,465.4,377.8,475.4,372.8"/>
		<path class="st13" d="M447.7,425.7c-5.2,1.1-17.6-6.4-22.9-14.2c-2-2.9-2.9-5.8-2.2-8.3c2-7.1,16.6-13,25.1-12.6
			c2.5,0.1,4.5,0.8,5.5,2.2C457.5,399.3,452.9,424.6,447.7,425.7"/>
		<g>
			<g>
				<g>
					<defs>
						<rect id="SVGID_00000016767195350644938830000000780502627909337509_" x="424.8" y="390.6" width="30" height="35.3"/>
					</defs>
					<clipPath id="SVGID_00000036968153647890590130000003344780310834884286_">
						<use xlink:href="#SVGID_00000016767195350644938830000000780502627909337509_"  style="overflow:visible;"/>
					</clipPath>
					<path style="clip-path:url(#SVGID_00000036968153647890590130000003344780310834884286_);fill:#E6BAD0;" d="M447.7,425.7
						c-5.2,1.1-17.6-6.4-22.9-14.2c3,0.7,6.1,0.6,9-0.2c4.7-1.2,8.9-4.4,11.4-8.6c2.2-3.6,3-8,2.4-12.2c2.5,0.1,4.5,0.8,5.5,2.2
						C457.5,399.3,452.9,424.6,447.7,425.7"/>
				</g>
			</g>
		</g>
		<path class="st15" d="M583.7,418.6c-0.1,0-0.3,0-0.4-0.1c-0.3,0-0.6-0.1-0.9-0.2c-0.1,0-0.2-0.1-0.3-0.1c-0.7-0.1-1.3-0.3-2-0.5
			c-0.9-0.2-1.7-0.4-2.6-0.7c-0.7-0.2-1.3-0.4-2-0.6c-24.4-8.2-54.2-33.2-52.6-50c0-0.2,0-0.4,0.1-0.6l0,0l0,0
			c0.8,0.2,10,1.9,22.2,4.4c24.1,5.4,49.2,12.8,68,18.6C617.4,395.7,609.3,423,583.7,418.6"/>
		<path class="st12" d="M583.7,418.6c-0.1,0-0.3,0-0.4-0.1c-0.3,0-0.6-0.1-0.9-0.2c-0.1,0-0.2-0.1-0.3-0.1c-2.1-0.5-4.3-1.1-6.6-1.8
			c-24.4-8.2-54.2-33.2-52.6-50c0-0.2,0.1-0.4,0.1-0.6c8.6-16.9,38-42.3,62.3-33.5c28.5,10.4,27.8,56.5,27.8,56.5
			C617.4,395.7,609.3,423,583.7,418.6"/>
		<g class="st16">
			<g>
				<g>
					<defs>
						<rect id="SVGID_00000096740621022583318050000017995231512056725672_" x="545.4" y="340.1" width="25.3" height="22.3"/>
					</defs>
					<clipPath id="SVGID_00000021094941414898341180000006413128558188156585_">
						<use xlink:href="#SVGID_00000096740621022583318050000017995231512056725672_"  style="overflow:visible;"/>
					</clipPath>
					<path style="clip-path:url(#SVGID_00000021094941414898341180000006413128558188156585_);fill:#FFB3D5;" d="M547.4,350.8
						c-1.3,1.8-2.3,4-2,6.1c0.3,2.3,2.3,4.2,4.5,5c4.3,1.5,9.5-0.5,13-3.1c4.8-3.7,9.2-10.4,7.3-16.6c-1-3.3-5.5-2-7.9-1.4
						c-3.2,0.8-6.2,2.1-8.8,4C551.1,346.5,549,348.5,547.4,350.8"/>
				</g>
			</g>
		</g>
		<path class="st2" d="M660.4,398.3c-2.3-0.6-4.8-1-7.2-0.4c-2.9,0.8-5.2,3.1-5.9,6s0.3,6.1,2.4,8c2.2,2,5.4,2.7,8.4,3
			c3.5,0.4,7,0.4,10.4,0c2.3-0.3,4.7-0.7,6.6-2c1.5-1.1,2.7-2.8,2.7-4.7c0-2-2.8-3.3-4.3-4.2C669.5,401.5,665.1,399.5,660.4,398.3"
			/>
		<path class="st2" d="M690.4,406.6c1.5,0.2,3.1,0.6,4.3,1.6c1.5,1.3,2.4,3.6,2.1,5.7c-0.2,2.2-1.6,4.1-3.3,4.9
			c-1.8,0.8-3.8,0.5-5.7-0.1c-2.1-0.7-4.2-1.6-6.2-2.8c-1.3-0.8-2.6-1.7-3.4-3.1c-0.7-1.1-1-2.7-0.5-4c0.4-1.4,2.4-1.5,3.6-1.8
			C684.3,406.4,687.3,406.2,690.4,406.6"/>
		<path class="st13" d="M677.2,403.2c-4.1-0.5-9.3,11.8-6.1,14.6s10.9,0.3,12.8-3.7C685.8,410.1,681.8,403.8,677.2,403.2"/>
		<path class="st18" d="M299.7,766.8c0,0,46,45.3,14.4,94.7c-26,40.8-74.5,59.5-74.5,59.5s17.3,24.3,11.5,19.9
			c-5.9-4.4-21.6-38.7-21.6-38.7s63.5-49.6,25.7-100.5L299.7,766.8z"/>
		<path class="st13" d="M237.4,895.1l17.8,21.7l-4.7,3.7c0,0,9.5,18.6,3.5,26.8l-32.8-37.6L237.4,895.1z"/>
		<path class="st19" d="M254.2,919.5c0.2-0.1,0.3-0.2,0.4-0.4c0.2-0.5,0-1.1-0.4-1.3l-7.9-3.8c-0.5-0.2-1.1,0-1.3,0.4
			c-0.2,0.5,0,1.1,0.5,1.3l7.9,3.8C253.5,919.7,253.9,919.7,254.2,919.5"/>
		<path class="st19" d="M253.2,923c0.2-0.1,0.4-0.4,0.4-0.6c0.1-0.5-0.2-1-0.8-1.1l-9.3-1.9c-0.5-0.1-1,0.2-1.2,0.7
			c-0.1,0.5,0.2,1,0.8,1.1l9.3,1.9C252.8,923.1,253,923.1,253.2,923"/>
		<path class="st19" d="M253.8,927.6c0.3-0.2,0.5-0.5,0.5-0.9c0-0.5-0.5-0.9-1.1-0.9l-7.6,0.6c-0.5,0-0.9,0.5-0.9,1s0.5,0.9,1,0.9
			l7.6-0.6C253.5,927.7,253.6,927.7,253.8,927.6"/>
		<path class="st18" d="M219.3,758.1c0,0-3.4,38.4-32.3,77.2s-86.7,63.9-86.7,63.9s18.5,23.5,12.4,19.4s-27.4-26.9-27.4-26.9
			s70.7-86.8,74.2-121.5L219.3,758.1z"/>
		<path class="st2" d="M149.6,750c0,0-8.9,57.5-17.5,69.4c0,0,46.3,23.4,64.5,23.9c0,0,26.9-17.1,31.5-58.7c0,0,9.6,28.9,21,63.6
			c0,0,49.8-17.8,81.9-26.4c0,0-13.5-65.5-31.5-82C299.6,739.8,209,755.3,149.6,750"/>
		<path class="st13" d="M97,873.4l18.8,20.8l-4.6,3.9c0,0,10.4,18.1,4.7,26.6l-34.6-36L97,873.4z"/>
		<path class="st19" d="M114.8,897.1c0.2-0.1,0.3-0.2,0.4-0.4c0.2-0.5,0-1.1-0.5-1.3l-8-3.4c-0.5-0.2-1.1,0-1.3,0.5
			c-0.2,0.5,0,1.1,0.5,1.3l8,3.4C114.2,897.3,114.5,897.3,114.8,897.1"/>
		<path class="st19" d="M114,900.6c0.2-0.1,0.4-0.4,0.5-0.7c0.1-0.5-0.3-1-0.8-1.1l-9.4-1.5c-0.5-0.1-1,0.3-1.1,0.8s0.3,1,0.8,1.1
			l9.4,1.5C113.6,900.7,113.8,900.7,114,900.6"/>
		<path class="st19" d="M114.8,905.2c0.3-0.2,0.5-0.6,0.5-0.9c-0.1-0.5-0.6-0.9-1.1-0.8l-7.6,0.9c-0.5,0.1-0.9,0.5-0.9,1.1
			c0.1,0.5,0.6,0.9,1.1,0.8l7.6-0.9C114.5,905.3,114.7,905.3,114.8,905.2"/>
		<path class="st13" d="M142.4,820.8c0.1-0.1,0.2-0.2,0.3-0.3c10.9-15.8,13.7-35.4,13.8-35.6c0.1-0.5-0.3-1-0.8-1.1s-1,0.3-1.1,0.8
			c0,0.2-2.8,19.3-13.4,34.7c-0.3,0.4-0.2,1,0.3,1.3C141.7,820.9,142.1,820.9,142.4,820.8"/>
		<path class="st13" d="M197.5,839.1c0.2-0.1,0.4-0.3,0.4-0.5c0.2-0.5-0.1-1.1-0.6-1.2c-0.3-0.1-29.6-9.1-57.4-22.3
			c-0.5-0.2-1.1,0-1.3,0.4c-0.2,0.5,0,1.1,0.5,1.3c27.9,13.4,57.4,22.4,57.7,22.5C197,839.3,197.3,839.3,197.5,839.1"/>
		<path class="st13" d="M324.5,813.6c0.4-0.2,0.6-0.8,0.4-1.2c-0.2-0.5-0.8-0.7-1.3-0.5c-0.4,0.2-40.4,17.5-72.3,23.5
			c-0.5,0.1-0.9,0.6-0.8,1.1s0.6,0.9,1.1,0.8c32.1-6.1,72.3-23.5,72.7-23.6C324.4,813.6,324.5,813.6,324.5,813.6"/>
		<path class="st13" d="M321.2,825.5c0.3-0.2,0.5-0.4,0.5-0.8c0.5-12-14.3-50.6-14.9-52.3c-0.2-0.5-0.8-0.8-1.3-0.6
			s-0.8,0.7-0.6,1.2c0.2,0.4,15.3,39.9,14.8,51.5c0,0.5,0.4,1,0.9,1C320.9,825.7,321.1,825.6,321.2,825.5"/>
		<path class="st20" d="M262.6,592.6c0,0,50.6,113.5,59.6,173.1c0,0-96.1,52.3-185.6,11.9c0,0,7.5-69,2.5-176.2
			C139.7,601.4,177.6,594.9,262.6,592.6"/>
		<path class="st18" d="M40.1,691.2c0,0,4.1,19.4,1.6,20.4c-2.4,1-8.2-14.3-8.2-14.3s-3.1,26.9-7,26s-3.1-20.4-3.1-20.4
			S13.2,727.3,11.2,724c-2-3.3,3.9-24,3.9-24S4.6,717,0.6,712.7s13.7-20.6,13.7-20.6s-10.5,7.8-13,3.5s18.6-14.3,18.6-14.3
			s10.3-82.9,123.4-79.7l5.8,53C149.1,654.6,57.3,650.2,40.1,691.2"/>
		<path class="st18" d="M385.5,527.5c0,0-7.7-18.3-5.5-19.8s10.8,12.6,10.8,12.6s-2.1-27,1.9-26.8s7,19.5,7,19.5s5.4-25.9,8-23
			s0.7,24.3,0.7,24.3s7-18.6,11.8-15.1s-9.5,22.8-9.5,22.8s8.8-9.6,12.1-5.9c3.3,3.7-15.6,17.5-15.6,17.5s5.7,83.3-106,101.2
			l-15.8-51C285.4,583.8,376.4,570.9,385.5,527.5"/>
		<path class="st13" d="M397.2,528.8c0.2-0.1,0.4-0.4,0.5-0.7c0-0.2,0.8-5.4-6.5-8.7c-0.5-0.2-1.1,0-1.3,0.5s0,1.1,0.5,1.3
			c5.9,2.7,5.4,6.5,5.4,6.7c-0.1,0.5,0.3,1,0.8,1.1C396.8,529,397.1,528.9,397.2,528.8"/>
		<path class="st20" d="M166.5,597.5c0,0-63.6,3.8-81.7,11.8c0,0,7.1,48.7,14.6,62.9c0,0,52.6,0.9,66.1,1
			C165.5,673.2,175.3,611.2,166.5,597.5"/>
		<path class="st20" d="M252.9,664.7c0,0,57.2-17.5,73.1-29.2c0,0-17.6-46.1-28-58.3c0,0-55.3,13.2-68.5,16
			C229.6,593.2,241.3,653.2,252.9,664.7"/>
		<g class="st4">
			<g>
				<g>
					<defs>
						<rect id="SVGID_00000119085097101779405990000016601286651163314099_" x="145.4" y="715.9" width="167.8" height="67.3"/>
					</defs>
					<clipPath id="SVGID_00000101070740602364815240000015072083870130472864_">
						<use xlink:href="#SVGID_00000119085097101779405990000016601286651163314099_"  style="overflow:visible;"/>
					</clipPath>
					<path style="clip-path:url(#SVGID_00000101070740602364815240000015072083870130472864_);fill:#BB2326;" d="M300,728.1
						c0,0-87.9,38.7-143.9-12.3l-10.7,57.8c0,0,86.5,30.7,167.8-18.2L300,728.1z"/>
				</g>
			</g>
		</g>
		<path class="st13" d="M95.3,456.7c0,0,9.7-47.1-18.1-52.1c-27.8-5-21.4,17.8-21.4,17.8s1.4-27.2-19.7-10.4s-4.7,26.9-4.7,26.9
			s-10.3-26-24.8,1.6s10.5,35.7,10.5,35.7S1.4,463,4.2,490.8c2.9,27.7,33.1,10.3,33.1,10.3s-27.9,14.4,6.1,28.7s25-22.3,25-22.3
			S52,531.2,88.7,523.1c36.7-8.1,15.1-38.5,15.1-38.5s16.7,31.3,25.7-3.5C138.7,446.2,106,426,95.3,456.7"/>
		<path class="st13" d="M250.5,433c0,0,12.1,46.6,39.3,39.1c27.2-7.4,11.4-25.3,11.4-25.3s10.7,25.1,22.3,0.9
			c11.5-24.2-7.6-26.3-7.6-26.3s20.7,19,21.6-12.1c0.9-31.1-25.2-27.6-25.2-27.6s19.9,5.1,5.1-18.6c-14.8-23.7-34.3,5-34.3,5
			s18.8-24.9-18.1-23.2c-36.9,1.7-12.7,30.9-12.7,30.9s4.3-28.4-25.1-5.3c-29.5,23.1,3.4,41.2,3.4,41.2s-28.8-21-21.6,14.2
			C216.1,461.2,254.4,465.3,250.5,433"/>
		<path class="st13" d="M191.1,406.5c0,0,5,7.9-3.1,40c-6.7,26.6-49.9,60.2-68.5,57.9C110.4,503.3,82.8,410.6,191.1,406.5"/>
		<path class="st13" d="M141.4,667c0.4-0.2,0.5-0.6,0.4-1.1c-6-24.1,3.6-54.1,3.7-54.4c0.2-0.5-0.1-1.1-0.6-1.2
			c-0.5-0.2-1.1,0.1-1.2,0.6c-0.1,0.3-9.8,30.8-3.7,55.5c0.1,0.5,0.7,0.8,1.2,0.7C141.2,667.1,141.3,667.1,141.4,667"/>
		<path class="st13" d="M221.3,624.3c10.6-6.4,15.4-15.9,15.5-16c0.2-0.5,0-1.1-0.5-1.3s-1.1,0-1.3,0.4c-0.1,0.2-9.4,18.7-31.2,20.5
			c-21.8,1.8-34.2-17.8-34.4-18c-0.3-0.5-0.8-0.6-1.3-0.3s-0.6,0.9-0.3,1.3c0.1,0.2,13.2,20.8,36.2,18.9
			C211,629.3,216.7,627.1,221.3,624.3"/>
		<path class="st13" d="M284.4,648.1c0.4-0.2,0.6-0.7,0.4-1.2c-15.6-37.6-33.1-52.8-33.3-52.9c-0.4-0.3-1-0.3-1.4,0.1
			c-0.4,0.4-0.3,1,0.1,1.4c0.2,0.1,17.4,15,32.8,52.2c0.2,0.5,0.8,0.7,1.3,0.5C284.3,648.1,284.4,648.1,284.4,648.1"/>
		<path class="st13" d="M272.8,447.9c0,0-11.1-65.3-91.7-66.9s-110.3,53.7-100,114.9c12.6,74.5,84.3,96.4,151.5,66.7
			S272.8,447.9,272.8,447.9"/>
		<path class="st18" d="M108.8,493.2c0,0,10.1-84.4,96.1-80.4c55.4,2.6,111.2,85.7,50.1,145.2C207.2,604.6,105.6,564.3,108.8,493.2"
			/>
		<path class="st18" d="M177.5,558.7l2.2,37.1l-13.2,1.8c0,0,18.3,32.1,46.7,18.9c22.5-10.4,16.4-23.2,16.4-23.2l-12.6,0.8
			L206.8,562L177.5,558.7z"/>
		<path class="st13" d="M227.4,534.8c10-6,9.9-19.5,9.9-20.1c0-0.5-0.5-1-1-1s-1,0.5-1,1c0,0.1,0.1,14.2-10.4,19.2
			c-2,1-4.1,1.1-6.2,0.3c-7.2-2.6-12.6-14.2-12.6-14.3c-0.2-0.5-0.8-0.7-1.3-0.5s-0.7,0.8-0.5,1.3s5.7,12.5,13.8,15.4
			c2.6,0.9,5.2,0.8,7.7-0.4C226.3,535.3,226.9,535.1,227.4,534.8"/>
		<path class="st22" d="M186,520.3c5.1,8,2.6,18.6-5.5,23.7c-8.1,5-18.9,2.6-24-5.5c-5.1-8-2.6-18.6,5.5-23.7
			C170.2,509.8,180.9,512.3,186,520.3"/>
		<path class="st22" d="M272.3,497.6c5.1,8,2.6,18.6-5.5,23.7c-8.1,5-18.9,2.6-24-5.5c-5.1-8-2.6-18.6,5.5-23.7
			C256.5,487.1,267.2,489.6,272.3,497.6"/>
		<path class="st13" d="M189.8,493.9c2.6,4.1,1.3,9.4-2.8,12c-4.1,2.5-9.6,1.3-12.1-2.8c-2.6-4.1-1.3-9.4,2.8-12
			C181.8,488.6,187.3,489.8,189.8,493.9"/>
		<path class="st13" d="M249,476.7c2.6,4.1,1.3,9.4-2.8,12c-4.1,2.5-9.6,1.3-12.1-2.8s-1.3-9.4,2.8-12
			C240.9,471.4,246.4,472.6,249,476.7"/>
		<path class="st22" d="M211.7,577.5c0,0-18.7,1.4-33.9-2.7l1.5,13.6l35.3-1.8L211.7,577.5z"/>
		<path class="st18" d="M144.7,541.8c0,0-25.7-30-33.9-3.6c-10.3,32.7,22.8,35.4,35.9,29.4C159.8,561.7,144.7,541.8,144.7,541.8"/>
		<path class="st13" d="M224.1,517.6c0.1-0.1,0.3-0.2,0.4-0.4l8.7-16.6c0.2-0.4,0.1-0.8-0.2-1.1c-0.3-0.3-0.7-0.4-1.1-0.2l-12.5,6
			l-5.7-14.6c-0.2-0.5-0.8-0.7-1.3-0.5s-0.8,0.8-0.6,1.3l6.1,15.5c0.1,0.2,0.3,0.4,0.6,0.5c0.3,0.1,0.5,0.1,0.8,0l10.8-5.2l-7.3,14
			c-0.2,0.5-0.1,1.1,0.4,1.3C223.4,517.8,223.8,517.8,224.1,517.6"/>
		<path class="st13" d="M128.1,479.3c0,0-8.4,28.6,5.8,61.7c3.6,8.5-45.4-33.5-38.8-51.4C101,473.8,111.1,456.8,128.1,479.3"/>
		<path class="st13" d="M184.5,399.1c0,0,5,7.9-3.1,40c-6.7,26.6-49.9,60.2-68.5,57.9C103.8,495.9,76.2,403.2,184.5,399.1"/>
		<path class="st13" d="M184.5,399.1c0,0-6,6.4,11.2,26.6c17.2,20.2,63.2,35.2,75.3,30.3C283.2,451,250.4,374.7,184.5,399.1"/>
		<path class="st13" d="M142.6,555.8c0.1-0.1,0.2-0.1,0.3-0.2c0.3-0.4,0.2-1-0.2-1.4c-19.2-14.2-25.2-9-25.8-8.4
			c-0.4,0.4-0.4,1,0,1.4s1,0.4,1.4,0c0.1-0.1,5.4-4.5,23.2,8.6C141.8,556,142.3,556,142.6,555.8"/>
		<g>
			<path class="st23" d="M672.4,799.5c-19.4,33.4-57.6,47.7-85.4,31.9c-27.8-15.7-34.7-55.6-15.3-89s57.6-47.7,85.4-31.9
				C684.9,726.3,691.8,766.2,672.4,799.5"/>
			<g class="st24">
				<g>
					<g>
						<defs>
							<rect id="SVGID_00000021814500432153445490000008558063177184857762_" x="560.7" y="704.3" width="84.9" height="133.6"/>
						</defs>
						<clipPath id="SVGID_00000067194114323843503010000004870781587461042343_">
							<use xlink:href="#SVGID_00000021814500432153445490000008558063177184857762_"  style="overflow:visible;"/>
						</clipPath>
						<path style="clip-path:url(#SVGID_00000067194114323843503010000004870781587461042343_);fill:#2E1F22;" d="M645.2,827.9
							c-18.6,11.5-40.5,13.6-58.2,3.6c-27.8-15.8-34.7-55.6-15.3-89c13.2-22.8,35.3-36.7,56.8-38.2l17.1,7.4c0,0-40.5,17-46.6,75.8
							C593.8,837.4,633.2,831,645.2,827.9"/>
					</g>
				</g>
			</g>
			<path class="st26" d="M672.3,800.8C658,825.4,635,839,621,831.1s-13.7-34.3,0.6-59s37.2-38.2,51.2-30.3
				C686.8,749.7,686.6,776.1,672.3,800.8"/>
			<path class="st12" d="M630,820.1c-1.4,0-2.1-0.4-2.3-0.5c-4.8-2.7-6.4-20.4,5.5-41c9.8-16.8,23.1-25.9,30.6-25.9
				c1.4,0,2.1,0.4,2.3,0.5c2.2,1.3,3.7,5.8,3.6,11.6c-0.1,8.8-3.4,19.5-9.1,29.3C650.9,811,637.6,820.1,630,820.1"/>
			<g class="st4">
				<g>
					<g>
						<defs>
							<rect id="SVGID_00000122706248199565457230000009419966190484014754_" x="632.1" y="752.7" width="37.7" height="58.4"/>
						</defs>
						<clipPath id="SVGID_00000030471754329768536180000001590206369106416548_">
							<use xlink:href="#SVGID_00000122706248199565457230000009419966190484014754_"  style="overflow:visible;"/>
						</clipPath>
						<path style="clip-path:url(#SVGID_00000030471754329768536180000001590206369106416548_);fill:#BB2326;" d="M669.8,764.9
							c-0.1,8.8-3.4,19.5-9.1,29.3c-4.1,7-8.8,12.7-13.4,16.9c5-9.3,8-19.2,8-27.4c0.1-5.8-1.4-10.4-3.6-11.6
							c-0.2-0.1-0.9-0.5-2.3-0.5c-4.4,0-10.8,3.1-17.3,9c0.3-0.6,0.7-1.3,1.1-2c9.8-16.8,23.1-25.9,30.6-25.9c1.4,0,2.1,0.4,2.3,0.5
							C668.4,754.5,669.9,759.1,669.8,764.9"/>
					</g>
				</g>
			</g>
			<path class="st6" d="M656,757c-0.1,8.8-3.4,19.5-9.1,29.3c-6.9,11.9-15.6,20-22.8,23.6c-0.3-7.6,2-18.9,9.1-31.3
				c6.9-11.9,15.6-19.9,22.7-23.6C656,755.7,656,756.3,656,757"/>
			<path class="st23" d="M561,873.9c-18,31-52.8,44.5-77.9,30.3c-25.1-14.2-30.8-50.8-12.9-81.7c18-31,52.8-44.5,77.9-30.3
				S578.9,843,561,873.9"/>
			<g class="st24">
				<g>
					<g>
						<defs>
							<rect id="SVGID_00000046337798312698029670000000869302029642369679_" x="459.7" y="788.8" width="76.9" height="121.1"/>
						</defs>
						<clipPath id="SVGID_00000134230730384286693870000017177070594974876602_">
							<use xlink:href="#SVGID_00000046337798312698029670000000869302029642369679_"  style="overflow:visible;"/>
						</clipPath>
						<path style="clip-path:url(#SVGID_00000134230730384286693870000017177070594974876602_);fill:#2E1F22;" d="M489,888.1
							c2.4,13.7,10.4,20,21.5,21.5c-9.6,1.1-19-0.6-27.4-5.3c-25.1-14.2-30.8-50.8-12.9-81.7c10-17.2,25.2-29.1,41.1-33.8l25.4,6.7
							C536.7,795.5,477.7,824.4,489,888.1"/>
					</g>
				</g>
			</g>
			<path class="st26" d="M561,874c-12.8,22.1-34.1,33.8-47.5,26.2c-13.4-7.6-13.9-31.7-1.1-53.8c12.8-22.1,34.1-33.8,47.5-26.2
				C573.3,827.8,573.8,851.9,561,874"/>
			<path class="st12" d="M522.7,889.3c-1,0-1.9-0.2-2.5-0.6c-2.2-1.2-3.6-5.2-3.7-10.3c-0.2-7.7,2.6-17,7.5-25.5
				c8.2-14.2,19.9-21.9,26.7-21.9c1,0,1.9,0.2,2.5,0.6c4.5,2.5,6.4,18-3.8,35.7C541.2,881.6,529.5,889.3,522.7,889.3"/>
			<g class="st4">
				<g>
					<g>
						<defs>
							<rect id="SVGID_00000041259251730383669850000015705400233956837769_" x="522" y="831.1" width="34.9" height="51.4"/>
						</defs>
						<clipPath id="SVGID_00000010998385929071372950000014508298804605090978_">
							<use xlink:href="#SVGID_00000041259251730383669850000015705400233956837769_"  style="overflow:visible;"/>
						</clipPath>
						<path style="clip-path:url(#SVGID_00000010998385929071372950000014508298804605090978_);fill:#BB2326;" d="M549.4,867.4
							c-3.7,6.4-8.1,11.5-12.5,15.1c8-16.1,6-29.6,1.8-32c-0.7-0.4-1.5-0.6-2.5-0.6c-3.7,0-8.9,2.3-14.2,6.8c0.6-1.3,1.3-2.5,2-3.7
							c8.2-14.2,19.9-21.9,26.7-21.9c1,0,1.9,0.2,2.5,0.6C557.7,834.2,559.7,849.7,549.4,867.4"/>
					</g>
				</g>
			</g>
			<path class="st6" d="M535.6,859.5c-5.6,9.7-12.9,16.4-19.1,19.6c0-0.2,0-0.4,0-0.6c-0.2-7.7,2.6-17,7.5-25.5
				c5.6-9.7,12.9-16.4,19.1-19.6C543.3,840,541.4,849.4,535.6,859.5"/>
			<path class="st12" d="M578.7,796.2L550,777.6c0,0,0-70.3,51-90.3c52.8-20.7,74.6,33.5,74.6,33.5S613.2,668.7,578.7,796.2"/>
			<path class="st2" d="M601.8,739.4c-8.3,13.1-16.3,31.5-23.1,56.8L550,777.6c0,0,0-29.6,13.9-55.8
				C571.5,730.1,583.4,737,601.8,739.4"/>
			<polygon class="st30" points="578.7,796.2 566.1,803.8 541.2,785.6 550,777.6 			"/>
			<path class="st26" d="M568.6,811.1l15.9-9c0,0,0.2-46.2,35.7-78.9c31.8-29.3,56.8,4.1,60,16.3c0,0-0.7-21.2-15.4-31.7
				c-24.4-17.4-68.2,13.1-79.9,49.3c-6.5,20.2-6.2,39.2-6.2,39.2l-12.5,7.5L568.6,811.1z"/>
			<polygon class="st7" points="568.6,544.1 568.6,674 527.5,695.6 399.2,637.3 398.6,612 441.2,588.7 466.7,595.1 			"/>
			<polygon class="st31" points="559.9,759.7 441.2,702.7 441.2,634.6 559.9,689.2 			"/>
			<polygon class="st32" points="441.2,671.7 559.9,726.1 559.9,679.9 526.3,673.7 441.2,634.6 			"/>
			<path class="st32" d="M677.7,620.9l-16.6,65.5l-10.6,3.3c0,0-63.1-15.6-90.6,69.9v-79.7l24,11.2L677.7,620.9z"/>
			<polygon class="st6" points="370.1,630.7 527.5,707.3 527.5,687.2 370.1,613.1 			"/>
			<polygon class="st6" points="527.5,707.3 566.1,685.8 583.9,691.1 693.6,609 693.6,593.4 590.6,664 578.7,659.2 527.5,687.2 			
				"/>
			<polygon class="st31" points="370.1,613.1 432,583 458.3,589.7 559.9,540.9 568.6,544.1 466.7,595.1 441.2,588.7 398.6,612 
				526.3,673.7 563.8,652.9 578.7,659.2 527.5,687.2 			"/>
			<polygon class="st31" points="693.6,593.4 682.4,587.6 578.7,659.2 590.6,664 			"/>
			<polygon class="st6" points="568.6,556.9 673.1,594 663.4,600.7 558.7,562.3 			"/>
			<polygon class="st7" points="558.7,562.3 558.7,655.1 563.8,652.9 578.7,659.2 663.4,600.7 			"/>
			<polygon class="st13" points="512.7,667.2 558.7,640.3 588.4,652.5 578.7,659.2 563.8,652.9 526.3,673.7 			"/>
			<path class="st6" d="M461.1,903.1l13.2-6.9c0,0-6.1-9.2-4.8-27.7l-18.3,3.9C451.2,872.4,439.5,890.7,461.1,903.1"/>
			<path class="st7" d="M334.5,811.1v11.1c0,0,14.5,41.7,126.6,80.9c0,0-9.5-9.6-9.9-30.7L334.5,811.1z"/>
			<path class="st12" d="M329.5,800.6v2.3c0,4.6,1.7,9,4.8,12.4c10.6,11.8,39.6,39.2,96.7,60.4c9.1,3.4,18.9,4.4,28.4,2.6
				c9.9-1.9,19.3-6.7,15-18.6L329.5,800.6z"/>
			<polygon class="st13" points="441.2,733.8 545,780.6 481.3,821.4 391,766.5 			"/>
			<g class="st4">
				<g>
					<g>
						<defs>
							<rect id="SVGID_00000150081036556423302430000008819177230233683089_" x="437.7" y="858" width="37.8" height="21.2"/>
						</defs>
						<clipPath id="SVGID_00000091729129483716218390000012493273660426318777_">
							<use xlink:href="#SVGID_00000150081036556423302430000008819177230233683089_"  style="overflow:visible;"/>
						</clipPath>
						<path style="clip-path:url(#SVGID_00000091729129483716218390000012493273660426318777_);fill:#BB2326;" d="M459.4,878.3
							c-7.2,1.4-14.6,1.1-21.7-0.6c17.9-0.2,13-7.6,13-7.6c7.5-5.2,13.9-9.2,19.5-12.2l4.2,1.7C478.6,871.6,469.2,876.4,459.4,878.3
							"/>
					</g>
				</g>
			</g>
			<polygon class="st7" points="441.2,671.7 545,725.2 545,780.6 441.2,733.8 			"/>
			<polygon class="st6" points="391,707.7 441.2,671.7 441.2,733.8 391,766.5 			"/>
			<path class="st31" d="M344.7,783.7l129.6,76c0,0-7.7,14.8-36.7,9.2c-29-5.7-97.6-48.5-107.4-64.9
				C325.4,795.7,344.7,783.7,344.7,783.7"/>
			<polygon class="st2" points="351,750.2 344.7,748 344.7,783.7 351,790.3 			"/>
			<path class="st19" d="M346.4,769.7l0.1,3.4c0.1,4.9,2.1,9.4,4.7,11.1c3.7,2.3,7.3-1.9,7.3-8.8v-3.3c0-4.7-1.6-9.3-4.1-11.3
				l-0.1-0.1C350.3,757.4,346.2,762.1,346.4,769.7"/>
			<path class="st2" d="M351,750.2l86.7,45.9v54.8c-40.4-10-71.1-25.7-86.7-50.3V750.2z"/>
			<polygon class="st26" points="437.6,796.1 545,725.2 556.4,775.1 437.6,850.9 			"/>
			<polygon class="st12" points="344.7,748 374.3,725.4 351,750.2 			"/>
			<path class="st12" d="M448.9,805.7l32.4,17.3c20.7-21.5,46.1-37,75.1-48l-15.2-23.2C509.3,758.5,478.7,777.7,448.9,805.7"/>
			<polygon class="st2" points="448.9,805.7 443.7,847.1 474.4,859.7 481.3,823 			"/>
			<path class="st19" d="M450.3,830.7l-0.6,3.4c-0.8,4.9,1.8,9.7,6.4,11.8c6.5,2.9,14-0.7,15.6-7.6l0.7-3.3c1.1-4.7-1-9.5-5.2-12
				l-0.2-0.1C460.2,819,451.5,823,450.3,830.7"/>
			<path class="st2" d="M474.4,859.7c0,0,13-47.5,48.7-59.1c30.7-9.9,36.2,5.1,43,11.3l2.5-0.8l-12.2-36
				c-28.9,9.5-54.3,24.9-75.1,48L474.4,859.7z"/>
			<path class="st12" d="M545,725.2l-103.8-53.6l-50.3,36l-40,42.5c18.3,26.8,47.2,42.1,86.7,45.9l61.6-40.6l0,0L545,725.2z
				 M483.8,753.6c-59.3-8.5-81.3-28.6-89-39.2l46.5-34.5l86.3,46.2L483.8,753.6"/>
			<path class="st2" d="M392.8,712.5c-0.2,0-0.5,0-0.7-0.1c-1.2-0.4-1.9-1.7-1.5-2.9l9.7-29.3c0.2-0.6,0.7-1.1,1.2-1.4l32.6-15
				c1.1-0.5,2.4-0.1,3,0.9l6.2,10.4c0.7,1.1,0.3,2.5-0.8,3.2s-2.6,0.3-3.2-0.8l-5.1-8.6l-29.8,13.7l-9.4,28.3
				C394.7,711.8,393.8,712.5,392.8,712.5"/>
			<path class="st12" d="M437.5,663.7l90.1,43.2l-37.1,13.2c-43.1-4.3-73.7-16.5-88.1-38.9L437.5,663.7z"/>
			<path class="st2" d="M481.3,763.8c-0.2,0-0.3,0-0.5-0.1c-1.3-0.3-2.1-1.5-1.8-2.8l9-41.3c0.2-0.8,0.8-1.5,1.7-1.8l37.8-10.7
				c1-0.3,2,1.2,2.6,2.1l8.4,14.7c0.7,1.1,0.3,2.5-0.9,3.2c-1.1,0.6-2.6,0.3-3.2-0.8l-8-13.6l-34,9.3l-8.7,39.9
				C483.4,763.1,482.4,763.8,481.3,763.8"/>
			<path class="st26" d="M429,839.8c-34.1-9.8-56.9-21-69.3-39.2V770c17.6,16.2,40.8,29.7,69.3,33.7V839.8z"/>
			<path class="st12" d="M429,828.4v11.4c-34.1-9.8-56.8-21-69.3-39.2l8.1-4.3L429,828.4z"/>
			<path class="st13" d="M429,803.7v24.7c-22.5-4.9-50.2-16-61.2-32.1V777C384.2,790,404.7,800.3,429,803.7"/>
		</g>
	</g>
	<polygon class="st12" points="567.4,525.7 573.9,510.4 582.1,526.8 597.9,527.8 584.4,537.2 588.6,552.8 574.1,544.2 558.1,552.2 
		564.4,535.9 550.9,528.3 	"/>
	<polygon class="st12" points="556.9,458.4 571,449.4 568.5,467.5 581,477 564.5,477.4 559.1,492.6 552,477.5 534.2,475.3 
		548.6,465.2 541.8,451.5 	"/>
	<polygon class="st12" points="630.9,157 649.1,166.7 644.2,176.1 623.2,161.7 	"/>
	<polygon class="st12" points="446.8,392.1 465,401.8 460.1,411.2 439.2,396.8 	"/>
</g>
</svg>
