<?xml version="1.0" encoding="utf-8"?>
<!-- Generator: Adobe Illustrator 26.0.0, SVG Export Plug-In . SVG Version: 6.00 Build 0)  -->
<svg version="1.1" id="Layer_1" xmlns="http://www.w3.org/2000/svg" xmlns:xlink="http://www.w3.org/1999/xlink" x="0px" y="0px"
	 viewBox="0 0 726.3 840.8" style="enable-background:new 0 0 726.3 840.8;" xml:space="preserve">
<style type="text/css">
	.st0{fill:#F8F2DE;}
	.st1{fill:#C8E0DA;}
	.st2{fill:#2E1F22;}
	.st3{fill:#EF8615;}
	.st4{fill:#F8F6F0;}
	.st5{fill:#F09466;}
	.st6{fill:#E42D31;}
	.st7{fill:#6EAF9F;}
	.st8{fill:#E86562;}
	.st9{opacity:0.19;}
	.st10{clip-path:url(#SVGID_00000058559891495443544850000009718795692964465803_);fill:#005577;}
	.st11{fill:#523940;}
	.st12{fill:#FDE79F;}
	.st13{opacity:0.3;}
	.st14{clip-path:url(#SVGID_00000147203682582797981010000005325547120300104375_);fill:#BB2326;}
	.st15{clip-path:url(#SVGID_00000034787784017991161280000010416456389015719869_);fill:#BB2326;}
	.st16{fill:#E68888;}
	.st17{fill:#F9B818;}
	.st18{fill:#60BFB2;}
	.st19{opacity:0.2;fill:#832B39;enable-background:new    ;}
	.st20{opacity:0.2;fill:#2D2B39;enable-background:new    ;}
	.st21{fill:#FFB533;}
	.st22{fill:#FFFFFF;}
	.st23{fill:#2D2B39;}
	.st24{fill:#FF7550;}
</style>
<g>
	<g>
		<path class="st0" d="M655.5,718.7c0,0-98.5,143.6-191.7,119.4c-93.2-24.3-71-49.4-109.7-69.8c-98.2-51.6-130.6,85.4-225-4.6
			C-3.6,637.3,166,514.2,101.6,507.5c-64.4-6.7-85.2-111.4-9.4-191.3s161.3-58.5,182.8-46.1c27.8,16.1,57.8,75.3,96.8,53.1
			c38.9-22.2,87.5-90.7,160.6-45.1c111,69.2-23,195.7,94.4,187.1C744.1,456.6,762.9,605.7,655.5,718.7"/>
		<path class="st1" d="M184.2,247H0c0,0,7.8-54.8,47.6-19.6c0,0-1.4-39.6,28.1-42s32.5,36.5,32.5,36.5s7.5-18,24.8-15.5
			c17.2,2.4,16.9,27.1,16.9,27.1s4.4-7.3,15-3.8C181.8,235.4,184.2,247,184.2,247"/>
		<path class="st1" d="M486.3,124.8H302.1c0,0,7.8-54.8,47.6-19.6c0,0-1.4-39.6,28.1-42s32.5,36.5,32.5,36.5s7.5-18,24.8-15.5
			c17.2,2.4,16.9,27.1,16.9,27.1s4.4-7.3,15-3.8C483.9,113.2,486.3,124.8,486.3,124.8"/>
		<path class="st2" d="M495.7,528.9c-0.3-0.1-0.5-0.2-0.6-0.5c-0.3-0.5-0.2-1.2,0.4-1.6c41.5-25.9,39.2-61.5,34.2-80.4
			c-2.1-7.8-5.2-14.9-8.8-21c-10.3,3.3-20.8,3-26.8-1.5c-4.3-3.2-5.5-8.1-3.4-14c1.6-4.4,4.6-6.7,8.5-6.5
			c6.5,0.3,15.4,7.6,22.7,19.2c3.9-1.4,7.8-3.4,11.4-6c9-6.5,22.6-21.8,12.8-50.6c-11.4-33.2-4.8-57.5,2.8-71.9
			c8.2-15.7,18.9-23.4,19.4-23.8s1.2-0.2,1.6,0.3c0.4,0.5,0.2,1.2-0.3,1.6c-0.4,0.3-42.5,31.1-21.3,93.1
			c10.3,30.3-4.1,46.3-13.6,53.2c-3.6,2.6-7.5,4.7-11.6,6.2c3.6,6.1,6.6,13.3,8.7,21.2c4.2,15.7,9.1,55.3-35.2,82.9
			C496.3,529,496,529,495.7,528.9 M501.4,406.2c-0.8-0.2-1.6-0.4-2.3-0.4c-2.9-0.1-5,1.6-6.3,5c-1.7,4.9-0.8,8.8,2.6,11.4
			c4.8,3.6,14.3,4.3,24.2,1.3C513.8,414.2,507,407.8,501.4,406.2"/>
		<path class="st3" d="M653.1,275.6c-16.7,56-70.9,89.3-121.2,74.4c-50.3-14.9-77.5-72.3-60.8-128.3s70.9-89.3,121.2-74.4
			C642.6,162.1,669.8,219.6,653.1,275.6"/>
		<path class="st3" d="M542,344.4c0,0-9.6,20.9-7.1,24c2.4,3.1,16.7,3,21-3.5C560.2,358.5,542.8,336,542,344.4"/>
		<path class="st4" d="M613.2,173.2c0,0,37.4,26.1,29.3,60.9c-1.4,5.8-18.4-26.2-43.9-48.5C554.3,147,594.6,159,613.2,173.2"/>
		<path class="st5" d="M383.5,549.8c0,0-29.4,21.8-46.7,64.1c-17.3,42.3-9.3,100.9-9.3,100.9s-28.1-3.1-21.8-0.3
			c6.3,2.8,35.3,8.6,35.3,8.6s35.7-99.5,62.1-119.5L383.5,549.8z"/>
		<path class="st6" d="M350.1,704.7L324,700l-0.9,5.6c0,0-19.8,0.7-23.9,9.4l46.2,9.8L350.1,704.7z"/>
		<path class="st5" d="M333.1,533c0,0-36.6-1.5-76.8,20.5c-40.2,22.1-70.9,72.7-70.9,72.7s-19.9-20-16.8-13.9
			c3.2,6.2,22,28.8,22,28.8s90.5-55,123.7-54L333.1,533z"/>
		<path class="st6" d="M209.4,632.4l-17.3-20l-4.3,3.8c0,0-15.8-11.9-24.6-7.7l29.8,36.6L209.4,632.4z"/>
		<path class="st3" d="M253.1,549.6c0,0,35.9-30.1,50-31.3c0,0,116.2,28.5,138,24.1c0,0-13.7,60.6-49.8,87.2c0,0-48.5-8-67.1-17.3
			c0,0,1.9-24.3,8.8-37c4.1-3.3-18.2,10.5-39.8,30.7C293.2,606.1,258.1,570.3,253.1,549.6"/>
		<path class="st2" d="M336.6,570c-0.1,0-0.2,0.1-0.3,0.1c-0.4,0.1-0.8-0.2-1-0.6c-0.2-0.4-4.5-10.9,1.4-17.9
			c0.3-0.4,0.9-0.4,1.3-0.1c0.4,0.3,0.4,0.9,0.1,1.3c-3.5,4.2-2.8,10-1.9,13.3c2.2-4.8,7.6-10.7,7.9-11c0.3-0.4,0.9-0.4,1.3-0.1
			c0.4,0.3,0.4,0.9,0.1,1.3c-2.2,2.4-8.1,9.5-8.3,12.9C337.1,569.6,336.9,569.8,336.6,570"/>
		<path class="st2" d="M297.6,598.6c-0.3,0.2-0.7,0.1-1-0.1c-40.5-33.2-35.1-51.7-34.9-52.5c0.2-0.5,0.7-0.7,1.2-0.6
			c0.5,0.2,0.7,0.7,0.6,1.1c-0.1,0.2-5,18.3,34.3,50.5c0.4,0.3,0.4,0.9,0.1,1.3C297.8,598.5,297.7,598.6,297.6,598.6"/>
		<path class="st2" d="M394.2,623.2c-0.1,0.1-0.2,0.1-0.4,0.1c-27.8,1.8-65.4-15.3-65.8-15.5c-0.5-0.2-0.7-0.8-0.5-1.2
			c0.2-0.5,0.8-0.7,1.2-0.5c0.4,0.2,37.5,17.1,64.9,15.3c0.5,0,0.9,0.4,1,0.9C394.8,622.7,394.6,623,394.2,623.2"/>
		<path class="st2" d="M384.1,629.1c-0.3,0.2-0.8,0.1-1-0.2c-0.4-0.3-0.4-0.9,0-1.3c0.3-0.3,29.6-31.3,36.1-64.8
			c0.1-0.5,0.6-0.8,1.1-0.7s0.8,0.6,0.7,1.1c-6.7,34-36.3,65.4-36.6,65.7C384.2,629,384.2,629.1,384.1,629.1"/>
		<path class="st2" d="M404.2,600c-0.2,0.1-0.5,0.1-0.8,0c-22.5-10.5-20.4-31.1-20.3-31.3c0.1-0.5,0.5-0.9,1-0.8
			c0.5,0.1,0.9,0.5,0.8,1c-0.1,0.8-2,19.5,19.3,29.5c0.5,0.2,0.7,0.8,0.4,1.2C404.5,599.7,404.4,599.9,404.2,600"/>
		<path class="st2" d="M282.1,265.7c0,0-0.6-62.8,73.6-77.6c74.3-14.7,111.1,32,111.7,90.8c0.8,71.6-61.8,103.9-129,87.2
			C271.4,349.4,282.1,265.7,282.1,265.7"/>
		<path class="st7" d="M436.3,578.8c0,0-116.3-15.9-151.6-53.2c0,0,25.8-98.7,30.5-130.1c0,0,86-7.3,126.7-15.7
			C441.9,379.9,495.8,460.4,436.3,578.8"/>
		<path class="st5" d="M214.3,350c0,0,6.1-17.8,3.9-19c-2.1-1.2-9.4,12.5-9.4,12.5s0.3-25.6-3.5-25.2s-5.3,18.8-5.3,18.8
			s-6.6-24.2-8.9-21.2c-2.3,2.9,0.8,23.1,0.8,23.1s-7.8-17.2-12-13.6c-4.3,3.6,10.4,21,10.4,21s-8.8-8.6-11.7-4.9
			c-2.9,3.7,15.7,15.6,15.7,15.6s-0.1,79.2,105.7,89.3l11.6-49.2C311.7,397.2,225.5,390.5,214.3,350"/>
		<path class="st2" d="M204.2,351.9c-0.1,0-0.1,0.1-0.2,0.1c-0.5,0.1-1-0.2-1.1-0.7c0-0.2-1-5.1,5.6-8.6c0.5-0.3,1-0.1,1.2,0.4
			c0.2,0.4,0.1,1-0.4,1.2c-5.4,2.9-4.7,6.5-4.7,6.6C204.8,351.4,204.6,351.8,204.2,351.9"/>
		<path class="st5" d="M556.1,462.4c0,0-2.6,18.6-0.3,19.4c2.3,0.8,6.8-14.1,6.8-14.1s4.6,25.2,8.2,24.1c3.6-1.1,1.6-19.5,1.6-19.5
			s11.1,22.5,12.8,19.2S580,469,580,469s10.9,15.4,14.4,11.1c3.5-4.4-14.2-18.7-14.2-18.7s10.3,6.8,12.4,2.5
			c2.1-4.2-18.4-12.4-18.4-12.4s-14.9-77.8-120.7-67.7l-2.1,50.6C451.6,434.4,537.4,424.7,556.1,462.4"/>
		<path class="st5" d="M445.5,279c0,0-23.5-77.2-102.4-59.2c-50.9,11.6-88.5,98.4-22,143.8C373.1,399.1,460.4,344.8,445.5,279"/>
		<path class="st5" d="M393,351.4l4.2,35l12.5-0.5c0,0-11.6,33-40.1,25.4c-22.6-6-19-19-19-19l11.5-1.2l4.4-31.7L393,351.4z"/>
		<path class="st2" d="M345.8,340.1c-0.3,0.1-0.5,0.2-0.8,0.4c-2.4,1-4.9,0.9-7.3-0.1c-11.1-4.9-11.4-18.9-11.4-19.5
			c0-0.5,0.4-0.9,0.9-0.9s0.9,0.4,0.9,0.9c0,0.1,0.4,13.4,10.3,17.8c2,0.9,3.9,0.9,5.9,0.1c6.7-2.7,11.4-13.9,11.4-14
			c0.2-0.5,0.7-0.7,1.2-0.5s0.7,0.7,0.5,1.2C357.3,325.9,352.8,336.6,345.8,340.1"/>
		<path class="st8" d="M374.7,324.6c-4.5,7.8-1.9,17.8,5.9,22.3c7.8,4.5,17.8,1.9,22.3-5.9c4.5-7.8,1.9-17.8-5.9-22.3
			C389.2,314.2,379.2,316.8,374.7,324.6"/>
		<path class="st8" d="M292.9,305.8c-4.5,7.8-1.9,17.8,5.9,22.3c7.8,4.5,17.8,1.9,22.3-5.9s1.9-17.8-5.9-22.3
			C307.4,295.3,297.4,298,292.9,305.8"/>
		<path class="st2" d="M370.2,299.7c-2.3,3.9-0.9,9,3,11.3c4,2.3,9,0.9,11.3-3s0.9-9-3-11.3C377.5,294.4,372.5,295.7,370.2,299.7"/>
		<path class="st2" d="M314.1,285.2c-2.3,3.9-0.9,9,3,11.3c4,2.3,9,0.9,11.3-3s0.9-9-3-11.3C321.5,280,316.4,281.3,314.1,285.2"/>
		<path class="st8" d="M364.4,374.6c0,0,15.2,1.5,31-8.1l0.8,13l-33,4.2L364.4,374.6z"/>
		<path class="st5" d="M420.5,330.2c0,0,18.7-32.2,30.8-9c15,28.8-15.2,36.8-28.3,33.4C409.8,351.3,420.5,330.2,420.5,330.2"/>
		<path class="st2" d="M428.1,346.8c-0.2,0.1-0.5,0.1-0.7,0c-0.5-0.2-0.7-0.7-0.5-1.2c4.7-12.5,9.9-19.6,15.3-21
			c3.4-0.9,5.5,0.8,5.6,0.9c0.4,0.3,0.4,0.9,0.1,1.3c-0.3,0.4-0.9,0.4-1.3,0.1c-0.1-0.1-1.6-1.2-4-0.5c-3.3,0.9-8.4,5.1-14,19.9
			C428.4,346.5,428.3,346.7,428.1,346.8"/>
		<path class="st2" d="M339.6,323.3c-0.4,0.2-1,0.1-1.2-0.4l-8.7-15.4c-0.2-0.3-0.1-0.8,0.1-1.1c0.3-0.3,0.7-0.4,1-0.2l11.9,5.3
			l4.9-14c0.2-0.5,0.7-0.7,1.2-0.6c0.5,0.2,0.7,0.7,0.6,1.2l-5.3,14.9c-0.1,0.2-0.3,0.4-0.5,0.5s-0.5,0.1-0.7,0l-10.3-4.5l7.3,13
			C340.3,322.5,340.1,323,339.6,323.3C339.7,323.3,339.7,323.3,339.6,323.3"/>
		<path class="st2" d="M287.2,262.2c0,0,39,22.3,54.3,12.3s16.2-41.1,16.2-41.1s-6.7,32.7,4,45.2c10.7,12.4,62.6,19.6,73.2,10
			c10.6-9.6,25.5-90.3-48.1-96.6C312,185.5,289,249.7,287.2,262.2"/>
		<path class="st2" d="M425.3,269.2c0,0,12.6,25.3,5,58.6c-1.9,8.5,36.4-38.8,27.3-54.4C449.5,259.5,437.3,245.4,425.3,269.2"/>
		<path class="st2" d="M459.2,254.1c0,0,38.5-27.1,63.6-7s12.8,80.7,12.8,80.7S474.5,312.4,459.2,254.1"/>
		<path class="st7" d="M244.9,433.8c0,0,16.2-42.9,16.5-46.8c0.3-3.9,78.4,6.7,86.5,6.2c0,0-26.9,58.2-33.8,65
			C307.2,465,242.4,440.4,244.9,433.8"/>
		<path class="st7" d="M409.7,385.8c0,0,49.7-15.2,95.1-0.8c0,0,1.9,53.9,1.2,59.4c0,0-66,1.2-85.9,12.4L409.7,385.8z"/>
		<path class="st2" d="M459.5,440.3c-0.1,0-0.2,0.1-0.3,0.1c-0.5,0.1-1-0.3-1-0.8c-4.8-37.4-23-51.8-23.2-51.9
			c-0.4-0.3-0.5-0.9-0.2-1.3c0.3-0.4,0.9-0.5,1.3-0.2c0.8,0.6,18.9,14.9,23.9,53.1C460.1,439.8,459.9,440.1,459.5,440.3"/>
		<path class="st2" d="M303.5,453.3c-0.2,0.1-0.4,0.1-0.6,0.1c-0.5-0.1-0.8-0.6-0.7-1.1c0.3-1.9,8.6-46.2,22.3-56.4
			c0.4-0.3,1-0.2,1.3,0.2s0.2,1-0.2,1.3c-13.2,9.7-21.5,54.8-21.6,55.2C303.9,452.9,303.7,453.2,303.5,453.3"/>
		<path class="st2" d="M391,419.3c-4,2-8.2,3.1-12.6,2.6c-17.4-1.9-28.1-14.3-28.5-14.8c-0.3-0.4-0.3-1,0.1-1.3
			c0.4-0.3,1-0.3,1.3,0.1c0.1,0.1,10.6,12.4,27.3,14.2c16.5,1.8,32-21.5,32.1-21.8c0.3-0.4,0.8-0.5,1.3-0.3c0.4,0.3,0.5,0.8,0.3,1.3
			C411.8,400.1,402.9,413.5,391,419.3"/>
		<g class="st9">
			<g>
				<g>
					<defs>
						<rect id="SVGID_1_" x="298.8" y="505.3" width="140.9" height="62.7"/>
					</defs>
					<clipPath id="SVGID_00000126306799853708919450000016150111520664402311_">
						<use xlink:href="#SVGID_1_"  style="overflow:visible;"/>
					</clipPath>
					<path style="clip-path:url(#SVGID_00000126306799853708919450000016150111520664402311_);fill:#005577;" d="M304.2,505.3
						c0,0,15.5,13.8,55.6,23.5c40.1,9.7,80,0.5,80,0.5L426.2,568c0,0-78.9-4.5-127.3-42.8C298.9,525.2,301.3,510.1,304.2,505.3"/>
				</g>
			</g>
		</g>
		<path class="st11" d="M397,279.8c-0.5,0.3-1.2,0.1-1.5-0.4c-20.7-35.7-20.7-66.6-20.7-66.9c0-0.6,0.5-1.1,1.1-1.1s1.1,0.5,1.1,1.1
			c0,0.3,0.1,30.6,20.4,65.8C397.8,278.8,397.6,279.5,397,279.8L397,279.8"/>
		<path class="st11" d="M429.5,280.1c-0.1,0.1-0.3,0.1-0.4,0.1c-0.6,0-1.2-0.4-1.2-1c-1.9-29.5-13.2-47.2-22.3-56.9
			c-9.9-10.4-19.4-13.9-19.4-14c-0.6-0.2-0.9-0.8-0.7-1.4s0.9-0.9,1.4-0.7c0.4,0.1,39.6,14.9,43.3,72.8
			C430.1,279.5,429.9,279.9,429.5,280.1"/>
		<path class="st11" d="M502.5,293.3c-0.5,0.3-1.2,0-1.5-0.5c-13-26.5-30.2-28.5-30.3-28.5c-0.6-0.1-1.1-0.6-1-1.2s0.6-1.1,1.2-1
			c0.8,0.1,18.6,2.1,32.1,29.7C503.2,292.4,503,293.1,502.5,293.3"/>
		<path class="st11" d="M506.4,280.5c-0.5,0.3-1.2,0.1-1.5-0.4c-0.2-0.3-15.7-25.4-34.6-21c-0.4,0.1-0.8,0-1.1-0.4
			c-0.3-0.3-0.3-0.8-0.2-1.2c0.1-0.3,3-6.7,10.6-8.5c7.5-1.8,16.5,1.6,27,10c0.5,0.4,0.6,1.1,0.2,1.6c-0.4,0.5-1.1,0.6-1.6,0.2
			c-9.9-8-18.3-11.2-25-9.6c-4,0.9-6.5,3.5-7.8,5.3c19.3-2.3,33.9,21.4,34.5,22.4C507.1,279.4,507,280.1,506.4,280.5
			C506.4,280.4,506.4,280.5,506.4,280.5"/>
		<path class="st11" d="M303.4,253.4c-0.3,0.2-0.7,0.2-1,0c-0.5-0.3-0.7-1-0.5-1.5c1-1.9,24.8-45.5,58.2-47.2c0.6,0,1.1,0.4,1.2,1.1
			c0,0.6-0.4,1.1-1.1,1.2c-32.1,1.7-56.1,45.6-56.4,46C303.7,253.1,303.6,253.3,303.4,253.4"/>
		<path class="st11" d="M333.4,265c-0.3,0.1-0.6,0.2-0.9,0.1c-0.6-0.2-0.9-0.8-0.7-1.4c0.7-1.9,16.9-47.5,33-55.5
			c0.7-0.3,1.3-0.1,1.6,0.5s0,1.2-0.5,1.5l0,0c0,0,0,0-0.1,0c-15.3,7.5-31.7,53.8-31.9,54.2C333.9,264.7,333.7,264.9,333.4,265"/>
		<path class="st6" d="M120.3,412.3c-1.4,8.3-0.6,18.1-10.7,30.3c-1.9,2.3-2.1,5.7-0.1,8c2.2,2.6,6,2.9,8.6,0.8
			c12.4-10.2,22.3-9.4,30.7-10.8c4.7-0.8,9.1-3.1,12.5-6.5l128.6-128.2c8.6-8.6-25.9-43-34.5-34.4L126.9,399.7
			C123.4,403.1,121.2,407.5,120.3,412.3"/>
		<path class="st7" d="M279.8,316L173.4,422.2c8.6-8.5-25.9-43-34.5-34.4l106.5-106.2C253.9,273,288.4,307.4,279.8,316"/>
		<path class="st12" d="M192.2,403.4l-9.4,9.4c8.6-8.5-25.9-43-34.5-34.4l9.4-9.4C166.3,360.4,200.8,394.8,192.2,403.4"/>
		<path class="st12" d="M270.4,325.4l-9.4,9.4c8.6-8.6-25.9-43-34.5-34.4l9.4-9.4C244.5,282.4,279,316.8,270.4,325.4"/>
		<g class="st13">
			<g>
				<g>
					<defs>
						<rect id="SVGID_00000020384387112482075230000014319755719054188942_" x="109.5" y="399.5" width="52.5" height="53.3"/>
					</defs>
					<clipPath id="SVGID_00000126288069587056022890000010106031046917217962_">
						<use xlink:href="#SVGID_00000020384387112482075230000014319755719054188942_"  style="overflow:visible;"/>
					</clipPath>
					<path style="clip-path:url(#SVGID_00000126288069587056022890000010106031046917217962_);fill:#BB2326;" d="M161.4,434.1
						c-3.4,3.4-7.8,5.7-12.5,6.5c-8.4,1.4-18.3,0.6-30.7,10.8c-2.6,2.1-6.4,1.8-8.6-0.8c0,0,40.1-23,29.7-51.1
						C139.3,399.5,166.5,417.2,161.4,434.1"/>
				</g>
			</g>
		</g>
		<g class="st13">
			<g>
				<g>
					<defs>
						<rect id="SVGID_00000160912846561315527610000015111498339042302648_" x="156.1" y="287.6" width="135.2" height="146.5"/>
					</defs>
					<clipPath id="SVGID_00000175300970887256736720000011173619335108664477_">
						<use xlink:href="#SVGID_00000160912846561315527610000015111498339042302648_"  style="overflow:visible;"/>
					</clipPath>
					<path style="clip-path:url(#SVGID_00000175300970887256736720000011173619335108664477_);fill:#BB2326;" d="M283.9,287.6
						c6,7.3,9.5,14.9,6,18.3L161.4,434.1c2-6.6-0.9-13.3-5.3-19.1L283.9,287.6z"/>
				</g>
			</g>
		</g>
		<path class="st12" d="M232.3,316.1c4.2,4.2-3.2,18.3-16.5,31.6s-27.5,20.6-31.7,16.4c-4.2-4.2,3.2-18.3,16.5-31.6
			C213.9,319.2,228.1,311.9,232.3,316.1"/>
		<path class="st16" d="M128.3,540.5c-12.7-10.8-35.9-15.4-50.8-17.1c-0.6-0.1-1.1,0-1.5,0.1c-2-0.2-3.7,0.5-4.8,1.6
			c-1.4,1.3-2.1,3.2-1.8,5.4c-0.1,0.4-0.1,0.9,0,1.5c2.6,14.7,8.5,37.5,20.1,49.6c9.3,9.7,15.2-0.6,12.4-10
			c-0.7-2.2-1.4-4.4-2.2-6.6c5.1-4,10.6-7.9,14.6-12.9c1.6,0.4,3.2,0.9,4.8,1.3C128.6,555.7,138.5,549.2,128.3,540.5 M87.1,540.2
			c5.4,1.7,10.7,3.5,16.1,5.2c-3.4,3.2-6.9,6.4-10.3,9.6C91,550.1,89,545.1,87.1,540.2"/>
		<path class="st7" d="M166.3,489.5c3.6-6,3.5-13.2-4.6-17.8c-6.4-3.6-15-3.8-22-1.9c-2.8,0.8-7.7,2.4-9.6,5
			c-1.6,0.6-2.5,1.5-2.9,2.6c-0.4,0.5-0.6,1-0.6,1.7c-0.1,7,4.8,14.7,7.8,20.9c3.7,7.7,7.6,16.3,13.2,22.8c3,3.5,7.5,7.7,12.6,7
			c1.9-0.3,2.7-0.9,3.3-1.6c4.9-1.9,9.8-6.7,12.3-10c4.6-4.5,7.8-10.3,7.1-16.2C181.9,493.7,173.9,489.8,166.3,489.5 M148.6,480.2
			c2.4,0,6.8,0.6,7.7,3.1l-2.5,5c-1.2,0.6-2.6,1-3.6,1.6c-0.4,0.2-0.8,0.5-1.2,0.7c-2.1-3.1-4.2-6.3-6.3-9.3
			C144.5,480.7,146.4,480.2,148.6,480.2 M172.7,507.7c-0.1,0.2-0.3,0.4-0.4,0.6c-1.6,3.2-4.9,5.4-8.4,5.8c-1.9-3.1-3.8-6.1-5.7-9.2
			c2.9-0.9,5.9-2.1,8.7-1.8C170.6,503.4,172.3,505.3,172.7,507.7"/>
		<path class="st6" d="M106.3,479.8c-2.2-1-4.7-0.8-7,0c-2.1,0.7-3.8,2.2-5.7,3.2c-5.4,2.9-11.7-0.9-7.7-6.7c5-2.1,10-4.3,11.1-8.7
			c0.7-2.8-0.1-5.3-1.7-7.2c-0.6-3.8-3-6.9-8.3-8.5c-11.7-3.4-23.2,8.3-27.8,17.8c-1.5,3.1-2.4,6.7-2.6,10.4
			c-3.2,10.1,2.7,20.3,12.5,24.9c8.2,3.8,17.4,3.6,25.4,0.3c5.2-1.6,10-4.6,13.4-8.6C112.2,491.7,113.3,483,106.3,479.8"/>
	</g>
	<g>
		<polygon class="st17" points="119.3,681.9 135.6,690.7 131.2,699.2 112.4,686.1 		"/>
		<polygon class="st17" points="509.9,652.1 526.3,660.9 521.8,669.4 503,656.3 		"/>
		<polygon class="st17" points="173.2,0 189.5,8.8 185,17.3 166.3,4.2 		"/>
		<polygon class="st17" points="134.5,181.9 119,192.1 113.6,184.2 134,173.8 		"/>
		<polygon class="st17" points="605.8,573 589.4,564.3 593.7,555.8 612.7,568.6 		"/>
		<polygon class="st17" points="578.3,324.2 571.9,306.8 580.9,303.4 586.3,325.6 		"/>
		<polygon class="st17" points="188.4,164.7 182.1,147.3 191,143.9 196.4,166 		"/>
	</g>
	<g>
		<g>
			<g>
				<path class="st18" d="M49.2,217.8c1.7-6.6,80.8-46,80.8-46l21.3-44l10-20.7l0.9-1.9l27.7,11l-2.5,6l-8.4,20.1l-18,42.8
					c0,0,29.3,79.1,22,88.9C175.8,283.8,47.6,224.3,49.2,217.8z"/>
			</g>
			<polygon class="st19" points="179.1,142.3 151.4,127.8 161.4,107.1 187.5,122.2 			"/>
			<path class="st18" d="M148.6,105.1c-6.8,16.2,47.3,37.7,52.4,23.3C206.1,114,156.1,87.4,148.6,105.1z"/>
			<path class="st20" d="M172.6,262.6c-3.3,2.9-103-43.1-100.7-45.7c0.9-0.9,9.1-6.4,19.2-13c17.8-11.6,41.5-26.6,41.5-26.6
				l22.2,11.2c0,0,4.9,18.2,9.3,34C169.3,240.8,174.4,261,172.6,262.6z"/>
			<path class="st21" d="M172.6,262.6c-3.3,2.9-103-43.1-100.7-45.7c0.9-0.9,9.1-6.4,19.2-13c4.5,6,13.2,14.4,27.7,17.7
				c13.7,3.1,29.8-0.6,45.2,0.9C169.3,240.8,174.4,261,172.6,262.6z"/>
			<path class="st21" d="M145.7,210.8c-1.6,1.1-3.8,0.7-4.9-0.9s-0.7-3.8,0.9-4.9s3.8-0.7,4.9,0.9S147.3,209.7,145.7,210.8z"/>
			<path class="st21" d="M126.3,212.6c-2.1,1.4-4.9,0.9-6.3-1.1c-1.4-2.1-0.9-4.9,1.1-6.3c2.1-1.4,4.9-0.9,6.3,1.1
				C128.9,208.3,128.4,211.1,126.3,212.6z"/>
			<path class="st21" d="M136.2,197.1c-1.6,1.1-3.8,0.7-4.9-0.9s-0.7-3.8,0.9-4.9s3.8-0.7,4.9,0.9
				C138.2,193.9,137.8,196,136.2,197.1z"/>
			<path class="st22" d="M174,113.2c-0.8,4.2,15.6,14.9,18.2,10C194.9,118.4,174.8,109.1,174,113.2z"/>
		</g>
		<path class="st23" d="M146.4,243.7c-0.6-0.6-0.8-1.4-0.5-2.2c0.4-1.1,1.6-1.6,2.6-1.2l23.6,8.9c1.1,0.4,1.6,1.6,1.2,2.6
			c-0.4,1.1-1.6,1.6-2.6,1.2l-23.6-8.9C146.9,244,146.6,243.8,146.4,243.7z"/>
		<path class="st23" d="M150,231.6c-0.6-0.6-0.8-1.4-0.5-2.2c0.4-1.1,1.6-1.6,2.7-1.1l16.6,6.6c1.1,0.4,1.6,1.6,1.1,2.7
			c-0.4,1.1-1.6,1.6-2.7,1.1l-16.6-6.6C150.4,231.9,150.2,231.8,150,231.6z"/>
		<path class="st23" d="M150.6,218.5c-0.6-0.6-0.8-1.5-0.5-2.3c0.5-1,1.7-1.5,2.7-1l12.2,5.4c1,0.5,1.5,1.7,1,2.7s-1.7,1.5-2.7,1
			l-12.2-5.4C150.9,218.8,150.7,218.7,150.6,218.5z"/>
	</g>
	<g>
		<path class="st24" d="M251.4,85.8c2.8,1,4.8,8.4,6.1,15.6c1.3,7.1,2,13.9,2,13.9l-2.9,9.9l-1.7,5.7l-2.6,8.9l-2,6.8L229,218.5
			c-1.1,3.5-4.9,5.3-8.2,3.9l-8.3-3.5l-9.2-3.8c-2.8-1.2-4.4-4.3-3.5-7.2l19.6-72.7l1.7-6.5l2-7.4l1.3-4.9l1.8-6.7
			C226,109.6,245.9,83.8,251.4,85.8z"/>
		<path class="st20" d="M226,109.6l33.5,5.7l-2.9,9.9l-1.7,5.7l-2.6,8.9l-2,6.8L229,218.5c-1.1,3.5-4.9,5.3-8.2,3.9l-8.3-3.5
			l-9.2-3.8c-2.8-1.2-4.4-4.3-3.5-7.2l19.6-72.7l1.7-6.5l2-7.4l1.3-4.9L226,109.6z"/>
		<polygon class="st22" points="252.2,139.8 250.2,146.6 219.1,135.1 220.9,128.6 		"/>
		<path class="st20" d="M257.5,101.4c1.3,7.1,2,13.9,2,13.9l-3,10l-1.7,5.7l-2.6,8.9l-2,6.8l-21.3,71.9c-1,3.5-4.9,5.3-8.2,3.9
			l-8.4-3.5C221.8,196.9,248.4,133.9,257.5,101.4z"/>
	</g>
</g>
</svg>
